<svg width="1440" height="2100" viewBox="0 0 1440 2100" fill="none" xmlns="http://www.w3.org/2000/svg">
<g clip-path="url(#clip0_1063_8)">
<rect width="1440" height="2100" fill="#FEFAE0"/>
<rect x="-33" y="-6" width="1512.08" height="1735" fill="#1B1836"/>
<ellipse cx="477.275" cy="419" rx="356.353" ry="342" fill="#3B3760"/>
<ellipse cx="998.294" cy="421" rx="356.353" ry="342" fill="#3B3760"/>
<path fill-rule="evenodd" clip-rule="evenodd" d="M-33 1757H1484.18C1484.18 1757 1455.56 1542.18 1423.73 1406.72C1377.45 1209.77 1345.67 1098.85 1261.34 912.199C1246.84 880.106 1235.27 850.762 1224.38 823.133C1193.41 744.569 1155.46 694.323 1083.55 619.693C1038.39 572.832 1018.15 545.215 959.684 512.055C901.733 479.187 870.256 449.008 802.632 438.286C747.944 429.615 712.243 424.146 656.841 427.72C589.024 432.094 569.862 443.74 507.494 467.883C423.521 500.389 385.509 541.372 328.515 605.239C247.449 696.08 201.542 765.042 152.499 872.574C80.0436 1031.44 60.7872 1140.85 35.2741 1285.81C28.6839 1323.25 21.6763 1363.06 13.2265 1406.72C-13.0471 1542.45 -33 1757 -33 1757Z" fill="url(#paint0_linear_1063_8)"/>
<path d="M669 370H713V436H669V370Z" fill="#FEFAE0"/>
<path d="M718 373.5H780V436H718V373.5Z" fill="#FEFAE0"/>
<path d="M692.5 340L713 370H668.5L692.5 340Z" fill="#FEFAE0"/>
<path d="M763.441 340L779.647 370H746L754.441 340H763.441Z" fill="#FEFAE0"/>
<rect x="737" y="323" width="11.2157" height="20" fill="#FEFAE0"/>
<path d="M717.695 370L696 340H732.137L723.695 370H717.695Z" fill="#FEFAE0"/>
<rect x="718" y="340" width="37.7255" height="30" fill="#FEFAE0"/>
<rect x="684" y="388" width="5.09804" height="5" fill="#3B3760"/>
<rect x="684" y="395" width="5.09804" height="5" fill="#3B3760"/>
<rect x="691" y="388" width="5" height="5" fill="#3B3760"/>
<rect x="691" y="395" width="5" height="5" fill="#3B3760"/>
<path d="M222.883 549V552" stroke="white" stroke-width="3" stroke-linecap="round"/>
<path d="M320.764 471H315.666" stroke="white" stroke-width="3" stroke-linecap="round"/>
<path d="M419.665 354C419.665 358.575 419.841 359.149 416.607 361" stroke="white" stroke-width="3" stroke-linecap="round"/>
<path d="M507.352 289V286" stroke="white" stroke-width="3" stroke-linecap="round"/>
<path d="M149.471 282C152.289 282.461 151.497 283.298 152.53 286" stroke="white" stroke-width="3" stroke-linecap="round"/>
<path d="M619.51 221C619.154 224.44 618.201 222.765 617.471 221" stroke="white" stroke-width="3" stroke-linecap="round"/>
<path d="M690.709 178.184L687.679 179.002" stroke="white" stroke-width="3" stroke-linecap="round"/>
<path d="M796.108 246.38L794.963 242.531" stroke="white" stroke-width="3" stroke-linecap="round"/>
<path d="M941.464 305.855C936.844 307.103 936.313 307.426 933.536 304.88" stroke="white" stroke-width="3" stroke-linecap="round"/>
<path d="M1030.88 367.977L1033.91 367.158" stroke="white" stroke-width="3" stroke-linecap="round"/>
<path d="M1130.19 452.368C1126.61 452.97 1128.04 451.614 1129.61 450.443" stroke="white" stroke-width="3" stroke-linecap="round"/>
<path d="M937.627 416V419" stroke="white" stroke-width="3" stroke-linecap="round"/>
<path d="M1031.43 240H1026.33" stroke="white" stroke-width="3" stroke-linecap="round"/>
<path d="M1120.14 92H1116.06" stroke="white" stroke-width="3" stroke-linecap="round"/>
<path d="M1256.77 323H1252.69" stroke="white" stroke-width="3" stroke-linecap="round"/>
<path d="M178.02 862H172.922" stroke="white" stroke-width="3" stroke-linecap="round"/>
<path d="M1354.65 908H1349.55" stroke="white" stroke-width="3" stroke-linecap="round"/>
<path d="M172.922 727H168.844" stroke="white" stroke-width="3" stroke-linecap="round"/>
<path d="M56.6859 603H52.6074" stroke="white" stroke-width="3" stroke-linecap="round"/>
<path d="M42.4124 389H38.334" stroke="white" stroke-width="3" stroke-linecap="round"/>
<path d="M11.8245 221H7.74609" stroke="white" stroke-width="3" stroke-linecap="round"/>
<path d="M52.6077 853H48.5293" stroke="white" stroke-width="3" stroke-linecap="round"/>
<path d="M1404.61 807H1400.53" stroke="white" stroke-width="3" stroke-linecap="round"/>
<path d="M1256.77 470H1252.69" stroke="white" stroke-width="3" stroke-linecap="round"/>
<path d="M1364.84 470H1360.77" stroke="white" stroke-width="3" stroke-linecap="round"/>
<path d="M1339.35 711H1335.27" stroke="white" stroke-width="3" stroke-linecap="round"/>
<path d="M1368.92 222H1364.84" stroke="white" stroke-width="3" stroke-linecap="round"/>
<path d="M1364.84 90H1360.77" stroke="white" stroke-width="3" stroke-linecap="round"/>
<path d="M1252.69 54H1248.61" stroke="white" stroke-width="3" stroke-linecap="round"/>
<path d="M243.274 172H239.195" stroke="white" stroke-width="3" stroke-linecap="round"/>
<path d="M768.373 54H764.295" stroke="white" stroke-width="3" stroke-linecap="round"/>
<path d="M1026.33 149H1022.25" stroke="white" stroke-width="3" stroke-linecap="round"/>
<path d="M191.273 418V421" stroke="white" stroke-width="3" stroke-linecap="round"/>
<path d="M289.157 340H285.078" stroke="white" stroke-width="3" stroke-linecap="round"/>
<path d="M388.057 223C388.057 227.575 388.233 228.149 385 230" stroke="white" stroke-width="3" stroke-linecap="round"/>
<path d="M475.746 158V155" stroke="white" stroke-width="3" stroke-linecap="round"/>
<path d="M117.863 151C120.682 151.461 119.889 152.298 120.922 155" stroke="white" stroke-width="3" stroke-linecap="round"/>
<path d="M587.902 90C587.547 93.4399 586.593 91.765 585.863 90" stroke="white" stroke-width="3" stroke-linecap="round"/>
<path d="M325.863 590V593" stroke="white" stroke-width="3" stroke-linecap="round"/>
<path d="M422.725 512H418.646" stroke="white" stroke-width="3" stroke-linecap="round"/>
<path d="M522.645 395C522.645 399.575 522.821 400.149 519.588 402" stroke="white" stroke-width="3" stroke-linecap="round"/>
<path d="M610.332 330V327" stroke="white" stroke-width="3" stroke-linecap="round"/>
<path d="M325.863 75C328.682 75.4607 327.889 76.2983 328.922 79" stroke="white" stroke-width="3" stroke-linecap="round"/>
<path d="M722.49 262C722.135 265.44 721.181 263.765 720.451 262" stroke="white" stroke-width="3" stroke-linecap="round"/>
<path d="M1134.41 221C1134.41 225.575 1134.58 226.149 1131.35 228" stroke="white" stroke-width="3" stroke-linecap="round"/>
<path d="M864.215 149C867.033 149.461 866.241 150.298 867.274 153" stroke="white" stroke-width="3" stroke-linecap="round"/>
<line x1="442.637" y1="573" x2="442.637" y2="-229" stroke="black" stroke-width="3"/>
<line x1="618.01" y1="603" x2="618.01" y2="-219" stroke="black" stroke-width="3"/>
<line x1="862.715" y1="590" x2="862.715" y2="-262" stroke="black" stroke-width="3"/>
<line x1="1061.54" y1="566" x2="1061.54" y2="-268" stroke="black" stroke-width="3"/>
<line x1="1170.64" y1="853" x2="1170.64" y2="-229" stroke="black" stroke-width="3"/>
<path d="M1181.79 882.401L1203.08 990.515L1174.7 995.585L1153.41 887.471L1075.26 901.438L1063.17 840.01L1247.84 807.006L1259.94 868.434L1181.79 882.401Z" fill="white"/>
<path d="M1093.79 510.324L1220.38 662.275L1192.06 667.623L1169.26 640.325L1047.76 663.269L1037.62 696.789L962.967 710.885L1019.14 524.421L1093.79 510.324ZM1085.09 539.237L1067.18 598.435L1125.35 587.449L1085.09 539.237Z" fill="white"/>
<line x1="387.02" y1="853.008" x2="387.02" y2="-257.995" stroke="black" stroke-width="3"/>
<path d="M420.383 570.042C418.972 577.928 417.279 584.416 415.304 589.506C413.328 594.595 411.357 598.671 409.389 601.733C407.392 604.959 405.456 607.35 403.58 608.905C401.503 610.597 399.859 611.851 398.648 612.669L482.98 626.363L491.358 579.539L420.736 568.071L420.383 570.042ZM309.4 598.177C314.229 598.961 318.63 598.661 322.605 597.278C326.377 596.03 329.796 593.289 332.861 589.052C335.926 584.816 338.738 579.017 341.298 571.656C343.685 564.266 345.907 554.821 347.965 543.32L356.74 494.277L530.837 522.548L511.436 630.984L539.892 635.605L523.136 729.254L494.68 724.633L500.413 692.595L322.693 663.737L316.961 695.774L288.505 691.154L305.261 597.504L309.4 598.177Z" fill="white"/>
<line x1="928.656" y1="790.006" x2="928.656" y2="-251.998" stroke="black" stroke-width="3"/>
<path d="M343.559 945.698C325.71 943.345 308.889 938.772 293.097 931.98C277.132 925.164 263.675 915.062 252.727 901.673L262.725 832.829C267.041 829.864 272.645 827.154 279.536 824.697C286.23 822.383 293.842 820.441 302.37 818.873C310.899 817.305 320.222 816.347 330.34 815.998C340.433 815.814 350.939 816.442 361.856 817.881L391.75 821.821L394.268 804.486L422.861 808.255L420.344 825.589L450.238 829.53C461.155 830.969 471.445 833.082 481.107 835.87C490.745 838.823 499.532 842.168 507.466 845.906C515.228 849.621 522 853.458 527.783 857.417C533.542 861.541 538.076 865.588 541.385 869.558L531.387 938.402C525.917 943.233 519.342 947.162 511.661 950.187C503.807 953.19 495.455 955.37 486.603 956.728C477.728 958.25 468.615 958.984 459.262 958.929C449.712 959.016 440.432 958.466 431.42 957.278L401.787 953.372L398.046 979.127L369.452 975.358L373.193 949.603L343.559 945.698ZM382.04 888.684L352.146 884.744C335.683 882.574 321.914 882.526 310.84 884.599C299.568 886.815 289.897 890.168 281.827 894.656C288.685 900.944 297.172 906.353 307.287 910.883C317.23 915.391 330.519 918.741 347.155 920.934L376.789 924.839L382.04 888.684ZM405.383 928.608L435.017 932.514C451.653 934.707 465.497 934.849 476.547 932.94C487.4 931.174 497.011 928.234 505.38 924.121C498.868 917.879 490.591 912.245 480.547 907.22C470.33 902.172 456.99 898.563 440.527 896.393L410.634 892.453L405.383 928.608Z" fill="white"/>
<line x1="666.613" y1="862.01" x2="666.613" y2="-257.995" stroke="black" stroke-width="3"/>
<path d="M773.971 824.005L778.596 883.843L609.531 895.703L610.629 909.915L701.181 903.563L702.916 926.002L612.363 932.354L613.577 948.062L782.643 936.202L787.268 996.04L589.414 1009.92L576.117 837.885L773.971 824.005Z" fill="white"/>
<path d="M1015.67 934.657C1003.98 938.928 989.883 942.063 973.382 944.06C956.881 946.058 937.96 945.74 916.62 943.107C901.352 941.223 887.467 938.25 874.965 934.187C862.441 930.288 851.308 925.89 841.566 920.991C831.65 916.07 823.353 910.929 816.672 905.567C809.796 900.349 804.459 895.489 800.661 890.987L815.592 781.154C820.272 777.866 826.579 774.947 834.511 772.397C842.444 769.846 851.806 767.808 862.597 766.283C873.193 764.901 885.11 764.186 898.347 764.139C911.388 764.236 925.456 765.215 940.55 767.077C961.543 769.667 979.916 773.363 995.67 778.163C1011.25 782.943 1024.3 788.166 1034.82 793.833L1025.62 861.518C1022.29 858.755 1017.94 855.697 1012.58 852.346C1007.21 848.995 1000.69 845.671 993.027 842.372C985.361 839.073 976.522 835.966 966.51 833.05C956.476 830.3 945.126 828.143 932.461 826.58C917.02 824.675 903.254 824.069 891.164 824.762C879.052 825.621 868.542 827.013 859.637 828.939C850.731 830.865 843.462 833.078 837.83 835.576C832.176 838.24 827.999 840.413 825.301 842.097C827.46 844.38 830.929 847.413 835.707 851.196C840.462 855.143 846.877 859.212 854.952 863.401C863.026 867.591 872.816 871.488 884.322 875.092C895.805 878.862 909.268 881.699 924.709 883.604C937.374 885.167 948.937 885.753 959.399 885.363C969.837 885.139 979.215 884.279 987.533 882.784C995.829 881.455 1003.03 879.739 1009.14 877.635C1015.22 875.697 1020.24 873.796 1024.2 871.931L1015.67 934.657Z" fill="white"/>
<path d="M664.966 543.692L805.826 683.781L778.155 691.611L752.789 666.45L634.054 700.049L627.22 734.322L554.268 754.965L592.014 564.335L664.966 543.692ZM659.125 573.25L647.063 633.777L703.915 617.689L659.125 573.25Z" fill="white"/>
<path d="M899.63 650.85C892.925 651.653 885.5 651.768 877.354 651.195C869.208 650.622 860.298 649.18 850.626 646.868C830.943 642.162 815.143 636.409 803.226 629.608C791.097 622.928 782.51 616.837 777.466 611.336L804.93 507.068L832.928 513.761L818.557 568.32C823.391 571.881 830.092 575.545 838.659 579.312C847.184 583.24 858.234 586.826 871.809 590.071C880.972 592.262 889.139 593.441 896.31 593.609C903.268 593.897 909.485 593.579 914.959 592.654L929.649 536.883L957.647 543.576L913.577 710.889L885.579 704.196L899.63 650.85Z" fill="white"/>
</g>
<defs>
<linearGradient id="paint0_linear_1063_8" x1="725.588" y1="377" x2="725.588" y2="1757" gradientUnits="userSpaceOnUse">
<stop offset="0.34" stop-color="#5D503F"/>
<stop offset="1" stop-color="#FEFAE0"/>
</linearGradient>
<clipPath id="clip0_1063_8">
<rect width="1440" height="2100" fill="white"/>
</clipPath>
</defs>
</svg>
