<svg width="5583" height="960" viewBox="0 0 5583 960" fill="none" xmlns="http://www.w3.org/2000/svg">
<path d="M0 230.996H5583V224.127H0V230.996Z" fill="black"/>
<path fill-rule="evenodd" clip-rule="evenodd" d="M3126.72 220.615L3035.8 541.194C3035.8 541.194 3144.01 565.035 3214.38 566.403C3285.28 567.782 3395.08 547.853 3395.08 547.853L3293.02 213.637C3293.02 213.637 3243.6 232.06 3210.91 233.557C3177.58 235.085 3126.72 220.615 3126.72 220.615Z" fill="#6A6734"/>
<path fill-rule="evenodd" clip-rule="evenodd" d="M4203.7 234.319C4203.7 234.319 4226.72 270.283 4249.36 271.606C4274.46 273.073 4301.32 232.042 4301.32 232.042L4369.94 253.097L4493.61 466.516L4439.32 514.316L4356.06 368.806L4403.66 640.053L4146.12 635.64L4181.51 367.175L4127.39 503.364L4069.85 485.71L4154.86 242.613L4203.7 234.319Z" fill="white"/>
<path d="M4304.8 233.564L4369.73 253.486L4431.09 358.855L4483.8 476.492L4448.31 508.575L4357.6 369.132L4304.8 233.564Z" fill="#D9D9D9"/>
<path fill-rule="evenodd" clip-rule="evenodd" d="M3137.13 289.277L3060.18 546.877C3060.18 546.877 3169.17 565.892 3239.55 566.14C3310.46 566.391 3377.35 550.781 3377.35 550.781L3277.15 291.202L3318 560.93L3277.59 564.884L3239.55 566.14L3207.95 297.901L3182.66 563.1L3117.26 555.58L3137.13 289.277Z" fill="#85824D"/>
<path d="M4338.54 380.115L4373.54 463.074L4403.94 637.131L4316.36 632.342L4338.54 380.115Z" fill="#D9D9D9"/>
<path d="M4169.12 461.8L4181.86 374.391L4250.72 615.159L4155.47 568.624L4169.12 461.8Z" fill="#D9D9D9"/>
<path d="M4331.24 199.656L4317.16 195.504L4302.82 249.095L4316.91 253.247L4331.24 199.656Z" fill="#1A1717"/>
<path d="M4167.86 202.373L4154.22 207.904L4173.89 259.631L4187.53 254.1L4167.86 202.373Z" fill="#1A1717"/>
<path d="M3281.89 177.904L3267.81 173.752L3249.4 242.568L3263.49 246.72L3281.89 177.904Z" fill="#1A1717"/>
<path d="M3151.56 173.751L3137.13 176.299L3149.68 251.032L3164.11 248.485L3151.56 173.751Z" fill="#1A1717"/>
<path fill-rule="evenodd" clip-rule="evenodd" d="M289.167 220.991L330.559 230.175L326.937 292.451C326.937 292.451 350.602 310.891 368.398 312.687C384.022 314.264 407.585 304.268 407.585 304.268L413.26 247.127L470.724 251.76L584.287 846.394C584.287 846.394 506.065 864.968 455.142 863.242C411.791 861.774 387.095 857.073 345.47 844.145C295.767 828.709 274.635 802.132 225.294 785.489C188.353 773.029 128.256 762.918 128.256 762.918L289.167 220.991Z" fill="#BC6C25"/>
<path fill-rule="evenodd" clip-rule="evenodd" d="M1359.08 228.468L1315.89 265.058C1315.89 265.058 1309.09 269.42 1304.91 272.46C1263.52 302.499 1231.13 381.698 1231.13 381.698L1293.47 426.434L1214.77 606.349L1483.49 674.686L1484.6 404.812L1558.66 386.831C1558.66 386.831 1556.33 314.168 1530.19 279.912C1512.96 257.333 1473.14 235.385 1473.14 235.385C1473.14 235.385 1461.67 268.535 1444.03 277.822C1424.86 287.91 1407.33 286.315 1388.53 275.037C1370.24 264.063 1359.08 228.468 1359.08 228.468Z" fill="#C9A87D"/>
<path fill-rule="evenodd" clip-rule="evenodd" d="M1429.19 283.393L1425.27 376.14L1370.02 645.829L1483.49 674.686L1484.6 404.812L1558.66 386.831C1558.66 386.831 1556.33 314.168 1530.19 279.912C1512.96 257.333 1473.14 235.385 1473.14 235.385C1473.14 235.385 1461.67 268.535 1444.03 277.822C1438.99 280.475 1434.06 282.32 1429.19 283.393Z" fill="#B09571"/>
<path d="M1341.62 180.858L1324.85 182.549L1342.04 254.135L1358.81 252.444L1341.62 180.858Z" fill="#1A1717"/>
<path d="M1535.83 188.842L1520.78 181.049L1478.87 253.907L1493.92 261.701L1535.83 188.842Z" fill="#1A1717"/>
<path d="M492.867 204.44L477.816 196.646L435.905 269.505L450.956 277.299L492.867 204.44Z" fill="#1A1717"/>
<path d="M296.37 171.458L279.602 173.148L296.792 244.734L313.561 243.044L296.37 171.458Z" fill="#1A1717"/>
<path fill-rule="evenodd" clip-rule="evenodd" d="M219.73 543.205C222.055 543.945 223.364 546.505 222.652 548.924L217.116 567.748C216.405 570.167 213.943 571.528 211.618 570.788C209.292 570.048 207.984 567.487 208.695 565.069L214.232 546.245C214.943 543.826 217.405 542.465 219.73 543.205Z" fill="#D8B280"/>
<path fill-rule="evenodd" clip-rule="evenodd" d="M299.675 569.388C302.001 570.128 303.309 572.689 302.598 575.108L297.061 593.932C296.35 596.35 293.888 597.711 291.563 596.971C289.238 596.232 287.929 593.671 288.641 591.252L294.177 572.428C294.888 570.01 297.35 568.649 299.675 569.388Z" fill="#D8B280"/>
<path fill-rule="evenodd" clip-rule="evenodd" d="M232.629 504.938C233.317 502.512 235.765 501.125 238.097 501.841L265.547 510.263C267.88 510.979 269.213 513.525 268.525 515.951C267.837 518.377 265.388 519.764 263.056 519.048L235.606 510.626C233.274 509.91 231.941 507.363 232.629 504.938Z" fill="#D8B280"/>
<path fill-rule="evenodd" clip-rule="evenodd" d="M329.411 317.717C330.505 315.458 333.153 314.55 335.324 315.688L352.529 324.705C354.701 325.843 355.574 328.597 354.48 330.856C353.386 333.114 350.738 334.023 348.567 332.885L331.362 323.867C329.19 322.729 328.317 319.976 329.411 317.717Z" fill="#D8B280"/>
<path fill-rule="evenodd" clip-rule="evenodd" d="M312.272 289.626C314.414 288.428 317.084 289.263 318.236 291.491L327.932 310.248C329.084 312.476 328.281 315.253 326.139 316.451C323.997 317.648 321.328 316.814 320.176 314.586L310.48 295.829C309.328 293.601 310.131 290.824 312.272 289.626Z" fill="#D8B280"/>
<path fill-rule="evenodd" clip-rule="evenodd" d="M315.046 259.369C317.472 259.537 319.308 261.719 319.146 264.242L317.937 283.136C317.776 285.659 315.678 287.569 313.252 287.401C310.825 287.233 308.989 285.051 309.151 282.527L310.36 263.634C310.521 261.11 312.619 259.201 315.046 259.369Z" fill="#D8B280"/>
<path fill-rule="evenodd" clip-rule="evenodd" d="M317.342 231.401C319.764 231.627 321.552 233.853 321.334 236.372L319.83 253.816C319.613 256.335 317.474 258.194 315.052 257.968C312.63 257.742 310.842 255.517 311.059 252.998L312.564 235.554C312.781 233.034 314.92 231.175 317.342 231.401Z" fill="#D8B280"/>
<path fill-rule="evenodd" clip-rule="evenodd" d="M357.897 330.647C358.108 328.127 360.243 326.262 362.665 326.481L384.738 328.479C387.161 328.698 388.954 330.918 388.743 333.438C388.532 335.958 386.397 337.823 383.975 337.604L361.902 335.606C359.479 335.387 357.687 333.166 357.897 330.647Z" fill="#D8B280"/>
<path fill-rule="evenodd" clip-rule="evenodd" d="M391.449 333.692C390.367 331.428 391.254 328.679 393.431 327.552L412.26 317.812C414.438 316.685 417.081 317.608 418.164 319.873C419.246 322.137 418.359 324.886 416.182 326.013L397.352 335.754C395.175 336.88 392.532 335.957 391.449 333.692Z" fill="#D8B280"/>
<path fill-rule="evenodd" clip-rule="evenodd" d="M419.383 316.143C416.982 315.743 415.347 313.394 415.732 310.896L419.221 288.243C419.605 285.746 421.863 284.046 424.265 284.446C426.666 284.846 428.3 287.195 427.916 289.692L424.427 312.345C424.042 314.843 421.784 316.543 419.383 316.143Z" fill="#D8B280"/>
<path fill-rule="evenodd" clip-rule="evenodd" d="M423.441 281.578C421.04 281.178 419.406 278.829 419.79 276.332L423.279 253.679C423.664 251.181 425.922 249.481 428.323 249.881C430.724 250.281 432.359 252.63 431.974 255.128L428.485 277.781C428.101 280.278 425.843 281.978 423.441 281.578Z" fill="#D8B280"/>
<path fill-rule="evenodd" clip-rule="evenodd" d="M453.443 540.927C453.194 538.411 454.952 536.161 457.371 535.902L485.84 532.849C488.259 532.589 490.422 534.419 490.671 536.935C490.921 539.451 489.162 541.701 486.743 541.96L458.274 545.013C455.855 545.272 453.692 543.443 453.443 540.927Z" fill="#D8B280"/>
<path fill-rule="evenodd" clip-rule="evenodd" d="M1217.16 597.342C1217.61 594.857 1219.91 593.223 1222.3 593.693L1250.42 599.225C1252.81 599.695 1254.38 602.091 1253.93 604.576C1253.48 607.061 1251.18 608.695 1248.79 608.225L1220.67 602.693C1218.28 602.223 1216.71 599.827 1217.16 597.342Z" fill="#996D33"/>
<path fill-rule="evenodd" clip-rule="evenodd" d="M1257.19 605.861C1257.74 603.395 1260.1 601.856 1262.47 602.422L1290.41 609.094C1292.79 609.659 1294.27 612.117 1293.72 614.582C1293.18 617.047 1290.81 618.587 1288.44 618.021L1260.5 611.349C1258.13 610.783 1256.65 608.326 1257.19 605.861Z" fill="#996D33"/>
<path fill-rule="evenodd" clip-rule="evenodd" d="M1296.88 615.65C1297.42 613.184 1299.78 611.645 1302.15 612.211L1330.1 618.883C1332.47 619.449 1333.95 621.906 1333.4 624.371C1332.86 626.836 1330.5 628.376 1328.13 627.81L1300.18 621.138C1297.81 620.572 1296.33 618.115 1296.88 615.65Z" fill="#996D33"/>
<path fill-rule="evenodd" clip-rule="evenodd" d="M1336.56 625.439C1337.11 622.974 1339.47 621.434 1341.84 622L1369.79 628.672C1372.16 629.238 1373.64 631.695 1373.09 634.16C1372.55 636.625 1370.19 638.165 1367.82 637.599L1339.87 630.927C1337.5 630.361 1336.02 627.904 1336.56 625.439Z" fill="#996D33"/>
<path fill-rule="evenodd" clip-rule="evenodd" d="M1375.19 634.906C1375.74 632.44 1378.1 630.901 1380.47 631.466L1408.41 638.139C1410.79 638.704 1412.27 641.162 1411.72 643.627C1411.18 646.092 1408.81 647.632 1406.44 647.066L1378.5 640.394C1376.13 639.828 1374.65 637.371 1375.19 634.906Z" fill="#996D33"/>
<path fill-rule="evenodd" clip-rule="evenodd" d="M1413.86 644.2C1414.5 641.758 1416.92 640.314 1419.26 640.974L1446.9 648.744C1449.25 649.404 1450.63 651.919 1450 654.361C1449.37 656.802 1446.95 658.247 1444.6 657.586L1416.97 649.816C1414.62 649.156 1413.23 646.642 1413.86 644.2Z" fill="#996D33"/>
<path fill-rule="evenodd" clip-rule="evenodd" d="M1452.08 655.109C1452.77 652.683 1455.22 651.297 1457.55 652.013L1475.5 657.519C1477.83 658.235 1479.16 660.782 1478.48 663.208C1477.79 665.634 1475.34 667.02 1473.01 666.305L1455.06 660.798C1452.73 660.082 1451.39 657.535 1452.08 655.109Z" fill="#996D33"/>
<path fill-rule="evenodd" clip-rule="evenodd" d="M229.656 509.992C231.981 510.732 233.289 513.292 232.578 515.711L227.042 534.535C226.331 536.954 223.869 538.315 221.544 537.575C219.218 536.835 217.91 534.275 218.621 531.856L224.157 513.032C224.869 510.613 227.33 509.252 229.656 509.992Z" fill="#D8B280"/>
<path fill-rule="evenodd" clip-rule="evenodd" d="M309.656 535.447C311.981 536.187 313.289 538.747 312.578 541.166L307.042 559.99C306.331 562.409 303.869 563.77 301.544 563.03C299.218 562.29 297.91 559.73 298.621 557.311L304.157 538.487C304.869 536.068 307.33 534.707 309.656 535.447Z" fill="#D8B280"/>
<path fill-rule="evenodd" clip-rule="evenodd" d="M210.304 575.672C212.635 576.39 213.965 578.939 213.275 581.364L208.288 598.874C207.597 601.299 205.147 602.683 202.816 601.965C200.484 601.246 199.154 598.698 199.845 596.273L204.831 578.762C205.522 576.337 207.972 574.953 210.304 575.672Z" fill="#D8B280"/>
<path fill-rule="evenodd" clip-rule="evenodd" d="M292.405 601.797C294.737 602.515 296.067 605.064 295.376 607.489L290.389 624.999C289.699 627.424 287.249 628.808 284.917 628.09C282.586 627.371 281.255 624.823 281.946 622.398L286.933 604.887C287.624 602.462 290.074 601.078 292.405 601.797Z" fill="#D8B280"/>
<path fill-rule="evenodd" clip-rule="evenodd" d="M203.585 606.336C205.639 604.981 208.359 605.614 209.662 607.75L220.534 625.577C221.837 627.713 221.228 630.542 219.175 631.897C217.121 633.252 214.401 632.619 213.098 630.483L202.226 612.656C200.923 610.52 201.532 607.691 203.585 606.336Z" fill="#D8B280"/>
<path fill-rule="evenodd" clip-rule="evenodd" d="M418.409 584.582C420.82 584.253 423.031 586.02 423.347 588.528L425.808 608.046C426.124 610.554 424.425 612.853 422.014 613.182C419.603 613.511 417.392 611.745 417.076 609.237L414.615 589.719C414.299 587.211 415.998 584.911 418.409 584.582Z" fill="#D8B280"/>
<path fill-rule="evenodd" clip-rule="evenodd" d="M501.604 573.953C504.015 573.624 506.226 575.391 506.542 577.899L509.003 597.417C509.319 599.925 507.621 602.224 505.21 602.553C502.799 602.882 500.588 601.116 500.272 598.608L497.811 579.09C497.495 576.582 499.193 574.282 501.604 573.953Z" fill="#D8B280"/>
<path fill-rule="evenodd" clip-rule="evenodd" d="M488.066 545.125C489.836 546.86 489.917 549.758 488.249 551.598L467.928 574.011C466.259 575.851 463.473 575.936 461.704 574.2C459.935 572.465 459.853 569.566 461.521 567.726L481.842 545.314C483.511 543.474 486.297 543.389 488.066 545.125Z" fill="#D8B280"/>
<path fill-rule="evenodd" clip-rule="evenodd" d="M414.221 550.076C416.632 549.748 418.843 551.514 419.159 554.022L421.62 573.54C421.936 576.048 420.238 578.347 417.827 578.676C415.416 579.005 413.205 577.239 412.889 574.731L410.428 555.213C410.112 552.705 411.81 550.405 414.221 550.076Z" fill="#D8B280"/>
<path fill-rule="evenodd" clip-rule="evenodd" d="M497.166 538.762C499.577 538.433 501.788 540.199 502.105 542.707L504.565 562.225C504.882 564.733 503.183 567.033 500.772 567.362C498.361 567.691 496.15 565.924 495.834 563.416L493.373 543.898C493.057 541.39 494.755 539.091 497.166 538.762Z" fill="#D8B280"/>
<path fill-rule="evenodd" clip-rule="evenodd" d="M422.767 618.194C425.175 617.843 427.401 619.589 427.738 622.094L430.176 640.18C430.513 642.685 428.835 645 426.427 645.351C424.018 645.702 421.792 643.956 421.455 641.451L419.017 623.365C418.68 620.861 420.358 618.545 422.767 618.194Z" fill="#D8B280"/>
<path fill-rule="evenodd" clip-rule="evenodd" d="M507.896 606.583C510.304 606.232 512.53 607.978 512.867 610.483L515.305 628.569C515.642 631.073 513.964 633.389 511.555 633.74C509.147 634.091 506.921 632.345 506.584 629.84L504.146 611.754C503.809 609.249 505.487 606.934 507.896 606.583Z" fill="#D8B280"/>
<path fill-rule="evenodd" clip-rule="evenodd" d="M491.618 660.566C489.689 659.025 489.327 656.15 490.808 654.144L503.136 637.451C504.617 635.445 507.381 635.068 509.31 636.609C511.238 638.15 511.6 641.025 510.119 643.031L497.792 659.724C496.31 661.729 493.546 662.106 491.618 660.566Z" fill="#D8B280"/>
<path fill-rule="evenodd" clip-rule="evenodd" d="M1231.14 374.642C1232.48 372.529 1235.21 371.944 1237.24 373.335L1259.34 388.473C1261.37 389.864 1261.93 392.704 1260.6 394.816C1259.26 396.929 1256.53 397.514 1254.5 396.123L1232.4 380.985C1230.37 379.594 1229.8 376.754 1231.14 374.642Z" fill="#996D33"/>
<path fill-rule="evenodd" clip-rule="evenodd" d="M1263.78 397.481C1265.26 395.469 1268.02 395.08 1269.96 396.613L1289.63 412.2C1291.57 413.733 1291.94 416.606 1290.47 418.618C1289 420.631 1286.23 421.02 1284.3 419.487L1264.62 403.9C1262.69 402.367 1262.31 399.494 1263.78 397.481Z" fill="#996D33"/>
<path fill-rule="evenodd" clip-rule="evenodd" d="M1518.05 383.91C1517.57 381.429 1519.12 379.019 1521.51 378.527L1547.11 373.25C1549.49 372.759 1551.81 374.371 1552.28 376.852C1552.75 379.333 1551.2 381.743 1548.82 382.235L1523.22 387.512C1520.84 388.004 1518.52 386.391 1518.05 383.91Z" fill="#996D33"/>
<path fill-rule="evenodd" clip-rule="evenodd" d="M1480.02 392.537C1479.55 390.056 1481.1 387.646 1483.48 387.154L1509.08 381.877C1511.46 381.386 1513.78 382.998 1514.25 385.479C1514.73 387.96 1513.18 390.37 1510.79 390.862L1485.19 396.139C1482.81 396.631 1480.49 395.018 1480.02 392.537Z" fill="#996D33"/>
<path fill-rule="evenodd" clip-rule="evenodd" d="M1239.93 371.448C1237.83 370.173 1237.12 367.368 1238.35 365.184L1251.51 341.746C1252.74 339.562 1255.43 338.826 1257.53 340.101C1259.63 341.377 1260.34 344.181 1259.12 346.365L1245.95 369.803C1244.73 371.987 1242.03 372.724 1239.93 371.448Z" fill="#996D33"/>
<path fill-rule="evenodd" clip-rule="evenodd" d="M1259.15 338.668C1257.17 337.203 1256.7 334.344 1258.11 332.282L1273.23 310.156C1274.63 308.095 1277.38 307.611 1279.36 309.076C1281.35 310.541 1281.81 313.4 1280.4 315.462L1265.29 337.587C1263.88 339.649 1261.13 340.133 1259.15 338.668Z" fill="#996D33"/>
<path fill-rule="evenodd" clip-rule="evenodd" d="M1280.21 306.35C1278.52 304.533 1278.57 301.634 1280.31 299.874L1299.05 280.987C1300.8 279.227 1303.59 279.273 1305.28 281.09C1306.97 282.906 1306.93 285.806 1305.18 287.566L1286.44 306.452C1284.69 308.212 1281.91 308.166 1280.21 306.35Z" fill="#996D33"/>
<path fill-rule="evenodd" clip-rule="evenodd" d="M1308.71 281.423C1307.18 279.456 1307.48 276.573 1309.37 274.983L1329.66 257.916C1331.55 256.326 1334.32 256.631 1335.85 258.598C1337.38 260.565 1337.09 263.448 1335.2 265.039L1314.9 282.105C1313.01 283.695 1310.24 283.39 1308.71 281.423Z" fill="#996D33"/>
<path d="M354.613 491.631L396.633 861.439L366.543 852.207L328.536 840.546L298.792 826.048L354.613 491.631Z" fill="#D48B4A"/>
<path d="M281.814 481.232L259.672 802.108C259.672 802.108 238.615 792.669 224.71 787.8C207.594 781.807 180.056 775.293 180.056 775.293L281.814 481.232Z" fill="#D48B4A"/>
<path d="M440.664 507.889L545.066 858.042C545.066 858.042 513.443 864.425 492.911 865.914C475.003 867.212 446.943 866.134 446.943 866.134L440.664 507.889Z" fill="#D48B4A"/>
<path fill-rule="evenodd" clip-rule="evenodd" d="M458.459 665.049C458.143 662.541 459.841 660.242 462.252 659.913L479.661 657.538C482.072 657.209 484.283 658.976 484.599 661.483C484.915 663.991 483.217 666.291 480.806 666.62L463.397 668.994C460.986 669.323 458.775 667.557 458.459 665.049Z" fill="#D8B280"/>
<path fill-rule="evenodd" clip-rule="evenodd" d="M428.867 648.999C430.196 646.881 432.925 646.284 434.961 647.667L451.958 659.205C453.995 660.587 454.568 663.425 453.239 665.543C451.91 667.661 449.182 668.258 447.145 666.875L430.148 655.337C428.112 653.955 427.538 651.117 428.867 648.999Z" fill="#D8B280"/>
<path fill-rule="evenodd" clip-rule="evenodd" d="M413.498 544.191C413.248 541.675 415.007 539.425 417.426 539.165L445.894 536.112C448.313 535.853 450.476 537.682 450.726 540.198C450.975 542.714 449.216 544.964 446.798 545.224L418.329 548.276C415.91 548.536 413.747 546.707 413.498 544.191Z" fill="#D8B280"/>
<path fill-rule="evenodd" clip-rule="evenodd" d="M424.69 553.643C426.068 551.558 428.809 551.031 430.813 552.464L455.217 569.92C457.221 571.354 457.728 574.205 456.35 576.289C454.972 578.373 452.231 578.901 450.228 577.467L425.823 560.011C423.82 558.578 423.312 555.727 424.69 553.643Z" fill="#D8B280"/>
<path fill-rule="evenodd" clip-rule="evenodd" d="M298.843 537.316C299.762 539.658 298.681 542.331 296.43 543.287L269.007 554.926C266.755 555.881 264.186 554.758 263.267 552.416C262.348 550.074 263.429 547.401 265.68 546.445L293.103 534.806C295.354 533.851 297.924 534.975 298.843 537.316Z" fill="#D8B280"/>
<path fill-rule="evenodd" clip-rule="evenodd" d="M254.335 643.091C253.266 640.819 254.171 638.076 256.355 636.965L274.587 627.688C276.771 626.576 279.408 627.517 280.477 629.789C281.546 632.061 280.641 634.804 278.457 635.915L260.225 645.193C258.04 646.304 255.403 645.363 254.335 643.091Z" fill="#D8B280"/>
<path fill-rule="evenodd" clip-rule="evenodd" d="M222.489 633.769C223.122 631.327 225.538 629.881 227.886 630.539L247.484 636.03C249.832 636.688 251.223 639.202 250.59 641.644C249.957 644.086 247.541 645.533 245.193 644.875L225.595 639.383C223.247 638.725 221.857 636.212 222.489 633.769Z" fill="#D8B280"/>
<path fill-rule="evenodd" clip-rule="evenodd" d="M272.754 517.246C273.442 514.82 275.89 513.434 278.222 514.149L305.672 522.572C308.005 523.287 309.338 525.834 308.65 528.26C307.962 530.686 305.513 532.072 303.181 531.357L275.731 522.934C273.399 522.219 272.066 519.672 272.754 517.246Z" fill="#D8B280"/>
<path fill-rule="evenodd" clip-rule="evenodd" d="M237.77 517.75C239.854 516.448 242.559 517.149 243.812 519.317L259.068 545.722C260.321 547.89 259.646 550.704 257.562 552.007C255.478 553.31 252.773 552.608 251.52 550.44L236.264 524.035C235.011 521.867 235.686 519.053 237.77 517.75Z" fill="#D8B280"/>
<path fill-rule="evenodd" clip-rule="evenodd" d="M2247.56 233.944C2247.56 233.944 2295.61 248.413 2327.1 248.624C2361.78 248.856 2414.18 232.058 2414.18 232.058L2468.07 557.594L2346.88 578.769L2322.09 398.038L2295.13 585.284L2169.74 572.322L2220.58 350.422L2247.56 233.944Z" fill="#641B1C"/>
<path fill-rule="evenodd" clip-rule="evenodd" d="M2254.55 259.838C2255.03 257.359 2257.36 255.756 2259.74 256.258L2279.16 260.346C2281.54 260.848 2283.09 263.264 2282.6 265.743C2282.12 268.222 2279.8 269.825 2277.41 269.324L2257.99 265.235C2255.61 264.734 2254.07 262.317 2254.55 259.838Z" fill="#9A5354"/>
<path fill-rule="evenodd" clip-rule="evenodd" d="M2285.26 266.199C2285.27 263.67 2287.25 261.631 2289.68 261.646L2309.5 261.766C2311.93 261.781 2313.89 263.843 2313.87 266.373C2313.86 268.902 2311.88 270.94 2309.45 270.926L2289.63 270.805C2287.2 270.79 2285.24 268.728 2285.26 266.199Z" fill="#9A5354"/>
<path fill-rule="evenodd" clip-rule="evenodd" d="M2336.65 267.602C2336.16 265.124 2337.7 262.705 2340.08 262.199L2359.49 258.077C2361.88 257.571 2364.2 259.17 2364.69 261.648C2365.17 264.127 2363.64 266.546 2361.25 267.051L2341.84 271.174C2339.46 271.679 2337.13 270.081 2336.65 267.602Z" fill="#9A5354"/>
<path fill-rule="evenodd" clip-rule="evenodd" d="M2365.91 261.801C2365.35 259.34 2366.81 256.871 2369.17 256.286L2388.45 251.516C2390.82 250.931 2393.19 252.451 2393.75 254.912C2394.31 257.372 2392.85 259.842 2390.49 260.427L2371.21 265.197C2368.85 265.782 2366.47 264.262 2365.91 261.801Z" fill="#9A5354"/>
<path fill-rule="evenodd" clip-rule="evenodd" d="M2249.94 295.147C2247.52 294.852 2245.8 292.577 2246.08 290.065L2248.39 269.597C2248.67 267.085 2250.86 265.287 2253.28 265.582C2255.69 265.877 2257.42 268.152 2257.14 270.664L2254.83 291.133C2254.54 293.645 2252.35 295.442 2249.94 295.147Z" fill="#9A5354"/>
<path fill-rule="evenodd" clip-rule="evenodd" d="M2313.12 299.014C2310.7 298.719 2308.97 296.444 2309.26 293.932L2311.57 273.464C2311.85 270.952 2314.04 269.154 2316.45 269.449C2318.87 269.744 2320.59 272.02 2320.31 274.532L2318 295C2317.72 297.512 2315.53 299.309 2313.12 299.014Z" fill="#9A5354"/>
<path fill-rule="evenodd" clip-rule="evenodd" d="M2337.28 300.807C2334.88 301.175 2332.64 299.444 2332.29 296.942L2329.41 276.552C2329.05 274.049 2330.72 271.723 2333.12 271.355C2335.53 270.988 2337.77 272.718 2338.12 275.221L2341 295.611C2341.35 298.113 2339.69 300.44 2337.28 300.807Z" fill="#9A5354"/>
<path fill-rule="evenodd" clip-rule="evenodd" d="M2262.22 321.608C2260.14 322.921 2257.43 322.234 2256.17 320.073L2247.67 305.528C2246.41 303.367 2247.07 300.55 2249.15 299.236C2251.22 297.922 2253.93 298.609 2255.2 300.771L2263.7 315.316C2264.96 317.477 2264.3 320.294 2262.22 321.608Z" fill="#9A5354"/>
<path fill-rule="evenodd" clip-rule="evenodd" d="M2293.29 328.322C2293 330.833 2290.81 332.626 2288.39 332.326L2268.72 329.884C2266.31 329.584 2264.58 327.305 2264.87 324.794C2265.16 322.282 2267.35 320.489 2269.76 320.789L2289.44 323.232C2291.85 323.531 2293.58 325.81 2293.29 328.322Z" fill="#9A5354"/>
<path fill-rule="evenodd" clip-rule="evenodd" d="M2311.47 301.452C2313.53 302.791 2314.16 305.616 2312.88 307.762L2302.38 325.244C2301.1 327.39 2298.38 328.044 2296.32 326.704C2294.25 325.365 2293.63 322.54 2294.91 320.394L2305.41 302.912C2306.69 300.766 2309.41 300.113 2311.47 301.452Z" fill="#9A5354"/>
<path fill-rule="evenodd" clip-rule="evenodd" d="M2334.96 305.381C2336.53 303.444 2339.3 303.191 2341.17 304.817L2356.34 318.063C2358.21 319.689 2358.45 322.577 2356.89 324.515C2355.32 326.453 2352.55 326.705 2350.68 325.08L2335.51 311.833C2333.64 310.208 2333.4 307.319 2334.96 305.381Z" fill="#9A5354"/>
<path fill-rule="evenodd" clip-rule="evenodd" d="M2363.01 328.507C2362.5 326.035 2364 323.596 2366.38 323.059L2385.74 318.684C2388.12 318.147 2390.46 319.715 2390.98 322.187C2391.5 324.658 2389.99 327.097 2387.61 327.634L2368.25 332.01C2365.87 332.547 2363.53 330.978 2363.01 328.507Z" fill="#9A5354"/>
<path fill-rule="evenodd" clip-rule="evenodd" d="M2434.91 540.362C2434.39 537.89 2435.9 535.451 2438.28 534.914L2457.64 530.539C2460.01 530.002 2462.36 531.571 2462.87 534.042C2463.39 536.514 2461.88 538.953 2459.51 539.49L2440.14 543.865C2437.77 544.402 2435.42 542.834 2434.91 540.362Z" fill="#9A5354"/>
<path fill-rule="evenodd" clip-rule="evenodd" d="M2406.02 545.013C2405.53 542.536 2407.07 540.114 2409.45 539.604L2427.78 535.677C2430.16 535.167 2432.49 536.762 2432.98 539.239C2433.47 541.716 2431.94 544.138 2429.55 544.649L2411.23 548.575C2408.84 549.085 2406.52 547.49 2406.02 545.013Z" fill="#9A5354"/>
<path fill-rule="evenodd" clip-rule="evenodd" d="M2376.75 551.164C2376.24 548.692 2377.75 546.254 2380.13 545.72L2397.29 541.864C2399.67 541.329 2402.01 542.9 2402.52 545.373C2403.04 547.845 2401.53 550.282 2399.15 550.816L2381.99 554.673C2379.61 555.207 2377.27 553.636 2376.75 551.164Z" fill="#9A5354"/>
<path fill-rule="evenodd" clip-rule="evenodd" d="M2345.26 557.024C2344.74 554.552 2346.25 552.114 2348.63 551.577L2367.99 547.201C2370.36 546.664 2372.71 548.233 2373.23 550.704C2373.74 553.176 2372.23 555.615 2369.86 556.152L2350.5 560.527C2348.12 561.064 2345.78 559.496 2345.26 557.024Z" fill="#9A5354"/>
<path fill-rule="evenodd" clip-rule="evenodd" d="M2204.9 552.469C2205.17 549.955 2207.35 548.147 2209.77 548.431L2229.45 550.737C2231.87 551.02 2233.61 553.287 2233.34 555.801C2233.07 558.314 2230.89 560.122 2228.47 559.839L2208.78 557.532C2206.36 557.249 2204.63 554.982 2204.9 552.469Z" fill="#9A5354"/>
<path fill-rule="evenodd" clip-rule="evenodd" d="M2236.01 556.047C2236.29 553.534 2238.47 551.726 2240.88 552.009L2260.57 554.315C2262.99 554.599 2264.73 556.866 2264.45 559.379C2264.18 561.892 2262 563.7 2259.59 563.417L2239.9 561.111C2237.48 560.827 2235.74 558.56 2236.01 556.047Z" fill="#9A5354"/>
<path fill-rule="evenodd" clip-rule="evenodd" d="M2268.26 559.591C2268.65 557.094 2270.91 555.398 2273.31 555.802L2290.54 558.699C2292.94 559.103 2294.57 561.455 2294.18 563.952C2293.79 566.448 2291.53 568.145 2289.13 567.741L2271.91 564.843C2269.5 564.44 2267.87 562.088 2268.26 559.591Z" fill="#9A5354"/>
<path fill-rule="evenodd" clip-rule="evenodd" d="M2173.14 551.322C2173.28 548.797 2175.35 546.865 2177.78 547.008L2197.56 548.167C2199.99 548.309 2201.85 550.472 2201.71 552.997C2201.58 555.522 2199.5 557.454 2197.07 557.312L2177.29 556.152C2174.86 556.01 2173 553.848 2173.14 551.322Z" fill="#9A5354"/>
<path fill-rule="evenodd" clip-rule="evenodd" d="M2392.61 319.003C2390.29 318.243 2389 315.671 2389.73 313.259L2395.68 293.603C2396.41 291.19 2398.89 289.851 2401.21 290.611C2403.52 291.371 2404.81 293.942 2404.08 296.355L2398.13 316.011C2397.4 318.423 2394.93 319.763 2392.61 319.003Z" fill="#9A5354"/>
<path fill-rule="evenodd" clip-rule="evenodd" d="M2400.57 289.978C2398.23 290.661 2395.8 289.241 2395.14 286.805L2389.79 266.963C2389.13 264.528 2390.49 262 2392.84 261.316C2395.18 260.633 2397.61 262.053 2398.26 264.489L2403.62 284.331C2404.27 286.766 2402.91 289.294 2400.57 289.978Z" fill="#9A5354"/>
<path d="M2410.15 180.646L2394.11 178.326L2388.64 257.424L2404.68 259.744L2410.15 180.646Z" fill="#1A1717"/>
<path d="M2245.61 177.182L2229.03 180.307L2254.31 253.281L2270.89 250.156L2245.61 177.182Z" fill="#1A1717"/>
</svg>
