<svg width="2595" height="1693" viewBox="0 0 2595 1693" fill="none" xmlns="http://www.w3.org/2000/svg">
<rect width="2595" height="6" transform="matrix(1 0 0 -1 0 541)" fill="black"/>
<path fill-rule="evenodd" clip-rule="evenodd" d="M1567.67 580.996L1485.07 860.996C1485.07 860.996 1583.38 881.819 1647.3 883.015C1711.71 884.219 1811.46 866.812 1811.46 866.812L1718.74 574.901C1718.74 574.901 1673.85 590.992 1644.15 592.3C1613.87 593.634 1567.67 580.996 1567.67 580.996Z" fill="#6A6734"/>
<path d="M1479 515.701C1474.58 515.357 1470.55 514.624 1466.9 513.503C1463.24 512.438 1459.98 511.181 1457.11 509.732C1454.19 508.279 1451.73 506.722 1449.73 505.063C1447.68 503.455 1446.08 501.937 1444.92 500.51L1447.63 463.717C1448.93 462.538 1450.7 461.451 1452.94 460.457C1455.19 459.462 1457.85 458.612 1460.93 457.906C1463.95 457.251 1467.37 456.794 1471.17 456.534C1474.92 456.326 1478.98 456.392 1483.34 456.733C1487.86 457.085 1491.98 457.658 1495.71 458.45C1499.38 459.294 1502.66 460.274 1505.56 461.391C1508.4 462.504 1510.84 463.724 1512.86 465.052C1514.88 466.434 1516.46 467.812 1517.63 469.183L1514.91 505.976C1513.56 507.262 1511.77 508.543 1509.56 509.818C1507.34 511.148 1504.73 512.309 1501.73 513.3C1498.73 514.291 1495.35 515.029 1491.58 515.514C1487.76 515.995 1483.56 516.058 1479 515.701ZM1480.47 495.768C1484.93 496.117 1488.9 496.037 1492.37 495.528C1495.83 495.075 1498.83 494.418 1501.37 493.558C1503.91 492.698 1505.99 491.775 1507.63 490.789C1509.21 489.855 1510.36 489.081 1511.06 488.467C1510.45 487.752 1509.44 486.782 1508.02 485.557C1506.54 484.383 1504.61 483.202 1502.22 482.014C1499.84 480.825 1496.97 479.71 1493.61 478.668C1490.25 477.682 1486.34 477.015 1481.88 476.666C1477.41 476.317 1473.44 476.369 1469.98 476.823C1466.51 477.332 1463.51 477.988 1460.98 478.793C1458.45 479.598 1456.39 480.467 1454.81 481.402C1453.22 482.392 1452.05 483.191 1451.3 483.801C1451.95 484.52 1452.99 485.465 1454.42 486.634C1455.84 487.859 1457.75 489.093 1460.13 490.337C1462.51 491.581 1465.38 492.697 1468.74 493.683C1472.09 494.724 1476 495.42 1480.47 495.768Z" fill="#8A6330"/>
<path d="M1434.12 483.766L1390.3 480.392L1391.45 516.6L1380.81 515.781L1379 459L1433.46 463.193L1434.12 483.766Z" fill="#8A6330"/>
<path d="M1326.99 510.013C1322.07 509.629 1317.57 508.86 1313.5 507.706C1309.42 506.608 1305.77 505.321 1302.57 503.846C1299.3 502.366 1296.55 500.787 1294.31 499.108C1292.02 497.481 1290.22 495.948 1288.92 494.51L1291.63 457.717C1293.07 456.549 1295.03 455.477 1297.52 454.502C1300.01 453.526 1302.96 452.699 1306.39 452.02C1309.75 451.391 1313.55 450.964 1317.78 450.738C1321.95 450.562 1326.47 450.664 1331.33 451.044C1336.36 451.437 1340.95 452.046 1345.11 452.872C1349.2 453.748 1352.87 454.758 1356.1 455.902C1359.28 457.041 1362 458.283 1364.26 459.63C1366.52 461.031 1368.3 462.423 1369.6 463.806L1366.89 500.599C1365.39 501.874 1363.41 503.139 1360.96 504.396C1358.5 505.707 1355.61 506.846 1352.27 507.811C1348.94 508.776 1345.18 509.484 1340.99 509.937C1336.74 510.384 1332.07 510.41 1326.99 510.013ZM1328.45 490.08C1333.43 490.468 1337.84 490.423 1341.7 489.945C1345.56 489.522 1348.89 488.891 1351.71 488.053C1354.52 487.215 1356.84 486.31 1358.65 485.337C1360.41 484.416 1361.67 483.652 1362.45 483.044C1361.77 482.323 1360.63 481.343 1359.04 480.105C1357.38 478.918 1355.22 477.719 1352.56 476.508C1349.89 475.298 1346.69 474.157 1342.95 473.085C1339.2 472.068 1334.84 471.366 1329.86 470.977C1324.89 470.589 1320.47 470.606 1316.62 471.029C1312.76 471.507 1309.43 472.138 1306.62 472.921C1303.8 473.704 1301.52 474.556 1299.77 475.477C1298.01 476.453 1296.71 477.243 1295.88 477.846C1296.62 478.572 1297.78 479.526 1299.38 480.709C1300.98 481.947 1303.1 483.2 1305.76 484.465C1308.43 485.731 1311.63 486.872 1315.38 487.889C1319.12 488.961 1323.48 489.691 1328.45 490.08Z" fill="#8A6330"/>
<path d="M1274.99 511.789L1267.49 511.619L1270 478.68L1254.79 478.335L1253.99 488.815C1253.75 492.009 1253.32 494.974 1252.7 497.71C1252.04 500.445 1250.95 502.795 1249.43 504.76C1247.91 506.775 1245.81 508.302 1243.14 509.341C1240.46 510.43 1236.96 510.926 1232.64 510.828L1225 510.655L1225.69 501.671C1228.28 501.73 1230.25 501 1231.59 499.48C1232.89 498.01 1233.69 495.304 1233.99 491.361L1236.44 459.17L1278.93 460.135L1274.99 511.789Z" fill="#8A6330"/>
<path fill-rule="evenodd" clip-rule="evenodd" d="M1964.54 530.361C1964.54 530.361 1985.46 561.773 2006.02 562.928C2028.83 564.209 2053.23 528.372 2053.23 528.372L2115.57 546.762L2227.92 733.166L2178.6 774.916L2102.96 647.824L2146.2 884.738L1912.23 880.883L1944.39 646.4L1895.22 765.351L1842.95 749.931L1920.18 537.606L1964.54 530.361Z" fill="white"/>
<path d="M2055.63 529.08L2114.62 546.48L2170.36 638.511L2218.24 741.258L2186 769.279L2103.59 647.487L2055.63 529.08Z" fill="#D9D9D9"/>
<path fill-rule="evenodd" clip-rule="evenodd" d="M1575.96 636.392L1506.05 861.385C1506.05 861.385 1605.07 877.993 1669.01 878.21C1733.43 878.429 1794.19 864.795 1794.19 864.795L1703.17 638.073L1740.28 873.659L1703.57 877.112L1669.01 878.21L1640.29 643.924L1617.32 875.555L1557.91 868.986L1575.96 636.392Z" fill="#85824D"/>
<path d="M2086.5 661.215L2118.3 733.672L2145.92 885.697L2066.35 881.514L2086.5 661.215Z" fill="#D9D9D9"/>
<path d="M1931.47 743.202L1943.05 666.857L2005.6 877.149L1919.07 836.505L1931.47 743.202Z" fill="#D9D9D9"/>
<path fill-rule="evenodd" clip-rule="evenodd" d="M455.678 509.257L493.282 517.279L489.992 571.672C489.992 571.672 511.49 587.778 527.658 589.347C541.852 590.724 563.258 581.993 563.258 581.993L568.414 532.084L620.618 536.131L723.787 1055.5C723.787 1055.5 652.725 1071.72 606.463 1070.21C567.08 1068.93 544.644 1064.82 506.828 1053.53C461.675 1040.05 442.477 1016.84 397.652 1002.3C364.092 991.418 309.495 982.587 309.495 982.587L455.678 509.257Z" fill="#BC6C25"/>
<path d="M1004.24 443.405C1007.78 443.401 1011.2 443.57 1014.51 443.913C1017.76 444.256 1020.74 444.743 1023.42 445.376C1026.11 446.009 1028.46 446.728 1030.48 447.535C1032.43 448.4 1033.94 449.352 1034.99 450.391L1034.74 471.891C1032.75 473.454 1030.57 474.786 1028.2 475.887C1025.77 476.988 1023.23 477.858 1020.59 478.497C1017.94 479.136 1015.21 479.602 1012.4 479.894C1009.53 480.187 1006.64 480.334 1003.71 480.338L985.684 480.359L985.412 503.247L976.144 503.258L976.855 443.438L1004.24 443.405ZM985.777 472.557L1003.81 472.535C1008.36 472.53 1012.15 472.207 1015.19 471.568C1018.18 470.986 1020.6 470.145 1022.47 469.045C1020.68 467.949 1018.31 466.998 1015.34 466.193C1012.32 465.445 1008.53 465.074 1003.98 465.079L985.866 465.101L985.777 472.557Z" fill="#8A6330"/>
<path d="M963.719 443.844L963.32 503.664L954.051 503.726L954.306 465.58L922.288 465.795L922.033 503.941L912.765 504.003L913.164 444.184L963.719 443.844Z" fill="#8A6330"/>
<path d="M802.265 433.899L802.203 456.785L820.235 456.588C823.156 456.556 826.048 456.669 828.912 456.927C831.72 457.185 834.443 457.617 837.082 458.224C839.72 458.831 842.246 459.67 844.658 460.742C847.015 461.814 849.174 463.12 851.136 464.659L851.078 486.159C850.008 487.211 848.489 488.152 846.52 488.983C844.496 489.872 842.135 490.649 839.437 491.314C836.739 491.979 833.76 492.503 830.501 492.886C827.186 493.269 823.759 493.479 820.22 493.518L792.836 493.818L792.996 434L802.265 433.899ZM820.278 471.845C824.828 471.795 828.621 471.349 831.656 470.507C834.636 469.723 837.025 468.772 838.826 467.654C836.975 466.577 834.562 465.736 831.587 465.133C828.555 464.588 824.764 464.341 820.214 464.39L802.182 464.588L802.162 472.043L820.278 471.845Z" fill="#8A6330"/>
<path d="M785.903 494.388L776.635 494.609L776.272 456.473L757.483 456.921L757.598 469.055C757.634 472.754 757.414 476.198 756.938 479.388C756.407 482.579 755.31 485.351 753.646 487.702C751.984 490.111 749.558 491.99 746.368 493.337C743.179 494.743 738.917 495.509 733.58 495.636L724.144 495.862L724.045 485.461C727.246 485.384 729.597 484.432 731.097 482.605C732.54 480.837 733.241 477.67 733.197 473.105L732.842 435.836L785.334 434.583L785.903 494.388Z" fill="#8A6330"/>
<path d="M692.837 435.415L721.609 495.424L712.342 495.366L707.154 484.581L667.391 484.33L661.796 495.046L637.365 494.892L668.407 435.261L692.837 435.415ZM688.028 444.662L678.148 463.589L697.187 463.709L688.028 444.662Z" fill="#8A6330"/>
<path d="M605.678 434.593C609.213 434.706 612.629 434.988 615.925 435.439C619.165 435.889 622.118 436.475 624.785 437.196C627.451 437.917 629.777 438.714 631.762 439.587C633.689 440.516 635.164 441.517 636.185 442.591L635.533 457.756C633.102 459.414 630.682 460.783 628.276 461.864C625.813 462.943 623.39 463.762 621.005 464.323C623.672 465.044 626.498 465.973 629.483 467.109C632.41 468.301 635.07 469.831 637.462 471.701L636.814 486.779C635.7 487.843 634.083 488.862 631.962 489.835C629.839 490.867 627.414 491.716 624.688 492.381C621.903 493.103 618.874 493.643 615.599 494.002C612.322 494.418 608.999 494.573 605.632 494.466L567.332 493.25L569.902 433.457L605.678 434.593ZM578.048 459.661L604.48 460.501C609.025 460.645 612.827 460.448 615.885 459.908C618.884 459.425 621.333 458.664 623.232 457.625C621.483 456.471 619.138 455.471 616.196 454.625C613.195 453.836 609.422 453.369 604.877 453.224L578.361 452.382L578.048 459.661ZM577.392 474.913L606.433 475.835C610.979 475.979 614.782 475.753 617.842 475.156C620.844 474.615 623.239 473.794 625.029 472.694C623.221 471.596 620.847 470.624 617.905 469.778C614.96 468.99 611.215 468.524 606.67 468.38L577.713 467.46L577.392 474.913Z" fill="#8A6330"/>
<path d="M517.827 432.162L516.214 465.084L554.854 433.573L564.111 433.926L561.182 493.706L551.925 493.353L553.496 461.298L514.898 491.942L505.641 491.589L508.57 431.809L517.827 432.162Z" fill="#8A6330"/>
<path d="M476.152 453.919L474.11 492.032L464.855 491.634L466.898 453.521L441.406 452.425L442.566 430.77L502.805 433.359L501.644 455.015L476.152 453.919Z" fill="#8A6330"/>
<path d="M432.979 487.078C429.303 488.805 424.836 490.189 419.579 491.231C414.322 492.273 408.249 492.565 401.36 492.107C396.432 491.78 391.929 491.045 387.85 489.905C383.767 488.822 380.121 487.536 376.913 486.048C373.649 484.556 370.9 482.953 368.666 481.239C366.371 479.579 364.576 478.011 363.281 476.534L366.183 438.207C367.627 436.969 369.599 435.825 372.099 434.774C374.599 433.723 377.566 432.818 381.001 432.061C384.375 431.358 388.184 430.857 392.428 430.56C396.611 430.316 401.139 430.356 406.012 430.68C412.788 431.13 418.743 432.019 423.877 433.345C428.955 434.668 433.23 436.198 436.7 437.936L434.912 461.555C433.797 460.67 432.35 459.704 430.572 458.659C428.794 457.613 426.647 456.601 424.132 455.622C421.617 454.643 418.73 453.756 415.469 452.959C412.204 452.221 408.528 451.716 404.439 451.444C399.455 451.113 395.03 451.195 391.165 451.692C387.296 452.247 383.95 452.952 381.127 453.808C378.304 454.663 376.011 455.584 374.248 456.568C372.481 457.61 371.179 458.451 370.343 459.091C371.074 459.835 372.239 460.811 373.836 462.018C375.428 463.284 377.555 464.555 380.217 465.834C382.878 467.112 386.084 468.252 389.836 469.255C393.583 470.316 397.948 471.012 402.933 471.343C407.021 471.615 410.739 471.572 414.087 471.215C417.43 470.915 420.423 470.418 423.065 469.724C425.702 469.088 427.982 468.341 429.904 467.483C431.822 466.683 433.4 465.919 434.637 465.189L432.979 487.078Z" fill="#8A6330"/>
<path d="M358.226 426.387L356.77 447.159L302.479 443.872L302.133 448.805L331.211 450.566L330.665 458.355L301.587 456.595L301.204 462.047L355.495 465.334L354.038 486.105L290.503 482.259L294.691 422.541L358.226 426.387Z" fill="#8A6330"/>
<path d="M223.533 469.881C217.768 469.455 212.294 468.238 207.11 466.231C201.871 464.22 197.377 461.017 193.63 456.622L195.619 432.582C196.951 431.462 198.699 430.402 200.866 429.402C202.971 428.456 205.378 427.619 208.085 426.891C210.791 426.163 213.764 425.628 217.002 425.287C220.235 425.004 223.615 424.993 227.141 425.254L236.796 425.967L237.297 419.914L246.532 420.596L246.031 426.65L255.686 427.363C259.212 427.624 262.549 428.131 265.696 428.886C268.839 429.698 271.715 430.665 274.326 431.786C276.88 432.903 279.119 434.083 281.043 435.327C282.963 436.629 284.488 437.931 285.62 439.233L283.631 463.273C281.962 465.063 279.923 466.566 277.514 467.78C275.048 468.99 272.409 469.926 269.595 470.588C266.776 471.308 263.867 471.76 260.867 471.944C257.806 472.182 254.821 472.193 251.91 471.978L242.339 471.271L241.595 480.264L232.36 479.582L233.104 470.588L223.533 469.881ZM234.864 449.315L225.209 448.602C219.892 448.209 215.476 448.492 211.962 449.45C208.387 450.462 205.345 451.832 202.837 453.561C205.147 455.588 207.964 457.275 211.287 458.623C214.555 459.966 218.875 460.836 224.249 461.233L233.82 461.941L234.864 449.315ZM243.055 462.623L252.626 463.331C257.999 463.728 262.44 463.476 265.95 462.575C269.399 461.728 272.428 460.502 275.039 458.897C272.841 456.878 270.087 455.109 266.778 453.588C263.413 452.063 259.071 451.104 253.754 450.711L244.099 449.998L243.055 462.623Z" fill="#8A6330"/>
<path fill-rule="evenodd" clip-rule="evenodd" d="M891.71 570.418L852.469 602.377C852.469 602.377 846.296 606.186 842.491 608.841C804.893 635.078 775.472 704.252 775.472 704.252L832.099 743.325L760.605 900.467L1004.73 960.153L1005.74 724.441L1073.02 708.736C1073.02 708.736 1070.91 645.27 1047.16 615.35C1031.51 595.629 995.325 576.459 995.325 576.459C995.325 576.459 984.906 605.413 968.88 613.524C951.469 622.336 935.539 620.943 918.465 611.092C901.85 601.507 891.71 570.418 891.71 570.418Z" fill="#C9A87D"/>
<path fill-rule="evenodd" clip-rule="evenodd" d="M955.402 618.391L951.837 699.397L901.642 934.949L1004.73 960.153L1005.74 724.441L1073.02 708.736C1073.02 708.736 1070.91 645.27 1047.16 615.35C1031.51 595.629 995.325 576.459 995.325 576.459C995.325 576.459 984.906 605.413 968.88 613.524C964.301 615.842 959.824 617.453 955.402 618.391Z" fill="#B09571"/>
<path fill-rule="evenodd" clip-rule="evenodd" d="M1221.36 571.099C1221.36 571.099 1265.01 583.736 1293.62 583.92C1325.12 584.123 1372.73 569.451 1372.73 569.451L1421.68 853.781L1311.59 872.276L1289.07 714.422L1264.57 877.966L1150.66 866.645L1196.85 672.833L1221.36 571.099Z" fill="#641B1C"/>
<path d="M628.794 503.234L616 499.607L602.978 546.415L615.772 550.042L628.794 503.234Z" fill="#1A1717"/>
<path d="M477.225 493.19L464.305 491.268L460.133 539.981L473.053 541.903L477.225 493.19Z" fill="#1A1717"/>
<path d="M875.843 528.836L860.609 530.312L876.227 592.837L891.46 591.36L875.843 528.836Z" fill="#1A1717"/>
<path d="M1226.79 537.437L1211.72 540.166L1229.6 589.76L1244.66 587.03L1226.79 537.437Z" fill="#1A1717"/>
<path d="M1052.28 535.809L1038.61 529.002L1000.53 592.638L1014.21 599.445L1052.28 535.809Z" fill="#1A1717"/>
<path d="M1375.46 546.505L1360.88 544.479L1357.37 593.287L1371.95 595.313L1375.46 546.505Z" fill="#1A1717"/>
<path fill-rule="evenodd" clip-rule="evenodd" d="M392.532 788.475C394.645 789.121 395.833 791.357 395.187 793.47L390.158 809.911C389.511 812.024 387.275 813.213 385.162 812.566C383.05 811.92 381.861 809.684 382.507 807.571L387.537 791.13C388.183 789.017 390.42 787.829 392.532 788.475Z" fill="#D8B280"/>
<path fill-rule="evenodd" clip-rule="evenodd" d="M465.161 811.344C467.273 811.99 468.462 814.227 467.816 816.339L462.786 832.78C462.14 834.893 459.904 836.082 457.791 835.435C455.679 834.789 454.49 832.553 455.136 830.44L460.166 813.999C460.812 811.886 463.048 810.698 465.161 811.344Z" fill="#D8B280"/>
<path fill-rule="evenodd" clip-rule="evenodd" d="M404.253 755.052C404.878 752.933 407.102 751.722 409.221 752.347L434.159 759.703C436.278 760.328 437.489 762.553 436.864 764.672C436.239 766.791 434.014 768.002 431.895 767.377L406.958 760.02C404.839 759.395 403.628 757.171 404.253 755.052Z" fill="#D8B280"/>
<path fill-rule="evenodd" clip-rule="evenodd" d="M492.175 591.529C493.169 589.557 495.574 588.763 497.547 589.757L513.177 597.633C515.15 598.627 515.944 601.032 514.95 603.005C513.956 604.978 511.55 605.771 509.578 604.777L493.947 596.901C491.974 595.907 491.181 593.502 492.175 591.529Z" fill="#D8B280"/>
<path fill-rule="evenodd" clip-rule="evenodd" d="M476.605 566.994C478.551 565.948 480.976 566.677 482.022 568.623L490.831 585.006C491.877 586.952 491.148 589.377 489.203 590.423C487.257 591.47 484.831 590.74 483.785 588.795L474.976 572.412C473.93 570.466 474.659 568.041 476.605 566.994Z" fill="#D8B280"/>
<path fill-rule="evenodd" clip-rule="evenodd" d="M479.124 540.566C481.328 540.713 482.996 542.619 482.849 544.823L481.751 561.325C481.604 563.529 479.698 565.197 477.494 565.05C475.29 564.904 473.622 562.998 473.769 560.794L474.867 544.292C475.014 542.088 476.92 540.42 479.124 540.566Z" fill="#D8B280"/>
<path fill-rule="evenodd" clip-rule="evenodd" d="M481.211 516.141C483.411 516.338 485.035 518.282 484.837 520.482L483.471 535.718C483.273 537.918 481.33 539.542 479.129 539.344C476.929 539.147 475.305 537.203 475.503 535.003L476.869 519.767C477.067 517.567 479.01 515.943 481.211 516.141Z" fill="#D8B280"/>
<path fill-rule="evenodd" clip-rule="evenodd" d="M518.054 602.824C518.245 600.623 520.185 598.994 522.385 599.185L542.438 600.93C544.639 601.122 546.267 603.061 546.076 605.262C545.884 607.463 543.945 609.092 541.744 608.9L521.692 607.155C519.491 606.964 517.862 605.024 518.054 602.824Z" fill="#D8B280"/>
<path fill-rule="evenodd" clip-rule="evenodd" d="M548.535 605.483C547.551 603.505 548.357 601.104 550.335 600.12L567.441 591.612C569.419 590.629 571.82 591.435 572.804 593.413C573.788 595.391 572.982 597.792 571.004 598.775L553.898 607.283C551.92 608.267 549.519 607.461 548.535 605.483Z" fill="#D8B280"/>
<path fill-rule="evenodd" clip-rule="evenodd" d="M573.91 590.154C571.728 589.805 570.243 587.753 570.593 585.572L573.762 565.786C574.112 563.605 576.163 562.12 578.345 562.47C580.526 562.819 582.011 564.871 581.662 567.052L578.492 586.837C578.143 589.019 576.091 590.504 573.91 590.154Z" fill="#D8B280"/>
<path fill-rule="evenodd" clip-rule="evenodd" d="M577.601 559.965C575.42 559.616 573.935 557.564 574.284 555.383L577.454 535.597C577.803 533.416 579.855 531.931 582.036 532.28C584.217 532.629 585.702 534.681 585.353 536.862L582.183 556.648C581.834 558.829 579.782 560.314 577.601 559.965Z" fill="#D8B280"/>
<path fill-rule="evenodd" clip-rule="evenodd" d="M604.855 786.486C604.629 784.288 606.227 782.323 608.424 782.097L634.287 779.43C636.485 779.204 638.45 780.802 638.676 782.999C638.903 785.197 637.305 787.162 635.107 787.388L609.245 790.055C607.047 790.281 605.082 788.683 604.855 786.486Z" fill="#D8B280"/>
<path fill-rule="evenodd" clip-rule="evenodd" d="M767.935 893.601C768.345 891.43 770.438 890.003 772.608 890.414L798.156 895.246C800.326 895.656 801.753 897.749 801.342 899.919C800.932 902.09 798.839 903.517 796.669 903.106L771.122 898.275C768.951 897.864 767.524 895.772 767.935 893.601Z" fill="#996D33"/>
<path fill-rule="evenodd" clip-rule="evenodd" d="M804.301 901.041C804.795 898.888 806.941 897.543 809.095 898.037L834.483 903.865C836.636 904.359 837.981 906.505 837.487 908.658C836.993 910.811 834.847 912.156 832.693 911.662L807.305 905.834C805.152 905.34 803.807 903.194 804.301 901.041Z" fill="#996D33"/>
<path fill-rule="evenodd" clip-rule="evenodd" d="M840.356 909.591C840.85 907.437 842.996 906.093 845.149 906.587L870.538 912.414C872.691 912.909 874.036 915.055 873.542 917.208C873.047 919.361 870.901 920.706 868.748 920.212L843.36 914.384C841.206 913.89 839.862 911.744 840.356 909.591Z" fill="#996D33"/>
<path fill-rule="evenodd" clip-rule="evenodd" d="M876.41 918.141C876.905 915.988 879.051 914.643 881.204 915.138L906.593 920.965C908.746 921.459 910.091 923.606 909.596 925.759C909.102 927.912 906.956 929.257 904.803 928.762L879.414 922.935C877.261 922.441 875.916 920.295 876.41 918.141Z" fill="#996D33"/>
<path fill-rule="evenodd" clip-rule="evenodd" d="M911.504 926.408C911.998 924.255 914.145 922.91 916.298 923.404L941.686 929.232C943.839 929.726 945.184 931.872 944.69 934.025C944.196 936.178 942.05 937.523 939.897 937.029L914.508 931.202C912.355 930.707 911.01 928.561 911.504 926.408Z" fill="#996D33"/>
<path fill-rule="evenodd" clip-rule="evenodd" d="M946.638 934.526C947.214 932.394 949.41 931.132 951.543 931.709L976.648 938.495C978.781 939.072 980.043 941.268 979.466 943.401C978.89 945.533 976.693 946.795 974.561 946.218L949.455 939.432C947.323 938.855 946.061 936.659 946.638 934.526Z" fill="#996D33"/>
<path fill-rule="evenodd" clip-rule="evenodd" d="M981.358 944.055C981.983 941.936 984.208 940.725 986.327 941.35L1002.63 946.16C1004.75 946.785 1005.96 949.009 1005.34 951.128C1004.71 953.247 1002.49 954.458 1000.37 953.833L984.063 949.023C981.944 948.398 980.733 946.174 981.358 944.055Z" fill="#996D33"/>
<path fill-rule="evenodd" clip-rule="evenodd" d="M401.552 759.467C403.664 760.113 404.853 762.35 404.207 764.462L399.177 780.904C398.531 783.016 396.294 784.205 394.182 783.558C392.069 782.912 390.881 780.676 391.527 778.563L396.556 762.122C397.203 760.009 399.439 758.821 401.552 759.467Z" fill="#D8B280"/>
<path fill-rule="evenodd" clip-rule="evenodd" d="M474.227 781.699C476.34 782.346 477.529 784.582 476.882 786.695L471.853 803.136C471.207 805.248 468.97 806.437 466.858 805.791C464.745 805.145 463.557 802.908 464.203 800.796L469.232 784.354C469.878 782.242 472.115 781.053 474.227 781.699Z" fill="#D8B280"/>
<path fill-rule="evenodd" clip-rule="evenodd" d="M383.968 816.831C386.086 817.459 387.295 819.685 386.667 821.803L382.137 837.097C381.509 839.215 379.284 840.424 377.165 839.796C375.047 839.169 373.839 836.943 374.466 834.825L378.997 819.531C379.624 817.412 381.85 816.204 383.968 816.831Z" fill="#D8B280"/>
<path fill-rule="evenodd" clip-rule="evenodd" d="M458.554 839.65C460.672 840.277 461.881 842.503 461.253 844.621L456.723 859.915C456.095 862.033 453.87 863.242 451.751 862.614C449.633 861.987 448.425 859.761 449.052 857.643L453.583 842.349C454.21 840.231 456.436 839.022 458.554 839.65Z" fill="#D8B280"/>
<path fill-rule="evenodd" clip-rule="evenodd" d="M377.866 843.615C379.731 842.432 382.203 842.985 383.386 844.85L393.264 860.421C394.447 862.286 393.894 864.758 392.029 865.941C390.163 867.124 387.692 866.571 386.508 864.706L376.631 849.136C375.448 847.27 376.001 844.798 377.866 843.615Z" fill="#D8B280"/>
<path fill-rule="evenodd" clip-rule="evenodd" d="M573.029 824.615C575.219 824.327 577.227 825.87 577.515 828.061L579.75 845.108C580.038 847.299 578.495 849.307 576.304 849.594C574.114 849.882 572.105 848.339 571.818 846.148L569.583 829.101C569.295 826.91 570.838 824.902 573.029 824.615Z" fill="#D8B280"/>
<path fill-rule="evenodd" clip-rule="evenodd" d="M648.607 815.331C650.797 815.044 652.806 816.587 653.093 818.777L655.328 835.825C655.616 838.015 654.073 840.024 651.882 840.311C649.692 840.598 647.684 839.056 647.396 836.865L645.161 819.818C644.873 817.627 646.416 815.619 648.607 815.331Z" fill="#D8B280"/>
<path fill-rule="evenodd" clip-rule="evenodd" d="M636.308 790.151C637.916 791.666 637.99 794.198 636.474 795.805L618.013 815.38C616.497 816.987 613.966 817.062 612.359 815.546C610.751 814.03 610.677 811.499 612.193 809.892L630.654 790.316C632.17 788.709 634.701 788.635 636.308 790.151Z" fill="#D8B280"/>
<path fill-rule="evenodd" clip-rule="evenodd" d="M569.22 794.478C571.41 794.191 573.419 795.734 573.706 797.924L575.942 814.971C576.229 817.162 574.686 819.17 572.496 819.458C570.305 819.745 568.297 818.202 568.01 816.012L565.774 798.964C565.487 796.774 567.03 794.765 569.22 794.478Z" fill="#D8B280"/>
<path fill-rule="evenodd" clip-rule="evenodd" d="M644.575 784.595C646.766 784.308 648.774 785.851 649.062 788.041L651.297 805.089C651.584 807.279 650.042 809.288 647.851 809.575C645.661 809.862 643.652 808.319 643.365 806.129L641.129 789.081C640.842 786.891 642.385 784.882 644.575 784.595Z" fill="#D8B280"/>
<path fill-rule="evenodd" clip-rule="evenodd" d="M576.985 853.972C579.172 853.665 581.195 855.19 581.501 857.378L583.716 873.175C584.022 875.362 582.497 877.385 580.31 877.691C578.122 877.998 576.1 876.473 575.793 874.285L573.579 858.489C573.272 856.301 574.797 854.279 576.985 853.972Z" fill="#D8B280"/>
<path fill-rule="evenodd" clip-rule="evenodd" d="M654.325 843.831C656.512 843.525 658.534 845.05 658.841 847.237L661.055 863.034C661.362 865.222 659.837 867.244 657.649 867.551C655.462 867.857 653.44 866.332 653.133 864.145L650.919 848.348C650.612 846.16 652.137 844.138 654.325 843.831Z" fill="#D8B280"/>
<path fill-rule="evenodd" clip-rule="evenodd" d="M639.535 890.981C637.783 889.636 637.454 887.124 638.799 885.372L649.999 870.793C651.344 869.041 653.856 868.711 655.607 870.057C657.359 871.403 657.689 873.914 656.343 875.666L645.144 890.246C643.798 891.998 641.287 892.327 639.535 890.981Z" fill="#D8B280"/>
<path fill-rule="evenodd" clip-rule="evenodd" d="M780.637 699.091C781.852 697.246 784.333 696.735 786.178 697.95L806.258 711.171C808.103 712.386 808.614 714.867 807.399 716.712C806.184 718.557 803.703 719.068 801.858 717.853L781.778 704.631C779.933 703.417 779.422 700.936 780.637 699.091Z" fill="#996D33"/>
<path fill-rule="evenodd" clip-rule="evenodd" d="M810.294 719.038C811.633 717.281 814.143 716.941 815.9 718.279L833.779 731.894C835.536 733.232 835.876 735.742 834.538 737.5C833.199 739.257 830.689 739.597 828.932 738.259L811.053 724.644C809.296 723.306 808.956 720.796 810.294 719.038Z" fill="#996D33"/>
<path fill-rule="evenodd" clip-rule="evenodd" d="M1041.28 707.186C1040.85 705.019 1042.26 702.914 1044.43 702.484L1067.68 697.875C1069.85 697.446 1071.95 698.854 1072.38 701.021C1072.81 703.188 1071.4 705.293 1069.24 705.723L1045.98 710.332C1043.82 710.761 1041.71 709.353 1041.28 707.186Z" fill="#996D33"/>
<path fill-rule="evenodd" clip-rule="evenodd" d="M1006.74 714.721C1006.31 712.554 1007.72 710.449 1009.88 710.02L1033.14 705.411C1035.31 704.981 1037.41 706.39 1037.84 708.556C1038.27 710.723 1036.86 712.828 1034.69 713.258L1011.44 717.867C1009.27 718.296 1007.17 716.888 1006.74 714.721Z" fill="#996D33"/>
<path fill-rule="evenodd" clip-rule="evenodd" d="M788.624 696.301C786.716 695.187 786.073 692.737 787.187 690.83L799.143 670.359C800.257 668.451 802.707 667.808 804.614 668.922C806.522 670.036 807.165 672.486 806.051 674.393L794.095 694.864C792.981 696.772 790.532 697.415 788.624 696.301Z" fill="#996D33"/>
<path fill-rule="evenodd" clip-rule="evenodd" d="M806.083 667.671C804.282 666.392 803.86 663.895 805.139 662.094L818.871 642.769C820.15 640.968 822.648 640.546 824.448 641.825C826.249 643.105 826.672 645.602 825.392 647.403L811.661 666.728C810.381 668.528 807.884 668.951 806.083 667.671Z" fill="#996D33"/>
<path fill-rule="evenodd" clip-rule="evenodd" d="M825.217 639.442C823.679 637.855 823.72 635.323 825.306 633.785L842.332 617.29C843.919 615.753 846.451 615.793 847.988 617.379C849.526 618.966 849.486 621.498 847.899 623.035L830.873 639.531C829.286 641.068 826.754 641.028 825.217 639.442Z" fill="#996D33"/>
<path fill-rule="evenodd" clip-rule="evenodd" d="M851.11 617.671C849.721 615.953 849.987 613.434 851.705 612.045L870.139 597.139C871.857 595.75 874.376 596.017 875.765 597.735C877.154 599.452 876.887 601.971 875.169 603.36L856.735 618.266C855.018 619.655 852.499 619.389 851.11 617.671Z" fill="#996D33"/>
<path fill-rule="evenodd" clip-rule="evenodd" d="M1229.07 606.253C1229.51 604.087 1231.62 602.687 1233.78 603.126L1251.43 606.696C1253.59 607.134 1254.99 609.245 1254.55 611.41C1254.11 613.575 1252 614.975 1249.84 614.537L1232.2 610.967C1230.03 610.528 1228.63 608.418 1229.07 606.253Z" fill="#9A5354"/>
<path fill-rule="evenodd" clip-rule="evenodd" d="M1256.96 611.809C1256.97 609.599 1258.78 607.819 1260.98 607.832L1278.98 607.937C1281.19 607.95 1282.97 609.751 1282.96 611.96C1282.95 614.17 1281.15 615.95 1278.94 615.937L1260.94 615.832C1258.73 615.819 1256.95 614.018 1256.96 611.809Z" fill="#9A5354"/>
<path fill-rule="evenodd" clip-rule="evenodd" d="M1303.65 613.034C1303.21 610.87 1304.61 608.757 1306.77 608.315L1324.41 604.715C1326.57 604.273 1328.68 605.67 1329.13 607.834C1329.57 609.998 1328.17 612.111 1326.01 612.553L1308.37 616.154C1306.21 616.595 1304.09 615.199 1303.65 613.034Z" fill="#9A5354"/>
<path fill-rule="evenodd" clip-rule="evenodd" d="M1330.23 607.968C1329.72 605.818 1331.05 603.662 1333.2 603.15L1350.71 598.985C1352.86 598.473 1355.02 599.801 1355.53 601.95C1356.04 604.099 1354.71 606.256 1352.56 606.767L1335.05 610.933C1332.9 611.444 1330.75 610.117 1330.23 607.968Z" fill="#9A5354"/>
<path fill-rule="evenodd" clip-rule="evenodd" d="M1224.88 637.093C1222.68 636.836 1221.12 634.848 1221.37 632.654L1223.47 614.777C1223.73 612.583 1225.72 611.013 1227.91 611.27C1230.1 611.528 1231.67 613.515 1231.42 615.71L1229.32 633.587C1229.06 635.781 1227.07 637.351 1224.88 637.093Z" fill="#9A5354"/>
<path fill-rule="evenodd" clip-rule="evenodd" d="M1282.27 640.47C1280.08 640.213 1278.51 638.225 1278.76 636.031L1280.86 618.154C1281.12 615.96 1283.11 614.39 1285.3 614.647C1287.49 614.905 1289.06 616.892 1288.81 619.086L1286.71 636.964C1286.45 639.158 1284.46 640.728 1282.27 640.47Z" fill="#9A5354"/>
<path fill-rule="evenodd" clip-rule="evenodd" d="M1304.23 642.036C1302.04 642.357 1300.01 640.845 1299.69 638.66L1297.07 620.851C1296.75 618.665 1298.26 616.633 1300.45 616.312C1302.63 615.991 1304.67 617.503 1304.99 619.688L1307.6 637.497C1307.92 639.683 1306.41 641.715 1304.23 642.036Z" fill="#9A5354"/>
<path fill-rule="evenodd" clip-rule="evenodd" d="M1236.04 660.204C1234.15 661.351 1231.69 660.751 1230.54 658.863L1222.82 646.159C1221.67 644.272 1222.27 641.811 1224.16 640.664C1226.05 639.516 1228.51 640.117 1229.65 642.004L1237.38 654.708C1238.52 656.596 1237.92 659.056 1236.04 660.204Z" fill="#9A5354"/>
<path fill-rule="evenodd" clip-rule="evenodd" d="M1264.26 666.067C1264 668.261 1262.01 669.827 1259.81 669.565L1241.94 667.432C1239.75 667.17 1238.18 665.179 1238.44 662.986C1238.7 660.792 1240.69 659.226 1242.89 659.488L1260.76 661.621C1262.96 661.883 1264.52 663.874 1264.26 666.067Z" fill="#9A5354"/>
<path fill-rule="evenodd" clip-rule="evenodd" d="M1280.78 642.599C1282.65 643.769 1283.22 646.236 1282.05 648.11L1272.52 663.38C1271.35 665.254 1268.89 665.824 1267.01 664.655C1265.14 663.485 1264.57 661.017 1265.74 659.143L1275.27 643.874C1276.44 642 1278.9 641.429 1280.78 642.599Z" fill="#9A5354"/>
<path fill-rule="evenodd" clip-rule="evenodd" d="M1302.12 646.031C1303.54 644.339 1306.06 644.118 1307.76 645.538L1321.55 657.107C1323.24 658.527 1323.46 661.05 1322.04 662.743C1320.62 664.435 1318.1 664.656 1316.4 663.236L1302.61 651.666C1300.92 650.246 1300.7 647.723 1302.12 646.031Z" fill="#9A5354"/>
<path fill-rule="evenodd" clip-rule="evenodd" d="M1327.6 666.229C1327.13 664.07 1328.5 661.94 1330.66 661.471L1348.25 657.65C1350.41 657.181 1352.54 658.551 1353.01 660.709C1353.48 662.868 1352.11 664.998 1349.95 665.467L1332.36 669.289C1330.2 669.758 1328.07 668.388 1327.6 666.229Z" fill="#9A5354"/>
<path fill-rule="evenodd" clip-rule="evenodd" d="M1392.92 851.268C1392.45 849.109 1393.82 846.979 1395.98 846.51L1413.57 842.689C1415.73 842.22 1417.86 843.59 1418.33 845.748C1418.8 847.907 1417.43 850.037 1415.27 850.506L1397.68 854.328C1395.52 854.797 1393.39 853.427 1392.92 851.268Z" fill="#9A5354"/>
<path fill-rule="evenodd" clip-rule="evenodd" d="M1366.68 855.33C1366.23 853.166 1367.63 851.051 1369.79 850.605L1386.44 847.176C1388.6 846.73 1390.72 848.123 1391.16 850.287C1391.61 852.451 1390.22 854.566 1388.05 855.012L1371.4 858.441C1369.24 858.886 1367.12 857.494 1366.68 855.33Z" fill="#9A5354"/>
<path fill-rule="evenodd" clip-rule="evenodd" d="M1340.09 860.703C1339.62 858.543 1340.99 856.415 1343.15 855.948L1358.74 852.58C1360.9 852.113 1363.03 853.485 1363.5 855.645C1363.96 857.804 1362.59 859.933 1360.43 860.399L1344.84 863.768C1342.68 864.234 1340.55 862.862 1340.09 860.703Z" fill="#9A5354"/>
<path fill-rule="evenodd" clip-rule="evenodd" d="M1311.47 865.821C1311.01 863.662 1312.38 861.532 1314.53 861.063L1332.12 857.242C1334.28 856.773 1336.41 858.142 1336.88 860.301C1337.35 862.46 1335.98 864.59 1333.82 865.059L1316.23 868.881C1314.07 869.35 1311.94 867.98 1311.47 865.821Z" fill="#9A5354"/>
<path fill-rule="evenodd" clip-rule="evenodd" d="M1183.96 861.842C1184.21 859.647 1186.19 858.068 1188.38 858.315L1206.27 860.33C1208.46 860.577 1210.04 862.557 1209.8 864.752C1209.55 866.948 1207.57 868.527 1205.37 868.279L1187.49 866.265C1185.29 866.017 1183.71 864.037 1183.96 861.842Z" fill="#9A5354"/>
<path fill-rule="evenodd" clip-rule="evenodd" d="M1212.23 864.967C1212.48 862.772 1214.46 861.193 1216.65 861.44L1234.54 863.455C1236.73 863.702 1238.31 865.682 1238.06 867.877C1237.82 870.073 1235.84 871.652 1233.64 871.404L1215.76 869.39C1213.56 869.142 1211.98 867.162 1212.23 864.967Z" fill="#9A5354"/>
<path fill-rule="evenodd" clip-rule="evenodd" d="M1241.52 868.062C1241.87 865.881 1243.93 864.399 1246.11 864.752L1261.76 867.283C1263.94 867.636 1265.42 869.69 1265.07 871.87C1264.72 874.051 1262.66 875.533 1260.48 875.18L1244.83 872.649C1242.65 872.297 1241.17 870.243 1241.52 868.062Z" fill="#9A5354"/>
<path fill-rule="evenodd" clip-rule="evenodd" d="M1155.11 860.841C1155.23 858.636 1157.12 856.948 1159.33 857.073L1177.3 858.085C1179.5 858.209 1181.19 860.098 1181.07 862.304C1180.94 864.509 1179.05 866.197 1176.85 866.072L1158.88 865.06C1156.67 864.936 1154.98 863.047 1155.11 860.841Z" fill="#9A5354"/>
<path fill-rule="evenodd" clip-rule="evenodd" d="M1354.49 657.928C1352.38 657.265 1351.21 655.018 1351.87 652.911L1357.28 635.743C1357.95 633.636 1360.19 632.466 1362.3 633.13C1364.41 633.794 1365.58 636.04 1364.91 638.147L1359.5 655.315C1358.84 657.422 1356.59 658.592 1354.49 657.928Z" fill="#9A5354"/>
<path fill-rule="evenodd" clip-rule="evenodd" d="M1361.72 632.578C1359.6 633.174 1357.39 631.934 1356.79 629.807L1351.93 612.476C1351.33 610.349 1352.57 608.141 1354.7 607.544C1356.83 606.948 1359.03 608.188 1359.63 610.315L1364.49 627.646C1365.09 629.773 1363.85 631.981 1361.72 632.578Z" fill="#9A5354"/>
<path d="M515.07 743.43L553.244 1066.43L525.909 1058.36L491.38 1048.18L464.358 1035.52L515.07 743.43Z" fill="#D48B4A"/>
<path d="M448.936 734.347L428.82 1014.61C428.82 1014.61 409.691 1006.36 397.058 1002.11C381.509 996.875 356.491 991.186 356.491 991.186L448.936 734.347Z" fill="#D48B4A"/>
<path d="M593.246 757.629L688.093 1063.46C688.093 1063.46 659.363 1069.04 640.711 1070.34C624.442 1071.47 598.951 1070.53 598.951 1070.53L593.246 757.629Z" fill="#D48B4A"/>
<path fill-rule="evenodd" clip-rule="evenodd" d="M609.413 894.897C609.126 892.707 610.669 890.698 612.859 890.411L628.675 888.337C630.865 888.05 632.874 889.593 633.161 891.783C633.448 893.973 631.906 895.982 629.715 896.269L613.9 898.343C611.709 898.63 609.701 897.088 609.413 894.897Z" fill="#D8B280"/>
<path fill-rule="evenodd" clip-rule="evenodd" d="M582.53 880.877C583.737 879.027 586.216 878.506 588.066 879.713L603.507 889.791C605.357 890.998 605.878 893.477 604.671 895.327C603.463 897.177 600.985 897.698 599.135 896.491L583.693 886.413C581.843 885.205 581.323 882.727 582.53 880.877Z" fill="#D8B280"/>
<path fill-rule="evenodd" clip-rule="evenodd" d="M568.566 789.336C568.34 787.138 569.938 785.173 572.135 784.946L597.998 782.28C600.195 782.053 602.161 783.651 602.387 785.849C602.614 788.046 601.016 790.011 598.818 790.238L572.955 792.904C570.758 793.131 568.793 791.533 568.566 789.336Z" fill="#D8B280"/>
<path fill-rule="evenodd" clip-rule="evenodd" d="M578.731 797.591C579.983 795.771 582.474 795.31 584.294 796.562L606.464 811.808C608.285 813.06 608.746 815.55 607.494 817.371C606.242 819.191 603.752 819.652 601.931 818.4L579.761 803.153C577.94 801.901 577.48 799.411 578.731 797.591Z" fill="#D8B280"/>
<path fill-rule="evenodd" clip-rule="evenodd" d="M464.406 783.332C465.24 785.378 464.259 787.713 462.213 788.547L437.3 798.713C435.255 799.548 432.92 798.566 432.086 796.521C431.251 794.475 432.233 792.14 434.278 791.306L459.191 781.14C461.236 780.306 463.571 781.287 464.406 783.332Z" fill="#D8B280"/>
<path fill-rule="evenodd" clip-rule="evenodd" d="M423.969 875.719C422.998 873.735 423.82 871.339 425.804 870.369L442.368 862.266C444.352 861.295 446.748 862.117 447.718 864.101C448.689 866.085 447.867 868.481 445.883 869.452L429.32 877.555C427.335 878.526 424.94 877.704 423.969 875.719Z" fill="#D8B280"/>
<path fill-rule="evenodd" clip-rule="evenodd" d="M395.041 867.575C395.615 865.442 397.81 864.179 399.943 864.753L417.748 869.55C419.881 870.125 421.144 872.32 420.569 874.453C419.995 876.586 417.8 877.849 415.667 877.275L397.862 872.478C395.729 871.903 394.466 869.708 395.041 867.575Z" fill="#D8B280"/>
<path fill-rule="evenodd" clip-rule="evenodd" d="M440.702 765.802C441.327 763.683 443.551 762.472 445.67 763.097L470.608 770.453C472.727 771.078 473.938 773.303 473.313 775.422C472.688 777.541 470.463 778.752 468.345 778.127L443.407 770.77C441.288 770.145 440.077 767.921 440.702 765.802Z" fill="#D8B280"/>
<path fill-rule="evenodd" clip-rule="evenodd" d="M408.921 766.242C410.814 765.104 413.272 765.717 414.41 767.611L428.269 790.674C429.407 792.567 428.795 795.025 426.901 796.163C425.008 797.3 422.55 796.688 421.412 794.794L407.553 771.731C406.415 769.838 407.027 767.38 408.921 766.242Z" fill="#D8B280"/>
<path d="M1082.08 509.063C1077.15 508.722 1072.65 507.975 1068.57 506.823C1064.49 505.729 1060.85 504.434 1057.65 502.938C1054.39 501.437 1051.65 499.827 1049.43 498.109C1047.14 496.444 1045.35 494.872 1044.07 493.392L1047.22 455.11C1048.67 453.879 1050.65 452.741 1053.16 451.699C1055.67 450.656 1058.65 449.761 1062.09 449.015C1065.47 448.322 1069.29 447.834 1073.54 447.549C1077.73 447.318 1082.26 447.371 1087.13 447.709C1092.18 448.059 1096.78 448.639 1100.94 449.448C1105.04 450.312 1108.7 451.319 1111.93 452.47C1115.1 453.617 1117.82 454.877 1120.07 456.25C1122.32 457.681 1124.09 459.107 1125.38 460.529L1122.23 498.811C1120.71 500.154 1118.72 501.493 1116.24 502.827C1113.76 504.22 1110.84 505.437 1107.49 506.479C1104.13 507.521 1100.35 508.302 1096.14 508.821C1091.87 509.336 1087.18 509.417 1082.08 509.063ZM1083.79 488.324C1088.78 488.67 1093.21 488.571 1097.09 488.029C1100.96 487.544 1104.31 486.85 1107.15 485.945C1109.98 485.041 1112.32 484.073 1114.15 483.041C1115.92 482.063 1117.2 481.254 1117.98 480.613C1117.31 479.871 1116.18 478.866 1114.6 477.597C1112.95 476.382 1110.8 475.161 1108.14 473.934C1105.48 472.707 1102.27 471.558 1098.53 470.487C1094.78 469.474 1090.41 468.794 1085.43 468.449C1080.44 468.103 1076.01 468.173 1072.14 468.657C1068.26 469.2 1064.91 469.894 1062.08 470.741C1059.25 471.588 1056.95 472.5 1055.17 473.478C1053.4 474.514 1052.09 475.35 1051.25 475.987C1051.98 476.733 1053.14 477.711 1054.73 478.922C1056.31 480.191 1058.43 481.468 1061.09 482.753C1063.74 484.037 1066.95 485.186 1070.69 486.199C1074.44 487.27 1078.8 487.978 1083.79 488.324Z" fill="#8A6330"/>
<path d="M1149.46 485.457L1170.17 487.469L1171.24 450.065L1182.1 451.119L1181.02 488.523L1201.74 490.534L1202.81 453.131L1213.66 454.184L1211.98 512.84L1138 505.655L1139.68 447L1150.53 448.054L1149.46 485.457Z" fill="#8A6330"/>
<path d="M2100.37 502.138L2087.58 498.512L2074.56 545.319L2087.35 548.946L2100.37 502.138Z" fill="#1A1717"/>
<path d="M1940.93 506.194L1928.54 511.025L1946.41 556.205L1958.8 551.374L1940.93 506.194Z" fill="#1A1717"/>
<path d="M1733.22 533.748L1720.42 530.121L1703.7 590.227L1716.49 593.853L1733.22 533.748Z" fill="#1A1717"/>
<path d="M1568.07 528.586L1554.96 530.811L1566.36 596.084L1579.47 593.859L1568.07 528.586Z" fill="#1A1717"/>
</svg>
