<svg width="5304" height="1989" viewBox="0 0 5304 1989" fill="none" xmlns="http://www.w3.org/2000/svg">
<rect width="5072" height="6" transform="matrix(1 0 0 -1 232 690)" fill="black"/>
<path fill-rule="evenodd" clip-rule="evenodd" d="M1847.49 692.148L1764.9 972.149C1764.9 972.149 1863.21 992.971 1927.13 994.167C1991.54 995.372 2091.29 977.964 2091.29 977.964L1998.57 686.054C1998.57 686.054 1953.68 702.145 1923.98 703.453C1893.7 704.787 1847.49 692.148 1847.49 692.148Z" fill="#6A6734"/>
<path d="M1282.99 658.16C1278.58 657.815 1274.55 657.083 1270.89 655.962C1267.24 654.897 1263.97 653.64 1261.1 652.191C1258.18 650.738 1255.72 649.181 1253.73 647.522C1251.68 645.914 1250.07 644.396 1248.92 642.969L1251.63 606.176C1252.93 604.997 1254.7 603.91 1256.94 602.916C1259.18 601.921 1261.84 601.071 1264.92 600.365C1267.95 599.71 1271.36 599.253 1275.17 598.993C1278.92 598.785 1282.98 598.851 1287.34 599.192C1291.86 599.544 1295.98 600.117 1299.7 600.909C1303.38 601.753 1306.66 602.733 1309.55 603.85C1312.4 604.963 1314.83 606.183 1316.85 607.511C1318.87 608.893 1320.46 610.27 1321.62 611.642L1318.91 648.435C1317.55 649.721 1315.77 651.002 1313.55 652.277C1311.34 653.607 1308.73 654.768 1305.73 655.759C1302.73 656.75 1299.34 657.488 1295.57 657.973C1291.75 658.454 1287.56 658.517 1282.99 658.16ZM1284.46 638.227C1288.93 638.576 1292.9 638.496 1296.37 637.987C1299.83 637.534 1302.83 636.877 1305.37 636.017C1307.9 635.157 1309.99 634.234 1311.63 633.248C1313.21 632.314 1314.35 631.54 1315.05 630.926C1314.45 630.211 1313.44 629.241 1312.01 628.016C1310.53 626.842 1308.6 625.661 1306.22 624.473C1303.83 623.284 1300.96 622.169 1297.61 621.127C1294.25 620.141 1290.34 619.474 1285.87 619.125C1281.41 618.776 1277.44 618.828 1273.98 619.282C1270.51 619.791 1267.51 620.447 1264.97 621.252C1262.44 622.057 1260.38 622.926 1258.8 623.861C1257.22 624.851 1256.05 625.65 1255.29 626.26C1255.95 626.979 1256.99 627.924 1258.42 629.093C1259.84 630.318 1261.74 631.552 1264.12 632.796C1266.5 634.04 1269.37 635.156 1272.73 636.142C1276.09 637.183 1280 637.879 1284.46 638.227Z" fill="#8A6330"/>
<path d="M1239.12 621.225L1195.3 617.851L1196.45 654.059L1185.81 653.24L1184 596.459L1238.46 600.652L1239.12 621.225Z" fill="#8A6330"/>
<path d="M1134.04 657.693C1129.11 657.418 1124.6 656.748 1120.5 655.685C1116.4 654.677 1112.73 653.471 1109.49 652.066C1106.19 650.658 1103.41 649.14 1101.14 647.511C1098.8 645.935 1096.97 644.443 1095.64 643.034L1097.54 606.19C1098.95 604.99 1100.89 603.875 1103.36 602.845C1105.82 601.815 1108.76 600.923 1112.17 600.169C1115.51 599.466 1119.3 598.955 1123.53 598.636C1127.7 598.368 1132.21 598.371 1137.08 598.643C1142.12 598.925 1146.73 599.433 1150.9 600.167C1155.01 600.953 1158.7 601.882 1161.95 602.954C1165.16 604.023 1167.9 605.205 1170.19 606.501C1172.48 607.853 1174.29 609.205 1175.62 610.559L1173.72 647.402C1172.25 648.71 1170.3 650.019 1167.88 651.329C1165.45 652.695 1162.58 653.897 1159.27 654.935C1155.96 655.973 1152.22 656.764 1148.04 657.309C1143.8 657.85 1139.13 657.978 1134.04 657.693ZM1135.07 637.733C1140.05 638.012 1144.46 637.869 1148.31 637.306C1152.15 636.798 1155.47 636.094 1158.27 635.194C1161.07 634.294 1163.36 633.338 1165.15 632.326C1166.89 631.367 1168.14 630.575 1168.9 629.95C1168.2 629.244 1167.05 628.29 1165.43 627.087C1163.74 625.936 1161.56 624.785 1158.87 623.634C1156.18 622.482 1152.95 621.412 1149.18 620.423C1145.41 619.489 1141.04 618.883 1136.05 618.604C1131.07 618.325 1126.66 618.44 1122.82 618.948C1118.97 619.511 1115.65 620.215 1112.86 621.059C1110.06 621.904 1107.8 622.806 1106.07 623.766C1104.33 624.78 1103.05 625.599 1102.23 626.22C1102.98 626.929 1104.17 627.858 1105.79 629.005C1107.42 630.208 1109.57 631.413 1112.26 632.62C1114.95 633.827 1118.18 634.897 1121.95 635.831C1125.71 636.82 1130.09 637.454 1135.07 637.733Z" fill="#8A6330"/>
<path d="M1085.16 654.309L1077.66 654.44L1078.98 617.447L1063.77 617.713L1063.35 629.484C1063.22 633.071 1062.9 636.409 1062.38 639.499C1061.81 642.59 1060.81 645.268 1059.36 647.534C1057.92 649.856 1055.88 651.656 1053.24 652.935C1050.6 654.269 1047.12 654.974 1042.8 655.05L1035.16 655.183L1035.53 645.094C1038.12 645.049 1040.06 644.147 1041.35 642.388C1042.59 640.686 1043.29 637.621 1043.45 633.193L1044.75 597.041L1087.24 596.297L1085.16 654.309Z" fill="#8A6330"/>
<path fill-rule="evenodd" clip-rule="evenodd" d="M2521.9 685.117C2521.9 685.117 2542.82 716.529 2563.38 717.684C2586.19 718.965 2610.58 683.128 2610.58 683.128L2672.93 701.518L2785.28 887.922L2735.95 929.672L2660.32 802.58L2703.56 1039.49L2469.59 1035.64L2501.74 801.156L2452.58 920.106L2400.31 904.687L2477.53 692.362L2521.9 685.117Z" fill="white"/>
<path d="M2610.75 682.459L2669.73 699.859L2725.47 791.89L2773.36 894.637L2741.11 922.658L2658.7 800.866L2610.75 682.459Z" fill="#D9D9D9"/>
<path fill-rule="evenodd" clip-rule="evenodd" d="M1856.95 745.118L1787.04 970.112C1787.04 970.112 1886.06 986.719 1950 986.936C2014.42 987.155 2075.19 973.522 2075.19 973.522L1984.16 746.8L2021.27 982.386L1984.56 985.839L1950 986.936L1921.29 752.651L1898.32 984.281L1838.9 977.713L1856.95 745.118Z" fill="#85824D"/>
<path d="M2644.39 816.459L2676.19 888.916L2703.81 1040.94L2624.24 1036.76L2644.39 816.459Z" fill="#D9D9D9"/>
<path d="M2489.49 881.804L2501.06 805.459L2563.62 1015.75L2477.08 975.107L2489.49 881.804Z" fill="#D9D9D9"/>
<path fill-rule="evenodd" clip-rule="evenodd" d="M446.678 650.714L484.282 658.736L480.992 713.129C480.992 713.129 502.49 729.235 518.658 730.804C532.852 732.181 554.258 723.45 554.258 723.45L559.414 673.541L611.618 677.588L714.787 1196.95C714.787 1196.95 643.725 1213.18 597.463 1211.67C558.08 1210.39 535.644 1206.28 497.828 1194.99C452.675 1181.51 433.477 1158.29 388.652 1143.76C355.092 1132.88 300.495 1124.04 300.495 1124.04L446.678 650.714Z" fill="#BC6C25"/>
<path d="M811.238 589.862C814.777 589.858 818.201 590.027 821.511 590.37C824.764 590.713 827.735 591.2 830.424 591.833C833.113 592.466 835.463 593.185 837.476 593.992C839.431 594.857 840.936 595.809 841.991 596.848L841.736 618.349C839.751 619.911 837.573 621.243 835.201 622.344C832.772 623.445 830.234 624.315 827.587 624.954C824.939 625.593 822.21 626.059 819.398 626.351C816.53 626.644 813.635 626.791 810.715 626.795L792.684 626.816L792.412 649.704L783.144 649.716L783.855 589.895L811.238 589.862ZM792.777 619.014L810.807 618.992C815.357 618.987 819.152 618.664 822.193 618.025C825.177 617.443 827.602 616.603 829.469 615.502C827.684 614.406 825.308 613.455 822.341 612.65C819.317 611.902 815.53 611.531 810.98 611.536L792.866 611.558L792.777 619.014Z" fill="#8A6330"/>
<path d="M770.719 590.301L770.32 650.121L761.051 650.183L761.306 612.037L729.288 612.252L729.033 650.398L719.765 650.46L720.164 590.641L770.719 590.301Z" fill="#8A6330"/>
<path d="M609.265 580.356L609.203 603.242L627.235 603.045C630.156 603.013 633.048 603.126 635.912 603.384C638.72 603.642 641.443 604.075 644.082 604.681C646.72 605.288 649.246 606.128 651.658 607.199C654.015 608.272 656.174 609.577 658.136 611.116L658.078 632.616C657.008 633.668 655.489 634.609 653.52 635.44C651.496 636.329 649.135 637.106 646.437 637.771C643.739 638.436 640.76 638.96 637.501 639.343C634.186 639.726 630.759 639.936 627.22 639.975L599.836 640.275L599.996 580.457L609.265 580.356ZM627.278 618.302C631.828 618.252 635.621 617.806 638.656 616.964C641.636 616.18 644.025 615.229 645.826 614.111C643.975 613.034 641.562 612.193 638.587 611.59C635.555 611.045 631.764 610.798 627.214 610.847L609.182 611.045L609.162 618.5L627.278 618.302Z" fill="#8A6330"/>
<path d="M592.903 640.845L583.635 641.066L583.272 602.93L564.483 603.378L564.598 615.513C564.634 619.211 564.414 622.655 563.938 625.845C563.407 629.036 562.31 631.808 560.646 634.159C558.984 636.568 556.558 638.447 553.368 639.795C550.179 641.2 545.917 641.966 540.58 642.094L531.144 642.319L531.045 631.918C534.246 631.841 536.597 630.889 538.097 629.062C539.54 627.294 540.241 624.127 540.197 619.562L539.842 582.293L592.334 581.04L592.903 640.845Z" fill="#8A6330"/>
<path d="M499.837 581.872L528.609 641.881L519.342 641.823L514.154 631.038L474.391 630.787L468.796 641.503L444.365 641.349L475.407 581.718L499.837 581.872ZM495.028 591.12L485.148 610.046L504.187 610.166L495.028 591.12Z" fill="#8A6330"/>
<path d="M412.678 581.05C416.213 581.163 419.629 581.445 422.925 581.896C426.165 582.346 429.118 582.932 431.785 583.653C434.451 584.374 436.777 585.171 438.762 586.044C440.689 586.973 442.164 587.974 443.185 589.048L442.533 604.213C440.102 605.871 437.682 607.24 435.276 608.321C432.813 609.4 430.39 610.219 428.005 610.78C430.672 611.501 433.498 612.43 436.483 613.566C439.41 614.758 442.07 616.289 444.462 618.158L443.814 633.236C442.7 634.3 441.083 635.319 438.962 636.293C436.839 637.324 434.414 638.173 431.688 638.838C428.903 639.56 425.874 640.1 422.599 640.459C419.322 640.875 415.999 641.03 412.632 640.923L374.332 639.707L376.902 579.914L412.678 581.05ZM385.048 606.118L411.48 606.958C416.025 607.102 419.827 606.905 422.885 606.365C425.884 605.882 428.333 605.121 430.232 604.082C428.483 602.928 426.138 601.928 423.196 601.082C420.195 600.293 416.422 599.826 411.877 599.681L385.361 598.839L385.048 606.118ZM384.392 621.37L413.433 622.292C417.979 622.436 421.782 622.21 424.842 621.613C427.844 621.072 430.239 620.251 432.029 619.151C430.221 618.053 427.847 617.081 424.905 616.235C421.96 615.447 418.215 614.981 413.67 614.837L384.713 613.917L384.392 621.37Z" fill="#8A6330"/>
<path d="M324.827 578.619L323.214 611.541L361.854 580.03L371.111 580.383L368.182 640.163L358.925 639.811L360.496 607.755L321.898 638.399L312.641 638.046L315.57 578.266L324.827 578.619Z" fill="#8A6330"/>
<path d="M283.152 600.376L281.11 638.489L271.855 638.091L273.898 599.978L248.406 598.882L249.566 577.227L309.805 579.816L308.644 601.472L283.152 600.376Z" fill="#8A6330"/>
<path d="M239.979 633.535C236.303 635.262 231.836 636.646 226.579 637.688C221.322 638.73 215.249 639.022 208.36 638.564C203.432 638.237 198.929 637.503 194.85 636.362C190.767 635.279 187.121 633.993 183.913 632.505C180.649 631.013 177.9 629.41 175.666 627.696C173.371 626.036 171.576 624.468 170.281 622.991L173.183 584.664C174.627 583.426 176.599 582.282 179.099 581.231C181.599 580.18 184.566 579.275 188.001 578.518C191.375 577.815 195.184 577.314 199.428 577.017C203.611 576.773 208.139 576.813 213.012 577.137C219.788 577.587 225.743 578.476 230.877 579.802C235.955 581.125 240.23 582.656 243.7 584.393L241.912 608.013C240.797 607.127 239.35 606.161 237.572 605.116C235.794 604.07 233.647 603.058 231.132 602.079C228.617 601.1 225.73 600.213 222.469 599.416C219.204 598.678 215.528 598.173 211.439 597.901C206.455 597.57 202.03 597.652 198.165 598.149C194.296 598.704 190.95 599.409 188.127 600.265C185.304 601.121 183.011 602.041 181.248 603.025C179.481 604.067 178.179 604.908 177.343 605.548C178.074 606.292 179.239 607.268 180.836 608.475C182.428 609.741 184.555 611.012 187.217 612.291C189.878 613.569 193.084 614.709 196.836 615.712C200.583 616.773 204.948 617.469 209.933 617.8C214.021 618.072 217.739 618.029 221.087 617.672C224.43 617.372 227.423 616.875 230.065 616.181C232.702 615.545 234.982 614.798 236.904 613.94C238.822 613.14 240.4 612.376 241.637 611.646L239.979 633.535Z" fill="#8A6330"/>
<path d="M165.226 572.844L163.77 593.616L109.479 590.329L109.133 595.262L138.211 597.023L137.665 604.812L108.587 603.052L108.204 608.504L162.495 611.791L161.038 632.562L97.5029 628.716L101.691 568.998L165.226 572.844Z" fill="#8A6330"/>
<path d="M30.5331 616.338C24.7682 615.912 19.2939 614.695 14.1102 612.688C8.87063 610.677 4.37723 607.474 0.630043 603.079L2.61906 579.039C3.95057 577.919 5.69948 576.859 7.86579 575.859C9.97135 574.913 12.3776 574.076 15.0845 573.348C17.7915 572.62 20.7639 572.085 24.0019 571.745C27.2352 571.461 30.6149 571.45 34.141 571.711L43.7959 572.424L44.2967 566.371L53.5319 567.053L53.031 573.107L62.6859 573.82C66.2121 574.081 69.5488 574.588 72.6962 575.343C75.8389 576.155 78.7153 577.122 81.3256 578.243C83.8798 579.36 86.1192 580.54 88.0435 581.784C89.963 583.086 91.4884 584.388 92.6195 585.69L90.6305 609.73C88.9619 611.52 86.923 613.023 84.5137 614.237C82.0485 615.447 79.4088 616.383 76.5947 617.045C73.7759 617.765 70.8665 618.217 67.8667 618.401C64.8061 618.639 61.8206 618.65 58.9101 618.435L49.3392 617.728L48.5951 626.721L39.36 626.039L40.1041 617.045L30.5331 616.338ZM41.8641 595.772L32.2092 595.059C26.892 594.666 22.4763 594.949 18.9619 595.907C15.3868 596.919 12.3452 598.289 9.837 600.018C12.1471 602.045 14.9639 603.732 18.2875 605.08C21.5551 606.423 25.8754 607.293 31.2486 607.69L40.8196 608.398L41.8641 595.772ZM50.0547 609.08L59.6256 609.788C64.9988 610.185 69.4402 609.933 72.9498 609.032C76.3986 608.185 79.4283 606.959 82.0389 605.354C79.8408 603.335 77.0871 601.566 73.7778 600.045C70.4126 598.52 66.0714 597.561 60.7542 597.168L51.0993 596.455L50.0547 609.08Z" fill="#8A6330"/>
<path fill-rule="evenodd" clip-rule="evenodd" d="M882.71 711.877L843.469 743.836C843.469 743.836 837.296 747.645 833.491 750.3C795.893 776.537 766.472 845.711 766.472 845.711L823.099 884.784L751.605 1041.93L995.73 1101.61L996.742 865.9L1064.02 850.195C1064.02 850.195 1061.91 786.729 1038.16 756.809C1022.51 737.088 986.325 717.918 986.325 717.918C986.325 717.918 975.906 746.872 959.88 754.983C942.469 763.795 926.539 762.402 909.465 752.551C892.85 742.966 882.71 711.877 882.71 711.877Z" fill="#C9A87D"/>
<path fill-rule="evenodd" clip-rule="evenodd" d="M946.402 759.85L942.837 840.856L892.642 1076.41L995.73 1101.61L996.742 865.9L1064.02 850.195C1064.02 850.195 1061.91 786.729 1038.16 756.809C1022.51 737.088 986.325 717.918 986.325 717.918C986.325 717.918 975.906 746.872 959.88 754.983C955.301 757.301 950.824 758.912 946.402 759.85Z" fill="#B09571"/>
<path fill-rule="evenodd" clip-rule="evenodd" d="M1212.36 712.556C1212.36 712.556 1256.01 725.193 1284.62 725.378C1316.12 725.58 1363.73 710.908 1363.73 710.908L1412.68 995.238L1302.59 1013.73L1280.07 855.879L1255.57 1019.42L1141.66 1008.1L1187.85 814.29L1212.36 712.556Z" fill="#641B1C"/>
<path d="M619.794 644.691L607 641.064L593.978 687.872L606.772 691.499L619.794 644.691Z" fill="#1A1717"/>
<path d="M466.092 645.381L453.172 643.459L449 692.172L461.92 694.094L466.092 645.381Z" fill="#1A1717"/>
<path d="M866.843 670.293L851.609 671.77L867.227 734.294L882.46 732.818L866.843 670.293Z" fill="#1A1717"/>
<path d="M1212.69 664.751L1197.62 667.48L1220.59 731.217L1235.66 728.488L1212.69 664.751Z" fill="#1A1717"/>
<path d="M1043.28 677.266L1029.61 670.459L991.534 734.095L1005.21 740.902L1043.28 677.266Z" fill="#1A1717"/>
<path d="M1367.92 667.684L1353.34 665.658L1348.37 734.744L1362.95 736.77L1367.92 667.684Z" fill="#1A1717"/>
<path fill-rule="evenodd" clip-rule="evenodd" d="M383.532 929.932C385.645 930.578 386.833 932.814 386.187 934.927L381.158 951.368C380.511 953.481 378.275 954.67 376.162 954.023C374.05 953.377 372.861 951.141 373.507 949.028L378.537 932.587C379.183 930.474 381.42 929.286 383.532 929.932Z" fill="#D8B280"/>
<path fill-rule="evenodd" clip-rule="evenodd" d="M456.161 952.801C458.273 953.447 459.462 955.684 458.816 957.796L453.786 974.238C453.14 976.35 450.904 977.539 448.791 976.892C446.679 976.246 445.49 974.01 446.136 971.897L451.166 955.456C451.812 953.343 454.048 952.155 456.161 952.801Z" fill="#D8B280"/>
<path fill-rule="evenodd" clip-rule="evenodd" d="M395.253 896.509C395.878 894.39 398.102 893.179 400.221 893.804L425.159 901.16C427.278 901.786 428.489 904.01 427.864 906.129C427.239 908.248 425.014 909.459 422.895 908.834L397.958 901.477C395.839 900.852 394.628 898.628 395.253 896.509Z" fill="#D8B280"/>
<path fill-rule="evenodd" clip-rule="evenodd" d="M483.175 732.986C484.169 731.014 486.574 730.22 488.547 731.214L504.177 739.09C506.15 740.084 506.944 742.489 505.95 744.462C504.956 746.435 502.55 747.228 500.578 746.234L484.947 738.359C482.974 737.364 482.181 734.959 483.175 732.986Z" fill="#D8B280"/>
<path fill-rule="evenodd" clip-rule="evenodd" d="M467.605 708.451C469.551 707.405 471.976 708.134 473.022 710.08L481.831 726.463C482.877 728.409 482.148 730.834 480.203 731.88C478.257 732.927 475.831 732.197 474.785 730.252L465.976 713.869C464.93 711.923 465.659 709.498 467.605 708.451Z" fill="#D8B280"/>
<path fill-rule="evenodd" clip-rule="evenodd" d="M470.124 682.023C472.328 682.17 473.996 684.076 473.849 686.28L472.751 702.782C472.604 704.986 470.698 706.654 468.494 706.507C466.29 706.361 464.622 704.455 464.769 702.251L465.867 685.749C466.014 683.545 467.92 681.877 470.124 682.023Z" fill="#D8B280"/>
<path fill-rule="evenodd" clip-rule="evenodd" d="M472.211 657.598C474.411 657.795 476.035 659.739 475.837 661.939L474.471 677.175C474.273 679.375 472.33 680.999 470.129 680.801C467.929 680.604 466.305 678.66 466.503 676.46L467.869 661.224C468.067 659.024 470.01 657.4 472.211 657.598Z" fill="#D8B280"/>
<path fill-rule="evenodd" clip-rule="evenodd" d="M509.054 744.281C509.245 742.08 511.185 740.451 513.385 740.642L533.438 742.387C535.639 742.579 537.267 744.518 537.076 746.719C536.884 748.92 534.945 750.549 532.744 750.357L512.692 748.612C510.491 748.421 508.862 746.482 509.054 744.281Z" fill="#D8B280"/>
<path fill-rule="evenodd" clip-rule="evenodd" d="M539.535 746.94C538.551 744.962 539.357 742.561 541.335 741.577L558.441 733.069C560.419 732.086 562.82 732.892 563.804 734.87C564.788 736.848 563.982 739.249 562.004 740.232L544.898 748.74C542.92 749.724 540.519 748.918 539.535 746.94Z" fill="#D8B280"/>
<path fill-rule="evenodd" clip-rule="evenodd" d="M564.91 731.611C562.728 731.262 561.243 729.21 561.593 727.029L564.762 707.244C565.112 705.062 567.163 703.577 569.345 703.927C571.526 704.276 573.011 706.328 572.662 708.509L569.492 728.294C569.143 730.476 567.091 731.961 564.91 731.611Z" fill="#D8B280"/>
<path fill-rule="evenodd" clip-rule="evenodd" d="M568.601 701.422C566.42 701.073 564.935 699.021 565.284 696.84L568.454 677.054C568.803 674.873 570.855 673.388 573.036 673.737C575.217 674.087 576.702 676.138 576.353 678.319L573.183 698.105C572.834 700.286 570.782 701.771 568.601 701.422Z" fill="#D8B280"/>
<path fill-rule="evenodd" clip-rule="evenodd" d="M595.855 927.943C595.629 925.745 597.227 923.78 599.424 923.554L625.287 920.887C627.485 920.661 629.45 922.259 629.676 924.456C629.903 926.654 628.305 928.619 626.107 928.845L600.245 931.512C598.047 931.738 596.082 930.14 595.855 927.943Z" fill="#D8B280"/>
<path fill-rule="evenodd" clip-rule="evenodd" d="M758.935 1035.06C759.345 1032.89 761.438 1031.46 763.608 1031.87L789.156 1036.7C791.326 1037.11 792.753 1039.21 792.342 1041.38C791.932 1043.55 789.839 1044.97 787.669 1044.56L762.122 1039.73C759.951 1039.32 758.524 1037.23 758.935 1035.06Z" fill="#996D33"/>
<path fill-rule="evenodd" clip-rule="evenodd" d="M795.301 1042.5C795.795 1040.34 797.941 1039 800.095 1039.49L825.483 1045.32C827.636 1045.82 828.981 1047.96 828.487 1050.12C827.993 1052.27 825.847 1053.61 823.693 1053.12L798.305 1047.29C796.152 1046.8 794.807 1044.65 795.301 1042.5Z" fill="#996D33"/>
<path fill-rule="evenodd" clip-rule="evenodd" d="M831.356 1051.05C831.85 1048.9 833.996 1047.55 836.149 1048.04L861.538 1053.87C863.691 1054.37 865.036 1056.51 864.542 1058.67C864.047 1060.82 861.901 1062.16 859.748 1061.67L834.36 1055.84C832.206 1055.35 830.862 1053.2 831.356 1051.05Z" fill="#996D33"/>
<path fill-rule="evenodd" clip-rule="evenodd" d="M867.41 1059.6C867.905 1057.45 870.051 1056.1 872.204 1056.59L897.593 1062.42C899.746 1062.92 901.091 1065.06 900.596 1067.22C900.102 1069.37 897.956 1070.71 895.803 1070.22L870.414 1064.39C868.261 1063.9 866.916 1061.75 867.41 1059.6Z" fill="#996D33"/>
<path fill-rule="evenodd" clip-rule="evenodd" d="M902.504 1067.87C902.998 1065.71 905.145 1064.37 907.298 1064.86L932.686 1070.69C934.839 1071.18 936.184 1073.33 935.69 1075.48C935.196 1077.64 933.05 1078.98 930.897 1078.49L905.508 1072.66C903.355 1072.16 902.01 1070.02 902.504 1067.87Z" fill="#996D33"/>
<path fill-rule="evenodd" clip-rule="evenodd" d="M937.638 1075.98C938.214 1073.85 940.41 1072.59 942.543 1073.17L967.648 1079.95C969.781 1080.53 971.043 1082.73 970.466 1084.86C969.89 1086.99 967.693 1088.25 965.561 1087.68L940.455 1080.89C938.323 1080.31 937.061 1078.12 937.638 1075.98Z" fill="#996D33"/>
<path fill-rule="evenodd" clip-rule="evenodd" d="M972.358 1085.51C972.983 1083.39 975.208 1082.18 977.327 1082.81L993.632 1087.62C995.751 1088.24 996.962 1090.47 996.337 1092.59C995.712 1094.7 993.487 1095.92 991.369 1095.29L975.063 1090.48C972.944 1089.86 971.733 1087.63 972.358 1085.51Z" fill="#996D33"/>
<path fill-rule="evenodd" clip-rule="evenodd" d="M392.552 900.924C394.664 901.57 395.853 903.807 395.207 905.919L390.177 922.361C389.531 924.473 387.294 925.662 385.182 925.016C383.069 924.369 381.881 922.133 382.527 920.02L387.556 903.579C388.203 901.466 390.439 900.278 392.552 900.924Z" fill="#D8B280"/>
<path fill-rule="evenodd" clip-rule="evenodd" d="M465.227 923.156C467.34 923.803 468.529 926.039 467.882 928.152L462.853 944.593C462.207 946.705 459.97 947.894 457.858 947.248C455.745 946.602 454.557 944.365 455.203 942.253L460.232 925.811C460.878 923.699 463.115 922.51 465.227 923.156Z" fill="#D8B280"/>
<path fill-rule="evenodd" clip-rule="evenodd" d="M374.968 958.288C377.086 958.916 378.295 961.142 377.667 963.26L373.137 978.554C372.509 980.672 370.284 981.881 368.165 981.253C366.047 980.626 364.839 978.4 365.466 976.282L369.997 960.988C370.624 958.869 372.85 957.661 374.968 958.288Z" fill="#D8B280"/>
<path fill-rule="evenodd" clip-rule="evenodd" d="M449.554 981.107C451.672 981.734 452.881 983.96 452.253 986.078L447.723 1001.37C447.095 1003.49 444.87 1004.7 442.751 1004.07C440.633 1003.44 439.425 1001.22 440.052 999.1L444.583 983.806C445.21 981.688 447.436 980.479 449.554 981.107Z" fill="#D8B280"/>
<path fill-rule="evenodd" clip-rule="evenodd" d="M368.866 985.072C370.731 983.889 373.203 984.442 374.386 986.307L384.264 1001.88C385.447 1003.74 384.894 1006.21 383.029 1007.4C381.163 1008.58 378.692 1008.03 377.508 1006.16L367.631 990.593C366.448 988.727 367.001 986.256 368.866 985.072Z" fill="#D8B280"/>
<path fill-rule="evenodd" clip-rule="evenodd" d="M564.029 966.072C566.219 965.784 568.227 967.327 568.515 969.518L570.75 986.565C571.038 988.756 569.495 990.764 567.304 991.051C565.114 991.339 563.105 989.796 562.818 987.605L560.583 970.558C560.295 968.367 561.838 966.359 564.029 966.072Z" fill="#D8B280"/>
<path fill-rule="evenodd" clip-rule="evenodd" d="M639.607 956.788C641.797 956.501 643.806 958.044 644.093 960.234L646.328 977.282C646.616 979.472 645.073 981.481 642.882 981.768C640.692 982.055 638.684 980.513 638.396 978.322L636.161 961.275C635.873 959.084 637.416 957.076 639.607 956.788Z" fill="#D8B280"/>
<path fill-rule="evenodd" clip-rule="evenodd" d="M627.308 931.608C628.916 933.123 628.99 935.655 627.474 937.262L609.013 956.837C607.497 958.444 604.966 958.519 603.359 957.003C601.751 955.487 601.677 952.956 603.193 951.349L621.654 931.773C623.17 930.166 625.701 930.092 627.308 931.608Z" fill="#D8B280"/>
<path fill-rule="evenodd" clip-rule="evenodd" d="M560.22 935.935C562.41 935.648 564.419 937.191 564.706 939.381L566.942 956.428C567.229 958.619 565.686 960.627 563.496 960.915C561.305 961.202 559.297 959.659 559.01 957.469L556.774 940.421C556.487 938.231 558.03 936.222 560.22 935.935Z" fill="#D8B280"/>
<path fill-rule="evenodd" clip-rule="evenodd" d="M635.575 926.052C637.766 925.765 639.774 927.308 640.062 929.498L642.297 946.546C642.584 948.736 641.042 950.745 638.851 951.032C636.661 951.319 634.652 949.776 634.365 947.586L632.129 930.538C631.842 928.348 633.385 926.339 635.575 926.052Z" fill="#D8B280"/>
<path fill-rule="evenodd" clip-rule="evenodd" d="M567.985 995.429C570.172 995.122 572.195 996.647 572.501 998.835L574.716 1014.63C575.022 1016.82 573.497 1018.84 571.31 1019.15C569.122 1019.45 567.1 1017.93 566.793 1015.74L564.579 999.946C564.272 997.758 565.797 995.736 567.985 995.429Z" fill="#D8B280"/>
<path fill-rule="evenodd" clip-rule="evenodd" d="M645.325 985.288C647.512 984.982 649.534 986.507 649.841 988.694L652.055 1004.49C652.362 1006.68 650.837 1008.7 648.649 1009.01C646.462 1009.31 644.44 1007.79 644.133 1005.6L641.919 989.805C641.612 987.617 643.137 985.595 645.325 985.288Z" fill="#D8B280"/>
<path fill-rule="evenodd" clip-rule="evenodd" d="M630.535 1032.44C628.783 1031.09 628.454 1028.58 629.799 1026.83L640.999 1012.25C642.344 1010.5 644.856 1010.17 646.607 1011.51C648.359 1012.86 648.689 1015.37 647.343 1017.12L636.144 1031.7C634.798 1033.45 632.287 1033.78 630.535 1032.44Z" fill="#D8B280"/>
<path fill-rule="evenodd" clip-rule="evenodd" d="M771.637 840.548C772.852 838.703 775.333 838.192 777.178 839.407L797.258 852.628C799.103 853.843 799.614 856.324 798.399 858.169C797.184 860.014 794.703 860.525 792.858 859.31L772.778 846.088C770.933 844.874 770.422 842.393 771.637 840.548Z" fill="#996D33"/>
<path fill-rule="evenodd" clip-rule="evenodd" d="M801.294 860.495C802.633 858.738 805.143 858.398 806.9 859.736L824.779 873.351C826.536 874.69 826.876 877.199 825.538 878.957C824.199 880.714 821.689 881.054 819.932 879.716L802.053 866.101C800.296 864.763 799.956 862.253 801.294 860.495Z" fill="#996D33"/>
<path fill-rule="evenodd" clip-rule="evenodd" d="M1032.28 848.643C1031.85 846.476 1033.26 844.371 1035.43 843.941L1058.68 839.332C1060.85 838.903 1062.95 840.311 1063.38 842.478C1063.81 844.645 1062.4 846.75 1060.24 847.18L1036.98 851.789C1034.82 852.218 1032.71 850.81 1032.28 848.643Z" fill="#996D33"/>
<path fill-rule="evenodd" clip-rule="evenodd" d="M997.738 856.178C997.308 854.011 998.717 851.906 1000.88 851.477L1024.14 846.868C1026.31 846.438 1028.41 847.847 1028.84 850.014C1029.27 852.181 1027.86 854.285 1025.69 854.715L1002.44 859.324C1000.27 859.753 998.167 858.345 997.738 856.178Z" fill="#996D33"/>
<path fill-rule="evenodd" clip-rule="evenodd" d="M779.624 837.758C777.716 836.644 777.073 834.194 778.187 832.287L790.143 811.816C791.257 809.908 793.707 809.265 795.614 810.379C797.522 811.493 798.165 813.943 797.051 815.85L785.095 836.321C783.981 838.229 781.532 838.872 779.624 837.758Z" fill="#996D33"/>
<path fill-rule="evenodd" clip-rule="evenodd" d="M797.083 809.128C795.282 807.849 794.86 805.352 796.139 803.551L809.871 784.226C811.15 782.425 813.648 782.003 815.448 783.282C817.249 784.562 817.672 787.059 816.392 788.86L802.661 808.185C801.381 809.985 798.884 810.408 797.083 809.128Z" fill="#996D33"/>
<path fill-rule="evenodd" clip-rule="evenodd" d="M816.217 780.899C814.679 779.312 814.72 776.78 816.306 775.243L833.332 758.747C834.919 757.21 837.451 757.25 838.988 758.836C840.526 760.423 840.486 762.955 838.899 764.492L821.873 780.988C820.286 782.525 817.754 782.485 816.217 780.899Z" fill="#996D33"/>
<path fill-rule="evenodd" clip-rule="evenodd" d="M842.11 759.128C840.721 757.41 840.987 754.892 842.705 753.502L861.139 738.596C862.857 737.207 865.376 737.474 866.765 739.192C868.154 740.91 867.887 743.428 866.169 744.817L847.735 759.723C846.018 761.112 843.499 760.846 842.11 759.128Z" fill="#996D33"/>
<path fill-rule="evenodd" clip-rule="evenodd" d="M1220.07 747.71C1220.51 745.544 1222.62 744.144 1224.78 744.583L1242.43 748.153C1244.59 748.591 1245.99 750.702 1245.55 752.867C1245.11 755.032 1243 756.433 1240.84 755.994L1223.2 752.424C1221.03 751.985 1219.63 749.875 1220.07 747.71Z" fill="#9A5354"/>
<path fill-rule="evenodd" clip-rule="evenodd" d="M1247.96 753.266C1247.97 751.056 1249.78 749.276 1251.98 749.289L1269.98 749.394C1272.19 749.407 1273.97 751.208 1273.96 753.417C1273.95 755.627 1272.15 757.407 1269.94 757.394L1251.94 757.289C1249.73 757.276 1247.95 755.475 1247.96 753.266Z" fill="#9A5354"/>
<path fill-rule="evenodd" clip-rule="evenodd" d="M1294.65 754.491C1294.21 752.327 1295.61 750.214 1297.77 749.772L1315.41 746.172C1317.57 745.73 1319.68 747.127 1320.13 749.291C1320.57 751.456 1319.17 753.568 1317.01 754.01L1299.37 757.611C1297.21 758.052 1295.09 756.656 1294.65 754.491Z" fill="#9A5354"/>
<path fill-rule="evenodd" clip-rule="evenodd" d="M1321.23 749.425C1320.72 747.275 1322.05 745.119 1324.2 744.607L1341.71 740.442C1343.86 739.93 1346.02 741.258 1346.53 743.407C1347.04 745.556 1345.71 747.713 1343.56 748.224L1326.05 752.39C1323.9 752.902 1321.75 751.574 1321.23 749.425Z" fill="#9A5354"/>
<path fill-rule="evenodd" clip-rule="evenodd" d="M1215.88 778.55C1213.68 778.293 1212.12 776.305 1212.37 774.111L1214.47 756.234C1214.73 754.04 1216.72 752.47 1218.91 752.728C1221.1 752.985 1222.67 754.972 1222.42 757.167L1220.32 775.044C1220.06 777.238 1218.07 778.808 1215.88 778.55Z" fill="#9A5354"/>
<path fill-rule="evenodd" clip-rule="evenodd" d="M1273.27 781.927C1271.08 781.67 1269.51 779.682 1269.76 777.488L1271.86 759.611C1272.12 757.417 1274.11 755.847 1276.3 756.104C1278.49 756.362 1280.06 758.349 1279.81 760.543L1277.71 778.421C1277.45 780.615 1275.46 782.185 1273.27 781.927Z" fill="#9A5354"/>
<path fill-rule="evenodd" clip-rule="evenodd" d="M1295.23 783.493C1293.04 783.814 1291.01 782.302 1290.69 780.117L1288.07 762.308C1287.75 760.122 1289.26 758.09 1291.45 757.769C1293.63 757.448 1295.67 758.96 1295.99 761.145L1298.6 778.954C1298.92 781.14 1297.41 783.172 1295.23 783.493Z" fill="#9A5354"/>
<path fill-rule="evenodd" clip-rule="evenodd" d="M1227.04 801.661C1225.15 802.808 1222.69 802.208 1221.54 800.32L1213.82 787.616C1212.67 785.729 1213.27 783.268 1215.16 782.121C1217.05 780.973 1219.51 781.574 1220.65 783.461L1228.38 796.165C1229.52 798.053 1228.92 800.513 1227.04 801.661Z" fill="#9A5354"/>
<path fill-rule="evenodd" clip-rule="evenodd" d="M1255.26 807.524C1255 809.718 1253.01 811.284 1250.81 811.022L1232.94 808.889C1230.75 808.627 1229.18 806.636 1229.44 804.443C1229.7 802.249 1231.69 800.683 1233.89 800.945L1251.76 803.078C1253.96 803.34 1255.52 805.331 1255.26 807.524Z" fill="#9A5354"/>
<path fill-rule="evenodd" clip-rule="evenodd" d="M1271.78 784.056C1273.65 785.226 1274.22 787.693 1273.05 789.567L1263.52 804.837C1262.35 806.711 1259.89 807.281 1258.01 806.112C1256.14 804.942 1255.57 802.475 1256.74 800.6L1266.27 785.331C1267.44 783.457 1269.9 782.886 1271.78 784.056Z" fill="#9A5354"/>
<path fill-rule="evenodd" clip-rule="evenodd" d="M1293.12 787.488C1294.54 785.796 1297.06 785.575 1298.76 786.995L1312.55 798.564C1314.24 799.984 1314.46 802.507 1313.04 804.2C1311.62 805.892 1309.1 806.113 1307.4 804.693L1293.61 793.123C1291.92 791.704 1291.7 789.18 1293.12 787.488Z" fill="#9A5354"/>
<path fill-rule="evenodd" clip-rule="evenodd" d="M1318.6 807.686C1318.13 805.527 1319.5 803.397 1321.66 802.928L1339.25 799.107C1341.41 798.638 1343.54 800.008 1344.01 802.166C1344.48 804.325 1343.11 806.455 1340.95 806.924L1323.36 810.746C1321.2 811.215 1319.07 809.845 1318.6 807.686Z" fill="#9A5354"/>
<path fill-rule="evenodd" clip-rule="evenodd" d="M1383.92 992.725C1383.45 990.566 1384.82 988.436 1386.98 987.967L1404.57 984.146C1406.73 983.677 1408.86 985.047 1409.33 987.205C1409.8 989.364 1408.43 991.494 1406.27 991.963L1388.68 995.785C1386.52 996.254 1384.39 994.884 1383.92 992.725Z" fill="#9A5354"/>
<path fill-rule="evenodd" clip-rule="evenodd" d="M1357.68 996.787C1357.23 994.623 1358.63 992.508 1360.79 992.062L1377.44 988.633C1379.6 988.187 1381.72 989.58 1382.16 991.744C1382.61 993.908 1381.22 996.023 1379.05 996.469L1362.4 999.898C1360.24 1000.34 1358.12 998.951 1357.68 996.787Z" fill="#9A5354"/>
<path fill-rule="evenodd" clip-rule="evenodd" d="M1331.09 1002.16C1330.62 1000 1331.99 997.872 1334.15 997.405L1349.74 994.037C1351.9 993.57 1354.03 994.942 1354.5 997.102C1354.96 999.261 1353.59 1001.39 1351.43 1001.86L1335.84 1005.22C1333.68 1005.69 1331.55 1004.32 1331.09 1002.16Z" fill="#9A5354"/>
<path fill-rule="evenodd" clip-rule="evenodd" d="M1302.47 1007.28C1302.01 1005.12 1303.38 1002.99 1305.53 1002.52L1323.12 998.699C1325.28 998.23 1327.41 999.599 1327.88 1001.76C1328.35 1003.92 1326.98 1006.05 1324.82 1006.52L1307.23 1010.34C1305.07 1010.81 1302.94 1009.44 1302.47 1007.28Z" fill="#9A5354"/>
<path fill-rule="evenodd" clip-rule="evenodd" d="M1174.96 1003.3C1175.21 1001.1 1177.19 999.525 1179.38 999.772L1197.27 1001.79C1199.46 1002.03 1201.04 1004.01 1200.8 1006.21C1200.55 1008.4 1198.57 1009.98 1196.37 1009.74L1178.49 1007.72C1176.29 1007.47 1174.71 1005.49 1174.96 1003.3Z" fill="#9A5354"/>
<path fill-rule="evenodd" clip-rule="evenodd" d="M1203.23 1006.42C1203.48 1004.23 1205.46 1002.65 1207.65 1002.9L1225.54 1004.91C1227.73 1005.16 1229.31 1007.14 1229.06 1009.33C1228.82 1011.53 1226.84 1013.11 1224.64 1012.86L1206.76 1010.85C1204.56 1010.6 1202.98 1008.62 1203.23 1006.42Z" fill="#9A5354"/>
<path fill-rule="evenodd" clip-rule="evenodd" d="M1232.52 1009.52C1232.87 1007.34 1234.93 1005.86 1237.11 1006.21L1252.76 1008.74C1254.94 1009.09 1256.42 1011.15 1256.07 1013.33C1255.72 1015.51 1253.66 1016.99 1251.48 1016.64L1235.83 1014.11C1233.65 1013.75 1232.17 1011.7 1232.52 1009.52Z" fill="#9A5354"/>
<path fill-rule="evenodd" clip-rule="evenodd" d="M1146.11 1002.3C1146.23 1000.09 1148.12 998.405 1150.33 998.53L1168.3 999.542C1170.5 999.666 1172.19 1001.56 1172.07 1003.76C1171.94 1005.97 1170.05 1007.65 1167.85 1007.53L1149.88 1006.52C1147.67 1006.39 1145.98 1004.5 1146.11 1002.3Z" fill="#9A5354"/>
<path fill-rule="evenodd" clip-rule="evenodd" d="M1345.49 799.385C1343.38 798.722 1342.21 796.475 1342.87 794.368L1348.28 777.2C1348.95 775.093 1351.19 773.923 1353.3 774.587C1355.41 775.251 1356.58 777.497 1355.91 779.604L1350.5 796.772C1349.84 798.879 1347.59 800.049 1345.49 799.385Z" fill="#9A5354"/>
<path fill-rule="evenodd" clip-rule="evenodd" d="M1352.72 774.035C1350.6 774.631 1348.39 773.391 1347.79 771.264L1342.93 753.933C1342.33 751.806 1343.57 749.598 1345.7 749.001C1347.83 748.405 1350.03 749.645 1350.63 751.772L1355.49 769.103C1356.09 771.23 1354.85 773.438 1352.72 774.035Z" fill="#9A5354"/>
<path d="M506.07 884.887L544.244 1207.88L516.909 1199.82L482.38 1189.64L455.358 1176.97L506.07 884.887Z" fill="#D48B4A"/>
<path d="M439.936 875.804L419.82 1156.06C419.82 1156.06 400.691 1147.82 388.058 1143.57C372.509 1138.33 347.491 1132.64 347.491 1132.64L439.936 875.804Z" fill="#D48B4A"/>
<path d="M584.246 899.086L679.093 1204.92C679.093 1204.92 650.363 1210.49 631.711 1211.79C615.442 1212.93 589.951 1211.98 589.951 1211.98L584.246 899.086Z" fill="#D48B4A"/>
<path fill-rule="evenodd" clip-rule="evenodd" d="M600.413 1036.35C600.126 1034.16 601.669 1032.16 603.859 1031.87L619.675 1029.79C621.865 1029.51 623.874 1031.05 624.161 1033.24C624.448 1035.43 622.906 1037.44 620.715 1037.73L604.9 1039.8C602.709 1040.09 600.701 1038.54 600.413 1036.35Z" fill="#D8B280"/>
<path fill-rule="evenodd" clip-rule="evenodd" d="M573.53 1022.33C574.737 1020.48 577.216 1019.96 579.066 1021.17L594.507 1031.25C596.357 1032.46 596.878 1034.93 595.671 1036.78C594.463 1038.63 591.985 1039.15 590.135 1037.95L574.693 1027.87C572.843 1026.66 572.323 1024.18 573.53 1022.33Z" fill="#D8B280"/>
<path fill-rule="evenodd" clip-rule="evenodd" d="M559.566 930.793C559.34 928.595 560.938 926.63 563.135 926.403L588.998 923.737C591.195 923.51 593.161 925.108 593.387 927.306C593.614 929.503 592.016 931.468 589.818 931.695L563.955 934.361C561.758 934.588 559.793 932.99 559.566 930.793Z" fill="#D8B280"/>
<path fill-rule="evenodd" clip-rule="evenodd" d="M569.731 939.048C570.983 937.228 573.474 936.767 575.294 938.019L597.464 953.265C599.285 954.517 599.746 957.007 598.494 958.828C597.242 960.648 594.752 961.109 592.931 959.857L570.761 944.61C568.94 943.359 568.48 940.868 569.731 939.048Z" fill="#D8B280"/>
<path fill-rule="evenodd" clip-rule="evenodd" d="M455.406 924.789C456.24 926.835 455.259 929.17 453.213 930.004L428.3 940.17C426.255 941.005 423.92 940.023 423.086 937.978C422.251 935.932 423.233 933.597 425.278 932.763L450.191 922.597C452.236 921.763 454.571 922.744 455.406 924.789Z" fill="#D8B280"/>
<path fill-rule="evenodd" clip-rule="evenodd" d="M414.969 1017.18C413.998 1015.19 414.82 1012.8 416.804 1011.83L433.368 1003.72C435.352 1002.75 437.748 1003.57 438.718 1005.56C439.689 1007.54 438.867 1009.94 436.883 1010.91L420.32 1019.01C418.335 1019.98 415.94 1019.16 414.969 1017.18Z" fill="#D8B280"/>
<path fill-rule="evenodd" clip-rule="evenodd" d="M386.041 1009.03C386.615 1006.9 388.81 1005.64 390.943 1006.21L408.748 1011.01C410.881 1011.58 412.144 1013.78 411.569 1015.91C410.995 1018.04 408.8 1019.31 406.667 1018.73L388.862 1013.94C386.729 1013.36 385.466 1011.17 386.041 1009.03Z" fill="#D8B280"/>
<path fill-rule="evenodd" clip-rule="evenodd" d="M431.702 907.259C432.327 905.14 434.551 903.929 436.67 904.554L461.608 911.91C463.727 912.536 464.938 914.76 464.313 916.879C463.688 918.998 461.463 920.209 459.345 919.584L434.407 912.227C432.288 911.602 431.077 909.378 431.702 907.259Z" fill="#D8B280"/>
<path fill-rule="evenodd" clip-rule="evenodd" d="M399.921 907.699C401.814 906.561 404.272 907.174 405.41 909.068L419.269 932.131C420.407 934.024 419.795 936.482 417.901 937.62C416.008 938.757 413.55 938.145 412.412 936.251L398.553 913.188C397.415 911.295 398.027 908.837 399.921 907.699Z" fill="#D8B280"/>
<path d="M891.691 651.613C886.749 651.529 882.213 651.019 878.083 650.082C873.951 649.203 870.247 648.1 866.972 646.772C863.64 645.444 860.819 643.98 858.506 642.38C856.136 640.837 854.27 639.36 852.908 637.95L854.053 599.556C855.44 598.25 857.36 597.011 859.811 595.838C862.262 594.666 865.187 593.617 868.585 592.692C871.926 591.823 875.712 591.136 879.941 590.629C884.112 590.18 888.64 589.996 893.526 590.079C898.581 590.164 903.206 590.503 907.402 591.094C911.541 591.742 915.253 592.556 918.539 593.537C921.768 594.516 924.545 595.633 926.867 596.886C929.188 598.197 931.03 599.529 932.395 600.881L931.249 639.275C929.802 640.696 927.877 642.138 925.473 643.6C923.068 645.12 920.218 646.488 916.923 647.704C913.628 648.92 909.89 649.897 905.71 650.636C901.474 651.374 896.801 651.699 891.691 651.613ZM892.311 630.813C897.309 630.897 901.73 630.567 905.573 629.823C909.414 629.136 912.727 628.268 915.511 627.216C918.296 626.165 920.576 625.076 922.351 623.95C924.069 622.881 925.303 622.006 926.054 621.325C925.344 620.619 924.164 619.674 922.514 618.49C920.806 617.363 918.591 616.256 915.871 615.169C913.15 614.083 909.892 613.103 906.098 612.229C902.301 611.414 897.904 610.964 892.906 610.879C887.908 610.794 883.488 611.095 879.647 611.782C875.804 612.526 872.491 613.395 869.708 614.389C866.925 615.382 864.675 616.413 862.958 617.483C861.238 618.61 859.975 619.513 859.168 620.193C859.934 620.9 861.143 621.816 862.795 622.943C864.445 624.127 866.63 625.291 869.349 626.435C872.068 627.58 875.325 628.56 879.122 629.375C882.916 630.249 887.313 630.728 892.311 630.813Z" fill="#8A6330"/>
<path d="M956.353 629.482L977.133 630.64L976.665 593.224L987.549 593.831L988.017 631.247L1008.8 632.405L1008.33 594.989L1019.21 595.596L1019.95 654.271L945.734 650.134L945 591.459L955.885 592.066L956.353 629.482Z" fill="#8A6330"/>
<path d="M2656.82 649.086L2644.02 645.459L2631 692.267L2643.8 695.893L2656.82 649.086Z" fill="#1A1717"/>
<path d="M2495.39 653.458L2483 658.289L2500.87 703.468L2513.26 698.637L2495.39 653.458Z" fill="#1A1717"/>
<path d="M2008.52 648.086L1995.72 644.459L1979 704.565L1991.8 708.191L2008.52 648.086Z" fill="#1A1717"/>
<path d="M1856.11 638.459L1843 640.684L1854.4 705.957L1867.52 703.732L1856.11 638.459Z" fill="#1A1717"/>
</svg>
