<svg width="1261" height="57" viewBox="0 0 1261 57" fill="none" xmlns="http://www.w3.org/2000/svg">
<path d="M29.8506 47.68C24.3573 47.68 19.0773 46.9333 14.0106 45.44C8.89063 43.9467 4.38396 41.3067 0.490625 37.52V15.28C1.66396 14.16 3.23729 13.0667 5.21063 12C7.13063 10.9867 9.34396 10.0533 11.8506 9.2C14.3573 8.34667 17.1306 7.65333 20.1706 7.12C23.2106 6.64 26.4106 6.4 29.7706 6.4H38.9706V0.799995H47.7706V6.4H56.9706C60.3306 6.4 63.5306 6.64 66.5706 7.12C69.6106 7.65333 72.4106 8.34667 74.9706 9.2C77.4773 10.0533 79.6906 10.9867 81.6106 12C83.5306 13.0667 85.0773 14.16 86.2506 15.28V37.52C84.8106 39.28 82.9973 40.8 80.8106 42.08C78.5706 43.36 76.144 44.4 73.5306 45.2C70.9173 46.0533 68.1973 46.6667 65.3706 47.04C62.4906 47.4667 59.664 47.68 56.8906 47.68H47.7706V56H38.9706V47.68H29.8506ZM38.9706 28H29.7706C24.704 28 20.544 28.56 17.2906 29.68C13.984 30.8533 11.2106 32.32 8.97063 34.08C11.3173 35.7867 14.1173 37.1467 17.3706 38.16C20.5706 39.1733 24.7306 39.68 29.8506 39.68H38.9706V28ZM47.7706 39.68H56.8906C62.0106 39.68 66.1973 39.1467 69.4506 38.08C72.6506 37.0667 75.424 35.7333 77.7706 34.08C75.5306 32.3733 72.784 30.9333 69.5306 29.76C66.224 28.5867 62.0373 28 56.9706 28H47.7706V39.68ZM157.955 0.799995V20H106.275V24.56H133.955V31.76H106.275V36.8H157.955V56H97.475V0.799995H157.955ZM235.947 50.24C232.587 52.0533 228.454 53.6 223.547 54.88C218.64 56.16 212.907 56.8 206.347 56.8C201.654 56.8 197.334 56.4 193.387 55.6C189.44 54.8533 185.894 53.8933 182.747 52.72C179.547 51.5467 176.827 50.24 174.587 48.8C172.294 47.4133 170.48 46.08 169.147 44.8V9.36C170.427 8.13333 172.214 6.96 174.507 5.84C176.8 4.72 179.547 3.70667 182.747 2.8C185.894 1.94666 189.467 1.25333 193.467 0.719996C197.414 0.239996 201.707 -3.8147e-06 206.347 -3.8147e-06C212.8 -3.8147e-06 218.507 0.45333 223.467 1.36C228.374 2.26667 232.534 3.41333 235.947 4.8V26.64C234.827 25.8933 233.387 25.0933 231.627 24.24C229.867 23.3867 227.76 22.5867 225.307 21.84C222.854 21.0933 220.054 20.4533 216.907 19.92C213.76 19.44 210.24 19.2 206.347 19.2C201.6 19.2 197.414 19.5467 193.787 20.24C190.16 20.9867 187.04 21.84 184.427 22.8C181.814 23.76 179.707 24.7467 178.107 25.76C176.507 26.8267 175.334 27.68 174.587 28.32C175.334 28.96 176.507 29.7867 178.107 30.8C179.707 31.8667 181.814 32.9067 184.427 33.92C187.04 34.9333 190.16 35.7867 193.787 36.48C197.414 37.2267 201.6 37.6 206.347 37.6C210.24 37.6 213.76 37.3333 216.907 36.8C220.054 36.32 222.854 35.68 225.307 34.88C227.76 34.1333 229.867 33.3067 231.627 32.4C233.387 31.5467 234.827 30.7467 235.947 30V50.24ZM280.187 20.8V56H271.387V20.8H247.147V0.799995H304.427V20.8H280.187ZM324.416 0.799995V31.2L359.616 0.799995H368.416V56H359.616V26.4L324.416 56H315.616V0.799995H324.416ZM413.631 0.799995C416.991 0.799995 420.245 0.959997 423.391 1.28C426.485 1.6 429.311 2.05333 431.871 2.64C434.431 3.22666 436.671 3.89333 438.591 4.64C440.458 5.44 441.898 6.32 442.911 7.28V21.28C440.671 22.88 438.431 24.2133 436.191 25.28C433.898 26.3467 431.631 27.1733 429.391 27.76C431.951 28.3467 434.671 29.12 437.551 30.08C440.378 31.0933 442.965 32.4267 445.311 34.08V48C444.298 49.0133 442.805 50 440.831 50.96C438.858 51.9733 436.591 52.8267 434.031 53.52C431.418 54.2667 428.565 54.8533 425.471 55.28C422.378 55.76 419.231 56 416.031 56H379.631V0.799995H413.631ZM388.431 24.72H413.551C417.871 24.72 421.471 24.4267 424.351 23.84C427.178 23.3067 429.471 22.5333 431.231 21.52C429.525 20.5067 427.258 19.6533 424.431 18.96C421.551 18.32 417.951 18 413.631 18H388.431V24.72ZM388.431 38.8H416.031C420.351 38.8 423.951 38.48 426.831 37.84C429.658 37.2533 431.898 36.4267 433.551 35.36C431.791 34.4 429.498 33.5733 426.671 32.88C423.845 32.24 420.271 31.92 415.951 31.92H388.431V38.8ZM495.288 0.799995L523.688 56H514.888L509.768 46.08H472.008L466.888 56H443.688L472.088 0.799995H495.288ZM490.888 9.36L481.848 26.88H499.928L490.888 9.36ZM591.128 56H582.328V20.8H564.488V32C564.488 35.4133 564.248 38.5867 563.768 41.52C563.234 44.4533 562.168 46.9867 560.568 49.12C558.968 51.3067 556.648 52.9867 553.608 54.16C550.568 55.3867 546.514 56 541.448 56H532.488V46.4C535.528 46.4 537.768 45.5733 539.208 43.92C540.594 42.32 541.288 39.4133 541.288 35.2V0.799995H591.128V56ZM611.103 0.799995V21.92H628.223C630.996 21.92 633.743 22.0533 636.463 22.32C639.13 22.5867 641.716 23.0133 644.223 23.6C646.73 24.1867 649.13 24.9867 651.423 26C653.663 27.0133 655.716 28.24 657.583 29.68V49.52C656.57 50.48 655.13 51.3333 653.263 52.08C651.343 52.88 649.103 53.5733 646.543 54.16C643.983 54.7467 641.156 55.2 638.063 55.52C634.916 55.84 631.663 56 628.303 56H602.303V0.799995H611.103ZM628.303 36C632.623 36 636.223 35.6267 639.103 34.88C641.93 34.1867 644.196 33.3333 645.903 32.32C644.143 31.3067 641.85 30.5067 639.023 29.92C636.143 29.3867 632.543 29.12 628.223 29.12H611.103V36H628.303ZM744.819 0.799995V56H736.019V20.8H705.619V56H696.819V0.799995H744.819ZM781.991 0.799995C785.351 0.799995 788.604 0.959997 791.751 1.28C794.844 1.6 797.671 2.05333 800.231 2.64C802.791 3.22666 805.031 3.89333 806.951 4.64C808.817 5.44 810.257 6.32 811.271 7.28V27.12C809.404 28.56 807.351 29.7867 805.111 30.8C802.817 31.8133 800.417 32.6133 797.911 33.2C795.404 33.7867 792.817 34.2133 790.151 34.48C787.431 34.7467 784.684 34.88 781.911 34.88H764.791V56H755.991V0.799995H781.991ZM764.791 27.68H781.911C786.231 27.68 789.831 27.3867 792.711 26.8C795.537 26.2667 797.831 25.4933 799.591 24.48C797.884 23.4667 795.617 22.5867 792.791 21.84C789.911 21.1467 786.311 20.8 781.991 20.8H764.791V27.68ZM855.644 56.8C850.95 56.8 846.63 56.4 842.684 55.6C838.737 54.8533 835.19 53.8933 832.044 52.72C828.844 51.5467 826.124 50.24 823.884 48.8C821.59 47.4133 819.777 46.08 818.444 44.8V9.36C819.724 8.13333 821.51 6.96 823.804 5.84C826.097 4.72 828.844 3.70667 832.044 2.8C835.19 1.94666 838.764 1.25333 842.764 0.719996C846.71 0.239996 851.004 -3.8147e-06 855.644 -3.8147e-06C860.444 -3.8147e-06 864.844 0.239996 868.844 0.719996C872.79 1.25333 876.337 1.94666 879.484 2.8C882.577 3.65333 885.244 4.64 887.484 5.76C889.724 6.93333 891.51 8.13333 892.844 9.36V44.8C891.51 46.1333 889.724 47.4933 887.484 48.88C885.244 50.32 882.577 51.6267 879.484 52.8C876.39 53.9733 872.87 54.9333 868.924 55.68C864.924 56.4267 860.497 56.8 855.644 56.8ZM855.644 37.6C860.39 37.6 864.577 37.2267 868.204 36.48C871.83 35.7867 874.95 34.9333 877.564 33.92C880.177 32.9067 882.31 31.8667 883.964 30.8C885.564 29.7867 886.71 28.96 887.404 28.32C886.71 27.68 885.564 26.8267 883.964 25.76C882.31 24.7467 880.177 23.76 877.564 22.8C874.95 21.84 871.83 20.9867 868.204 20.24C864.577 19.5467 860.39 19.2 855.644 19.2C850.897 19.2 846.71 19.5467 843.084 20.24C839.457 20.9867 836.337 21.84 833.724 22.8C831.11 23.76 829.004 24.7467 827.404 25.76C825.804 26.8267 824.63 27.68 823.884 28.32C824.63 28.96 825.804 29.7867 827.404 30.8C829.004 31.8667 831.11 32.9067 833.724 33.92C836.337 34.9333 839.457 35.7867 843.084 36.48C846.71 37.2267 850.897 37.6 855.644 37.6ZM912.822 36H929.622V0.799995H938.422V36H955.222V0.799995H964.022V56H904.022V0.799995H912.822V36ZM1033.07 56H1024.27V20.8H1006.43V32C1006.43 35.4133 1006.19 38.5867 1005.71 41.52C1005.17 44.4533 1004.11 46.9867 1002.51 49.12C1000.91 51.3067 998.585 52.9867 995.545 54.16C992.505 55.3867 988.452 56 983.385 56H974.425V46.4C977.465 46.4 979.705 45.5733 981.145 43.92C982.532 42.32 983.225 39.4133 983.225 35.2V0.799995H1033.07V56ZM1081.44 56.8C1076.75 56.8 1072.43 56.4 1068.48 55.6C1064.53 54.8533 1060.99 53.8933 1057.84 52.72C1054.64 51.5467 1051.92 50.24 1049.68 48.8C1047.39 47.4133 1045.57 46.08 1044.24 44.8V9.36C1045.52 8.13333 1047.31 6.96 1049.6 5.84C1051.89 4.72 1054.64 3.70667 1057.84 2.8C1060.99 1.94666 1064.56 1.25333 1068.56 0.719996C1072.51 0.239996 1076.8 -3.8147e-06 1081.44 -3.8147e-06C1086.24 -3.8147e-06 1090.64 0.239996 1094.64 0.719996C1098.59 1.25333 1102.13 1.94666 1105.28 2.8C1108.37 3.65333 1111.04 4.64 1113.28 5.76C1115.52 6.93333 1117.31 8.13333 1118.64 9.36V44.8C1117.31 46.1333 1115.52 47.4933 1113.28 48.88C1111.04 50.32 1108.37 51.6267 1105.28 52.8C1102.19 53.9733 1098.67 54.9333 1094.72 55.68C1090.72 56.4267 1086.29 56.8 1081.44 56.8ZM1081.44 37.6C1086.19 37.6 1090.37 37.2267 1094 36.48C1097.63 35.7867 1100.75 34.9333 1103.36 33.92C1105.97 32.9067 1108.11 31.8667 1109.76 30.8C1111.36 29.7867 1112.51 28.96 1113.2 28.32C1112.51 27.68 1111.36 26.8267 1109.76 25.76C1108.11 24.7467 1105.97 23.76 1103.36 22.8C1100.75 21.84 1097.63 20.9867 1094 20.24C1090.37 19.5467 1086.19 19.2 1081.44 19.2C1076.69 19.2 1072.51 19.5467 1068.88 20.24C1065.25 20.9867 1062.13 21.84 1059.52 22.8C1056.91 23.76 1054.8 24.7467 1053.2 25.76C1051.6 26.8267 1050.43 27.68 1049.68 28.32C1050.43 28.96 1051.6 29.7867 1053.2 30.8C1054.8 31.8667 1056.91 32.9067 1059.52 33.92C1062.13 34.9333 1065.25 35.7867 1068.88 36.48C1072.51 37.2267 1076.69 37.6 1081.44 37.6ZM1174.86 20.8H1138.62V56H1129.82V0.799995H1174.86V20.8ZM1223.22 56.8C1218.53 56.8 1214.21 56.4 1210.26 55.6C1206.32 54.8533 1202.77 53.8933 1199.62 52.72C1196.42 51.5467 1193.7 50.24 1191.46 48.8C1189.17 47.4133 1187.36 46.08 1186.02 44.8V9.36C1187.3 8.13333 1189.09 6.96 1191.38 5.84C1193.68 4.72 1196.42 3.70667 1199.62 2.8C1202.77 1.94666 1206.34 1.25333 1210.34 0.719996C1214.29 0.239996 1218.58 -3.8147e-06 1223.22 -3.8147e-06C1228.02 -3.8147e-06 1232.42 0.239996 1236.42 0.719996C1240.37 1.25333 1243.92 1.94666 1247.06 2.8C1250.16 3.65333 1252.82 4.64 1255.06 5.76C1257.3 6.93333 1259.09 8.13333 1260.42 9.36V44.8C1259.09 46.1333 1257.3 47.4933 1255.06 48.88C1252.82 50.32 1250.16 51.6267 1247.06 52.8C1243.97 53.9733 1240.45 54.9333 1236.5 55.68C1232.5 56.4267 1228.08 56.8 1223.22 56.8ZM1223.22 37.6C1227.97 37.6 1232.16 37.2267 1235.78 36.48C1239.41 35.7867 1242.53 34.9333 1245.14 33.92C1247.76 32.9067 1249.89 31.8667 1251.54 30.8C1253.14 29.7867 1254.29 28.96 1254.98 28.32C1254.29 27.68 1253.14 26.8267 1251.54 25.76C1249.89 24.7467 1247.76 23.76 1245.14 22.8C1242.53 21.84 1239.41 20.9867 1235.78 20.24C1232.16 19.5467 1227.97 19.2 1223.22 19.2C1218.48 19.2 1214.29 19.5467 1210.66 20.24C1207.04 20.9867 1203.92 21.84 1201.3 22.8C1198.69 23.76 1196.58 24.7467 1194.98 25.76C1193.38 26.8267 1192.21 27.68 1191.46 28.32C1192.21 28.96 1193.38 29.7867 1194.98 30.8C1196.58 31.8667 1198.69 32.9067 1201.3 33.92C1203.92 34.9333 1207.04 35.7867 1210.66 36.48C1214.29 37.2267 1218.48 37.6 1223.22 37.6Z" fill="#8A6330"/>
</svg>
