<svg width="1440" height="14620" viewBox="0 0 1440 14620" fill="none" xmlns="http://www.w3.org/2000/svg">
<g clip-path="url(#clip0_1063_8)">
<rect width="1440" height="14620" fill="#FEFAE0"/>
<rect x="-72" y="-3" width="1512.08" height="1735" fill="#1B1836"/>
<ellipse cx="438.275" cy="422" rx="356.353" ry="342" fill="#3B3760"/>
<ellipse cx="959.294" cy="424" rx="356.353" ry="342" fill="#3B3760"/>
<path fill-rule="evenodd" clip-rule="evenodd" d="M-79.1758 1750H1438C1438 1750 1409.38 1535.18 1377.55 1399.72C1331.27 1202.77 1299.5 1091.85 1215.17 905.199C1200.67 873.106 1189.1 843.762 1178.2 816.133C1147.23 737.569 1109.28 687.323 1037.37 612.693C992.219 565.832 971.974 538.215 913.508 505.055C855.557 472.187 824.081 442.009 756.457 431.286C701.768 422.615 666.067 417.147 610.665 420.72C542.848 425.094 523.687 436.74 461.318 460.883C377.346 493.389 339.333 534.372 282.339 598.239C201.273 689.08 155.367 758.042 106.323 865.574C33.8679 1024.44 14.6114 1133.85 -10.9017 1278.81C-17.4919 1316.25 -24.4995 1356.06 -32.9493 1399.72C-59.2229 1535.45 -79.1758 1750 -79.1758 1750Z" fill="url(#paint0_linear_1063_8)"/>
<path d="M630 376.5L676 376V431H630V376.5Z" fill="#FEFAE0"/>
<rect x="679" y="376" width="62" height="55" fill="#FEFAE0"/>
<path d="M652.677 343L676 376L630 376.5L652.677 343Z" fill="#FEFAE0"/>
<path d="M724.441 343L740.647 373H707L715.441 343H724.441Z" fill="#FEFAE0"/>
<rect x="698" y="326" width="11.2157" height="20" fill="#FEFAE0"/>
<path d="M678.695 373L657 343H693.137L684.695 373H678.695Z" fill="#FEFAE0"/>
<rect x="679" y="343" width="37.7255" height="30" fill="#FEFAE0"/>
<rect x="645" y="389" width="5.09804" height="5" fill="#3B3760"/>
<rect x="645" y="396" width="5.09804" height="5" fill="#3B3760"/>
<rect x="652" y="389" width="5" height="5" fill="#3B3760"/>
<rect x="652" y="396" width="5" height="5" fill="#3B3760"/>
<path d="M183.883 552V555" stroke="white" stroke-width="3" stroke-linecap="round"/>
<path d="M281.764 474H276.666" stroke="white" stroke-width="3" stroke-linecap="round"/>
<path d="M380.665 357C380.665 361.575 380.841 362.149 377.607 364" stroke="white" stroke-width="3" stroke-linecap="round"/>
<path d="M468.353 292V289" stroke="white" stroke-width="3" stroke-linecap="round"/>
<path d="M110.471 285C113.289 285.461 112.497 286.298 113.53 289" stroke="white" stroke-width="3" stroke-linecap="round"/>
<path d="M580.51 224C580.154 227.44 579.201 225.765 578.471 224" stroke="white" stroke-width="3" stroke-linecap="round"/>
<path d="M651.709 181.184L648.679 182.002" stroke="white" stroke-width="3" stroke-linecap="round"/>
<path d="M757.108 249.379L755.963 245.53" stroke="white" stroke-width="3" stroke-linecap="round"/>
<path d="M902.465 308.855C897.845 310.104 897.314 310.426 894.537 307.88" stroke="white" stroke-width="3" stroke-linecap="round"/>
<path d="M991.876 370.977L994.905 370.158" stroke="white" stroke-width="3" stroke-linecap="round"/>
<path d="M1091.19 455.368C1087.61 455.97 1089.04 454.614 1090.61 453.443" stroke="white" stroke-width="3" stroke-linecap="round"/>
<path d="M898.627 419V422" stroke="white" stroke-width="3" stroke-linecap="round"/>
<path d="M992.43 243H987.332" stroke="white" stroke-width="3" stroke-linecap="round"/>
<path d="M1081.14 95.0001H1077.06" stroke="white" stroke-width="3" stroke-linecap="round"/>
<path d="M1217.76 326H1213.69" stroke="white" stroke-width="3" stroke-linecap="round"/>
<path d="M139.02 865H133.922" stroke="white" stroke-width="3" stroke-linecap="round"/>
<path d="M1315.65 911H1310.55" stroke="white" stroke-width="3" stroke-linecap="round"/>
<path d="M133.921 730H129.843" stroke="white" stroke-width="3" stroke-linecap="round"/>
<path d="M17.6859 606H13.6074" stroke="white" stroke-width="3" stroke-linecap="round"/>
<path d="M3.41242 392H-0.666016" stroke="white" stroke-width="3" stroke-linecap="round"/>
<path d="M13.6077 856H9.5293" stroke="white" stroke-width="3" stroke-linecap="round"/>
<path d="M1365.61 810H1361.53" stroke="white" stroke-width="3" stroke-linecap="round"/>
<path d="M1217.76 473H1213.69" stroke="white" stroke-width="3" stroke-linecap="round"/>
<path d="M1325.84 473H1321.76" stroke="white" stroke-width="3" stroke-linecap="round"/>
<path d="M1300.35 714H1296.28" stroke="white" stroke-width="3" stroke-linecap="round"/>
<path d="M1329.92 225H1325.84" stroke="white" stroke-width="3" stroke-linecap="round"/>
<path d="M1325.84 93.0001H1321.76" stroke="white" stroke-width="3" stroke-linecap="round"/>
<path d="M1213.69 57.0001H1209.61" stroke="white" stroke-width="3" stroke-linecap="round"/>
<path d="M204.274 175H200.195" stroke="white" stroke-width="3" stroke-linecap="round"/>
<path d="M729.373 57.0001H725.295" stroke="white" stroke-width="3" stroke-linecap="round"/>
<path d="M987.333 152H983.255" stroke="white" stroke-width="3" stroke-linecap="round"/>
<path d="M152.274 421V424" stroke="white" stroke-width="3" stroke-linecap="round"/>
<path d="M250.157 343H246.078" stroke="white" stroke-width="3" stroke-linecap="round"/>
<path d="M349.057 226C349.057 230.575 349.233 231.149 346 233" stroke="white" stroke-width="3" stroke-linecap="round"/>
<path d="M436.745 161V158" stroke="white" stroke-width="3" stroke-linecap="round"/>
<path d="M78.8633 154C81.6816 154.461 80.8891 155.298 81.9221 158" stroke="white" stroke-width="3" stroke-linecap="round"/>
<path d="M548.902 93.0001C548.547 96.4399 547.593 94.7651 546.863 93.0001" stroke="white" stroke-width="3" stroke-linecap="round"/>
<path d="M286.863 593V596" stroke="white" stroke-width="3" stroke-linecap="round"/>
<path d="M383.725 515H379.646" stroke="white" stroke-width="3" stroke-linecap="round"/>
<path d="M483.645 398C483.645 402.575 483.821 403.149 480.588 405" stroke="white" stroke-width="3" stroke-linecap="round"/>
<path d="M571.333 333V330" stroke="white" stroke-width="3" stroke-linecap="round"/>
<path d="M286.863 78.0001C289.682 78.4607 288.889 79.2983 289.922 82.0001" stroke="white" stroke-width="3" stroke-linecap="round"/>
<path d="M683.49 265C683.135 268.44 682.181 266.765 681.451 265" stroke="white" stroke-width="3" stroke-linecap="round"/>
<path d="M1095.41 224C1095.41 228.575 1095.59 229.149 1092.35 231" stroke="white" stroke-width="3" stroke-linecap="round"/>
<path d="M825.216 152C828.034 152.461 827.242 153.298 828.275 156" stroke="white" stroke-width="3" stroke-linecap="round"/>
<line x1="403.638" y1="576" x2="403.638" y2="-226" stroke="black" stroke-width="3"/>
<line x1="579.01" y1="606" x2="579.01" y2="-216" stroke="black" stroke-width="3"/>
<line x1="823.716" y1="593" x2="823.716" y2="-259" stroke="black" stroke-width="3"/>
<line x1="1022.54" y1="569" x2="1022.54" y2="-265" stroke="black" stroke-width="3"/>
<line x1="1131.64" y1="856" x2="1131.64" y2="-226" stroke="black" stroke-width="3"/>
<path d="M1142.79 885.4L1164.08 993.514L1135.7 998.585L1114.41 890.471L1036.26 904.437L1024.17 843.009L1208.84 810.005L1220.94 871.433L1142.79 885.4Z" fill="white"/>
<path d="M1054.79 513.324L1181.38 665.275L1153.06 670.622L1130.26 643.325L1008.76 666.269L998.616 699.788L923.967 713.885L980.141 527.421L1054.79 513.324ZM1046.09 542.237L1028.18 601.435L1086.35 590.449L1046.09 542.237Z" fill="white"/>
<line x1="348.02" y1="856.008" x2="348.02" y2="-254.995" stroke="black" stroke-width="3"/>
<path d="M381.383 573.042C379.972 580.928 378.279 587.416 376.304 592.505C374.328 597.595 372.357 601.67 370.389 604.732C368.392 607.958 366.456 610.349 364.58 611.904C362.503 613.596 360.859 614.85 359.648 615.668L443.98 629.363L452.358 582.538L381.736 571.07L381.383 573.042ZM270.4 601.176C275.229 601.96 279.63 601.66 283.605 600.277C287.377 599.03 290.796 596.288 293.861 592.052C296.926 587.815 299.738 582.017 302.298 574.655C304.685 567.265 306.907 557.82 308.965 546.319L317.74 497.277L491.837 525.547L472.436 633.983L500.892 638.604L484.136 732.253L455.68 727.633L461.413 695.595L283.693 666.736L277.961 698.774L249.505 694.153L266.261 600.504L270.4 601.176Z" fill="white"/>
<line x1="889.655" y1="793.006" x2="889.655" y2="-248.998" stroke="black" stroke-width="3"/>
<path d="M304.558 948.697C286.709 946.344 269.888 941.772 254.096 934.979C238.131 928.164 224.674 918.062 213.726 904.672L223.724 835.828C228.04 832.864 233.644 830.153 240.535 827.696C247.229 825.382 254.841 823.441 263.369 821.873C271.898 820.305 281.221 819.346 291.339 818.997C301.432 818.813 311.938 819.441 322.856 820.88L352.749 824.82L355.267 807.485L383.86 811.254L381.343 828.589L411.237 832.529C422.154 833.968 432.444 836.081 442.106 838.869C451.744 841.822 460.531 845.167 468.465 848.905C476.227 852.62 482.999 856.457 488.782 860.416C494.541 864.541 499.075 868.587 502.384 872.557L492.386 941.401C486.916 946.232 480.341 950.161 472.66 953.187C464.806 956.19 456.454 958.37 447.603 959.727C438.727 961.249 429.614 961.983 420.261 961.928C410.711 962.015 401.431 961.465 392.419 960.277L362.786 956.372L359.045 982.126L330.451 978.357L334.192 952.603L304.558 948.697ZM343.039 891.683L313.145 887.743C296.682 885.573 282.913 885.525 271.839 887.599C260.567 889.815 250.896 893.167 242.826 897.656C249.684 903.944 258.171 909.353 268.286 913.883C278.229 918.39 291.518 921.74 308.154 923.933L337.788 927.839L343.039 891.683ZM366.382 931.607L396.016 935.513C412.652 937.706 426.496 937.848 437.546 935.94C448.399 934.173 458.01 931.234 466.379 927.121C459.867 920.878 451.59 915.245 441.546 910.219C431.329 905.171 417.989 901.562 401.526 899.392L371.633 895.452L366.382 931.607Z" fill="white"/>
<line x1="627.612" y1="865.009" x2="627.612" y2="-254.996" stroke="black" stroke-width="3"/>
<path d="M734.971 827.005L739.596 886.843L570.531 898.703L571.629 912.915L662.181 906.562L663.916 929.002L573.363 935.354L574.577 951.061L743.643 939.201L748.268 999.039L550.414 1012.92L537.117 840.885L734.971 827.005Z" fill="white"/>
<path d="M976.676 937.658C964.982 941.929 950.884 945.063 934.383 947.061C917.882 949.058 898.961 948.74 877.621 946.107C862.353 944.224 848.468 941.25 835.966 937.187C823.442 933.289 812.309 928.89 802.567 923.991C792.651 919.07 784.353 913.929 777.673 908.567C770.797 903.349 765.46 898.489 761.662 893.987L776.593 784.155C781.273 780.867 787.58 777.948 795.512 775.397C803.445 772.846 812.807 770.808 823.598 769.283C834.194 767.901 846.111 767.187 859.348 767.139C872.389 767.236 886.457 768.215 901.551 770.078C922.544 772.668 940.917 776.363 956.671 781.164C972.251 785.943 985.3 791.166 995.82 796.834L986.619 864.518C983.29 861.755 978.942 858.698 973.577 855.347C968.211 851.996 961.694 848.671 954.028 845.372C946.362 842.073 937.523 838.966 927.511 836.05C917.477 833.3 906.127 831.143 893.462 829.581C878.021 827.675 864.255 827.069 852.165 827.763C840.053 828.621 829.543 830.013 820.638 831.94C811.732 833.866 804.463 836.078 798.831 838.576C793.177 841.24 789 843.413 786.302 845.097C788.461 847.38 791.93 850.413 796.708 854.196C801.463 858.144 807.878 862.212 815.953 866.402C824.027 870.591 833.817 874.488 845.323 878.092C856.806 881.862 870.269 884.699 885.71 886.604C898.375 888.167 909.938 888.753 920.4 888.364C930.838 888.139 940.216 887.279 948.534 885.785C956.83 884.455 964.031 882.739 970.139 880.635C976.224 878.697 981.245 876.796 985.203 874.931L976.676 937.658Z" fill="white"/>
<path d="M625.967 546.692L766.827 686.781L739.155 694.611L713.79 669.45L595.055 703.049L588.221 737.322L515.269 757.965L553.015 567.335L625.967 546.692ZM620.126 576.25L608.064 636.777L664.916 620.69L620.126 576.25Z" fill="white"/>
<path d="M860.63 653.849C853.925 654.652 846.5 654.767 838.354 654.194C830.208 653.622 821.298 652.179 811.626 649.867C791.943 645.162 776.143 639.408 764.226 632.607C752.097 625.928 743.51 619.837 738.466 614.335L765.93 510.068L793.928 516.761L779.557 571.319C784.391 574.881 791.092 578.544 799.659 582.311C808.184 586.239 819.234 589.826 832.809 593.071C841.972 595.261 850.139 596.44 857.31 596.608C864.268 596.897 870.485 596.579 875.959 595.653L890.649 539.882L918.647 546.576L874.577 713.888L846.579 707.195L860.63 653.849Z" fill="white"/>
</g>
<defs>
<linearGradient id="paint0_linear_1063_8" x1="679.412" y1="370" x2="679.412" y2="1750" gradientUnits="userSpaceOnUse">
<stop offset="0.34" stop-color="#5D503F"/>
<stop offset="1" stop-color="#FEFAE0"/>
</linearGradient>
<clipPath id="clip0_1063_8">
<rect width="1440" height="14620" fill="white"/>
</clipPath>
</defs>
</svg>
