<svg width="1331" height="989" viewBox="0 0 1331 989" fill="none" xmlns="http://www.w3.org/2000/svg">
<rect width="1330" height="155" fill="#C9A87D"/>
<path d="M1 165H1331V320H1V165Z" fill="#C9A87D"/>
<rect x="1" y="333" width="1330" height="153" fill="#C9A87D"/>
<rect x="1" y="497" width="1330" height="155" fill="#C9A87D"/>
<rect x="1" y="667" width="1330" height="155" fill="#C9A87D"/>
<rect y="834" width="1330" height="155" fill="#C9A87D"/>
<path d="M168.933 49.7V64.82H194.833V49.7H202.533V98H194.833V82.32H168.933V98H161.233V49.7H168.933ZM254.68 49.7L279.53 98H271.83L267.35 89.32H234.31L229.83 98H209.53L234.38 49.7H254.68ZM250.83 57.19L242.92 72.52H258.74L250.83 57.19ZM306.822 82.6C305.142 83.2533 303.229 83.7667 301.082 84.14C298.935 84.5133 296.532 84.7 293.872 84.7C288.459 84.7 283.979 84.1633 280.432 83.09C276.839 82.0633 274.202 80.9667 272.522 79.8V49.7H280.222V65.45C281.715 66.1033 283.699 66.6633 286.172 67.13C288.645 67.6433 291.749 67.9 295.482 67.9C298.002 67.9 300.195 67.69 302.062 67.27C303.882 66.8967 305.469 66.4067 306.822 65.8V49.7H314.522V98H306.822V82.6ZM361.047 49.7L385.897 98H378.197L373.717 89.32H340.677L336.197 98H315.897L340.747 49.7H361.047ZM357.197 57.19L349.287 72.52H365.107L357.197 57.19ZM437.907 98H430.207V67.2H414.597V77C414.597 79.9867 414.387 82.7633 413.967 85.33C413.501 87.8967 412.567 90.1133 411.167 91.98C409.767 93.8933 407.737 95.3633 405.077 96.39C402.417 97.4633 398.871 98 394.437 98H386.597V89.6C389.257 89.6 391.217 88.8767 392.477 87.43C393.691 86.03 394.297 83.4867 394.297 79.8V49.7H437.907V98ZM473.236 98.7C469.129 98.7 465.349 98.35 461.896 97.65C458.443 96.9967 455.339 96.1567 452.586 95.13C449.786 94.1033 447.406 92.96 445.446 91.7C443.439 90.4867 441.853 89.32 440.686 88.2V57.19C441.806 56.1167 443.369 55.09 445.376 54.11C447.383 53.13 449.786 52.2433 452.586 51.45C455.339 50.7033 458.466 50.0967 461.966 49.63C465.419 49.21 469.176 49 473.236 49C477.436 49 481.286 49.21 484.786 49.63C488.239 50.0967 491.343 50.7033 494.096 51.45C496.803 52.1967 499.136 53.06 501.096 54.04C503.056 55.0667 504.619 56.1167 505.786 57.19V88.2C504.619 89.3667 503.056 90.5567 501.096 91.77C499.136 93.03 496.803 94.1733 494.096 95.2C491.389 96.2267 488.309 97.0667 484.856 97.72C481.356 98.3733 477.483 98.7 473.236 98.7ZM473.236 81.9C477.389 81.9 481.053 81.5733 484.226 80.92C487.399 80.3133 490.129 79.5667 492.416 78.68C494.703 77.7933 496.569 76.8833 498.016 75.95C499.416 75.0633 500.419 74.34 501.026 73.78C500.419 73.22 499.416 72.4733 498.016 71.54C496.569 70.6533 494.703 69.79 492.416 68.95C490.129 68.11 487.399 67.3633 484.226 66.71C481.053 66.1033 477.389 65.8 473.236 65.8C469.083 65.8 465.419 66.1033 462.246 66.71C459.073 67.3633 456.343 68.11 454.056 68.95C451.769 69.79 449.926 70.6533 448.526 71.54C447.126 72.4733 446.099 73.22 445.446 73.78C446.099 74.34 447.126 75.0633 448.526 75.95C449.926 76.8833 451.769 77.7933 454.056 78.68C456.343 79.5667 459.073 80.3133 462.246 80.92C465.419 81.5733 469.083 81.9 473.236 81.9Z" fill="#FEFAE0"/>
<path d="M905.705 48.7V66.55L924.885 48.7H945.185L918.305 74.04L945.185 97H933.915L905.705 72.92V97H898.005V48.7H905.705ZM974.237 97.7C970.13 97.7 966.35 97.35 962.897 96.65C959.444 95.9967 956.34 95.1567 953.587 94.13C950.787 93.1033 948.407 91.96 946.447 90.7C944.44 89.4867 942.854 88.32 941.687 87.2V56.19C942.807 55.1167 944.37 54.09 946.377 53.11C948.384 52.13 950.787 51.2433 953.587 50.45C956.34 49.7033 959.467 49.0967 962.967 48.63C966.42 48.21 970.177 48 974.237 48C978.437 48 982.287 48.21 985.787 48.63C989.24 49.0967 992.344 49.7033 995.097 50.45C997.804 51.1967 1000.14 52.06 1002.1 53.04C1004.06 54.0667 1005.62 55.1167 1006.79 56.19V87.2C1005.62 88.3667 1004.06 89.5567 1002.1 90.77C1000.14 92.03 997.804 93.1733 995.097 94.2C992.39 95.2267 989.31 96.0667 985.857 96.72C982.357 97.3733 978.484 97.7 974.237 97.7ZM974.237 80.9C978.39 80.9 982.054 80.5733 985.227 79.92C988.4 79.3133 991.13 78.5667 993.417 77.68C995.704 76.7933 997.57 75.8833 999.017 74.95C1000.42 74.0633 1001.42 73.34 1002.03 72.78C1001.42 72.22 1000.42 71.4733 999.017 70.54C997.57 69.6533 995.704 68.79 993.417 67.95C991.13 67.11 988.4 66.3633 985.227 65.71C982.054 65.1033 978.39 64.8 974.237 64.8C970.084 64.8 966.42 65.1033 963.247 65.71C960.074 66.3633 957.344 67.11 955.057 67.95C952.77 68.79 950.927 69.6533 949.527 70.54C948.127 71.4733 947.1 72.22 946.447 72.78C947.1 73.34 948.127 74.0633 949.527 74.95C950.927 75.8833 952.77 76.7933 955.057 77.68C957.344 78.5667 960.074 79.3133 963.247 79.92C966.42 80.5733 970.084 80.9 974.237 80.9ZM1017.27 48.7V63.82H1043.17V48.7H1050.87V97H1043.17V81.32H1017.27V97H1009.57V48.7H1017.27ZM1112.19 48.7V65.5H1066.97V69.49H1091.19V75.79H1066.97V80.2H1112.19V97H1059.27V48.7H1112.19ZM1164.68 106.1H1156.98V97H1114.98V48.7H1122.68V79.5H1149.28V48.7H1156.98V79.5H1164.68V106.1Z" fill="#FEFAE0"/>
<path d="M377.444 128V148.613L406.154 156.605L402.117 183.528L420.283 192.362V217.181L436.835 224.753L432.798 247.048L452.983 255.882L447.331 280.28L465 299H193L211.818 280.28L209.396 255.882L225.14 247.048V224.753L242.655 217.181V192.362L261.629 183.528V156.605L282.621 148.613L280.556 128H377.444Z" fill="#641B1C"/>
<path d="M1113.44 207.908C1113.44 207.908 1114.64 185.262 1105.41 177.526C1094.66 168.511 1070.09 180.023 1070.09 180.023L1045.19 152.555C1045.19 152.555 1033.43 128 1019.9 128C1006.37 128 994.609 152.555 994.609 152.555L970.922 180.023C970.922 180.023 947.698 169.227 937.199 177.526C927.728 185.012 928.768 207.908 928.768 207.908C928.768 207.908 907.224 209.205 901.468 219.561C895.7 229.937 905.482 249.942 905.482 249.942L883 272H1156L1135.93 249.942C1135.93 249.942 1147.74 230.346 1142.35 219.561C1136.78 208.411 1113.44 207.908 1113.44 207.908Z" fill="#BC6C25"/>
<path fill-rule="evenodd" clip-rule="evenodd" d="M871.767 797.648H1165.94V781.514V657.108V544.59V517.84V478.778V466.889V424.43V415.088V376.026V364.562V324.65V272H871.767V324.65V363.712V376.45V418.485V429.525V471.135V484.297V526.757V544.165V657.108V781.514V797.648ZM810.834 502.13C810.801 499.226 812.284 496.575 814.431 494.266L810.834 502.13Z" fill="#BC6C25"/>
<rect x="193" y="299" width="275" height="523" fill="#641B1C"/>
<rect x="213" y="374" width="231" height="123" fill="white"/>
<rect x="902" y="374" width="229" height="123" fill="white"/>
<rect x="213" y="537" width="98" height="251" fill="white"/>
<rect x="347" y="537" width="97" height="251" fill="white"/>
<rect x="915" y="537" width="82" height="251" fill="white"/>
<rect x="1047" y="537" width="84" height="251" fill="white"/>
<path d="M872 796H1165V881L1146.44 850.4L1132.31 859.75H898.233L887.74 850.4L872 881V796Z" fill="#BC6C25"/>
<path fill-rule="evenodd" clip-rule="evenodd" d="M237.44 822H193V927L213.2 904.083L201.484 890.333L213.2 874.917L201.484 860.333L213.2 847L237.44 822Z" fill="#641B1C"/>
<path fill-rule="evenodd" clip-rule="evenodd" d="M423.076 822H467.516V927L447.316 904.083L459.032 890.333L447.316 874.917L459.032 860.333L447.316 847L423.076 822Z" fill="#641B1C"/>
<path fill-rule="evenodd" clip-rule="evenodd" d="M331 333H213V811H331V333ZM235.394 432.231L269.847 513.728L300.423 432.231L269.847 356.224L235.394 432.231ZM269.847 775.53L240.131 689.811L269.847 606.625L300.423 689.811L269.847 775.53ZM254.774 566.088L269.847 587.201L286.212 566.088L269.847 541.175L254.774 566.088ZM250.898 510.772L229.796 457.567V510.772H250.898ZM310.759 457.567V510.772H290.088L310.759 457.567ZM292.672 356.224L310.759 400.14V356.224H292.672ZM229.796 356.224H247.453L229.796 400.14V356.224ZM290.088 775.53L310.759 712.613V775.53H290.088ZM229.796 724.014L247.883 775.53H229.796V724.014ZM250.898 606.625H229.796V674.187L250.898 606.625ZM310.759 674.187V606.625H286.212L310.759 674.187ZM286.212 591.846L300.423 574.111L310.759 591.846H286.212ZM310.759 566.088L290.088 541.175H310.759V566.088ZM254.774 591.846L240.131 574.111L229.796 591.846H254.774ZM229.796 541.175H250.898L229.796 566.088V541.175Z" fill="#641B1C"/>
<path fill-rule="evenodd" clip-rule="evenodd" d="M444 335H331V813H444V335ZM352.445 434.231L385.438 515.728L414.719 434.231L385.438 358.224L352.445 434.231ZM385.438 777.53L356.982 691.811L385.438 608.625L414.719 691.811L385.438 777.53ZM371.004 568.088L385.438 589.201L401.109 568.088L385.438 543.175L371.004 568.088ZM367.292 512.772L347.084 459.567V512.772H367.292ZM424.617 459.567V512.772H404.821L424.617 459.567ZM407.296 358.224L424.617 402.14V358.224H407.296ZM347.084 358.224H363.993L347.084 402.14V358.224ZM404.821 777.53L424.617 714.613V777.53H404.821ZM347.084 726.014L364.405 777.53H347.084V726.014ZM367.292 608.625H347.084V676.187L367.292 608.625ZM424.617 676.187V608.625H401.109L424.617 676.187ZM401.109 593.846L414.719 576.111L424.617 593.846H401.109ZM424.617 568.088L404.821 543.175H424.617V568.088ZM371.004 593.846L356.982 576.111L347.084 593.846H371.004ZM347.084 543.175H367.292L347.084 568.088V543.175Z" fill="#641B1C"/>
</svg>
