<svg width="1331" height="989" viewBox="0 0 1331 989" fill="none" xmlns="http://www.w3.org/2000/svg">
<rect width="1330" height="155" fill="#C9A87D"/>
<path d="M1 165H1331V320H1V165Z" fill="#C9A87D"/>
<rect x="1" y="333" width="1330" height="153" fill="#C9A87D"/>
<rect x="1" y="497" width="1330" height="155" fill="#C9A87D"/>
<rect x="1" y="667" width="1330" height="155" fill="#C9A87D"/>
<rect y="834" width="1330" height="155" fill="#C9A87D"/>
<path d="M168.933 49.7V64.82H194.833V49.7H202.533V98H194.833V82.32H168.933V98H161.233V49.7H168.933ZM254.68 49.7L279.53 98H271.83L267.35 89.32H234.31L229.83 98H209.53L234.38 49.7H254.68ZM250.83 57.19L242.92 72.52H258.74L250.83 57.19ZM306.822 82.6C305.142 83.2533 303.229 83.7667 301.082 84.14C298.935 84.5133 296.532 84.7 293.872 84.7C288.459 84.7 283.979 84.1633 280.432 83.09C276.839 82.0633 274.202 80.9667 272.522 79.8V49.7H280.222V65.45C281.715 66.1033 283.699 66.6633 286.172 67.13C288.645 67.6433 291.749 67.9 295.482 67.9C298.002 67.9 300.195 67.69 302.062 67.27C303.882 66.8967 305.469 66.4067 306.822 65.8V49.7H314.522V98H306.822V82.6ZM361.047 49.7L385.897 98H378.197L373.717 89.32H340.677L336.197 98H315.897L340.747 49.7H361.047ZM357.197 57.19L349.287 72.52H365.107L357.197 57.19ZM437.907 98H430.207V67.2H414.597V77C414.597 79.9867 414.387 82.7633 413.967 85.33C413.501 87.8967 412.567 90.1133 411.167 91.98C409.767 93.8933 407.737 95.3633 405.077 96.39C402.417 97.4633 398.871 98 394.437 98H386.597V89.6C389.257 89.6 391.217 88.8767 392.477 87.43C393.691 86.03 394.297 83.4867 394.297 79.8V49.7H437.907V98ZM473.236 98.7C469.129 98.7 465.349 98.35 461.896 97.65C458.443 96.9967 455.339 96.1567 452.586 95.13C449.786 94.1033 447.406 92.96 445.446 91.7C443.439 90.4867 441.853 89.32 440.686 88.2V57.19C441.806 56.1167 443.369 55.09 445.376 54.11C447.383 53.13 449.786 52.2433 452.586 51.45C455.339 50.7033 458.466 50.0967 461.966 49.63C465.419 49.21 469.176 49 473.236 49C477.436 49 481.286 49.21 484.786 49.63C488.239 50.0967 491.343 50.7033 494.096 51.45C496.803 52.1967 499.136 53.06 501.096 54.04C503.056 55.0667 504.619 56.1167 505.786 57.19V88.2C504.619 89.3667 503.056 90.5567 501.096 91.77C499.136 93.03 496.803 94.1733 494.096 95.2C491.389 96.2267 488.309 97.0667 484.856 97.72C481.356 98.3733 477.483 98.7 473.236 98.7ZM473.236 81.9C477.389 81.9 481.053 81.5733 484.226 80.92C487.399 80.3133 490.129 79.5667 492.416 78.68C494.703 77.7933 496.569 76.8833 498.016 75.95C499.416 75.0633 500.419 74.34 501.026 73.78C500.419 73.22 499.416 72.4733 498.016 71.54C496.569 70.6533 494.703 69.79 492.416 68.95C490.129 68.11 487.399 67.3633 484.226 66.71C481.053 66.1033 477.389 65.8 473.236 65.8C469.083 65.8 465.419 66.1033 462.246 66.71C459.073 67.3633 456.343 68.11 454.056 68.95C451.769 69.79 449.926 70.6533 448.526 71.54C447.126 72.4733 446.099 73.22 445.446 73.78C446.099 74.34 447.126 75.0633 448.526 75.95C449.926 76.8833 451.769 77.7933 454.056 78.68C456.343 79.5667 459.073 80.3133 462.246 80.92C465.419 81.5733 469.083 81.9 473.236 81.9Z" fill="#FEFAE0"/>
<path d="M905.705 48.7V66.55L924.885 48.7H945.185L918.305 74.04L945.185 97H933.915L905.705 72.92V97H898.005V48.7H905.705ZM974.237 97.7C970.13 97.7 966.35 97.35 962.897 96.65C959.444 95.9967 956.34 95.1567 953.587 94.13C950.787 93.1033 948.407 91.96 946.447 90.7C944.44 89.4867 942.854 88.32 941.687 87.2V56.19C942.807 55.1167 944.37 54.09 946.377 53.11C948.384 52.13 950.787 51.2433 953.587 50.45C956.34 49.7033 959.467 49.0967 962.967 48.63C966.42 48.21 970.177 48 974.237 48C978.437 48 982.287 48.21 985.787 48.63C989.24 49.0967 992.344 49.7033 995.097 50.45C997.804 51.1967 1000.14 52.06 1002.1 53.04C1004.06 54.0667 1005.62 55.1167 1006.79 56.19V87.2C1005.62 88.3667 1004.06 89.5567 1002.1 90.77C1000.14 92.03 997.804 93.1733 995.097 94.2C992.39 95.2267 989.31 96.0667 985.857 96.72C982.357 97.3733 978.484 97.7 974.237 97.7ZM974.237 80.9C978.39 80.9 982.054 80.5733 985.227 79.92C988.4 79.3133 991.13 78.5667 993.417 77.68C995.704 76.7933 997.57 75.8833 999.017 74.95C1000.42 74.0633 1001.42 73.34 1002.03 72.78C1001.42 72.22 1000.42 71.4733 999.017 70.54C997.57 69.6533 995.704 68.79 993.417 67.95C991.13 67.11 988.4 66.3633 985.227 65.71C982.054 65.1033 978.39 64.8 974.237 64.8C970.084 64.8 966.42 65.1033 963.247 65.71C960.074 66.3633 957.344 67.11 955.057 67.95C952.77 68.79 950.927 69.6533 949.527 70.54C948.127 71.4733 947.1 72.22 946.447 72.78C947.1 73.34 948.127 74.0633 949.527 74.95C950.927 75.8833 952.77 76.7933 955.057 77.68C957.344 78.5667 960.074 79.3133 963.247 79.92C966.42 80.5733 970.084 80.9 974.237 80.9ZM1017.27 48.7V63.82H1043.17V48.7H1050.87V97H1043.17V81.32H1017.27V97H1009.57V48.7H1017.27ZM1112.19 48.7V65.5H1066.97V69.49H1091.19V75.79H1066.97V80.2H1112.19V97H1059.27V48.7H1112.19ZM1164.68 106.1H1156.98V97H1114.98V48.7H1122.68V79.5H1149.28V48.7H1156.98V79.5H1164.68V106.1Z" fill="#FEFAE0"/>
<path d="M377.444 128V148.613L406.154 156.605L402.117 183.528L420.283 192.362V217.181L436.835 224.753L432.798 247.048L452.983 255.882L447.331 280.28L465 299H193L211.818 280.28L209.396 255.882L225.14 247.048V224.753L242.655 217.181V192.362L261.629 183.528V156.605L282.621 148.613L280.556 128H377.444Z" fill="#641B1C"/>
<path d="M1113.44 207.908C1113.44 207.908 1114.64 185.262 1105.41 177.526C1094.66 168.511 1070.09 180.023 1070.09 180.023L1045.19 152.555C1045.19 152.555 1033.43 128 1019.9 128C1006.37 128 994.609 152.555 994.609 152.555L970.922 180.023C970.922 180.023 947.698 169.227 937.199 177.526C927.728 185.012 928.768 207.908 928.768 207.908C928.768 207.908 907.224 209.205 901.468 219.561C895.7 229.937 905.482 249.942 905.482 249.942L883 272H1156L1135.93 249.942C1135.93 249.942 1147.74 230.346 1142.35 219.561C1136.78 208.411 1113.44 207.908 1113.44 207.908Z" fill="#BC6C25"/>
<path fill-rule="evenodd" clip-rule="evenodd" d="M829.668 272H1203.6V316.582C1203.6 316.582 1232.57 331.645 1230.55 345.455C1228.79 357.469 1203.6 368.383 1203.6 368.383C1203.6 368.383 1231.11 381.317 1230.55 394.283C1230.01 406.74 1203.6 418.485 1203.6 418.485C1203.6 418.485 1231.01 432.299 1230.55 445.659C1230.09 458.569 1203.6 471.363 1203.6 471.363C1203.6 471.363 1232.17 488.823 1230.55 503.829C1229.1 517.148 1203.6 531.003 1203.6 531.003C1203.6 531.003 1221.25 546.901 1230.55 558.177C1295.82 637.371 1222.03 794.544 1203.6 797.648C1189.08 800.095 1165.94 797.648 1165.94 797.648H871.767C871.767 797.648 845.853 800.689 829.668 797.648C815.274 794.944 737.448 637.371 802.723 558.177C812.016 546.901 830.081 531.003 830.081 531.003C830.081 531.003 803.577 517.178 802.723 503.829C801.809 489.542 829.668 473.683 829.668 473.683C829.668 473.683 802.462 459.288 802.723 445.659C802.979 432.295 829.668 418.485 829.668 418.485C829.668 418.485 803.261 406.74 802.723 394.283C802.163 381.317 829.668 368.383 829.668 368.383C829.668 368.383 804.48 357.469 802.723 345.455C800.702 331.645 829.668 316.582 829.668 316.582V272ZM871.767 544.165V781.514C871.767 781.514 814.87 743.725 803.974 714.852C802.585 711.171 802.648 705.867 802.702 701.241C802.713 700.371 802.723 699.525 802.723 698.718C802.723 682.583 871.767 657.108 871.767 657.108C871.767 657.108 802.723 628.66 802.723 597.664C802.723 566.669 871.767 544.165 871.767 544.165ZM1165.94 781.514V657.108C1165.94 657.108 1224.05 682.159 1224.05 715.277C1224.05 748.395 1165.94 781.514 1165.94 781.514ZM1165.94 657.108V544.59C1165.94 544.59 1213.89 569.813 1219.21 584.502C1222.44 593.418 1226.47 601.486 1220.82 617.62C1213.68 638.001 1165.94 657.108 1165.94 657.108ZM871.767 526.757V484.297C871.767 484.297 819.897 488.386 814.431 494.266L810.834 502.13C810.953 512.322 871.767 526.757 871.767 526.757ZM871.767 429.525V471.135C871.767 471.135 810.204 454.132 810.834 443.961C811.433 434.308 871.767 429.525 871.767 429.525ZM871.767 418.485V376.45C871.767 376.45 810.309 384.626 810.834 394.283C811.339 403.559 871.767 418.485 871.767 418.485ZM871.767 324.65V363.712C871.767 363.712 810.959 352.155 810.834 342.483C810.708 332.71 871.767 324.65 871.767 324.65ZM1165.94 478.778V517.84C1165.94 517.84 1220.4 513.013 1222.03 503.829C1223.95 493.029 1165.94 478.778 1165.94 478.778ZM1165.94 466.889V424.43C1165.94 424.43 1221.97 434.597 1221.22 444.386C1220.53 453.533 1165.94 466.889 1165.94 466.889ZM1165.94 376.026V415.088C1165.94 415.088 1221.3 403.499 1222.03 394.283C1222.81 384.465 1165.94 376.026 1165.94 376.026ZM1165.94 364.562V324.65C1165.94 324.65 1222.16 332.841 1222.03 342.483C1221.91 352.023 1165.94 364.562 1165.94 364.562Z" fill="#BC6C25"/>
<rect x="193" y="299" width="275" height="523" fill="#641B1C"/>
<path fill-rule="evenodd" clip-rule="evenodd" d="M193 344H82V822H193V344ZM103.066 443.231L135.474 524.728L164.237 443.231L135.474 367.224L103.066 443.231ZM135.474 786.53L107.522 700.811L135.474 617.625L164.237 700.811L135.474 786.53ZM121.296 577.088L135.474 598.201L150.869 577.088L135.474 552.175L121.296 577.088ZM117.65 521.772L97.7993 468.567V521.772H117.65ZM173.96 468.567V521.772H154.515L173.96 468.567ZM156.945 367.224L173.96 411.14V367.224H156.945ZM97.7993 367.224H114.409L97.7993 411.14V367.224ZM154.515 786.53L173.96 723.613V786.53H154.515ZM97.7993 735.014L114.814 786.53H97.7993V735.014ZM117.65 617.625H97.7993V685.187L117.65 617.625ZM173.96 685.187V617.625H150.869L173.96 685.187ZM150.869 602.846L164.237 585.111L173.96 602.846H150.869ZM173.96 577.088L154.515 552.175H173.96V577.088ZM121.296 602.846L107.522 585.111L97.7993 602.846H121.296ZM97.7993 552.175H117.65L97.7993 577.088V552.175Z" fill="#641B1C"/>
<path fill-rule="evenodd" clip-rule="evenodd" d="M577 344H466V822H577V344ZM487.066 443.231L519.474 524.728L548.237 443.231L519.474 367.224L487.066 443.231ZM519.474 786.53L491.522 700.811L519.474 617.625L548.237 700.811L519.474 786.53ZM505.296 577.088L519.474 598.201L534.869 577.088L519.474 552.175L505.296 577.088ZM501.65 521.772L481.799 468.567V521.772H501.65ZM557.96 468.567V521.772H538.515L557.96 468.567ZM540.945 367.224L557.96 411.14V367.224H540.945ZM481.799 367.224H498.409L481.799 411.14V367.224ZM538.515 786.53L557.96 723.613V786.53H538.515ZM481.799 735.014L498.814 786.53H481.799V735.014ZM501.65 617.625H481.799V685.187L501.65 617.625ZM557.96 685.187V617.625H534.869L557.96 685.187ZM534.869 602.846L548.237 585.111L557.96 602.846H534.869ZM557.96 577.088L538.515 552.175H557.96V577.088ZM505.296 602.846L491.522 585.111L481.799 602.846H505.296ZM481.799 552.175H501.65L481.799 577.088V552.175Z" fill="#641B1C"/>
<rect x="213" y="374" width="231" height="123" fill="white"/>
<rect x="902" y="374" width="229" height="123" fill="white"/>
<path d="M217.25 464V447.25H238.02V435.793L217.25 441.22V424.47L245.39 417.1V447.25H264.15V464H217.25ZM290.295 464.67C285.427 464.67 280.982 464.223 276.962 463.33C272.898 462.437 269.525 461.275 266.845 459.846V445.575C267.694 446.156 268.878 446.736 270.396 447.317C271.87 447.898 273.59 448.434 275.555 448.925C277.521 449.416 279.642 449.818 281.92 450.131C284.198 450.444 286.543 450.6 288.955 450.6C293.109 450.6 296.861 450.332 300.211 449.796C303.561 449.305 306.375 448.344 308.653 446.915C307.269 446.066 305.862 445.352 304.432 444.771C302.958 444.19 301.328 443.721 299.541 443.364C297.755 443.051 295.767 442.828 293.578 442.694C291.345 442.56 288.777 442.493 285.873 442.493H271.937V433.783L298.335 425.14H269.525V417.77H313.142V425.14L295.789 430.835C299.72 431.326 303.092 432.063 305.906 433.046C308.72 434.029 311.356 435.391 313.812 437.133V459.846C310.998 461.32 307.671 462.481 303.829 463.33C299.943 464.223 295.432 464.67 290.295 464.67ZM329.237 463.464C328.835 463.732 328.343 463.933 327.763 464.067C327.182 464.246 326.579 464.38 325.954 464.469C325.284 464.558 324.681 464.603 324.145 464.603C323.564 464.648 323.117 464.67 322.805 464.67C322.492 464.67 322.068 464.648 321.532 464.603C320.951 464.603 320.37 464.558 319.79 464.469C319.164 464.38 318.561 464.246 317.981 464.067C317.4 463.933 316.909 463.732 316.507 463.464V454.285C316.864 454.062 317.333 453.861 317.914 453.682C318.494 453.548 319.097 453.436 319.723 453.347C320.348 453.258 320.951 453.191 321.532 453.146H324.145C324.725 453.191 325.328 453.258 325.954 453.347C326.579 453.436 327.204 453.548 327.83 453.682C328.41 453.861 328.879 454.062 329.237 454.285V463.464ZM329.237 443.364C328.835 443.632 328.343 443.833 327.763 443.967C327.182 444.146 326.579 444.28 325.954 444.369C325.284 444.458 324.681 444.503 324.145 444.503C323.564 444.548 323.117 444.57 322.805 444.57C322.492 444.57 322.068 444.548 321.532 444.503C320.951 444.503 320.37 444.458 319.79 444.369C319.164 444.28 318.561 444.146 317.981 443.967C317.4 443.833 316.909 443.632 316.507 443.364V434.185C316.864 433.962 317.333 433.761 317.914 433.582C318.494 433.448 319.097 433.336 319.723 433.247C320.348 433.158 320.951 433.091 321.532 433.046H324.145C324.725 433.091 325.328 433.158 325.954 433.247C326.579 433.336 327.204 433.448 327.83 433.582C328.41 433.761 328.879 433.962 329.237 434.185V443.364ZM357.743 464.67C354.84 464.67 352.093 464.424 349.502 463.933C346.867 463.442 344.455 462.794 342.266 461.99C340.033 461.186 338.045 460.248 336.303 459.176C334.561 458.149 333.109 457.077 331.948 455.96V424.269C333.109 423.242 334.583 422.281 336.37 421.388C338.112 420.539 340.1 419.802 342.333 419.177C344.522 418.552 346.934 418.038 349.569 417.636C352.16 417.279 354.884 417.1 357.743 417.1C364.13 417.1 369.423 417.77 373.622 419.11C377.821 420.495 381.126 422.214 383.538 424.269V455.96C382.377 457.121 380.992 458.216 379.384 459.243C377.731 460.315 375.855 461.253 373.756 462.057C371.612 462.861 369.222 463.486 366.587 463.933C363.907 464.424 360.959 464.67 357.743 464.67ZM357.743 448.59C361.138 448.59 364.063 448.277 366.52 447.652C368.977 447.071 371.054 446.357 372.751 445.508C374.448 444.659 375.811 443.788 376.838 442.895C377.821 442.046 378.558 441.354 379.049 440.818C378.558 440.282 377.821 439.567 376.838 438.674C375.811 437.825 374.448 436.999 372.751 436.195C371.054 435.391 368.977 434.676 366.52 434.051C364.063 433.47 361.138 433.18 357.743 433.18C354.482 433.18 351.646 433.47 349.234 434.051C346.777 434.676 344.7 435.391 343.003 436.195C341.306 436.999 339.943 437.825 338.916 438.674C337.844 439.567 337.04 440.282 336.504 440.818C337.04 441.354 337.844 442.046 338.916 442.895C339.943 443.788 341.306 444.659 343.003 445.508C344.7 446.357 346.777 447.071 349.234 447.652C351.646 448.277 354.482 448.59 357.743 448.59ZM411.984 464.67C409.081 464.67 406.334 464.424 403.743 463.933C401.108 463.442 398.696 462.794 396.507 461.99C394.274 461.186 392.286 460.248 390.544 459.176C388.802 458.149 387.35 457.077 386.189 455.96V424.269C387.35 423.242 388.824 422.281 390.611 421.388C392.353 420.539 394.341 419.802 396.574 419.177C398.763 418.552 401.175 418.038 403.81 417.636C406.401 417.279 409.125 417.1 411.984 417.1C418.371 417.1 423.664 417.77 427.863 419.11C432.062 420.495 435.367 422.214 437.779 424.269V455.96C436.618 457.121 435.233 458.216 433.625 459.243C431.972 460.315 430.096 461.253 427.997 462.057C425.853 462.861 423.463 463.486 420.828 463.933C418.148 464.424 415.2 464.67 411.984 464.67ZM411.984 448.59C415.379 448.59 418.304 448.277 420.761 447.652C423.218 447.071 425.295 446.357 426.992 445.508C428.689 444.659 430.052 443.788 431.079 442.895C432.062 442.046 432.799 441.354 433.29 440.818C432.799 440.282 432.062 439.567 431.079 438.674C430.052 437.825 428.689 436.999 426.992 436.195C425.295 435.391 423.218 434.676 420.761 434.051C418.304 433.47 415.379 433.18 411.984 433.18C408.723 433.18 405.887 433.47 403.475 434.051C401.018 434.676 398.941 435.391 397.244 436.195C395.547 436.999 394.184 437.825 393.157 438.674C392.085 439.567 391.281 440.282 390.745 440.818C391.281 441.354 392.085 442.046 393.157 442.895C394.184 443.788 395.547 444.659 397.244 445.508C398.941 446.357 401.018 447.071 403.475 447.652C405.887 448.277 408.723 448.59 411.984 448.59Z" fill="#641B1C"/>
<path d="M943.712 432.912C941.791 432.287 939.714 431.84 937.481 431.572C935.203 431.304 932.679 431.17 929.91 431.17C926.917 431.17 924.192 431.326 921.736 431.639C919.279 431.952 917.113 432.331 915.237 432.778C913.316 433.269 911.686 433.805 910.346 434.386C909.006 434.967 907.911 435.525 907.063 436.061V421.12C909.787 420.003 913.182 419.043 917.247 418.239C921.267 417.48 925.666 417.1 930.446 417.1C933.26 417.1 935.917 417.212 938.419 417.435C940.92 417.658 943.22 417.971 945.32 418.373C947.419 418.82 949.273 419.333 950.881 419.914C952.489 420.495 953.762 421.142 954.7 421.857V434.319L924.55 449.93H954.633V464H907.063V451.94L943.712 432.912ZM994.027 432.912C992.106 432.287 990.029 431.84 987.796 431.572C985.518 431.304 982.994 431.17 980.225 431.17C977.232 431.17 974.508 431.326 972.051 431.639C969.594 431.952 967.428 432.331 965.552 432.778C963.631 433.269 962.001 433.805 960.661 434.386C959.321 434.967 958.227 435.525 957.378 436.061V421.12C960.103 420.003 963.497 419.043 967.562 418.239C971.582 417.48 975.982 417.1 980.761 417.1C983.575 417.1 986.233 417.212 988.734 417.435C991.235 417.658 993.536 417.971 995.635 418.373C997.734 418.82 999.588 419.333 1001.2 419.914C1002.8 420.495 1004.08 421.142 1005.02 421.857V434.319L974.865 449.93H1004.95V464H957.378V451.94L994.027 432.912ZM1020.42 463.464C1020.02 463.732 1019.53 463.933 1018.95 464.067C1018.37 464.246 1017.77 464.38 1017.14 464.469C1016.47 464.558 1015.87 464.603 1015.33 464.603C1014.75 464.648 1014.3 464.67 1013.99 464.67C1013.68 464.67 1013.25 464.648 1012.72 464.603C1012.14 464.603 1011.56 464.558 1010.98 464.469C1010.35 464.38 1009.75 464.246 1009.17 464.067C1008.59 463.933 1008.1 463.732 1007.69 463.464V454.285C1008.05 454.062 1008.52 453.861 1009.1 453.682C1009.68 453.548 1010.28 453.436 1010.91 453.347C1011.53 453.258 1012.14 453.191 1012.72 453.146H1015.33C1015.91 453.191 1016.52 453.258 1017.14 453.347C1017.77 453.436 1018.39 453.548 1019.02 453.682C1019.6 453.861 1020.07 454.062 1020.42 454.285V463.464ZM1020.42 443.364C1020.02 443.632 1019.53 443.833 1018.95 443.967C1018.37 444.146 1017.77 444.28 1017.14 444.369C1016.47 444.458 1015.87 444.503 1015.33 444.503C1014.75 444.548 1014.3 444.57 1013.99 444.57C1013.68 444.57 1013.25 444.548 1012.72 444.503C1012.14 444.503 1011.56 444.458 1010.98 444.369C1010.35 444.28 1009.75 444.146 1009.17 443.967C1008.59 443.833 1008.1 443.632 1007.69 443.364V434.185C1008.05 433.962 1008.52 433.761 1009.1 433.582C1009.68 433.448 1010.28 433.336 1010.91 433.247C1011.53 433.158 1012.14 433.091 1012.72 433.046H1015.33C1015.91 433.091 1016.52 433.158 1017.14 433.247C1017.77 433.336 1018.39 433.448 1019.02 433.582C1019.6 433.761 1020.07 433.962 1020.42 434.185V443.364ZM1048.93 464.67C1046.03 464.67 1043.28 464.424 1040.69 463.933C1038.05 463.442 1035.64 462.794 1033.45 461.99C1031.22 461.186 1029.23 460.248 1027.49 459.176C1025.75 458.149 1024.3 457.077 1023.13 455.96V424.269C1024.3 423.242 1025.77 422.281 1027.56 421.388C1029.3 420.539 1031.29 419.802 1033.52 419.177C1035.71 418.552 1038.12 418.038 1040.76 417.636C1043.35 417.279 1046.07 417.1 1048.93 417.1C1055.32 417.1 1060.61 417.77 1064.81 419.11C1069.01 420.495 1072.31 422.214 1074.72 424.269V455.96C1073.56 457.121 1072.18 458.216 1070.57 459.243C1068.92 460.315 1067.04 461.253 1064.94 462.057C1062.8 462.861 1060.41 463.486 1057.77 463.933C1055.09 464.424 1052.15 464.67 1048.93 464.67ZM1048.93 448.59C1052.32 448.59 1055.25 448.277 1057.71 447.652C1060.16 447.071 1062.24 446.357 1063.94 445.508C1065.64 444.659 1067 443.788 1068.02 442.895C1069.01 442.046 1069.74 441.354 1070.24 440.818C1069.74 440.282 1069.01 439.567 1068.02 438.674C1067 437.825 1065.64 436.999 1063.94 436.195C1062.24 435.391 1060.16 434.676 1057.71 434.051C1055.25 433.47 1052.32 433.18 1048.93 433.18C1045.67 433.18 1042.83 433.47 1040.42 434.051C1037.96 434.676 1035.89 435.391 1034.19 436.195C1032.49 436.999 1031.13 437.825 1030.1 438.674C1029.03 439.567 1028.23 440.282 1027.69 440.818C1028.23 441.354 1029.03 442.046 1030.1 442.895C1031.13 443.788 1032.49 444.659 1034.19 445.508C1035.89 446.357 1037.96 447.071 1040.42 447.652C1042.83 448.277 1045.67 448.59 1048.93 448.59ZM1103.17 464.67C1100.27 464.67 1097.52 464.424 1094.93 463.933C1092.29 463.442 1089.88 462.794 1087.69 461.99C1085.46 461.186 1083.47 460.248 1081.73 459.176C1079.99 458.149 1078.54 457.077 1077.38 455.96V424.269C1078.54 423.242 1080.01 422.281 1081.8 421.388C1083.54 420.539 1085.53 419.802 1087.76 419.177C1089.95 418.552 1092.36 418.038 1095 417.636C1097.59 417.279 1100.31 417.1 1103.17 417.1C1109.56 417.1 1114.85 417.77 1119.05 419.11C1123.25 420.495 1126.55 422.214 1128.97 424.269V455.96C1127.8 457.121 1126.42 458.216 1124.81 459.243C1123.16 460.315 1121.28 461.253 1119.18 462.057C1117.04 462.861 1114.65 463.486 1112.02 463.933C1109.34 464.424 1106.39 464.67 1103.17 464.67ZM1103.17 448.59C1106.57 448.59 1109.49 448.277 1111.95 447.652C1114.4 447.071 1116.48 446.357 1118.18 445.508C1119.88 444.659 1121.24 443.788 1122.27 442.895C1123.25 442.046 1123.99 441.354 1124.48 440.818C1123.99 440.282 1123.25 439.567 1122.27 438.674C1121.24 437.825 1119.88 436.999 1118.18 436.195C1116.48 435.391 1114.4 434.676 1111.95 434.051C1109.49 433.47 1106.57 433.18 1103.17 433.18C1099.91 433.18 1097.07 433.47 1094.66 434.051C1092.21 434.676 1090.13 435.391 1088.43 436.195C1086.73 436.999 1085.37 437.825 1084.34 438.674C1083.27 439.567 1082.47 440.282 1081.93 440.818C1082.47 441.354 1083.27 442.046 1084.34 442.895C1085.37 443.788 1086.73 444.659 1088.43 445.508C1090.13 446.357 1092.21 447.071 1094.66 447.652C1097.07 448.277 1099.91 448.59 1103.17 448.59Z" fill="#BC6C25"/>
<rect x="213" y="537" width="98" height="251" fill="white"/>
<rect x="347" y="537" width="97" height="251" fill="white"/>
<rect x="915" y="537" width="82" height="251" fill="white"/>
<rect x="1047" y="537" width="84" height="251" fill="white"/>
<path d="M872 796H1165V881L1146.44 850.4L1132.31 859.75H898.233L887.74 850.4L872 881V796Z" fill="#BC6C25"/>
<path fill-rule="evenodd" clip-rule="evenodd" d="M237.44 822H193V927L213.2 904.083L201.484 890.333L213.2 874.917L201.484 860.333L213.2 847L237.44 822Z" fill="#641B1C"/>
<path fill-rule="evenodd" clip-rule="evenodd" d="M421.56 822H466V927L445.8 904.083L457.516 890.333L445.8 874.917L457.516 860.333L445.8 847L421.56 822Z" fill="#641B1C"/>
</svg>
