<svg width="399" height="855" viewBox="0 0 399 855" fill="none" xmlns="http://www.w3.org/2000/svg">
<g clip-path="url(#clip0_1532_2515)">
<rect x="3" width="397" height="47" fill="#C9A87D"/>
<rect x="2" y="267" width="398" height="48" fill="#C9A87D"/>
<rect x="2" y="321" width="398" height="48" fill="#C9A87D"/>
<rect x="3" y="376" width="398" height="48" fill="#C9A87D"/>
<rect x="3" y="213" width="397" height="48" fill="#C9A87D"/>
<rect x="2" y="159" width="398" height="48" fill="#C9A87D"/>
<rect x="2" y="106" width="398" height="47" fill="#C9A87D"/>
<rect x="3" y="53" width="397" height="48" fill="#C9A87D"/>
<rect x="3" y="431" width="397" height="47" fill="#C9A87D"/>
<rect x="2" y="698" width="398" height="48" fill="#C9A87D"/>
<rect x="2" y="752" width="398" height="48" fill="#C9A87D"/>
<rect x="3" y="807" width="398" height="48" fill="#C9A87D"/>
<rect x="3" y="644" width="397" height="48" fill="#C9A87D"/>
<rect x="2" y="590" width="398" height="48" fill="#C9A87D"/>
<rect x="2" y="537" width="398" height="47" fill="#C9A87D"/>
<rect x="3" y="484" width="397" height="48" fill="#C9A87D"/>
<rect x="132" y="139" width="133" height="235" fill="#641B1C"/>
<rect x="140" y="174" width="113" height="54" fill="white"/>
<rect x="140" y="246" width="48" height="112" fill="white"/>
<rect x="207" y="246" width="46" height="112" fill="white"/>
<path d="M221.509 64V73.1611L235.442 76.7134L233.483 88.679L242.299 92.6052V103.636L250.332 107.001L248.372 116.91L258.168 120.836L255.425 131.68L264 140H132L141.132 131.68L139.957 120.836L147.597 116.91V107.001L156.097 103.636V92.6052L165.305 88.679V76.7134L175.493 73.1611L174.49 64H221.509Z" fill="#641B1C"/>
<path fill-rule="evenodd" clip-rule="evenodd" d="M144 374H122V420L132 409.96L126.2 403.937L132 397.183L126.2 390.794L132 384.952L144 374Z" fill="#641B1C"/>
<path fill-rule="evenodd" clip-rule="evenodd" d="M250 374H272V420L262 409.96L267.8 403.937L262 397.183L267.8 390.794L262 384.952L250 374Z" fill="#641B1C"/>
<path d="M147.134 215V207.5H156.434V202.37L147.134 204.8V197.3L159.734 194V207.5H168.134V215H147.134ZM179.841 215.3C177.661 215.3 175.671 215.1 173.871 214.7C172.051 214.3 170.541 213.78 169.341 213.14V206.75C169.721 207.01 170.251 207.27 170.931 207.53C171.591 207.79 172.361 208.03 173.241 208.25C174.121 208.47 175.071 208.65 176.091 208.79C177.111 208.93 178.161 209 179.241 209C181.101 209 182.781 208.88 184.281 208.64C185.781 208.42 187.041 207.99 188.061 207.35C187.441 206.97 186.811 206.65 186.171 206.39C185.511 206.13 184.781 205.92 183.981 205.76C183.181 205.62 182.291 205.52 181.311 205.46C180.311 205.4 179.161 205.37 177.861 205.37H171.621V201.47L183.441 197.6H170.541V194.3H190.071V197.6L182.301 200.15C184.061 200.37 185.571 200.7 186.831 201.14C188.091 201.58 189.271 202.19 190.371 202.97V213.14C189.111 213.8 187.621 214.32 185.901 214.7C184.161 215.1 182.141 215.3 179.841 215.3ZM197.278 214.76C197.098 214.88 196.878 214.97 196.618 215.03C196.358 215.11 196.088 215.17 195.808 215.21C195.508 215.25 195.238 215.27 194.998 215.27C194.738 215.29 194.538 215.3 194.398 215.3C194.258 215.3 194.068 215.29 193.828 215.27C193.568 215.27 193.308 215.25 193.048 215.21C192.768 215.17 192.498 215.11 192.238 215.03C191.978 214.97 191.758 214.88 191.578 214.76V210.65C191.738 210.55 191.948 210.46 192.208 210.38C192.468 210.32 192.738 210.27 193.018 210.23C193.298 210.19 193.568 210.16 193.828 210.14H194.998C195.258 210.16 195.528 210.19 195.808 210.23C196.088 210.27 196.368 210.32 196.648 210.38C196.908 210.46 197.118 210.55 197.278 210.65V214.76ZM197.278 205.76C197.098 205.88 196.878 205.97 196.618 206.03C196.358 206.11 196.088 206.17 195.808 206.21C195.508 206.25 195.238 206.27 194.998 206.27C194.738 206.29 194.538 206.3 194.398 206.3C194.258 206.3 194.068 206.29 193.828 206.27C193.568 206.27 193.308 206.25 193.048 206.21C192.768 206.17 192.498 206.11 192.238 206.03C191.978 205.97 191.758 205.88 191.578 205.76V201.65C191.738 201.55 191.948 201.46 192.208 201.38C192.468 201.32 192.738 201.27 193.018 201.23C193.298 201.19 193.568 201.16 193.828 201.14H194.998C195.258 201.16 195.528 201.19 195.808 201.23C196.088 201.27 196.368 201.32 196.648 201.38C196.908 201.46 197.118 201.55 197.278 201.65V205.76ZM210.042 215.3C208.742 215.3 207.512 215.19 206.352 214.97C205.172 214.75 204.092 214.46 203.112 214.1C202.112 213.74 201.222 213.32 200.442 212.84C199.662 212.38 199.012 211.9 198.492 211.4V197.21C199.012 196.75 199.672 196.32 200.472 195.92C201.252 195.54 202.142 195.21 203.142 194.93C204.122 194.65 205.202 194.42 206.382 194.24C207.542 194.08 208.762 194 210.042 194C212.902 194 215.272 194.3 217.152 194.9C219.032 195.52 220.512 196.29 221.592 197.21V211.4C221.072 211.92 220.452 212.41 219.732 212.87C218.992 213.35 218.152 213.77 217.212 214.13C216.252 214.49 215.182 214.77 214.002 214.97C212.802 215.19 211.482 215.3 210.042 215.3ZM210.042 208.1C211.562 208.1 212.872 207.96 213.972 207.68C215.072 207.42 216.002 207.1 216.762 206.72C217.522 206.34 218.132 205.95 218.592 205.55C219.032 205.17 219.362 204.86 219.582 204.62C219.362 204.38 219.032 204.06 218.592 203.66C218.132 203.28 217.522 202.91 216.762 202.55C216.002 202.19 215.072 201.87 213.972 201.59C212.872 201.33 211.562 201.2 210.042 201.2C208.582 201.2 207.312 201.33 206.232 201.59C205.132 201.87 204.202 202.19 203.442 202.55C202.682 202.91 202.072 203.28 201.612 203.66C201.132 204.06 200.772 204.38 200.532 204.62C200.772 204.86 201.132 205.17 201.612 205.55C202.072 205.95 202.682 206.34 203.442 206.72C204.202 207.1 205.132 207.42 206.232 207.68C207.312 207.96 208.582 208.1 210.042 208.1ZM234.329 215.3C233.029 215.3 231.799 215.19 230.639 214.97C229.459 214.75 228.379 214.46 227.399 214.1C226.399 213.74 225.509 213.32 224.729 212.84C223.949 212.38 223.299 211.9 222.779 211.4V197.21C223.299 196.75 223.959 196.32 224.759 195.92C225.539 195.54 226.429 195.21 227.429 194.93C228.409 194.65 229.489 194.42 230.669 194.24C231.829 194.08 233.049 194 234.329 194C237.189 194 239.559 194.3 241.439 194.9C243.319 195.52 244.799 196.29 245.879 197.21V211.4C245.359 211.92 244.739 212.41 244.019 212.87C243.279 213.35 242.439 213.77 241.499 214.13C240.539 214.49 239.469 214.77 238.289 214.97C237.089 215.19 235.769 215.3 234.329 215.3ZM234.329 208.1C235.849 208.1 237.159 207.96 238.259 207.68C239.359 207.42 240.289 207.1 241.049 206.72C241.809 206.34 242.419 205.95 242.879 205.55C243.319 205.17 243.649 204.86 243.869 204.62C243.649 204.38 243.319 204.06 242.879 203.66C242.419 203.28 241.809 202.91 241.049 202.55C240.289 202.19 239.359 201.87 238.259 201.59C237.159 201.33 235.849 201.2 234.329 201.2C232.869 201.2 231.599 201.33 230.519 201.59C229.419 201.87 228.489 202.19 227.729 202.55C226.969 202.91 226.359 203.28 225.899 203.66C225.419 204.06 225.059 204.38 224.819 204.62C225.059 204.86 225.419 205.17 225.899 205.55C226.359 205.95 226.969 206.34 227.729 206.72C228.489 207.1 229.419 207.42 230.519 207.68C231.599 207.96 232.869 208.1 234.329 208.1Z" fill="#641B1C"/>
<path d="M139.302 439.3V446.95L147.522 439.3H156.222L144.702 450.16L156.222 460H151.392L139.302 449.68V460H136.002V439.3H139.302ZM168.673 460.3C166.913 460.3 165.293 460.15 163.813 459.85C162.333 459.57 161.003 459.21 159.823 458.77C158.623 458.33 157.603 457.84 156.763 457.3C155.903 456.78 155.223 456.28 154.723 455.8V442.51C155.203 442.05 155.873 441.61 156.733 441.19C157.593 440.77 158.623 440.39 159.823 440.05C161.003 439.73 162.343 439.47 163.843 439.27C165.323 439.09 166.933 439 168.673 439C170.473 439 172.123 439.09 173.623 439.27C175.103 439.47 176.433 439.73 177.613 440.05C178.773 440.37 179.773 440.74 180.613 441.16C181.453 441.6 182.123 442.05 182.623 442.51V455.8C182.123 456.3 181.453 456.81 180.613 457.33C179.773 457.87 178.773 458.36 177.613 458.8C176.453 459.24 175.133 459.6 173.653 459.88C172.153 460.16 170.493 460.3 168.673 460.3ZM168.673 453.1C170.453 453.1 172.023 452.96 173.383 452.68C174.743 452.42 175.913 452.1 176.893 451.72C177.873 451.34 178.673 450.95 179.293 450.55C179.893 450.17 180.323 449.86 180.583 449.62C180.323 449.38 179.893 449.06 179.293 448.66C178.673 448.28 177.873 447.91 176.893 447.55C175.913 447.19 174.743 446.87 173.383 446.59C172.023 446.33 170.453 446.2 168.673 446.2C166.893 446.2 165.323 446.33 163.963 446.59C162.603 446.87 161.433 447.19 160.453 447.55C159.473 447.91 158.683 448.28 158.083 448.66C157.483 449.06 157.043 449.38 156.763 449.62C157.043 449.86 157.483 450.17 158.083 450.55C158.683 450.95 159.473 451.34 160.453 451.72C161.433 452.1 162.603 452.42 163.963 452.68C165.323 452.96 166.893 453.1 168.673 453.1ZM187.115 439.3V445.78H198.215V439.3H201.515V460H198.215V453.28H187.115V460H183.815V439.3H187.115ZM227.794 439.3V446.5H208.414V448.21H218.794V450.91H208.414V452.8H227.794V460H205.114V439.3H227.794ZM250.291 463.9H246.991V460H228.991V439.3H232.291V452.5H243.691V439.3H246.991V452.5H250.291V463.9Z" fill="#FEFAE0"/>
<rect x="131" y="584" width="114" height="55" fill="white"/>
<rect x="202" y="658" width="43" height="112" fill="white"/>
<rect x="135" y="658" width="44" height="112" fill="white"/>
<path d="M236.488 509.069C236.488 509.069 237.094 498.847 232.429 495.355C226.994 491.286 214.571 496.483 214.571 496.483L201.988 484.084C201.988 484.084 196.044 473 189.203 473C182.362 473 176.418 484.084 176.418 484.084L164.444 496.483C164.444 496.483 152.705 491.609 147.397 495.355C142.61 498.734 143.135 509.069 143.135 509.069C143.135 509.069 132.245 509.655 129.335 514.329C126.42 519.013 131.365 528.043 131.365 528.043L120 538H258L247.853 528.043C247.853 528.043 253.824 519.198 251.1 514.329C248.284 509.297 236.488 509.069 236.488 509.069Z" fill="#BC6C25"/>
<path d="M115 775H262V812L252.686 798.68L245.599 802.75H128.161L122.897 798.68L115 812V775Z" fill="#BC6C25"/>
<path d="M155.237 610.08C154.377 609.8 153.447 609.6 152.447 609.48C151.427 609.36 150.297 609.3 149.057 609.3C147.717 609.3 146.497 609.37 145.397 609.51C144.297 609.65 143.327 609.82 142.487 610.02C141.627 610.24 140.897 610.48 140.297 610.74C139.697 611 139.207 611.25 138.827 611.49V604.8C140.047 604.3 141.567 603.87 143.387 603.51C145.187 603.17 147.157 603 149.297 603C150.557 603 151.747 603.05 152.867 603.15C153.987 603.25 155.017 603.39 155.957 603.57C156.897 603.77 157.727 604 158.447 604.26C159.167 604.52 159.737 604.81 160.157 605.13V610.71L146.657 617.7H160.127V624H138.827V618.6L155.237 610.08ZM177.766 610.08C176.906 609.8 175.976 609.6 174.976 609.48C173.956 609.36 172.826 609.3 171.586 609.3C170.246 609.3 169.026 609.37 167.926 609.51C166.826 609.65 165.856 609.82 165.016 610.02C164.156 610.24 163.426 610.48 162.826 610.74C162.226 611 161.736 611.25 161.356 611.49V604.8C162.576 604.3 164.096 603.87 165.916 603.51C167.716 603.17 169.686 603 171.826 603C173.086 603 174.276 603.05 175.396 603.15C176.516 603.25 177.546 603.39 178.486 603.57C179.426 603.77 180.256 604 180.976 604.26C181.696 604.52 182.266 604.81 182.686 605.13V610.71L169.186 617.7H182.656V624H161.356V618.6L177.766 610.08ZM189.585 623.76C189.405 623.88 189.185 623.97 188.925 624.03C188.665 624.11 188.395 624.17 188.115 624.21C187.815 624.25 187.545 624.27 187.305 624.27C187.045 624.29 186.845 624.3 186.705 624.3C186.565 624.3 186.375 624.29 186.135 624.27C185.875 624.27 185.615 624.25 185.355 624.21C185.075 624.17 184.805 624.11 184.545 624.03C184.285 623.97 184.065 623.88 183.885 623.76V619.65C184.045 619.55 184.255 619.46 184.515 619.38C184.775 619.32 185.045 619.27 185.325 619.23C185.605 619.19 185.875 619.16 186.135 619.14H187.305C187.565 619.16 187.835 619.19 188.115 619.23C188.395 619.27 188.675 619.32 188.955 619.38C189.215 619.46 189.425 619.55 189.585 619.65V623.76ZM189.585 614.76C189.405 614.88 189.185 614.97 188.925 615.03C188.665 615.11 188.395 615.17 188.115 615.21C187.815 615.25 187.545 615.27 187.305 615.27C187.045 615.29 186.845 615.3 186.705 615.3C186.565 615.3 186.375 615.29 186.135 615.27C185.875 615.27 185.615 615.25 185.355 615.21C185.075 615.17 184.805 615.11 184.545 615.03C184.285 614.97 184.065 614.88 183.885 614.76V610.65C184.045 610.55 184.255 610.46 184.515 610.38C184.775 610.32 185.045 610.27 185.325 610.23C185.605 610.19 185.875 610.16 186.135 610.14H187.305C187.565 610.16 187.835 610.19 188.115 610.23C188.395 610.27 188.675 610.32 188.955 610.38C189.215 610.46 189.425 610.55 189.585 610.65V614.76ZM202.349 624.3C201.049 624.3 199.819 624.19 198.659 623.97C197.479 623.75 196.399 623.46 195.419 623.1C194.419 622.74 193.529 622.32 192.749 621.84C191.969 621.38 191.319 620.9 190.799 620.4V606.21C191.319 605.75 191.979 605.32 192.779 604.92C193.559 604.54 194.449 604.21 195.449 603.93C196.429 603.65 197.509 603.42 198.689 603.24C199.849 603.08 201.069 603 202.349 603C205.209 603 207.579 603.3 209.459 603.9C211.339 604.52 212.819 605.29 213.899 606.21V620.4C213.379 620.92 212.759 621.41 212.039 621.87C211.299 622.35 210.459 622.77 209.519 623.13C208.559 623.49 207.489 623.77 206.309 623.97C205.109 624.19 203.789 624.3 202.349 624.3ZM202.349 617.1C203.869 617.1 205.179 616.96 206.279 616.68C207.379 616.42 208.309 616.1 209.069 615.72C209.829 615.34 210.439 614.95 210.899 614.55C211.339 614.17 211.669 613.86 211.889 613.62C211.669 613.38 211.339 613.06 210.899 612.66C210.439 612.28 209.829 611.91 209.069 611.55C208.309 611.19 207.379 610.87 206.279 610.59C205.179 610.33 203.869 610.2 202.349 610.2C200.889 610.2 199.619 610.33 198.539 610.59C197.439 610.87 196.509 611.19 195.749 611.55C194.989 611.91 194.379 612.28 193.919 612.66C193.439 613.06 193.079 613.38 192.839 613.62C193.079 613.86 193.439 614.17 193.919 614.55C194.379 614.95 194.989 615.34 195.749 615.72C196.509 616.1 197.439 616.42 198.539 616.68C199.619 616.96 200.889 617.1 202.349 617.1ZM226.636 624.3C225.336 624.3 224.106 624.19 222.946 623.97C221.766 623.75 220.686 623.46 219.706 623.1C218.706 622.74 217.816 622.32 217.036 621.84C216.256 621.38 215.606 620.9 215.086 620.4V606.21C215.606 605.75 216.266 605.32 217.066 604.92C217.846 604.54 218.736 604.21 219.736 603.93C220.716 603.65 221.796 603.42 222.976 603.24C224.136 603.08 225.356 603 226.636 603C229.496 603 231.866 603.3 233.746 603.9C235.626 604.52 237.106 605.29 238.186 606.21V620.4C237.666 620.92 237.046 621.41 236.326 621.87C235.586 622.35 234.746 622.77 233.806 623.13C232.846 623.49 231.776 623.77 230.596 623.97C229.396 624.19 228.076 624.3 226.636 624.3ZM226.636 617.1C228.156 617.1 229.466 616.96 230.566 616.68C231.666 616.42 232.596 616.1 233.356 615.72C234.116 615.34 234.726 614.95 235.186 614.55C235.626 614.17 235.956 613.86 236.176 613.62C235.956 613.38 235.626 613.06 235.186 612.66C234.726 612.28 234.116 611.91 233.356 611.55C232.596 611.19 231.666 610.87 230.566 610.59C229.466 610.33 228.156 610.2 226.636 610.2C225.176 610.2 223.906 610.33 222.826 610.59C221.726 610.87 220.796 611.19 220.036 611.55C219.276 611.91 218.666 612.28 218.206 612.66C217.726 613.06 217.366 613.38 217.126 613.62C217.366 613.86 217.726 614.17 218.206 614.55C218.666 614.95 219.276 615.34 220.036 615.72C220.796 616.1 221.726 616.42 222.826 616.68C223.906 616.96 225.176 617.1 226.636 617.1Z" fill="#BC6C25"/>
<path d="M135.971 19.3V25.78H147.071V19.3H150.371V40H147.071V33.28H135.971V40H132.671V19.3H135.971ZM172.72 19.3L183.37 40H180.07L178.15 36.28H163.99L162.07 40H153.37L164.02 19.3H172.72ZM171.07 22.51L167.68 29.08H174.46L171.07 22.51ZM195.067 33.4C194.347 33.68 193.527 33.9 192.607 34.06C191.687 34.22 190.657 34.3 189.517 34.3C187.197 34.3 185.277 34.07 183.757 33.61C182.217 33.17 181.087 32.7 180.367 32.2V19.3H183.667V26.05C184.307 26.33 185.157 26.57 186.217 26.77C187.277 26.99 188.607 27.1 190.207 27.1C191.287 27.1 192.227 27.01 193.027 26.83C193.807 26.67 194.487 26.46 195.067 26.2V19.3H198.367V40H195.067V33.4ZM218.306 19.3L228.956 40H225.656L223.736 36.28H209.576L207.656 40H198.956L209.606 19.3H218.306ZM216.656 22.51L213.266 29.08H220.046L216.656 22.51ZM251.246 40H247.946V26.8H241.256V31C241.256 32.28 241.166 33.47 240.986 34.57C240.786 35.67 240.386 36.62 239.786 37.42C239.186 38.24 238.316 38.87 237.176 39.31C236.036 39.77 234.516 40 232.616 40H229.256V36.4C230.396 36.4 231.236 36.09 231.776 35.47C232.296 34.87 232.556 33.78 232.556 32.2V19.3H251.246V40ZM266.387 40.3C264.627 40.3 263.007 40.15 261.527 39.85C260.047 39.57 258.717 39.21 257.537 38.77C256.337 38.33 255.317 37.84 254.477 37.3C253.617 36.78 252.937 36.28 252.437 35.8V22.51C252.917 22.05 253.587 21.61 254.447 21.19C255.307 20.77 256.337 20.39 257.537 20.05C258.717 19.73 260.057 19.47 261.557 19.27C263.037 19.09 264.647 19 266.387 19C268.187 19 269.837 19.09 271.337 19.27C272.817 19.47 274.147 19.73 275.327 20.05C276.487 20.37 277.487 20.74 278.327 21.16C279.167 21.6 279.837 22.05 280.337 22.51V35.8C279.837 36.3 279.167 36.81 278.327 37.33C277.487 37.87 276.487 38.36 275.327 38.8C274.167 39.24 272.847 39.6 271.367 39.88C269.867 40.16 268.207 40.3 266.387 40.3ZM266.387 33.1C268.167 33.1 269.737 32.96 271.097 32.68C272.457 32.42 273.627 32.1 274.607 31.72C275.587 31.34 276.387 30.95 277.007 30.55C277.607 30.17 278.037 29.86 278.297 29.62C278.037 29.38 277.607 29.06 277.007 28.66C276.387 28.28 275.587 27.91 274.607 27.55C273.627 27.19 272.457 26.87 271.097 26.59C269.737 26.33 268.167 26.2 266.387 26.2C264.607 26.2 263.037 26.33 261.677 26.59C260.317 26.87 259.147 27.19 258.167 27.55C257.187 27.91 256.397 28.28 255.797 28.66C255.197 29.06 254.757 29.38 254.477 29.62C254.757 29.86 255.197 30.17 255.797 30.55C256.397 30.95 257.187 31.34 258.167 31.72C259.147 32.1 260.317 32.42 261.677 32.68C263.037 32.96 264.607 33.1 266.387 33.1Z" fill="#FEFAE0"/>
<rect x="3" y="376" width="398" height="48" fill="#C9A87D"/>
<rect x="3" y="431" width="397" height="47" fill="#C9A87D"/>
<rect x="2" y="698" width="398" height="48" fill="#C9A87D"/>
<rect x="2" y="752" width="398" height="48" fill="#C9A87D"/>
<rect x="3" y="807" width="398" height="48" fill="#C9A87D"/>
<rect x="3" y="644" width="397" height="48" fill="#C9A87D"/>
<rect x="2" y="590" width="398" height="48" fill="#C9A87D"/>
<rect x="2" y="537" width="398" height="47" fill="#C9A87D"/>
<rect x="3" y="484" width="397" height="48" fill="#C9A87D"/>
<rect x="132" y="139" width="133" height="235" fill="#641B1C"/>
<rect x="140" y="174" width="113" height="54" fill="white"/>
<rect x="140" y="246" width="48" height="112" fill="white"/>
<rect x="207" y="246" width="46" height="112" fill="white"/>
<path d="M221.509 64V73.1611L235.442 76.7134L233.483 88.679L242.299 92.6052V103.636L250.332 107.001L248.372 116.91L258.168 120.836L255.425 131.68L264 140H132L141.132 131.68L139.957 120.836L147.597 116.91V107.001L156.097 103.636V92.6052L165.305 88.679V76.7134L175.493 73.1611L174.49 64H221.509Z" fill="#641B1C"/>
<path fill-rule="evenodd" clip-rule="evenodd" d="M197 153H140V366H197V153ZM150.818 197.218L167.46 233.534L182.23 197.218L167.46 163.349L150.818 197.218ZM167.46 350.194L153.106 311.997L167.46 274.929L182.23 311.997L167.46 350.194ZM160.179 256.866L167.46 266.274L175.365 256.866L167.46 245.764L160.179 256.866ZM158.307 232.216L148.113 208.508V232.216H158.307ZM187.223 208.508V232.216H177.237L187.223 208.508ZM178.485 163.349L187.223 182.918V163.349H178.485ZM148.113 163.349H156.642L148.113 182.918V163.349ZM177.237 350.194L187.223 322.158V350.194H177.237ZM148.113 327.239L156.85 350.194H148.113V327.239ZM158.307 274.929H148.113V305.035L158.307 274.929ZM187.223 305.035V274.929H175.365L187.223 305.035ZM175.365 268.344L182.23 260.441L187.223 268.344H175.365ZM187.223 256.866L177.237 245.764H187.223V256.866ZM160.179 268.344L153.106 260.441L148.113 268.344H160.179ZM148.113 245.764H158.307L148.113 256.866V245.764Z" fill="#641B1C"/>
<path fill-rule="evenodd" clip-rule="evenodd" d="M253 153H196V366H253V153ZM206.818 197.218L223.46 233.534L238.23 197.218L223.46 163.349L206.818 197.218ZM223.46 350.194L209.106 311.997L223.46 274.929L238.23 311.997L223.46 350.194ZM216.179 256.866L223.46 266.274L231.365 256.866L223.46 245.764L216.179 256.866ZM214.307 232.216L204.113 208.508V232.216H214.307ZM243.223 208.508V232.216H233.237L243.223 208.508ZM234.485 163.349L243.223 182.918V163.349H234.485ZM204.113 163.349H212.642L204.113 182.918V163.349ZM233.237 350.194L243.223 322.158V350.194H233.237ZM204.113 327.239L212.85 350.194H204.113V327.239ZM214.307 274.929H204.113V305.035L214.307 274.929ZM243.223 305.035V274.929H231.365L243.223 305.035ZM231.365 268.344L238.23 260.441L243.223 268.344H231.365ZM243.223 256.866L233.237 245.764H243.223V256.866ZM216.179 268.344L209.106 260.441L204.113 268.344H216.179ZM204.113 245.764H214.307L204.113 256.866V245.764Z" fill="#641B1C"/>
<path fill-rule="evenodd" clip-rule="evenodd" d="M154 374H132V420L142 409.96L136.2 403.937L142 397.183L136.2 390.794L142 384.952L154 374Z" fill="#641B1C"/>
<path fill-rule="evenodd" clip-rule="evenodd" d="M242 374H264V420L254 409.96L259.8 403.937L254 397.183L259.8 390.794L254 384.952L242 374Z" fill="#641B1C"/>
<path d="M139.302 439.3V446.95L147.522 439.3H156.222L144.702 450.16L156.222 460H151.392L139.302 449.68V460H136.002V439.3H139.302ZM168.673 460.3C166.913 460.3 165.293 460.15 163.813 459.85C162.333 459.57 161.003 459.21 159.823 458.77C158.623 458.33 157.603 457.84 156.763 457.3C155.903 456.78 155.223 456.28 154.723 455.8V442.51C155.203 442.05 155.873 441.61 156.733 441.19C157.593 440.77 158.623 440.39 159.823 440.05C161.003 439.73 162.343 439.47 163.843 439.27C165.323 439.09 166.933 439 168.673 439C170.473 439 172.123 439.09 173.623 439.27C175.103 439.47 176.433 439.73 177.613 440.05C178.773 440.37 179.773 440.74 180.613 441.16C181.453 441.6 182.123 442.05 182.623 442.51V455.8C182.123 456.3 181.453 456.81 180.613 457.33C179.773 457.87 178.773 458.36 177.613 458.8C176.453 459.24 175.133 459.6 173.653 459.88C172.153 460.16 170.493 460.3 168.673 460.3ZM168.673 453.1C170.453 453.1 172.023 452.96 173.383 452.68C174.743 452.42 175.913 452.1 176.893 451.72C177.873 451.34 178.673 450.95 179.293 450.55C179.893 450.17 180.323 449.86 180.583 449.62C180.323 449.38 179.893 449.06 179.293 448.66C178.673 448.28 177.873 447.91 176.893 447.55C175.913 447.19 174.743 446.87 173.383 446.59C172.023 446.33 170.453 446.2 168.673 446.2C166.893 446.2 165.323 446.33 163.963 446.59C162.603 446.87 161.433 447.19 160.453 447.55C159.473 447.91 158.683 448.28 158.083 448.66C157.483 449.06 157.043 449.38 156.763 449.62C157.043 449.86 157.483 450.17 158.083 450.55C158.683 450.95 159.473 451.34 160.453 451.72C161.433 452.1 162.603 452.42 163.963 452.68C165.323 452.96 166.893 453.1 168.673 453.1ZM187.115 439.3V445.78H198.215V439.3H201.515V460H198.215V453.28H187.115V460H183.815V439.3H187.115ZM227.794 439.3V446.5H208.414V448.21H218.794V450.91H208.414V452.8H227.794V460H205.114V439.3H227.794ZM250.291 463.9H246.991V460H228.991V439.3H232.291V452.5H243.691V439.3H246.991V452.5H250.291V463.9Z" fill="#FEFAE0"/>
<path fill-rule="evenodd" clip-rule="evenodd" d="M262.47 538H115.384V561.777V579.419V585.171V604.155V609.14V627.932V633.876V653.052V660.913V711.92V768.103V775.39H262.47V768.103V711.92V661.105V649.025V631.383V626.014V606.839V602.621V584.979V579.802V561.777V538ZM84.9172 641.93C84.9003 640.618 85.6419 639.421 86.7154 638.378L84.9172 641.93Z" fill="#BC6C25"/>
<rect x="131" y="584" width="114" height="55" fill="white"/>
<rect x="202" y="658" width="43" height="112" fill="white"/>
<rect x="135" y="658" width="44" height="112" fill="white"/>
<path d="M236.488 509.069C236.488 509.069 237.094 498.847 232.429 495.355C226.994 491.286 214.571 496.483 214.571 496.483L201.988 484.084C201.988 484.084 196.044 473 189.203 473C182.362 473 176.418 484.084 176.418 484.084L164.444 496.483C164.444 496.483 152.705 491.609 147.397 495.355C142.61 498.734 143.135 509.069 143.135 509.069C143.135 509.069 132.245 509.655 129.335 514.329C126.42 519.013 131.365 528.043 131.365 528.043L120 538H258L247.853 528.043C247.853 528.043 253.824 519.198 251.1 514.329C248.284 509.297 236.488 509.069 236.488 509.069Z" fill="#BC6C25"/>
<path d="M115 775H262V812L252.686 798.68L245.599 802.75H128.161L122.897 798.68L115 812V775Z" fill="#BC6C25"/>
<path d="M135.971 19.3V25.78H147.071V19.3H150.371V40H147.071V33.28H135.971V40H132.671V19.3H135.971ZM172.72 19.3L183.37 40H180.07L178.15 36.28H163.99L162.07 40H153.37L164.02 19.3H172.72ZM171.07 22.51L167.68 29.08H174.46L171.07 22.51ZM195.067 33.4C194.347 33.68 193.527 33.9 192.607 34.06C191.687 34.22 190.657 34.3 189.517 34.3C187.197 34.3 185.277 34.07 183.757 33.61C182.217 33.17 181.087 32.7 180.367 32.2V19.3H183.667V26.05C184.307 26.33 185.157 26.57 186.217 26.77C187.277 26.99 188.607 27.1 190.207 27.1C191.287 27.1 192.227 27.01 193.027 26.83C193.807 26.67 194.487 26.46 195.067 26.2V19.3H198.367V40H195.067V33.4ZM218.306 19.3L228.956 40H225.656L223.736 36.28H209.576L207.656 40H198.956L209.606 19.3H218.306ZM216.656 22.51L213.266 29.08H220.046L216.656 22.51ZM251.246 40H247.946V26.8H241.256V31C241.256 32.28 241.166 33.47 240.986 34.57C240.786 35.67 240.386 36.62 239.786 37.42C239.186 38.24 238.316 38.87 237.176 39.31C236.036 39.77 234.516 40 232.616 40H229.256V36.4C230.396 36.4 231.236 36.09 231.776 35.47C232.296 34.87 232.556 33.78 232.556 32.2V19.3H251.246V40ZM266.387 40.3C264.627 40.3 263.007 40.15 261.527 39.85C260.047 39.57 258.717 39.21 257.537 38.77C256.337 38.33 255.317 37.84 254.477 37.3C253.617 36.78 252.937 36.28 252.437 35.8V22.51C252.917 22.05 253.587 21.61 254.447 21.19C255.307 20.77 256.337 20.39 257.537 20.05C258.717 19.73 260.057 19.47 261.557 19.27C263.037 19.09 264.647 19 266.387 19C268.187 19 269.837 19.09 271.337 19.27C272.817 19.47 274.147 19.73 275.327 20.05C276.487 20.37 277.487 20.74 278.327 21.16C279.167 21.6 279.837 22.05 280.337 22.51V35.8C279.837 36.3 279.167 36.81 278.327 37.33C277.487 37.87 276.487 38.36 275.327 38.8C274.167 39.24 272.847 39.6 271.367 39.88C269.867 40.16 268.207 40.3 266.387 40.3ZM266.387 33.1C268.167 33.1 269.737 32.96 271.097 32.68C272.457 32.42 273.627 32.1 274.607 31.72C275.587 31.34 276.387 30.95 277.007 30.55C277.607 30.17 278.037 29.86 278.297 29.62C278.037 29.38 277.607 29.06 277.007 28.66C276.387 28.28 275.587 27.91 274.607 27.55C273.627 27.19 272.457 26.87 271.097 26.59C269.737 26.33 268.167 26.2 266.387 26.2C264.607 26.2 263.037 26.33 261.677 26.59C260.317 26.87 259.147 27.19 258.167 27.55C257.187 27.91 256.397 28.28 255.797 28.66C255.197 29.06 254.757 29.38 254.477 29.62C254.757 29.86 255.197 30.17 255.797 30.55C256.397 30.95 257.187 31.34 258.167 31.72C259.147 32.1 260.317 32.42 261.677 32.68C263.037 32.96 264.607 33.1 266.387 33.1Z" fill="#FEFAE0"/>
<path fill-rule="evenodd" clip-rule="evenodd" d="M247.5 551H214.334V571.134C214.334 571.134 199.851 577.936 200.861 584.173C201.74 589.599 214.334 594.528 214.334 594.528C214.334 594.528 200.581 600.369 200.861 606.225C201.13 611.85 214.334 617.155 214.334 617.155C214.334 617.155 200.989 623.391 200.861 629.427C200.731 635.582 214.334 642.082 214.334 642.082C214.334 642.082 200.404 649.245 200.861 655.697C201.288 661.725 214.541 667.969 214.541 667.969C214.541 667.969 205.508 675.149 200.861 680.241C168.224 716.006 207.137 787.168 214.334 788.39C222.426 789.763 235.384 788.39 235.384 788.39H247.5V551ZM235.384 724.92V673.913C235.384 673.913 200.861 684.076 200.861 698.074C200.861 712.072 235.384 724.92 235.384 724.92ZM235.384 724.92C235.384 724.92 200.861 736.425 200.861 743.711C200.861 744.076 200.856 744.458 200.851 744.851C200.824 746.94 200.792 749.335 201.487 750.998C206.935 764.037 235.384 781.103 235.384 781.103V724.92ZM235.384 646.876V666.052C235.384 666.052 204.976 659.532 204.917 654.93L206.715 651.378C209.449 648.723 235.384 646.876 235.384 646.876ZM235.384 640.932V622.14C235.384 622.14 205.216 624.3 204.917 628.66C204.602 633.253 235.384 640.932 235.384 640.932ZM235.384 598.171V617.155C235.384 617.155 205.169 610.414 204.917 606.225C204.655 601.863 235.384 598.171 235.384 598.171ZM235.384 592.419V574.777C235.384 574.777 204.854 578.417 204.917 582.831C204.98 587.199 235.384 592.419 235.384 592.419Z" fill="#BC6C25"/>
<path fill-rule="evenodd" clip-rule="evenodd" d="M124.823 551H162.826V571.134C162.826 571.134 179.421 577.936 178.263 584.173C177.256 589.599 162.826 594.528 162.826 594.528C162.826 594.528 178.584 600.369 178.263 606.225C177.955 611.85 162.826 617.155 162.826 617.155C162.826 617.155 178.116 623.391 178.263 629.427C178.413 635.582 162.826 642.082 162.826 642.082C162.826 642.082 178.787 649.245 178.263 655.697C177.774 661.725 162.589 667.969 162.589 667.969C162.589 667.969 172.939 675.149 178.263 680.241C215.66 716.006 191.246 787.168 183 788.39C173.727 789.763 138.706 788.39 138.706 788.39H124.823V551ZM138.706 724.92V673.913C138.706 673.913 178.263 684.076 178.263 698.074C178.263 712.072 138.706 724.92 138.706 724.92ZM138.706 724.92C138.706 724.92 178.263 736.425 178.263 743.711C178.263 744.076 178.269 744.458 178.275 744.851C178.306 746.94 178.342 749.335 177.546 750.998C171.304 764.037 138.706 781.103 138.706 781.103V724.92ZM138.706 646.876V666.052C138.706 666.052 173.548 659.532 173.616 654.93L171.555 651.378C168.423 648.723 138.706 646.876 138.706 646.876ZM138.706 640.932V622.14C138.706 622.14 173.273 624.3 173.616 628.66C173.977 633.253 138.706 640.932 138.706 640.932ZM138.706 598.171V617.155C138.706 617.155 173.327 610.414 173.616 606.225C173.917 601.863 138.706 598.171 138.706 598.171ZM138.706 592.419V574.777C138.706 574.777 173.688 578.417 173.616 582.831C173.544 587.199 138.706 592.419 138.706 592.419Z" fill="#BC6C25"/>
</g>
<defs>
<clipPath id="clip0_1532_2515">
<rect width="399" height="855" fill="white"/>
</clipPath>
</defs>
</svg>
