<svg width="399" height="855" viewBox="0 0 399 855" fill="none" xmlns="http://www.w3.org/2000/svg">
<rect x="1" width="397" height="47" fill="#C9A87D"/>
<rect y="267" width="398" height="48" fill="#C9A87D"/>
<rect y="321" width="398" height="48" fill="#C9A87D"/>
<rect x="1" y="376" width="398" height="48" fill="#C9A87D"/>
<rect x="1" y="213" width="397" height="48" fill="#C9A87D"/>
<rect y="159" width="398" height="48" fill="#C9A87D"/>
<rect y="106" width="398" height="47" fill="#C9A87D"/>
<rect x="1" y="53" width="397" height="48" fill="#C9A87D"/>
<rect x="1" y="431" width="397" height="47" fill="#C9A87D"/>
<rect y="698" width="398" height="48" fill="#C9A87D"/>
<rect y="752" width="398" height="48" fill="#C9A87D"/>
<rect x="1" y="807" width="398" height="48" fill="#C9A87D"/>
<rect x="1" y="644" width="397" height="48" fill="#C9A87D"/>
<rect y="590" width="398" height="48" fill="#C9A87D"/>
<rect y="537" width="398" height="47" fill="#C9A87D"/>
<rect x="1" y="484" width="397" height="48" fill="#C9A87D"/>
<rect x="130" y="139" width="133" height="235" fill="#641B1C"/>
<rect x="138" y="174" width="113" height="54" fill="white"/>
<rect x="138" y="246" width="48" height="112" fill="white"/>
<rect x="205" y="246" width="46" height="112" fill="white"/>
<path d="M219.509 64V73.1611L233.442 76.7134L231.483 88.679L240.299 92.6052V103.636L248.332 107.001L246.372 116.91L256.168 120.836L253.425 131.68L262 140H130L139.132 131.68L137.957 120.836L145.597 116.91V107.001L154.097 103.636V92.6052L163.305 88.679V76.7134L173.493 73.1611L172.49 64H219.509Z" fill="#641B1C"/>
<path fill-rule="evenodd" clip-rule="evenodd" d="M317 161H262V374H317V161ZM272.438 205.218L288.496 241.534L302.748 205.218L288.496 171.349L272.438 205.218ZM288.496 358.194L274.646 319.997L288.496 282.929L302.748 319.997L288.496 358.194ZM281.471 264.866L288.496 274.274L296.124 264.866L288.496 253.764L281.471 264.866ZM279.664 240.216L269.828 216.508V240.216H279.664ZM307.566 216.508V240.216H297.931L307.566 216.508ZM299.135 171.349L307.566 190.918V171.349H299.135ZM269.828 171.349H278.058L269.828 190.918V171.349ZM297.931 358.194L307.566 330.158V358.194H297.931ZM269.828 335.239L278.259 358.194H269.828V335.239ZM279.664 282.929H269.828V313.035L279.664 282.929ZM307.566 313.035V282.929H296.124L307.566 313.035ZM296.124 276.344L302.748 268.441L307.566 276.344H296.124ZM307.566 264.866L297.931 253.764H307.566V264.866ZM281.471 276.344L274.646 268.441L269.828 276.344H281.471ZM269.828 253.764H279.664L269.828 264.866V253.764Z" fill="#641B1C"/>
<path fill-rule="evenodd" clip-rule="evenodd" d="M130 161H73V374H130V161ZM83.8175 205.218L100.46 241.534L115.23 205.218L100.46 171.349L83.8175 205.218ZM100.46 358.194L86.1058 319.997L100.46 282.929L115.23 319.997L100.46 358.194ZM93.1788 264.866L100.46 274.274L108.365 264.866L100.46 253.764L93.1788 264.866ZM91.3066 240.216L81.1131 216.508V240.216H91.3066ZM120.223 216.508V240.216H110.237L120.223 216.508ZM111.485 171.349L120.223 190.918V171.349H111.485ZM81.1131 171.349H89.6423L81.1131 190.918V171.349ZM110.237 358.194L120.223 330.158V358.194H110.237ZM81.1131 335.239L89.8504 358.194H81.1131V335.239ZM91.3066 282.929H81.1131V313.035L91.3066 282.929ZM120.223 313.035V282.929H108.365L120.223 313.035ZM108.365 276.344L115.23 268.441L120.223 276.344H108.365ZM120.223 264.866L110.237 253.764H120.223V264.866ZM93.1788 276.344L86.1058 268.441L81.1131 276.344H93.1788ZM81.1131 253.764H91.3066L81.1131 264.866V253.764Z" fill="#641B1C"/>
<path fill-rule="evenodd" clip-rule="evenodd" d="M142 374H120V420L130 409.96L124.2 403.937L130 397.183L124.2 390.794L130 384.952L142 374Z" fill="#641B1C"/>
<path fill-rule="evenodd" clip-rule="evenodd" d="M248 374H270V420L260 409.96L265.8 403.937L260 397.183L265.8 390.794L260 384.952L248 374Z" fill="#641B1C"/>
<path d="M145.134 215V207.5H154.434V202.37L145.134 204.8V197.3L157.734 194V207.5H166.134V215H145.134ZM177.841 215.3C175.661 215.3 173.671 215.1 171.871 214.7C170.051 214.3 168.541 213.78 167.341 213.14V206.75C167.721 207.01 168.251 207.27 168.931 207.53C169.591 207.79 170.361 208.03 171.241 208.25C172.121 208.47 173.071 208.65 174.091 208.79C175.111 208.93 176.161 209 177.241 209C179.101 209 180.781 208.88 182.281 208.64C183.781 208.42 185.041 207.99 186.061 207.35C185.441 206.97 184.811 206.65 184.171 206.39C183.511 206.13 182.781 205.92 181.981 205.76C181.181 205.62 180.291 205.52 179.311 205.46C178.311 205.4 177.161 205.37 175.861 205.37H169.621V201.47L181.441 197.6H168.541V194.3H188.071V197.6L180.301 200.15C182.061 200.37 183.571 200.7 184.831 201.14C186.091 201.58 187.271 202.19 188.371 202.97V213.14C187.111 213.8 185.621 214.32 183.901 214.7C182.161 215.1 180.141 215.3 177.841 215.3ZM195.278 214.76C195.098 214.88 194.878 214.97 194.618 215.03C194.358 215.11 194.088 215.17 193.808 215.21C193.508 215.25 193.238 215.27 192.998 215.27C192.738 215.29 192.538 215.3 192.398 215.3C192.258 215.3 192.068 215.29 191.828 215.27C191.568 215.27 191.308 215.25 191.048 215.21C190.768 215.17 190.498 215.11 190.238 215.03C189.978 214.97 189.758 214.88 189.578 214.76V210.65C189.738 210.55 189.948 210.46 190.208 210.38C190.468 210.32 190.738 210.27 191.018 210.23C191.298 210.19 191.568 210.16 191.828 210.14H192.998C193.258 210.16 193.528 210.19 193.808 210.23C194.088 210.27 194.368 210.32 194.648 210.38C194.908 210.46 195.118 210.55 195.278 210.65V214.76ZM195.278 205.76C195.098 205.88 194.878 205.97 194.618 206.03C194.358 206.11 194.088 206.17 193.808 206.21C193.508 206.25 193.238 206.27 192.998 206.27C192.738 206.29 192.538 206.3 192.398 206.3C192.258 206.3 192.068 206.29 191.828 206.27C191.568 206.27 191.308 206.25 191.048 206.21C190.768 206.17 190.498 206.11 190.238 206.03C189.978 205.97 189.758 205.88 189.578 205.76V201.65C189.738 201.55 189.948 201.46 190.208 201.38C190.468 201.32 190.738 201.27 191.018 201.23C191.298 201.19 191.568 201.16 191.828 201.14H192.998C193.258 201.16 193.528 201.19 193.808 201.23C194.088 201.27 194.368 201.32 194.648 201.38C194.908 201.46 195.118 201.55 195.278 201.65V205.76ZM208.042 215.3C206.742 215.3 205.512 215.19 204.352 214.97C203.172 214.75 202.092 214.46 201.112 214.1C200.112 213.74 199.222 213.32 198.442 212.84C197.662 212.38 197.012 211.9 196.492 211.4V197.21C197.012 196.75 197.672 196.32 198.472 195.92C199.252 195.54 200.142 195.21 201.142 194.93C202.122 194.65 203.202 194.42 204.382 194.24C205.542 194.08 206.762 194 208.042 194C210.902 194 213.272 194.3 215.152 194.9C217.032 195.52 218.512 196.29 219.592 197.21V211.4C219.072 211.92 218.452 212.41 217.732 212.87C216.992 213.35 216.152 213.77 215.212 214.13C214.252 214.49 213.182 214.77 212.002 214.97C210.802 215.19 209.482 215.3 208.042 215.3ZM208.042 208.1C209.562 208.1 210.872 207.96 211.972 207.68C213.072 207.42 214.002 207.1 214.762 206.72C215.522 206.34 216.132 205.95 216.592 205.55C217.032 205.17 217.362 204.86 217.582 204.62C217.362 204.38 217.032 204.06 216.592 203.66C216.132 203.28 215.522 202.91 214.762 202.55C214.002 202.19 213.072 201.87 211.972 201.59C210.872 201.33 209.562 201.2 208.042 201.2C206.582 201.2 205.312 201.33 204.232 201.59C203.132 201.87 202.202 202.19 201.442 202.55C200.682 202.91 200.072 203.28 199.612 203.66C199.132 204.06 198.772 204.38 198.532 204.62C198.772 204.86 199.132 205.17 199.612 205.55C200.072 205.95 200.682 206.34 201.442 206.72C202.202 207.1 203.132 207.42 204.232 207.68C205.312 207.96 206.582 208.1 208.042 208.1ZM232.329 215.3C231.029 215.3 229.799 215.19 228.639 214.97C227.459 214.75 226.379 214.46 225.399 214.1C224.399 213.74 223.509 213.32 222.729 212.84C221.949 212.38 221.299 211.9 220.779 211.4V197.21C221.299 196.75 221.959 196.32 222.759 195.92C223.539 195.54 224.429 195.21 225.429 194.93C226.409 194.65 227.489 194.42 228.669 194.24C229.829 194.08 231.049 194 232.329 194C235.189 194 237.559 194.3 239.439 194.9C241.319 195.52 242.799 196.29 243.879 197.21V211.4C243.359 211.92 242.739 212.41 242.019 212.87C241.279 213.35 240.439 213.77 239.499 214.13C238.539 214.49 237.469 214.77 236.289 214.97C235.089 215.19 233.769 215.3 232.329 215.3ZM232.329 208.1C233.849 208.1 235.159 207.96 236.259 207.68C237.359 207.42 238.289 207.1 239.049 206.72C239.809 206.34 240.419 205.95 240.879 205.55C241.319 205.17 241.649 204.86 241.869 204.62C241.649 204.38 241.319 204.06 240.879 203.66C240.419 203.28 239.809 202.91 239.049 202.55C238.289 202.19 237.359 201.87 236.259 201.59C235.159 201.33 233.849 201.2 232.329 201.2C230.869 201.2 229.599 201.33 228.519 201.59C227.419 201.87 226.489 202.19 225.729 202.55C224.969 202.91 224.359 203.28 223.899 203.66C223.419 204.06 223.059 204.38 222.819 204.62C223.059 204.86 223.419 205.17 223.899 205.55C224.359 205.95 224.969 206.34 225.729 206.72C226.489 207.1 227.419 207.42 228.519 207.68C229.599 207.96 230.869 208.1 232.329 208.1Z" fill="#641B1C"/>
<path d="M137.302 439.3V446.95L145.522 439.3H154.222L142.702 450.16L154.222 460H149.392L137.302 449.68V460H134.002V439.3H137.302ZM166.673 460.3C164.913 460.3 163.293 460.15 161.813 459.85C160.333 459.57 159.003 459.21 157.823 458.77C156.623 458.33 155.603 457.84 154.763 457.3C153.903 456.78 153.223 456.28 152.723 455.8V442.51C153.203 442.05 153.873 441.61 154.733 441.19C155.593 440.77 156.623 440.39 157.823 440.05C159.003 439.73 160.343 439.47 161.843 439.27C163.323 439.09 164.933 439 166.673 439C168.473 439 170.123 439.09 171.623 439.27C173.103 439.47 174.433 439.73 175.613 440.05C176.773 440.37 177.773 440.74 178.613 441.16C179.453 441.6 180.123 442.05 180.623 442.51V455.8C180.123 456.3 179.453 456.81 178.613 457.33C177.773 457.87 176.773 458.36 175.613 458.8C174.453 459.24 173.133 459.6 171.653 459.88C170.153 460.16 168.493 460.3 166.673 460.3ZM166.673 453.1C168.453 453.1 170.023 452.96 171.383 452.68C172.743 452.42 173.913 452.1 174.893 451.72C175.873 451.34 176.673 450.95 177.293 450.55C177.893 450.17 178.323 449.86 178.583 449.62C178.323 449.38 177.893 449.06 177.293 448.66C176.673 448.28 175.873 447.91 174.893 447.55C173.913 447.19 172.743 446.87 171.383 446.59C170.023 446.33 168.453 446.2 166.673 446.2C164.893 446.2 163.323 446.33 161.963 446.59C160.603 446.87 159.433 447.19 158.453 447.55C157.473 447.91 156.683 448.28 156.083 448.66C155.483 449.06 155.043 449.38 154.763 449.62C155.043 449.86 155.483 450.17 156.083 450.55C156.683 450.95 157.473 451.34 158.453 451.72C159.433 452.1 160.603 452.42 161.963 452.68C163.323 452.96 164.893 453.1 166.673 453.1ZM185.115 439.3V445.78H196.215V439.3H199.515V460H196.215V453.28H185.115V460H181.815V439.3H185.115ZM225.794 439.3V446.5H206.414V448.21H216.794V450.91H206.414V452.8H225.794V460H203.114V439.3H225.794ZM248.291 463.9H244.991V460H226.991V439.3H230.291V452.5H241.691V439.3H244.991V452.5H248.291V463.9Z" fill="#FEFAE0"/>
<path fill-rule="evenodd" clip-rule="evenodd" d="M92.334 538H279.301V558.134C279.301 558.134 293.784 564.936 292.773 571.173C291.895 576.599 279.301 581.528 279.301 581.528C279.301 581.528 293.053 587.369 292.773 593.225C292.504 598.85 279.301 604.155 279.301 604.155C279.301 604.155 293.007 610.393 292.773 616.427C292.547 622.257 279.301 628.035 279.301 628.035C279.301 628.035 293.587 635.92 292.773 642.697C292.051 648.712 279.301 654.969 279.301 654.969C279.301 654.969 288.127 662.149 292.773 667.241C325.411 703.006 288.516 773.988 279.301 775.39C272.04 776.494 260.47 775.39 260.47 775.39H113.384C113.384 775.39 100.426 776.763 92.334 775.39C85.1371 774.168 46.2242 703.006 78.8614 667.241C83.5082 662.149 92.5407 654.969 92.5407 654.969C92.5407 654.969 79.2883 648.725 78.8614 642.697C78.4045 636.245 92.334 629.082 92.334 629.082C92.334 629.082 78.7309 622.582 78.8614 616.427C78.9894 610.391 92.334 604.155 92.334 604.155C92.334 604.155 79.1304 598.85 78.8614 593.225C78.5814 587.369 92.334 581.528 92.334 581.528C92.334 581.528 79.7402 576.599 78.8614 571.173C77.8512 564.936 92.334 558.134 92.334 558.134V538ZM113.384 660.913V768.103C113.384 768.103 84.9348 751.037 79.4872 737.998C78.7925 736.335 78.8239 733.94 78.8512 731.851C78.8564 731.458 78.8614 731.076 78.8614 730.711C78.8614 723.425 113.384 711.92 113.384 711.92C113.384 711.92 78.8614 699.072 78.8614 685.074C78.8614 671.076 113.384 660.913 113.384 660.913ZM260.47 768.103V711.92C260.47 711.92 289.525 723.233 289.525 738.19C289.525 753.146 260.47 768.103 260.47 768.103ZM260.47 711.92V661.105C260.47 661.105 284.444 672.496 287.103 679.13C288.718 683.157 290.735 686.8 287.911 694.087C284.342 703.291 260.47 711.92 260.47 711.92ZM113.384 653.052V633.876C113.384 633.876 87.4487 635.723 84.7154 638.378L82.9172 641.93C82.9764 646.532 113.384 653.052 113.384 653.052ZM113.384 609.14V627.932C113.384 627.932 82.602 620.253 82.9172 615.66C83.2163 611.3 113.384 609.14 113.384 609.14ZM113.384 604.155V585.171C113.384 585.171 82.6547 588.863 82.9172 593.225C83.1693 597.414 113.384 604.155 113.384 604.155ZM113.384 561.777V579.419C113.384 579.419 82.9796 574.199 82.9172 569.831C82.8542 565.417 113.384 561.777 113.384 561.777ZM260.47 631.383V649.025C260.47 649.025 287.701 646.845 288.516 642.697C289.474 637.82 260.47 631.383 260.47 631.383ZM260.47 626.014V606.839C260.47 606.839 288.485 611.431 288.112 615.852C287.764 619.983 260.47 626.014 260.47 626.014ZM260.47 584.979V602.621C260.47 602.621 288.152 597.386 288.516 593.225C288.903 588.791 260.47 584.979 260.47 584.979ZM260.47 579.802V561.777C260.47 561.777 288.578 565.476 288.516 569.831C288.454 574.139 260.47 579.802 260.47 579.802Z" fill="#BC6C25"/>
<rect x="129" y="584" width="114" height="55" fill="white"/>
<rect x="200" y="658" width="43" height="112" fill="white"/>
<rect x="133" y="658" width="44" height="112" fill="white"/>
<path d="M234.488 509.069C234.488 509.069 235.094 498.847 230.429 495.355C224.994 491.286 212.571 496.483 212.571 496.483L199.988 484.084C199.988 484.084 194.044 473 187.203 473C180.362 473 174.418 484.084 174.418 484.084L162.444 496.483C162.444 496.483 150.705 491.609 145.397 495.355C140.61 498.734 141.135 509.069 141.135 509.069C141.135 509.069 130.245 509.655 127.335 514.329C124.42 519.013 129.365 528.043 129.365 528.043L118 538H256L245.853 528.043C245.853 528.043 251.824 519.198 249.1 514.329C246.284 509.297 234.488 509.069 234.488 509.069Z" fill="#BC6C25"/>
<path d="M113 775H260V812L250.686 798.68L243.599 802.75H126.161L120.897 798.68L113 812V775Z" fill="#BC6C25"/>
<path d="M153.237 610.08C152.377 609.8 151.447 609.6 150.447 609.48C149.427 609.36 148.297 609.3 147.057 609.3C145.717 609.3 144.497 609.37 143.397 609.51C142.297 609.65 141.327 609.82 140.487 610.02C139.627 610.24 138.897 610.48 138.297 610.74C137.697 611 137.207 611.25 136.827 611.49V604.8C138.047 604.3 139.567 603.87 141.387 603.51C143.187 603.17 145.157 603 147.297 603C148.557 603 149.747 603.05 150.867 603.15C151.987 603.25 153.017 603.39 153.957 603.57C154.897 603.77 155.727 604 156.447 604.26C157.167 604.52 157.737 604.81 158.157 605.13V610.71L144.657 617.7H158.127V624H136.827V618.6L153.237 610.08ZM175.766 610.08C174.906 609.8 173.976 609.6 172.976 609.48C171.956 609.36 170.826 609.3 169.586 609.3C168.246 609.3 167.026 609.37 165.926 609.51C164.826 609.65 163.856 609.82 163.016 610.02C162.156 610.24 161.426 610.48 160.826 610.74C160.226 611 159.736 611.25 159.356 611.49V604.8C160.576 604.3 162.096 603.87 163.916 603.51C165.716 603.17 167.686 603 169.826 603C171.086 603 172.276 603.05 173.396 603.15C174.516 603.25 175.546 603.39 176.486 603.57C177.426 603.77 178.256 604 178.976 604.26C179.696 604.52 180.266 604.81 180.686 605.13V610.71L167.186 617.7H180.656V624H159.356V618.6L175.766 610.08ZM187.585 623.76C187.405 623.88 187.185 623.97 186.925 624.03C186.665 624.11 186.395 624.17 186.115 624.21C185.815 624.25 185.545 624.27 185.305 624.27C185.045 624.29 184.845 624.3 184.705 624.3C184.565 624.3 184.375 624.29 184.135 624.27C183.875 624.27 183.615 624.25 183.355 624.21C183.075 624.17 182.805 624.11 182.545 624.03C182.285 623.97 182.065 623.88 181.885 623.76V619.65C182.045 619.55 182.255 619.46 182.515 619.38C182.775 619.32 183.045 619.27 183.325 619.23C183.605 619.19 183.875 619.16 184.135 619.14H185.305C185.565 619.16 185.835 619.19 186.115 619.23C186.395 619.27 186.675 619.32 186.955 619.38C187.215 619.46 187.425 619.55 187.585 619.65V623.76ZM187.585 614.76C187.405 614.88 187.185 614.97 186.925 615.03C186.665 615.11 186.395 615.17 186.115 615.21C185.815 615.25 185.545 615.27 185.305 615.27C185.045 615.29 184.845 615.3 184.705 615.3C184.565 615.3 184.375 615.29 184.135 615.27C183.875 615.27 183.615 615.25 183.355 615.21C183.075 615.17 182.805 615.11 182.545 615.03C182.285 614.97 182.065 614.88 181.885 614.76V610.65C182.045 610.55 182.255 610.46 182.515 610.38C182.775 610.32 183.045 610.27 183.325 610.23C183.605 610.19 183.875 610.16 184.135 610.14H185.305C185.565 610.16 185.835 610.19 186.115 610.23C186.395 610.27 186.675 610.32 186.955 610.38C187.215 610.46 187.425 610.55 187.585 610.65V614.76ZM200.349 624.3C199.049 624.3 197.819 624.19 196.659 623.97C195.479 623.75 194.399 623.46 193.419 623.1C192.419 622.74 191.529 622.32 190.749 621.84C189.969 621.38 189.319 620.9 188.799 620.4V606.21C189.319 605.75 189.979 605.32 190.779 604.92C191.559 604.54 192.449 604.21 193.449 603.93C194.429 603.65 195.509 603.42 196.689 603.24C197.849 603.08 199.069 603 200.349 603C203.209 603 205.579 603.3 207.459 603.9C209.339 604.52 210.819 605.29 211.899 606.21V620.4C211.379 620.92 210.759 621.41 210.039 621.87C209.299 622.35 208.459 622.77 207.519 623.13C206.559 623.49 205.489 623.77 204.309 623.97C203.109 624.19 201.789 624.3 200.349 624.3ZM200.349 617.1C201.869 617.1 203.179 616.96 204.279 616.68C205.379 616.42 206.309 616.1 207.069 615.72C207.829 615.34 208.439 614.95 208.899 614.55C209.339 614.17 209.669 613.86 209.889 613.62C209.669 613.38 209.339 613.06 208.899 612.66C208.439 612.28 207.829 611.91 207.069 611.55C206.309 611.19 205.379 610.87 204.279 610.59C203.179 610.33 201.869 610.2 200.349 610.2C198.889 610.2 197.619 610.33 196.539 610.59C195.439 610.87 194.509 611.19 193.749 611.55C192.989 611.91 192.379 612.28 191.919 612.66C191.439 613.06 191.079 613.38 190.839 613.62C191.079 613.86 191.439 614.17 191.919 614.55C192.379 614.95 192.989 615.34 193.749 615.72C194.509 616.1 195.439 616.42 196.539 616.68C197.619 616.96 198.889 617.1 200.349 617.1ZM224.636 624.3C223.336 624.3 222.106 624.19 220.946 623.97C219.766 623.75 218.686 623.46 217.706 623.1C216.706 622.74 215.816 622.32 215.036 621.84C214.256 621.38 213.606 620.9 213.086 620.4V606.21C213.606 605.75 214.266 605.32 215.066 604.92C215.846 604.54 216.736 604.21 217.736 603.93C218.716 603.65 219.796 603.42 220.976 603.24C222.136 603.08 223.356 603 224.636 603C227.496 603 229.866 603.3 231.746 603.9C233.626 604.52 235.106 605.29 236.186 606.21V620.4C235.666 620.92 235.046 621.41 234.326 621.87C233.586 622.35 232.746 622.77 231.806 623.13C230.846 623.49 229.776 623.77 228.596 623.97C227.396 624.19 226.076 624.3 224.636 624.3ZM224.636 617.1C226.156 617.1 227.466 616.96 228.566 616.68C229.666 616.42 230.596 616.1 231.356 615.72C232.116 615.34 232.726 614.95 233.186 614.55C233.626 614.17 233.956 613.86 234.176 613.62C233.956 613.38 233.626 613.06 233.186 612.66C232.726 612.28 232.116 611.91 231.356 611.55C230.596 611.19 229.666 610.87 228.566 610.59C227.466 610.33 226.156 610.2 224.636 610.2C223.176 610.2 221.906 610.33 220.826 610.59C219.726 610.87 218.796 611.19 218.036 611.55C217.276 611.91 216.666 612.28 216.206 612.66C215.726 613.06 215.366 613.38 215.126 613.62C215.366 613.86 215.726 614.17 216.206 614.55C216.666 614.95 217.276 615.34 218.036 615.72C218.796 616.1 219.726 616.42 220.826 616.68C221.906 616.96 223.176 617.1 224.636 617.1Z" fill="#BC6C25"/>
<path d="M133.971 19.3V25.78H145.071V19.3H148.371V40H145.071V33.28H133.971V40H130.671V19.3H133.971ZM170.72 19.3L181.37 40H178.07L176.15 36.28H161.99L160.07 40H151.37L162.02 19.3H170.72ZM169.07 22.51L165.68 29.08H172.46L169.07 22.51ZM193.067 33.4C192.347 33.68 191.527 33.9 190.607 34.06C189.687 34.22 188.657 34.3 187.517 34.3C185.197 34.3 183.277 34.07 181.757 33.61C180.217 33.17 179.087 32.7 178.367 32.2V19.3H181.667V26.05C182.307 26.33 183.157 26.57 184.217 26.77C185.277 26.99 186.607 27.1 188.207 27.1C189.287 27.1 190.227 27.01 191.027 26.83C191.807 26.67 192.487 26.46 193.067 26.2V19.3H196.367V40H193.067V33.4ZM216.306 19.3L226.956 40H223.656L221.736 36.28H207.576L205.656 40H196.956L207.606 19.3H216.306ZM214.656 22.51L211.266 29.08H218.046L214.656 22.51ZM249.246 40H245.946V26.8H239.256V31C239.256 32.28 239.166 33.47 238.986 34.57C238.786 35.67 238.386 36.62 237.786 37.42C237.186 38.24 236.316 38.87 235.176 39.31C234.036 39.77 232.516 40 230.616 40H227.256V36.4C228.396 36.4 229.236 36.09 229.776 35.47C230.296 34.87 230.556 33.78 230.556 32.2V19.3H249.246V40ZM264.387 40.3C262.627 40.3 261.007 40.15 259.527 39.85C258.047 39.57 256.717 39.21 255.537 38.77C254.337 38.33 253.317 37.84 252.477 37.3C251.617 36.78 250.937 36.28 250.437 35.8V22.51C250.917 22.05 251.587 21.61 252.447 21.19C253.307 20.77 254.337 20.39 255.537 20.05C256.717 19.73 258.057 19.47 259.557 19.27C261.037 19.09 262.647 19 264.387 19C266.187 19 267.837 19.09 269.337 19.27C270.817 19.47 272.147 19.73 273.327 20.05C274.487 20.37 275.487 20.74 276.327 21.16C277.167 21.6 277.837 22.05 278.337 22.51V35.8C277.837 36.3 277.167 36.81 276.327 37.33C275.487 37.87 274.487 38.36 273.327 38.8C272.167 39.24 270.847 39.6 269.367 39.88C267.867 40.16 266.207 40.3 264.387 40.3ZM264.387 33.1C266.167 33.1 267.737 32.96 269.097 32.68C270.457 32.42 271.627 32.1 272.607 31.72C273.587 31.34 274.387 30.95 275.007 30.55C275.607 30.17 276.037 29.86 276.297 29.62C276.037 29.38 275.607 29.06 275.007 28.66C274.387 28.28 273.587 27.91 272.607 27.55C271.627 27.19 270.457 26.87 269.097 26.59C267.737 26.33 266.167 26.2 264.387 26.2C262.607 26.2 261.037 26.33 259.677 26.59C258.317 26.87 257.147 27.19 256.167 27.55C255.187 27.91 254.397 28.28 253.797 28.66C253.197 29.06 252.757 29.38 252.477 29.62C252.757 29.86 253.197 30.17 253.797 30.55C254.397 30.95 255.187 31.34 256.167 31.72C257.147 32.1 258.317 32.42 259.677 32.68C261.037 32.96 262.607 33.1 264.387 33.1Z" fill="#FEFAE0"/>
<rect x="1" y="376" width="398" height="48" fill="#C9A87D"/>
<rect x="1" y="431" width="397" height="47" fill="#C9A87D"/>
<rect y="698" width="398" height="48" fill="#C9A87D"/>
<rect y="752" width="398" height="48" fill="#C9A87D"/>
<rect x="1" y="807" width="398" height="48" fill="#C9A87D"/>
<rect x="1" y="644" width="397" height="48" fill="#C9A87D"/>
<rect y="590" width="398" height="48" fill="#C9A87D"/>
<rect y="537" width="398" height="47" fill="#C9A87D"/>
<rect x="1" y="484" width="397" height="48" fill="#C9A87D"/>
<rect x="130" y="139" width="133" height="235" fill="#641B1C"/>
<rect x="138" y="174" width="113" height="54" fill="white"/>
<rect x="138" y="246" width="48" height="112" fill="white"/>
<rect x="205" y="246" width="46" height="112" fill="white"/>
<path d="M219.509 64V73.1611L233.442 76.7134L231.483 88.679L240.299 92.6052V103.636L248.332 107.001L246.372 116.91L256.168 120.836L253.425 131.68L262 140H130L139.132 131.68L137.957 120.836L145.597 116.91V107.001L154.097 103.636V92.6052L163.305 88.679V76.7134L173.493 73.1611L172.49 64H219.509Z" fill="#641B1C"/>
<path fill-rule="evenodd" clip-rule="evenodd" d="M317 161H262V374H317V161ZM272.438 205.218L288.496 241.534L302.748 205.218L288.496 171.349L272.438 205.218ZM288.496 358.194L274.646 319.997L288.496 282.929L302.748 319.997L288.496 358.194ZM281.471 264.866L288.496 274.274L296.124 264.866L288.496 253.764L281.471 264.866ZM279.664 240.216L269.828 216.508V240.216H279.664ZM307.566 216.508V240.216H297.931L307.566 216.508ZM299.135 171.349L307.566 190.918V171.349H299.135ZM269.828 171.349H278.058L269.828 190.918V171.349ZM297.931 358.194L307.566 330.158V358.194H297.931ZM269.828 335.239L278.259 358.194H269.828V335.239ZM279.664 282.929H269.828V313.035L279.664 282.929ZM307.566 313.035V282.929H296.124L307.566 313.035ZM296.124 276.344L302.748 268.441L307.566 276.344H296.124ZM307.566 264.866L297.931 253.764H307.566V264.866ZM281.471 276.344L274.646 268.441L269.828 276.344H281.471ZM269.828 253.764H279.664L269.828 264.866V253.764Z" fill="#641B1C"/>
<path fill-rule="evenodd" clip-rule="evenodd" d="M130 161H73V374H130V161ZM83.8175 205.218L100.46 241.534L115.23 205.218L100.46 171.349L83.8175 205.218ZM100.46 358.194L86.1058 319.997L100.46 282.929L115.23 319.997L100.46 358.194ZM93.1788 264.866L100.46 274.274L108.365 264.866L100.46 253.764L93.1788 264.866ZM91.3066 240.216L81.1131 216.508V240.216H91.3066ZM120.223 216.508V240.216H110.237L120.223 216.508ZM111.485 171.349L120.223 190.918V171.349H111.485ZM81.1131 171.349H89.6423L81.1131 190.918V171.349ZM110.237 358.194L120.223 330.158V358.194H110.237ZM81.1131 335.239L89.8504 358.194H81.1131V335.239ZM91.3066 282.929H81.1131V313.035L91.3066 282.929ZM120.223 313.035V282.929H108.365L120.223 313.035ZM108.365 276.344L115.23 268.441L120.223 276.344H108.365ZM120.223 264.866L110.237 253.764H120.223V264.866ZM93.1788 276.344L86.1058 268.441L81.1131 276.344H93.1788ZM81.1131 253.764H91.3066L81.1131 264.866V253.764Z" fill="#641B1C"/>
<path fill-rule="evenodd" clip-rule="evenodd" d="M152 374H130V420L140 409.96L134.2 403.937L140 397.183L134.2 390.794L140 384.952L152 374Z" fill="#641B1C"/>
<path fill-rule="evenodd" clip-rule="evenodd" d="M240 374H262V420L252 409.96L257.8 403.937L252 397.183L257.8 390.794L252 384.952L240 374Z" fill="#641B1C"/>
<path d="M145.134 215V207.5H154.434V202.37L145.134 204.8V197.3L157.734 194V207.5H166.134V215H145.134ZM177.841 215.3C175.661 215.3 173.671 215.1 171.871 214.7C170.051 214.3 168.541 213.78 167.341 213.14V206.75C167.721 207.01 168.251 207.27 168.931 207.53C169.591 207.79 170.361 208.03 171.241 208.25C172.121 208.47 173.071 208.65 174.091 208.79C175.111 208.93 176.161 209 177.241 209C179.101 209 180.781 208.88 182.281 208.64C183.781 208.42 185.041 207.99 186.061 207.35C185.441 206.97 184.811 206.65 184.171 206.39C183.511 206.13 182.781 205.92 181.981 205.76C181.181 205.62 180.291 205.52 179.311 205.46C178.311 205.4 177.161 205.37 175.861 205.37H169.621V201.47L181.441 197.6H168.541V194.3H188.071V197.6L180.301 200.15C182.061 200.37 183.571 200.7 184.831 201.14C186.091 201.58 187.271 202.19 188.371 202.97V213.14C187.111 213.8 185.621 214.32 183.901 214.7C182.161 215.1 180.141 215.3 177.841 215.3ZM195.278 214.76C195.098 214.88 194.878 214.97 194.618 215.03C194.358 215.11 194.088 215.17 193.808 215.21C193.508 215.25 193.238 215.27 192.998 215.27C192.738 215.29 192.538 215.3 192.398 215.3C192.258 215.3 192.068 215.29 191.828 215.27C191.568 215.27 191.308 215.25 191.048 215.21C190.768 215.17 190.498 215.11 190.238 215.03C189.978 214.97 189.758 214.88 189.578 214.76V210.65C189.738 210.55 189.948 210.46 190.208 210.38C190.468 210.32 190.738 210.27 191.018 210.23C191.298 210.19 191.568 210.16 191.828 210.14H192.998C193.258 210.16 193.528 210.19 193.808 210.23C194.088 210.27 194.368 210.32 194.648 210.38C194.908 210.46 195.118 210.55 195.278 210.65V214.76ZM195.278 205.76C195.098 205.88 194.878 205.97 194.618 206.03C194.358 206.11 194.088 206.17 193.808 206.21C193.508 206.25 193.238 206.27 192.998 206.27C192.738 206.29 192.538 206.3 192.398 206.3C192.258 206.3 192.068 206.29 191.828 206.27C191.568 206.27 191.308 206.25 191.048 206.21C190.768 206.17 190.498 206.11 190.238 206.03C189.978 205.97 189.758 205.88 189.578 205.76V201.65C189.738 201.55 189.948 201.46 190.208 201.38C190.468 201.32 190.738 201.27 191.018 201.23C191.298 201.19 191.568 201.16 191.828 201.14H192.998C193.258 201.16 193.528 201.19 193.808 201.23C194.088 201.27 194.368 201.32 194.648 201.38C194.908 201.46 195.118 201.55 195.278 201.65V205.76ZM208.042 215.3C206.742 215.3 205.512 215.19 204.352 214.97C203.172 214.75 202.092 214.46 201.112 214.1C200.112 213.74 199.222 213.32 198.442 212.84C197.662 212.38 197.012 211.9 196.492 211.4V197.21C197.012 196.75 197.672 196.32 198.472 195.92C199.252 195.54 200.142 195.21 201.142 194.93C202.122 194.65 203.202 194.42 204.382 194.24C205.542 194.08 206.762 194 208.042 194C210.902 194 213.272 194.3 215.152 194.9C217.032 195.52 218.512 196.29 219.592 197.21V211.4C219.072 211.92 218.452 212.41 217.732 212.87C216.992 213.35 216.152 213.77 215.212 214.13C214.252 214.49 213.182 214.77 212.002 214.97C210.802 215.19 209.482 215.3 208.042 215.3ZM208.042 208.1C209.562 208.1 210.872 207.96 211.972 207.68C213.072 207.42 214.002 207.1 214.762 206.72C215.522 206.34 216.132 205.95 216.592 205.55C217.032 205.17 217.362 204.86 217.582 204.62C217.362 204.38 217.032 204.06 216.592 203.66C216.132 203.28 215.522 202.91 214.762 202.55C214.002 202.19 213.072 201.87 211.972 201.59C210.872 201.33 209.562 201.2 208.042 201.2C206.582 201.2 205.312 201.33 204.232 201.59C203.132 201.87 202.202 202.19 201.442 202.55C200.682 202.91 200.072 203.28 199.612 203.66C199.132 204.06 198.772 204.38 198.532 204.62C198.772 204.86 199.132 205.17 199.612 205.55C200.072 205.95 200.682 206.34 201.442 206.72C202.202 207.1 203.132 207.42 204.232 207.68C205.312 207.96 206.582 208.1 208.042 208.1ZM232.329 215.3C231.029 215.3 229.799 215.19 228.639 214.97C227.459 214.75 226.379 214.46 225.399 214.1C224.399 213.74 223.509 213.32 222.729 212.84C221.949 212.38 221.299 211.9 220.779 211.4V197.21C221.299 196.75 221.959 196.32 222.759 195.92C223.539 195.54 224.429 195.21 225.429 194.93C226.409 194.65 227.489 194.42 228.669 194.24C229.829 194.08 231.049 194 232.329 194C235.189 194 237.559 194.3 239.439 194.9C241.319 195.52 242.799 196.29 243.879 197.21V211.4C243.359 211.92 242.739 212.41 242.019 212.87C241.279 213.35 240.439 213.77 239.499 214.13C238.539 214.49 237.469 214.77 236.289 214.97C235.089 215.19 233.769 215.3 232.329 215.3ZM232.329 208.1C233.849 208.1 235.159 207.96 236.259 207.68C237.359 207.42 238.289 207.1 239.049 206.72C239.809 206.34 240.419 205.95 240.879 205.55C241.319 205.17 241.649 204.86 241.869 204.62C241.649 204.38 241.319 204.06 240.879 203.66C240.419 203.28 239.809 202.91 239.049 202.55C238.289 202.19 237.359 201.87 236.259 201.59C235.159 201.33 233.849 201.2 232.329 201.2C230.869 201.2 229.599 201.33 228.519 201.59C227.419 201.87 226.489 202.19 225.729 202.55C224.969 202.91 224.359 203.28 223.899 203.66C223.419 204.06 223.059 204.38 222.819 204.62C223.059 204.86 223.419 205.17 223.899 205.55C224.359 205.95 224.969 206.34 225.729 206.72C226.489 207.1 227.419 207.42 228.519 207.68C229.599 207.96 230.869 208.1 232.329 208.1Z" fill="#641B1C"/>
<path d="M137.302 439.3V446.95L145.522 439.3H154.222L142.702 450.16L154.222 460H149.392L137.302 449.68V460H134.002V439.3H137.302ZM166.673 460.3C164.913 460.3 163.293 460.15 161.813 459.85C160.333 459.57 159.003 459.21 157.823 458.77C156.623 458.33 155.603 457.84 154.763 457.3C153.903 456.78 153.223 456.28 152.723 455.8V442.51C153.203 442.05 153.873 441.61 154.733 441.19C155.593 440.77 156.623 440.39 157.823 440.05C159.003 439.73 160.343 439.47 161.843 439.27C163.323 439.09 164.933 439 166.673 439C168.473 439 170.123 439.09 171.623 439.27C173.103 439.47 174.433 439.73 175.613 440.05C176.773 440.37 177.773 440.74 178.613 441.16C179.453 441.6 180.123 442.05 180.623 442.51V455.8C180.123 456.3 179.453 456.81 178.613 457.33C177.773 457.87 176.773 458.36 175.613 458.8C174.453 459.24 173.133 459.6 171.653 459.88C170.153 460.16 168.493 460.3 166.673 460.3ZM166.673 453.1C168.453 453.1 170.023 452.96 171.383 452.68C172.743 452.42 173.913 452.1 174.893 451.72C175.873 451.34 176.673 450.95 177.293 450.55C177.893 450.17 178.323 449.86 178.583 449.62C178.323 449.38 177.893 449.06 177.293 448.66C176.673 448.28 175.873 447.91 174.893 447.55C173.913 447.19 172.743 446.87 171.383 446.59C170.023 446.33 168.453 446.2 166.673 446.2C164.893 446.2 163.323 446.33 161.963 446.59C160.603 446.87 159.433 447.19 158.453 447.55C157.473 447.91 156.683 448.28 156.083 448.66C155.483 449.06 155.043 449.38 154.763 449.62C155.043 449.86 155.483 450.17 156.083 450.55C156.683 450.95 157.473 451.34 158.453 451.72C159.433 452.1 160.603 452.42 161.963 452.68C163.323 452.96 164.893 453.1 166.673 453.1ZM185.115 439.3V445.78H196.215V439.3H199.515V460H196.215V453.28H185.115V460H181.815V439.3H185.115ZM225.794 439.3V446.5H206.414V448.21H216.794V450.91H206.414V452.8H225.794V460H203.114V439.3H225.794ZM248.291 463.9H244.991V460H226.991V439.3H230.291V452.5H241.691V439.3H244.991V452.5H248.291V463.9Z" fill="#FEFAE0"/>
<path fill-rule="evenodd" clip-rule="evenodd" d="M92.334 538H279.301V558.134C279.301 558.134 293.784 564.936 292.773 571.173C291.895 576.599 279.301 581.528 279.301 581.528C279.301 581.528 293.053 587.369 292.773 593.225C292.504 598.85 279.301 604.155 279.301 604.155C279.301 604.155 293.007 610.393 292.773 616.427C292.547 622.257 279.301 628.035 279.301 628.035C279.301 628.035 293.587 635.92 292.773 642.697C292.051 648.712 279.301 654.969 279.301 654.969C279.301 654.969 288.127 662.149 292.773 667.241C325.411 703.006 288.516 773.988 279.301 775.39C272.04 776.494 260.47 775.39 260.47 775.39H113.384C113.384 775.39 100.426 776.763 92.334 775.39C85.1371 774.168 46.2242 703.006 78.8614 667.241C83.5082 662.149 92.5407 654.969 92.5407 654.969C92.5407 654.969 79.2883 648.725 78.8614 642.697C78.4045 636.245 92.334 629.082 92.334 629.082C92.334 629.082 78.7309 622.582 78.8614 616.427C78.9894 610.391 92.334 604.155 92.334 604.155C92.334 604.155 79.1304 598.85 78.8614 593.225C78.5814 587.369 92.334 581.528 92.334 581.528C92.334 581.528 79.7402 576.599 78.8614 571.173C77.8512 564.936 92.334 558.134 92.334 558.134V538ZM113.384 660.913V768.103C113.384 768.103 84.9348 751.037 79.4872 737.998C78.7925 736.335 78.8239 733.94 78.8512 731.851C78.8564 731.458 78.8614 731.076 78.8614 730.711C78.8614 723.425 113.384 711.92 113.384 711.92C113.384 711.92 78.8614 699.072 78.8614 685.074C78.8614 671.076 113.384 660.913 113.384 660.913ZM260.47 768.103V711.92C260.47 711.92 289.525 723.233 289.525 738.19C289.525 753.146 260.47 768.103 260.47 768.103ZM260.47 711.92V661.105C260.47 661.105 284.444 672.496 287.103 679.13C288.718 683.157 290.735 686.8 287.911 694.087C284.342 703.291 260.47 711.92 260.47 711.92ZM113.384 653.052V633.876C113.384 633.876 87.4487 635.723 84.7154 638.378L82.9172 641.93C82.9764 646.532 113.384 653.052 113.384 653.052ZM113.384 609.14V627.932C113.384 627.932 82.602 620.253 82.9172 615.66C83.2163 611.3 113.384 609.14 113.384 609.14ZM113.384 604.155V585.171C113.384 585.171 82.6547 588.863 82.9172 593.225C83.1693 597.414 113.384 604.155 113.384 604.155ZM113.384 561.777V579.419C113.384 579.419 82.9796 574.199 82.9172 569.831C82.8542 565.417 113.384 561.777 113.384 561.777ZM260.47 631.383V649.025C260.47 649.025 287.701 646.845 288.516 642.697C289.474 637.82 260.47 631.383 260.47 631.383ZM260.47 626.014V606.839C260.47 606.839 288.485 611.431 288.112 615.852C287.764 619.983 260.47 626.014 260.47 626.014ZM260.47 584.979V602.621C260.47 602.621 288.152 597.386 288.516 593.225C288.903 588.791 260.47 584.979 260.47 584.979ZM260.47 579.802V561.777C260.47 561.777 288.578 565.476 288.516 569.831C288.454 574.139 260.47 579.802 260.47 579.802Z" fill="#BC6C25"/>
<rect x="129" y="584" width="114" height="55" fill="white"/>
<rect x="200" y="658" width="43" height="112" fill="white"/>
<rect x="133" y="658" width="44" height="112" fill="white"/>
<path d="M234.488 509.069C234.488 509.069 235.094 498.847 230.429 495.355C224.994 491.286 212.571 496.483 212.571 496.483L199.988 484.084C199.988 484.084 194.044 473 187.203 473C180.362 473 174.418 484.084 174.418 484.084L162.444 496.483C162.444 496.483 150.705 491.609 145.397 495.355C140.61 498.734 141.135 509.069 141.135 509.069C141.135 509.069 130.245 509.655 127.335 514.329C124.42 519.013 129.365 528.043 129.365 528.043L118 538H256L245.853 528.043C245.853 528.043 251.824 519.198 249.1 514.329C246.284 509.297 234.488 509.069 234.488 509.069Z" fill="#BC6C25"/>
<path d="M113 775H260V812L250.686 798.68L243.599 802.75H126.161L120.897 798.68L113 812V775Z" fill="#BC6C25"/>
<path d="M153.237 610.08C152.377 609.8 151.447 609.6 150.447 609.48C149.427 609.36 148.297 609.3 147.057 609.3C145.717 609.3 144.497 609.37 143.397 609.51C142.297 609.65 141.327 609.82 140.487 610.02C139.627 610.24 138.897 610.48 138.297 610.74C137.697 611 137.207 611.25 136.827 611.49V604.8C138.047 604.3 139.567 603.87 141.387 603.51C143.187 603.17 145.157 603 147.297 603C148.557 603 149.747 603.05 150.867 603.15C151.987 603.25 153.017 603.39 153.957 603.57C154.897 603.77 155.727 604 156.447 604.26C157.167 604.52 157.737 604.81 158.157 605.13V610.71L144.657 617.7H158.127V624H136.827V618.6L153.237 610.08ZM175.766 610.08C174.906 609.8 173.976 609.6 172.976 609.48C171.956 609.36 170.826 609.3 169.586 609.3C168.246 609.3 167.026 609.37 165.926 609.51C164.826 609.65 163.856 609.82 163.016 610.02C162.156 610.24 161.426 610.48 160.826 610.74C160.226 611 159.736 611.25 159.356 611.49V604.8C160.576 604.3 162.096 603.87 163.916 603.51C165.716 603.17 167.686 603 169.826 603C171.086 603 172.276 603.05 173.396 603.15C174.516 603.25 175.546 603.39 176.486 603.57C177.426 603.77 178.256 604 178.976 604.26C179.696 604.52 180.266 604.81 180.686 605.13V610.71L167.186 617.7H180.656V624H159.356V618.6L175.766 610.08ZM187.585 623.76C187.405 623.88 187.185 623.97 186.925 624.03C186.665 624.11 186.395 624.17 186.115 624.21C185.815 624.25 185.545 624.27 185.305 624.27C185.045 624.29 184.845 624.3 184.705 624.3C184.565 624.3 184.375 624.29 184.135 624.27C183.875 624.27 183.615 624.25 183.355 624.21C183.075 624.17 182.805 624.11 182.545 624.03C182.285 623.97 182.065 623.88 181.885 623.76V619.65C182.045 619.55 182.255 619.46 182.515 619.38C182.775 619.32 183.045 619.27 183.325 619.23C183.605 619.19 183.875 619.16 184.135 619.14H185.305C185.565 619.16 185.835 619.19 186.115 619.23C186.395 619.27 186.675 619.32 186.955 619.38C187.215 619.46 187.425 619.55 187.585 619.65V623.76ZM187.585 614.76C187.405 614.88 187.185 614.97 186.925 615.03C186.665 615.11 186.395 615.17 186.115 615.21C185.815 615.25 185.545 615.27 185.305 615.27C185.045 615.29 184.845 615.3 184.705 615.3C184.565 615.3 184.375 615.29 184.135 615.27C183.875 615.27 183.615 615.25 183.355 615.21C183.075 615.17 182.805 615.11 182.545 615.03C182.285 614.97 182.065 614.88 181.885 614.76V610.65C182.045 610.55 182.255 610.46 182.515 610.38C182.775 610.32 183.045 610.27 183.325 610.23C183.605 610.19 183.875 610.16 184.135 610.14H185.305C185.565 610.16 185.835 610.19 186.115 610.23C186.395 610.27 186.675 610.32 186.955 610.38C187.215 610.46 187.425 610.55 187.585 610.65V614.76ZM200.349 624.3C199.049 624.3 197.819 624.19 196.659 623.97C195.479 623.75 194.399 623.46 193.419 623.1C192.419 622.74 191.529 622.32 190.749 621.84C189.969 621.38 189.319 620.9 188.799 620.4V606.21C189.319 605.75 189.979 605.32 190.779 604.92C191.559 604.54 192.449 604.21 193.449 603.93C194.429 603.65 195.509 603.42 196.689 603.24C197.849 603.08 199.069 603 200.349 603C203.209 603 205.579 603.3 207.459 603.9C209.339 604.52 210.819 605.29 211.899 606.21V620.4C211.379 620.92 210.759 621.41 210.039 621.87C209.299 622.35 208.459 622.77 207.519 623.13C206.559 623.49 205.489 623.77 204.309 623.97C203.109 624.19 201.789 624.3 200.349 624.3ZM200.349 617.1C201.869 617.1 203.179 616.96 204.279 616.68C205.379 616.42 206.309 616.1 207.069 615.72C207.829 615.34 208.439 614.95 208.899 614.55C209.339 614.17 209.669 613.86 209.889 613.62C209.669 613.38 209.339 613.06 208.899 612.66C208.439 612.28 207.829 611.91 207.069 611.55C206.309 611.19 205.379 610.87 204.279 610.59C203.179 610.33 201.869 610.2 200.349 610.2C198.889 610.2 197.619 610.33 196.539 610.59C195.439 610.87 194.509 611.19 193.749 611.55C192.989 611.91 192.379 612.28 191.919 612.66C191.439 613.06 191.079 613.38 190.839 613.62C191.079 613.86 191.439 614.17 191.919 614.55C192.379 614.95 192.989 615.34 193.749 615.72C194.509 616.1 195.439 616.42 196.539 616.68C197.619 616.96 198.889 617.1 200.349 617.1ZM224.636 624.3C223.336 624.3 222.106 624.19 220.946 623.97C219.766 623.75 218.686 623.46 217.706 623.1C216.706 622.74 215.816 622.32 215.036 621.84C214.256 621.38 213.606 620.9 213.086 620.4V606.21C213.606 605.75 214.266 605.32 215.066 604.92C215.846 604.54 216.736 604.21 217.736 603.93C218.716 603.65 219.796 603.42 220.976 603.24C222.136 603.08 223.356 603 224.636 603C227.496 603 229.866 603.3 231.746 603.9C233.626 604.52 235.106 605.29 236.186 606.21V620.4C235.666 620.92 235.046 621.41 234.326 621.87C233.586 622.35 232.746 622.77 231.806 623.13C230.846 623.49 229.776 623.77 228.596 623.97C227.396 624.19 226.076 624.3 224.636 624.3ZM224.636 617.1C226.156 617.1 227.466 616.96 228.566 616.68C229.666 616.42 230.596 616.1 231.356 615.72C232.116 615.34 232.726 614.95 233.186 614.55C233.626 614.17 233.956 613.86 234.176 613.62C233.956 613.38 233.626 613.06 233.186 612.66C232.726 612.28 232.116 611.91 231.356 611.55C230.596 611.19 229.666 610.87 228.566 610.59C227.466 610.33 226.156 610.2 224.636 610.2C223.176 610.2 221.906 610.33 220.826 610.59C219.726 610.87 218.796 611.19 218.036 611.55C217.276 611.91 216.666 612.28 216.206 612.66C215.726 613.06 215.366 613.38 215.126 613.62C215.366 613.86 215.726 614.17 216.206 614.55C216.666 614.95 217.276 615.34 218.036 615.72C218.796 616.1 219.726 616.42 220.826 616.68C221.906 616.96 223.176 617.1 224.636 617.1Z" fill="#BC6C25"/>
<path d="M133.971 19.3V25.78H145.071V19.3H148.371V40H145.071V33.28H133.971V40H130.671V19.3H133.971ZM170.72 19.3L181.37 40H178.07L176.15 36.28H161.99L160.07 40H151.37L162.02 19.3H170.72ZM169.07 22.51L165.68 29.08H172.46L169.07 22.51ZM193.067 33.4C192.347 33.68 191.527 33.9 190.607 34.06C189.687 34.22 188.657 34.3 187.517 34.3C185.197 34.3 183.277 34.07 181.757 33.61C180.217 33.17 179.087 32.7 178.367 32.2V19.3H181.667V26.05C182.307 26.33 183.157 26.57 184.217 26.77C185.277 26.99 186.607 27.1 188.207 27.1C189.287 27.1 190.227 27.01 191.027 26.83C191.807 26.67 192.487 26.46 193.067 26.2V19.3H196.367V40H193.067V33.4ZM216.306 19.3L226.956 40H223.656L221.736 36.28H207.576L205.656 40H196.956L207.606 19.3H216.306ZM214.656 22.51L211.266 29.08H218.046L214.656 22.51ZM249.246 40H245.946V26.8H239.256V31C239.256 32.28 239.166 33.47 238.986 34.57C238.786 35.67 238.386 36.62 237.786 37.42C237.186 38.24 236.316 38.87 235.176 39.31C234.036 39.77 232.516 40 230.616 40H227.256V36.4C228.396 36.4 229.236 36.09 229.776 35.47C230.296 34.87 230.556 33.78 230.556 32.2V19.3H249.246V40ZM264.387 40.3C262.627 40.3 261.007 40.15 259.527 39.85C258.047 39.57 256.717 39.21 255.537 38.77C254.337 38.33 253.317 37.84 252.477 37.3C251.617 36.78 250.937 36.28 250.437 35.8V22.51C250.917 22.05 251.587 21.61 252.447 21.19C253.307 20.77 254.337 20.39 255.537 20.05C256.717 19.73 258.057 19.47 259.557 19.27C261.037 19.09 262.647 19 264.387 19C266.187 19 267.837 19.09 269.337 19.27C270.817 19.47 272.147 19.73 273.327 20.05C274.487 20.37 275.487 20.74 276.327 21.16C277.167 21.6 277.837 22.05 278.337 22.51V35.8C277.837 36.3 277.167 36.81 276.327 37.33C275.487 37.87 274.487 38.36 273.327 38.8C272.167 39.24 270.847 39.6 269.367 39.88C267.867 40.16 266.207 40.3 264.387 40.3ZM264.387 33.1C266.167 33.1 267.737 32.96 269.097 32.68C270.457 32.42 271.627 32.1 272.607 31.72C273.587 31.34 274.387 30.95 275.007 30.55C275.607 30.17 276.037 29.86 276.297 29.62C276.037 29.38 275.607 29.06 275.007 28.66C274.387 28.28 273.587 27.91 272.607 27.55C271.627 27.19 270.457 26.87 269.097 26.59C267.737 26.33 266.167 26.2 264.387 26.2C262.607 26.2 261.037 26.33 259.677 26.59C258.317 26.87 257.147 27.19 256.167 27.55C255.187 27.91 254.397 28.28 253.797 28.66C253.197 29.06 252.757 29.38 252.477 29.62C252.757 29.86 253.197 30.17 253.797 30.55C254.397 30.95 255.187 31.34 256.167 31.72C257.147 32.1 258.317 32.42 259.677 32.68C261.037 32.96 262.607 33.1 264.387 33.1Z" fill="#FEFAE0"/>
</svg>
