<svg width="4651" height="742" viewBox="0 0 4651 742" fill="none" xmlns="http://www.w3.org/2000/svg">
<path d="M0 111.771L92.943 0L194 111.771V742H0V111.771Z" fill="#8A6330"/>
<path d="M0 111.771L92.943 0L194 111.771V742H0V111.771Z" fill="#8A6330"/>
<path d="M194 111.771L286.943 0L388 111.771V742H194V111.771Z" fill="#8A6330"/>
<path d="M388 111.771L480.943 0L582 111.771V742H388V111.771Z" fill="#8A6330"/>
<path d="M582 111.771L674.943 0L776 111.771V742H582V111.771Z" fill="#8A6330"/>
<path d="M776 111.771L868.943 0L970 111.771V742H776V111.771Z" fill="#8A6330"/>
<path d="M970 111.771L1062.94 0L1164 111.771V742H970V111.771Z" fill="#8A6330"/>
<path d="M194 128.759L287 20V175.276V742H194V128.759Z" fill="#9F7B4C"/>
<path d="M400 128.759L493 20V175.276V742H400V128.759Z" fill="#C9A87D"/>
<path d="M0 128.759L93 20V175.276V742H0V128.759Z" fill="#C9A87D"/>
<path d="M586 128.759L679 20V175.276V742H586V128.759Z" fill="#9F7B4C"/>
<path d="M3875 111.771L3967.94 0L4069 111.771V742H3875V111.771Z" fill="#8A6330"/>
<path d="M3875 111.771L3967.94 0L4069 111.771V742H3875V111.771Z" fill="#8A6330"/>
<path d="M4069 111.771L4161.94 0L4263 111.771V742H4069V111.771Z" fill="#8A6330"/>
<path d="M4263 111.771L4355.94 0L4457 111.771V742H4263V111.771Z" fill="#8A6330"/>
<path d="M4457 111.771L4549.94 0L4651 111.771V742H4457V111.771Z" fill="#8A6330"/>
<path d="M4069 128.759L4162 20V175.276V742H4069V128.759Z" fill="#9F7B4C"/>
<path d="M4275 128.759L4368 20V175.276V742H4275V128.759Z" fill="#C9A87D"/>
<path d="M3875 128.759L3968 20V175.276V742H3875V128.759Z" fill="#C9A87D"/>
<path d="M4461 128.759L4554 20V175.276V742H4461V128.759Z" fill="#9F7B4C"/>
<path d="M3104 111.771L3196.94 0L3298 111.771V742H3104V111.771Z" fill="#8A6330"/>
<path d="M3104 111.771L3196.94 0L3298 111.771V742H3104V111.771Z" fill="#8A6330"/>
<path d="M3298 111.771L3390.94 0L3492 111.771V742H3298V111.771Z" fill="#8A6330"/>
<path d="M3492 111.771L3584.94 0L3686 111.771V742H3492V111.771Z" fill="#8A6330"/>
<path d="M3686 111.771L3778.94 0L3880 111.771V742H3686V111.771Z" fill="#8A6330"/>
<path d="M3298 128.759L3391 20V175.276V742H3298V128.759Z" fill="#9F7B4C"/>
<path d="M3504 128.759L3597 20V175.276V742H3504V128.759Z" fill="#C9A87D"/>
<path d="M3104 128.759L3197 20V175.276V742H3104V128.759Z" fill="#C9A87D"/>
<path d="M3690 128.759L3783 20V175.276V742H3690V128.759Z" fill="#9F7B4C"/>
<path d="M2328 111.771L2420.94 0L2522 111.771V742H2328V111.771Z" fill="#8A6330"/>
<path d="M2328 111.771L2420.94 0L2522 111.771V742H2328V111.771Z" fill="#8A6330"/>
<path d="M2522 111.771L2614.94 0L2716 111.771V742H2522V111.771Z" fill="#8A6330"/>
<path d="M2716 111.771L2808.94 0L2910 111.771V742H2716V111.771Z" fill="#8A6330"/>
<path d="M2910 111.771L3002.94 0L3104 111.771V742H2910V111.771Z" fill="#8A6330"/>
<path d="M2522 128.759L2615 20V175.276V742H2522V128.759Z" fill="#9F7B4C"/>
<path d="M2728 128.759L2821 20V175.276V742H2728V128.759Z" fill="#C9A87D"/>
<path d="M2328 128.759L2421 20V175.276V742H2328V128.759Z" fill="#C9A87D"/>
<path d="M2914 128.759L3007 20V175.276V742H2914V128.759Z" fill="#9F7B4C"/>
<path d="M788 128.759L881 20V175.276V742H788V128.759Z" fill="#C9A87D"/>
<path d="M974 128.759L1067 20V175.276V742H974V128.759Z" fill="#9F7B4C"/>
<path d="M2696 283.81L3020.33 264.905L3161.77 275.456L3344.66 246L3357.93 473.614L3033.6 492.519L2871.6 483.747L2709.27 511.424L2696 283.81Z" fill="#641B1C"/>
<path d="M1164 111.771L1256.94 0L1358 111.771V742H1164V111.771Z" fill="#8A6330"/>
<path d="M1164 111.771L1256.94 0L1358 111.771V742H1164V111.771Z" fill="#8A6330"/>
<path d="M1358 111.771L1450.94 0L1552 111.771V742H1358V111.771Z" fill="#8A6330"/>
<path d="M1552 111.771L1644.94 0L1746 111.771V742H1552V111.771Z" fill="#8A6330"/>
<path d="M1746 111.771L1838.94 0L1940 111.771V742H1746V111.771Z" fill="#8A6330"/>
<path d="M1940 111.771L2032.94 0L2134 111.771V742H1940V111.771Z" fill="#8A6330"/>
<path d="M2134 111.771L2226.94 0L2328 111.771V742H2134V111.771Z" fill="#8A6330"/>
<path d="M1358 128.759L1451 20V175.276V742H1358V128.759Z" fill="#9F7B4C"/>
<path d="M1564 128.759L1657 20V175.276V742H1564V128.759Z" fill="#C9A87D"/>
<path d="M1164 128.759L1257 20V175.276V742H1164V128.759Z" fill="#C9A87D"/>
<path d="M1750 128.759L1843 20V175.276V742H1750V128.759Z" fill="#9F7B4C"/>
<path d="M1952 128.759L2045 20V175.276V742H1952V128.759Z" fill="#C9A87D"/>
<path d="M2138 128.759L2231 20V175.276V742H2138V128.759Z" fill="#9F7B4C"/>
<path d="M1645 328.291L2041.76 239.382L2250.17 192.679L2301.5 323.901L2256.62 396.097L2305.07 437.67L1810.86 548.417L1778.56 534.78L1699.9 573.282L1665.51 419.816L1674.26 395.525L1645 328.291Z" fill="#DDA15E"/>
<path d="M1679.3 382.226L1682.7 397.144L1695.33 378.576L1712.3 374.712L1694.65 401.006L1721.49 415.079L1712.07 417.224L1683.91 402.468L1688.49 422.592L1682.06 424.058L1672.87 383.691L1679.3 382.226ZM1764.98 405.177L1758.54 406.642L1752.68 380.901L1739.63 383.872L1741.5 392.062C1742.07 394.558 1742.42 396.919 1742.56 399.144C1742.66 401.378 1742.3 403.408 1741.48 405.234C1740.68 407.1 1739.26 408.715 1737.23 410.079C1735.21 411.482 1732.35 412.606 1728.65 413.449L1722.09 414.941L1720.49 407.921C1722.72 407.415 1724.22 406.437 1725 404.988C1725.74 403.587 1725.77 401.346 1725.06 398.265L1719.34 373.109L1755.78 364.81L1764.98 405.177ZM1782.68 358.686L1799.64 354.823L1790.58 399.346L1773.62 403.209L1776.71 387.86L1756.94 364.548L1763.37 363.082L1778.24 380.557L1782.68 358.686ZM1829.46 365.633C1831.48 365.172 1833.51 364.792 1835.53 364.495C1837.56 364.198 1839.53 364.036 1841.45 364.009C1843.38 364.02 1845.27 364.186 1847.11 364.506C1848.9 364.835 1850.59 365.375 1852.15 366.127L1855.26 379.758C1854.67 380.628 1853.76 381.492 1852.52 382.349C1851.25 383.254 1849.73 384.134 1847.95 384.989C1846.18 385.844 1844.19 386.647 1841.98 387.396C1839.73 388.154 1837.38 388.812 1834.92 389.372L1810.06 395.034L1800.87 354.667L1803.79 354.001L1803.77 353.884L1846.36 344.186L1849.55 358.226L1810.47 367.125L1811.09 369.816L1829.46 365.633ZM1813.3 379.528L1831.73 375.331C1834.88 374.612 1837.46 373.779 1839.46 372.831C1841.43 371.931 1842.96 370.988 1844.05 370.002C1842.64 369.584 1840.84 369.44 1838.66 369.568C1836.48 369.736 1833.81 370.179 1830.65 370.899L1812.28 375.082L1813.3 379.528ZM1855.89 342.014L1858.77 354.65L1880.42 349.721L1877.54 337.085L1883.98 335.619L1893.17 375.986L1886.73 377.451L1883.75 364.347L1862.1 369.276L1865.09 382.38L1858.65 383.846L1849.46 343.479L1855.89 342.014ZM1897.43 332.556L1902.49 354.787L1923.17 326.694L1929.6 325.229L1938.8 365.596L1932.36 367.061L1927.43 345.415L1906.62 372.922L1900.19 374.388L1890.99 334.021L1897.43 332.556ZM1938.39 323.228L1941.79 338.146L1954.42 319.578L1971.39 315.715L1953.74 342.008L1980.58 356.081L1971.16 358.226L1943 343.47L1947.58 363.595L1941.15 365.06L1931.96 324.693L1938.39 323.228ZM2000.34 309.121L2030.3 344.759L2023.87 346.224L2018.47 339.822L1990.86 346.11L1988.77 354.217L1971.8 358.08L1983.38 312.984L2000.34 309.121ZM1998.55 316.114L1994.86 330.431L2008.08 327.42L1998.55 316.114ZM2088.4 331.53L2081.96 332.996L2076.1 307.254L2063.05 310.225L2064.92 318.416C2065.49 320.912 2065.84 323.272 2065.98 325.497C2066.08 327.731 2065.72 329.761 2064.9 331.588C2064.1 333.453 2062.68 335.068 2060.65 336.432C2058.63 337.836 2055.77 338.959 2052.07 339.803L2045.51 341.295L2043.91 334.275C2046.14 333.768 2047.64 332.791 2048.42 331.342C2049.16 329.941 2049.19 327.7 2048.49 324.619L2042.76 299.463L2079.2 291.164L2088.4 331.53ZM2087.96 289.169L2090.84 301.806L2096.1 300.607L2094.65 294.23C2095.32 293.216 2096.25 292.144 2097.43 291.014C2098.57 289.893 2100 288.788 2101.72 287.698C2103.41 286.657 2105.41 285.646 2107.74 284.667C2110.03 283.735 2112.65 282.931 2115.62 282.257C2118.66 281.564 2121.43 281.137 2123.94 280.976C2126.42 280.864 2128.64 280.911 2130.62 281.117C2132.56 281.372 2134.29 281.758 2135.8 282.275C2137.32 282.792 2138.62 283.358 2139.7 283.972L2146.01 311.703C2145.38 312.708 2144.51 313.767 2143.41 314.879C2142.31 315.991 2140.92 317.087 2139.24 318.168C2137.52 319.257 2135.5 320.292 2133.18 321.271C2130.86 322.251 2128.16 323.092 2125.08 323.793C2122.07 324.477 2119.31 324.88 2116.8 325.001C2114.28 325.123 2112.01 325.046 2109.98 324.77C2107.95 324.533 2106.18 324.157 2104.67 323.64C2103.16 323.122 2101.92 322.563 2100.97 321.96L2099.43 315.233L2094.17 316.431L2097.15 329.536L2090.72 331.001L2081.53 290.635L2087.96 289.169ZM2121.88 309.753C2124.65 309.122 2127.02 308.294 2129 307.268C2130.99 306.243 2132.65 305.186 2134.01 304.099C2135.37 303.051 2136.43 302.03 2137.18 301.037C2137.95 300.082 2138.52 299.318 2138.88 298.743C2138.3 298.382 2137.46 297.937 2136.36 297.409C2135.25 296.882 2133.86 296.42 2132.17 296.026C2130.49 295.67 2128.53 295.459 2126.3 295.392C2124.08 295.365 2121.58 295.667 2118.81 296.297C2116.04 296.928 2113.67 297.736 2111.67 298.723C2109.69 299.748 2108.02 300.785 2106.66 301.834C2105.31 302.921 2104.25 303.942 2103.48 304.896C2102.71 305.85 2102.15 306.615 2101.79 307.189C2102.36 307.551 2103.2 307.995 2104.31 308.523C2105.42 309.09 2106.82 309.551 2108.5 309.907C2110.19 310.302 2112.15 310.532 2114.38 310.599C2116.61 310.665 2119.11 310.383 2121.88 309.753ZM2169.21 288.266C2171.24 287.804 2173.27 287.425 2175.29 287.128C2177.32 286.831 2179.29 286.669 2181.21 286.642C2183.14 286.653 2185.03 286.819 2186.87 287.139C2188.66 287.468 2190.34 288.008 2191.91 288.759L2195.01 302.391C2194.43 303.261 2193.52 304.125 2192.28 304.982C2191.01 305.887 2189.49 306.767 2187.71 307.622C2185.94 308.477 2183.95 309.28 2181.74 310.029C2179.49 310.787 2177.14 311.445 2174.68 312.005L2149.82 317.667L2140.63 277.3L2143.55 276.634L2143.52 276.517L2186.11 266.819L2189.31 280.859L2150.23 289.758L2150.85 292.449L2169.21 288.266ZM2153.06 302.161L2171.48 297.964C2174.64 297.245 2177.22 296.411 2179.22 295.464C2181.19 294.564 2182.72 293.621 2183.81 292.635C2182.4 292.217 2180.6 292.073 2178.42 292.201C2176.24 292.369 2173.57 292.812 2170.41 293.531L2152.04 297.714L2153.06 302.161ZM2195.65 264.647L2200.72 286.877L2221.39 258.785L2227.83 257.32L2237.02 297.686L2230.59 299.152L2225.66 277.506L2204.85 305.013L2198.41 306.479L2189.22 266.112L2195.65 264.647ZM2257.67 265.908L2263.54 291.649L2257.1 293.114L2251.24 267.373L2233.51 271.41L2230.18 256.784L2272.07 247.246L2275.4 261.871L2257.67 265.908ZM1722.42 443.174L1725.81 458.093L1738.45 439.524L1755.41 435.661L1737.77 461.954L1764.6 476.028L1755.18 478.173L1727.02 463.416L1731.61 483.541L1725.17 485.007L1715.98 444.64L1722.42 443.174ZM1789.02 471.084C1785.58 471.865 1782.36 472.292 1779.34 472.365C1776.33 472.476 1773.57 472.364 1771.08 472.03C1768.54 471.705 1766.34 471.202 1764.46 470.522C1762.55 469.89 1761 469.217 1759.81 468.503L1753.91 442.587C1754.64 441.476 1755.76 440.321 1757.25 439.12C1758.74 437.919 1760.58 436.721 1762.77 435.525C1764.92 434.377 1767.42 433.275 1770.26 432.219C1773.06 431.21 1776.16 430.32 1779.56 429.547C1783.07 428.748 1786.33 428.191 1789.33 427.876C1792.31 427.608 1795.01 427.525 1797.46 427.625C1799.86 427.734 1801.98 428.011 1803.8 428.457C1805.63 428.942 1807.14 429.522 1808.32 430.197L1814.22 456.114C1813.47 457.311 1812.39 458.603 1810.98 459.99C1809.58 461.416 1807.85 462.816 1805.78 464.189C1803.72 465.562 1801.3 466.85 1798.54 468.054C1795.74 469.266 1792.57 470.276 1789.02 471.084ZM1785.82 457.043C1789.29 456.253 1792.29 455.283 1794.82 454.133C1797.35 453.022 1799.49 451.878 1801.24 450.702C1802.98 449.526 1804.36 448.41 1805.4 447.355C1806.4 446.347 1807.1 445.552 1807.5 444.968C1806.89 444.616 1805.9 444.183 1804.56 443.669C1803.18 443.203 1801.45 442.837 1799.38 442.57C1797.31 442.303 1794.89 442.199 1792.11 442.257C1789.35 442.354 1786.23 442.797 1782.75 443.588C1779.28 444.378 1776.28 445.329 1773.74 446.44C1771.22 447.59 1769.08 448.733 1767.32 449.871C1765.57 451.008 1764.2 452.08 1763.2 453.088C1762.2 454.134 1761.49 454.953 1761.05 455.546C1761.7 455.889 1762.7 456.299 1764.04 456.773C1765.38 457.287 1767.1 457.697 1769.18 458.002C1771.26 458.308 1773.68 458.413 1776.45 458.316C1779.22 458.258 1782.35 457.834 1785.82 457.043ZM1845.49 430.534L1818.98 436.569L1824.85 462.31L1818.41 463.775L1809.22 423.408L1842.16 415.908L1845.49 430.534ZM1865.71 426.42C1866.14 428.292 1866.38 429.879 1866.43 431.18C1866.48 432.482 1866.44 433.558 1866.3 434.409C1866.18 435.299 1865.99 435.999 1865.73 436.508C1865.45 437.064 1865.22 437.486 1865.04 437.774L1884.11 433.431L1881.58 422.315L1865.61 425.952L1865.71 426.42ZM1844.85 442.37C1845.95 442.121 1846.85 441.669 1847.56 441.015C1848.24 440.408 1848.71 439.501 1848.97 438.294C1849.23 437.086 1849.29 435.554 1849.16 433.698C1848.98 431.851 1848.58 429.562 1847.96 426.832L1845.31 415.19L1884.68 406.224L1890.54 431.966L1896.98 430.5L1902.04 452.731L1895.61 454.196L1893.87 446.591L1853.68 455.743L1855.42 463.348L1848.98 464.814L1843.92 442.583L1844.85 442.37ZM1929.42 396.037L1959.38 431.674L1952.95 433.139L1947.55 426.738L1919.94 433.026L1917.85 441.132L1900.88 444.996L1912.46 399.9L1929.42 396.037ZM1927.63 403.029L1923.94 417.346L1937.16 414.336L1927.63 403.029ZM2010.21 377.639L2013.41 391.68L1975.62 400.286L1976.38 403.62L1996.62 399.011L1997.82 404.276L1977.58 408.886L1978.42 412.571L2016.21 403.966L2019.41 418.006L1975.18 428.077L1965.99 387.711L2010.21 377.639ZM2056.78 367.037L2059.97 381.077L2022.18 389.683L2022.94 393.018L2043.18 388.408L2044.38 393.674L2024.14 398.283L2024.98 401.969L2062.77 393.363L2065.97 407.403L2021.74 417.475L2012.55 377.108L2056.78 367.037ZM2033.41 368.48C2033.12 368.794 2032.73 369.067 2032.25 369.3C2031.78 369.571 2031.28 369.808 2030.75 370.01C2030.18 370.221 2029.66 370.38 2029.19 370.487C2028.7 370.641 2028.31 370.75 2028.04 370.812C2027.76 370.874 2027.39 370.939 2026.91 371.006C2026.41 371.122 2025.89 371.198 2025.36 371.236C2024.8 371.282 2024.25 371.285 2023.71 371.244C2023.17 371.243 2022.7 371.165 2022.3 371.011L2020.74 364.166C2021.01 363.9 2021.38 363.631 2021.85 363.36C2022.33 363.128 2022.83 362.91 2023.36 362.708C2023.89 362.505 2024.4 362.327 2024.9 362.173L2027.18 361.653C2027.7 361.577 2028.24 361.515 2028.8 361.469C2029.37 361.423 2029.93 361.396 2030.51 361.388C2031.05 361.429 2031.5 361.511 2031.86 361.635L2033.41 368.48ZM2046.87 365.416C2046.57 365.73 2046.18 366.003 2045.7 366.236C2045.23 366.507 2044.73 366.744 2044.2 366.946C2043.64 367.157 2043.12 367.316 2042.65 367.423C2042.15 367.577 2041.77 367.686 2041.49 367.748C2041.22 367.81 2040.85 367.875 2040.37 367.942C2039.86 368.058 2039.35 368.134 2038.82 368.172C2038.26 368.218 2037.7 368.221 2037.16 368.18C2036.63 368.179 2036.16 368.101 2035.75 367.947L2034.2 361.102C2034.46 360.836 2034.83 360.567 2035.3 360.296C2035.78 360.064 2036.29 359.846 2036.82 359.644C2037.35 359.441 2037.86 359.263 2038.36 359.109L2040.64 358.589C2041.15 358.513 2041.69 358.451 2042.26 358.405C2042.82 358.359 2043.39 358.332 2043.96 358.324C2044.5 358.365 2044.95 358.447 2045.31 358.571L2046.87 365.416ZM2117.96 353.104L2121.16 367.144L2083.37 375.75L2084.13 379.085L2104.37 374.475L2105.57 379.741L2085.33 384.35L2086.17 388.036L2123.96 379.43L2127.16 393.47L2082.93 403.541L2073.74 363.175L2117.96 353.104ZM2147.94 362.154C2148.37 364.026 2148.61 365.612 2148.66 366.914C2148.71 368.215 2148.66 369.291 2148.53 370.142C2148.4 371.033 2148.22 371.732 2147.96 372.241C2147.68 372.798 2147.45 373.22 2147.27 373.507L2166.34 369.164L2163.81 358.049L2147.84 361.686L2147.94 362.154ZM2127.08 378.103C2128.17 377.854 2129.08 377.403 2129.79 376.748C2130.47 376.142 2130.94 375.235 2131.2 374.027C2131.46 372.82 2131.52 371.288 2131.38 369.432C2131.21 367.584 2130.81 365.295 2130.19 362.565L2127.54 350.923L2166.91 341.958L2172.77 367.699L2179.21 366.234L2184.27 388.464L2177.83 389.93L2176.1 382.325L2135.91 391.477L2137.64 399.082L2131.21 400.547L2126.15 378.316L2127.08 378.103ZM2218.15 372.75L2214.64 357.305L2202.12 360.156C2200.48 360.529 2198.88 360.83 2197.34 361.059L2190.13 379.131L2183.11 380.729L2190.69 361.589C2188.64 361.604 2186.67 361.436 2184.79 361.086C2182.87 360.744 2181.05 360.172 2179.35 359.37L2176.05 344.861C2176.63 343.991 2177.56 343.103 2178.83 342.198C2180.07 341.341 2181.58 340.485 2183.35 339.63C2185.12 338.775 2187.14 337.968 2189.38 337.21C2191.59 336.461 2193.93 335.807 2196.38 335.247L2215.4 330.917L2224.59 371.284L2218.15 372.75ZM2199.71 349.873C2196.55 350.592 2194 351.441 2192.05 352.418C2190.06 353.444 2188.53 354.469 2187.45 355.494C2188.91 355.942 2190.74 356.122 2192.93 356.032C2195.1 355.99 2197.76 355.61 2200.92 354.89L2213.44 352.04L2212.29 347.008L2199.71 349.873ZM2245.2 339.515L2251.06 365.256L2244.63 366.721L2238.76 340.98L2221.04 345.017L2217.71 330.391L2259.59 320.853L2262.93 335.478L2245.2 339.515Z" fill="white"/>
<path d="M859.925 247L1384.45 330.003L1411.07 367L1438.45 396.5L1411.07 577.275L1140.01 538.139L1004.48 518.571L936.714 508.787L885.449 480.503L824.142 491.309L859.925 247Z" fill="#BC6C25"/>
<path d="M938.244 296.458L935.667 311.54L954.449 299.228L971.601 302.158L945.232 319.687L964.628 342.967L955.106 341.34L934.748 316.922L931.271 337.267L924.765 336.155L931.739 295.347L938.244 296.458ZM994.095 306.002L991.518 321.083L1010.3 308.771L1027.45 311.702L1001.08 329.231L1020.48 352.51L1010.96 350.883L990.598 326.465L987.122 346.811L980.616 345.699L987.589 304.89L994.095 306.002ZM1056.72 316.704L1070.75 361.1L1064.24 359.988L1061.71 352.008L1033.79 347.238L1028.75 353.925L1011.6 350.994L1039.57 313.773L1056.72 316.704ZM1052.39 322.476L1043.49 334.287L1056.86 336.571L1052.39 322.476ZM1074.51 361.743L1064.81 360.086L1082.9 345.403L1071.19 319.176L1087.99 322.047L1096.53 341.159L1099.46 324.007L1105.97 325.119L1103.02 342.389L1117.44 327.079L1134.59 330.01L1114.52 351.294L1126.44 370.617L1116.98 369L1102.48 345.523L1099 365.927L1092.49 364.816L1096 344.293L1074.51 361.743ZM1155.92 349.359C1155.6 351.252 1155.21 352.809 1154.76 354.03C1154.31 355.251 1153.86 356.229 1153.41 356.964C1152.95 357.738 1152.51 358.312 1152.08 358.685C1151.6 359.091 1151.23 359.392 1150.95 359.588L1170.23 362.882L1172.15 351.645L1156 348.886L1155.92 349.359ZM1130.55 356.101C1131.65 356.29 1132.66 356.218 1133.56 355.887C1134.43 355.588 1135.21 354.93 1135.91 353.914C1136.61 352.897 1137.26 351.506 1137.84 349.739C1138.39 347.966 1138.9 345.699 1139.37 342.939L1141.38 331.17L1181.18 337.971L1176.74 363.994L1183.24 365.106L1179.4 387.58L1172.9 386.468L1174.21 378.78L1133.58 371.837L1132.26 379.525L1125.76 378.414L1129.6 355.939L1130.55 356.101ZM1209.88 385.483C1206.41 384.89 1203.26 384.049 1200.45 382.959C1197.62 381.908 1195.12 380.75 1192.94 379.485C1190.73 378.214 1188.88 376.904 1187.41 375.556C1185.89 374.242 1184.71 373.027 1183.89 371.912L1188.37 345.712C1189.47 344.967 1190.94 344.325 1192.77 343.787C1194.61 343.248 1196.77 342.846 1199.25 342.58C1201.68 342.347 1204.41 342.286 1207.44 342.397C1210.42 342.54 1213.62 342.905 1217.05 343.492C1220.6 344.098 1223.82 344.831 1226.72 345.691C1229.57 346.584 1232.1 347.545 1234.32 348.573C1236.5 349.595 1238.35 350.661 1239.86 351.772C1241.37 352.922 1242.54 354.035 1243.37 355.111L1238.89 381.311C1237.74 382.128 1236.25 382.908 1234.41 383.65C1232.58 384.432 1230.44 385.061 1228.01 385.537C1225.57 386.014 1222.85 386.279 1219.83 386.333C1216.78 386.379 1213.46 386.096 1209.88 385.483ZM1212.3 371.289C1215.81 371.888 1218.95 372.141 1221.73 372.047C1224.5 371.993 1226.91 371.756 1228.97 371.337C1231.03 370.918 1232.74 370.419 1234.1 369.839C1235.41 369.292 1236.36 368.826 1236.95 368.44C1236.52 367.88 1235.78 367.104 1234.73 366.113C1233.64 365.155 1232.19 364.156 1230.38 363.116C1228.57 362.076 1226.37 361.051 1223.78 360.041C1221.19 359.071 1218.13 358.285 1214.63 357.686C1211.12 357.086 1207.98 356.814 1205.21 356.868C1202.43 356.962 1200.02 357.199 1197.97 357.578C1195.91 357.958 1194.23 358.421 1192.92 358.968C1191.6 359.554 1190.63 360.037 1189.99 360.416C1190.46 360.983 1191.23 361.743 1192.28 362.694C1193.33 363.685 1194.76 364.72 1196.56 365.799C1198.36 366.878 1200.56 367.903 1203.16 368.874C1205.74 369.884 1208.79 370.689 1212.3 371.289ZM1263.95 352.115L1270.41 386.636L1289.38 356.46L1308.31 359.694L1301.34 400.503L1294.83 399.391L1299.84 370.056L1282.71 397.319L1265.55 394.389L1259.68 362.888L1254.61 392.519L1239.83 389.992L1246.8 349.184L1263.95 352.115ZM1335.52 364.344L1352.67 367.275L1327.25 404.93L1310.09 401.999L1318.83 389.005L1309.5 359.897L1316 361.009L1323.04 382.847L1335.52 364.344ZM872.535 397.839C869.065 397.246 865.922 396.405 863.106 395.315C860.282 394.264 857.782 393.106 855.603 391.841C853.386 390.57 851.54 389.26 850.066 387.913C848.546 386.598 847.374 385.383 846.55 384.268L851.027 358.068C852.128 357.323 853.597 356.681 855.434 356.143C857.271 355.605 859.43 355.202 861.91 354.936C864.344 354.703 867.073 354.642 870.098 354.753C873.076 354.897 876.28 355.262 879.711 355.848C883.259 356.454 886.482 357.187 889.378 358.048C892.229 358.94 894.763 359.901 896.981 360.929C899.16 361.951 901.007 363.017 902.522 364.128C904.03 365.279 905.199 366.392 906.03 367.467L901.553 393.667C900.398 394.484 898.906 395.264 897.075 396.006C895.237 396.788 893.1 397.417 890.665 397.894C888.23 398.37 885.506 398.635 882.494 398.689C879.443 398.735 876.123 398.452 872.535 397.839ZM874.961 383.645C878.47 384.244 881.612 384.497 884.388 384.403C887.156 384.349 889.571 384.112 891.631 383.693C893.691 383.274 895.399 382.775 896.756 382.195C898.067 381.648 899.019 381.182 899.613 380.796C899.181 380.236 898.441 379.46 897.393 378.469C896.299 377.511 894.846 376.512 893.035 375.473C891.225 374.433 889.026 373.408 886.439 372.398C883.846 371.427 880.794 370.642 877.285 370.042C873.776 369.442 870.637 369.17 867.868 369.224C865.093 369.318 862.678 369.555 860.625 369.934C858.572 370.314 856.89 370.777 855.579 371.324C854.261 371.911 853.286 372.393 852.653 372.772C853.124 373.34 853.887 374.099 854.942 375.05C855.99 376.041 857.416 377.076 859.22 378.155C861.024 379.234 863.223 380.259 865.817 381.23C868.404 382.24 871.452 383.045 874.961 383.645ZM931.647 382.74C933.697 383.09 935.714 383.516 937.698 384.017C939.682 384.519 941.567 385.125 943.352 385.836C945.131 386.586 946.808 387.461 948.382 388.46C949.917 389.453 951.264 390.596 952.422 391.89L950.067 405.67C949.197 406.252 948.025 406.701 946.55 407.017C945.03 407.366 943.286 407.596 941.32 407.706C939.353 407.816 937.206 407.794 934.879 407.64C932.512 407.479 930.087 407.186 927.603 406.762L902.467 402.467L909.44 361.658L912.397 362.164L912.418 362.045L955.473 369.403L953.048 383.597L913.541 376.846L913.076 379.567L931.647 382.74ZM911.398 389.384L930.028 392.568C933.222 393.113 935.924 393.332 938.134 393.222C940.297 393.146 942.071 392.86 943.454 392.366C942.313 391.441 940.709 390.619 938.64 389.9C936.565 389.221 933.931 388.608 930.737 388.063L912.166 384.889L911.398 389.384ZM1003.32 377.579L1000.9 391.773L962.692 385.245L962.115 388.616L982.579 392.113L981.669 397.435L961.206 393.939L960.569 397.665L998.775 404.193L996.35 418.388L951.638 410.747L958.611 369.939L1003.32 377.579ZM1027.55 397.423C1027.22 399.315 1026.84 400.872 1026.38 402.093C1025.93 403.315 1025.48 404.293 1025.03 405.027C1024.57 405.802 1024.13 406.375 1023.7 406.748C1023.23 407.154 1022.85 407.455 1022.57 407.651L1041.85 410.946L1043.77 399.709L1027.63 396.95L1027.55 397.423ZM1002.17 404.164C1003.27 404.353 1004.28 404.282 1005.19 403.95C1006.05 403.651 1006.83 402.993 1007.53 401.977C1008.23 400.96 1008.88 399.569 1009.46 397.802C1010.01 396.029 1010.52 393.762 1010.99 391.002L1013 379.233L1052.81 386.035L1048.36 412.057L1054.86 413.169L1051.02 435.643L1044.52 434.532L1045.83 426.843L1005.2 419.9L1003.89 427.589L997.382 426.477L1001.22 404.003L1002.17 404.164ZM1081.75 390.981L1098.9 393.912L1073.48 431.567L1056.33 428.636L1065.06 415.642L1055.73 386.534L1062.24 387.646L1069.28 409.484L1081.75 390.981ZM1158.04 441.634C1155.33 442.55 1152.08 443.171 1148.29 443.498C1144.5 443.824 1140.18 443.573 1135.33 442.744C1131.86 442.152 1128.71 441.31 1125.9 440.22C1123.07 439.17 1120.57 438.012 1118.4 436.747C1116.18 435.475 1114.33 434.166 1112.86 432.818C1111.34 431.503 1110.17 430.288 1109.34 429.174L1113.82 402.973C1114.92 402.228 1116.39 401.587 1118.23 401.048C1120.06 400.51 1122.22 400.108 1124.7 399.842C1127.14 399.608 1129.87 399.547 1132.89 399.658C1135.87 399.802 1139.07 400.167 1142.5 400.753C1147.27 401.568 1151.44 402.624 1154.99 403.921C1158.5 405.211 1161.43 406.585 1163.78 408.041L1161.02 424.187C1160.29 423.493 1159.32 422.72 1158.13 421.867C1156.94 421.014 1155.48 420.156 1153.76 419.294C1152.04 418.432 1150.05 417.605 1147.79 416.814C1145.53 416.061 1142.96 415.439 1140.08 414.947C1136.57 414.348 1133.43 414.075 1130.66 414.13C1127.89 414.223 1125.47 414.46 1123.42 414.84C1121.36 415.219 1119.68 415.683 1118.37 416.23C1117.05 416.816 1116.08 417.299 1115.45 417.677C1115.92 418.245 1116.68 419.004 1117.73 419.956C1118.78 420.946 1120.21 421.981 1122.01 423.061C1123.82 424.14 1126.02 425.165 1128.61 426.136C1131.2 427.146 1134.24 427.951 1137.75 428.55C1140.63 429.042 1143.27 429.29 1145.66 429.293C1148.05 429.335 1150.2 429.216 1152.11 428.935C1154.02 428.692 1155.68 428.347 1157.1 427.899C1158.51 427.491 1159.67 427.081 1160.6 426.671L1158.04 441.634ZM1191.79 409.783C1194.27 410.208 1196.66 410.737 1198.94 411.371C1201.19 411.998 1203.22 412.691 1205.04 413.448C1206.86 414.205 1208.43 414.981 1209.75 415.775C1211.03 416.602 1211.99 417.435 1212.61 418.273L1210.85 428.623C1208.99 429.522 1207.16 430.225 1205.37 430.731C1203.54 431.23 1201.76 431.554 1200.03 431.705C1201.85 432.462 1203.76 433.378 1205.77 434.451C1207.73 435.557 1209.48 436.87 1211 438.389L1209.24 448.679C1208.37 449.301 1207.14 449.841 1205.56 450.302C1203.97 450.802 1202.19 451.146 1200.21 451.335C1198.18 451.557 1196 451.63 1193.66 451.555C1191.31 451.519 1188.95 451.299 1186.59 450.895L1159.68 446.297L1166.65 405.488L1191.79 409.783ZM1170.13 424.283L1188.71 427.457C1191.9 428.002 1194.6 428.24 1196.8 428.171C1198.96 428.133 1200.75 427.851 1202.18 427.325C1201.05 426.36 1199.48 425.443 1197.48 424.573C1195.43 423.736 1192.81 423.045 1189.61 422.499L1170.98 419.315L1170.13 424.283ZM1168.36 434.693L1188.76 438.179C1191.95 438.725 1194.66 438.943 1196.87 438.834C1199.03 438.757 1200.79 438.429 1202.15 437.849C1200.97 436.917 1199.38 436.016 1197.37 435.147C1195.37 434.317 1192.76 433.629 1189.57 433.083L1169.22 429.606L1168.36 434.693ZM1261.67 421.725L1259.24 435.919L1221.04 429.39L1220.46 432.761L1240.92 436.258L1240.01 441.581L1219.55 438.084L1218.91 441.81L1257.12 448.339L1254.7 462.533L1209.98 454.893L1216.96 414.084L1261.67 421.725ZM1266.16 464.493L1256.46 462.835L1274.56 448.153L1262.85 421.926L1279.64 424.796L1288.18 443.908L1291.12 426.756L1297.62 427.868L1294.67 445.138L1309.09 429.829L1326.25 432.759L1306.17 454.043L1318.09 473.366L1308.63 471.749L1294.13 448.272L1290.65 468.677L1284.14 467.565L1287.65 447.042L1266.16 464.493ZM1333.95 434.076L1330.11 456.55L1359.97 438.523L1366.48 439.634L1359.51 480.443L1353 479.331L1356.74 457.448L1326.98 474.884L1320.47 473.773L1327.44 432.964L1333.95 434.076ZM1375.36 441.152L1371.52 463.626L1401.38 445.599L1407.89 446.711L1400.92 487.519L1394.41 486.407L1398.15 464.525L1368.39 481.961L1361.88 480.849L1368.86 440.041L1375.36 441.152ZM1398.8 440.045C1397.99 440.272 1396.76 440.487 1395.1 440.691C1393.44 440.934 1391.17 440.809 1388.29 440.317C1385.41 439.826 1383.24 439.192 1381.79 438.417C1380.3 437.674 1379.19 437.058 1378.46 436.568L1379.64 429.649C1381 430.693 1382.56 431.548 1384.32 432.213C1386.07 432.877 1387.77 433.351 1389.43 433.634C1390.26 433.776 1391.15 433.868 1392.12 433.912C1393.08 433.994 1394.05 434.018 1395.03 433.983C1395.96 433.98 1396.87 433.911 1397.74 433.777C1398.58 433.636 1399.33 433.418 1399.99 433.125L1398.8 440.045ZM1004.87 490.453C1001.4 489.86 998.259 489.018 995.442 487.928C992.618 486.878 990.118 485.72 987.94 484.455C985.722 483.183 983.876 481.874 982.402 480.526C980.882 479.211 979.71 477.996 978.886 476.882L983.363 450.681C984.464 449.936 985.933 449.295 987.77 448.756C989.607 448.218 991.766 447.816 994.246 447.55C996.68 447.316 999.409 447.255 1002.43 447.366C1005.41 447.51 1008.62 447.875 1012.05 448.461C1015.6 449.068 1018.82 449.801 1021.71 450.661C1024.56 451.554 1027.1 452.514 1029.32 453.543C1031.5 454.564 1033.34 455.631 1034.86 456.742C1036.37 457.892 1037.53 459.005 1038.37 460.08L1033.89 486.28C1032.73 487.098 1031.24 487.877 1029.41 488.62C1027.57 489.401 1025.44 490.03 1023 490.507C1020.57 490.984 1017.84 491.249 1014.83 491.302C1011.78 491.349 1008.46 491.066 1004.87 490.453ZM1007.3 476.258C1010.81 476.858 1013.95 477.111 1016.72 477.017C1019.49 476.962 1021.91 476.726 1023.97 476.307C1026.03 475.888 1027.74 475.388 1029.09 474.809C1030.4 474.262 1031.36 473.795 1031.95 473.41C1031.52 472.849 1030.78 472.073 1029.73 471.083C1028.63 470.125 1027.18 469.126 1025.37 468.086C1023.56 467.046 1021.36 466.021 1018.78 465.011C1016.18 464.04 1013.13 463.255 1009.62 462.655C1006.11 462.056 1002.97 461.783 1000.2 461.838C997.429 461.931 995.015 462.168 992.961 462.548C990.908 462.927 989.226 463.391 987.915 463.938C986.598 464.524 985.622 465.007 984.99 465.386C985.461 465.953 986.224 466.712 987.279 467.664C988.327 468.654 989.753 469.689 991.557 470.769C993.361 471.848 995.559 472.873 998.153 473.844C1000.74 474.854 1003.79 475.659 1007.3 476.258ZM1072.57 474.629L1045.78 470.051L1041.33 496.074L1034.82 494.962L1041.8 454.153L1075.09 459.843L1072.57 474.629ZM1102.27 464.487L1119.42 467.418L1094 505.074L1076.85 502.143L1085.58 489.148L1076.25 460.041L1082.76 461.152L1089.8 482.991L1102.27 464.487ZM1139.86 470.91C1142.34 471.334 1144.72 471.863 1147.01 472.497C1149.26 473.125 1151.29 473.817 1153.11 474.574C1154.93 475.331 1156.5 476.107 1157.82 476.902C1159.1 477.729 1160.06 478.561 1160.68 479.399L1158.18 494.066C1156.62 494.895 1154.94 495.543 1153.16 496.009C1151.33 496.468 1149.46 496.756 1147.53 496.874C1145.6 496.991 1143.64 496.979 1141.63 496.839C1139.59 496.693 1137.54 496.445 1135.49 496.094L1122.83 493.932L1120.17 509.545L1113.66 508.434L1120.63 467.625L1139.86 470.91ZM1123.74 488.609L1136.4 490.771C1139.59 491.317 1142.29 491.555 1144.5 491.485C1146.65 491.448 1148.45 491.166 1149.88 490.639C1148.74 489.674 1147.18 488.738 1145.18 487.828C1143.14 486.952 1140.52 486.241 1137.33 485.695L1124.61 483.522L1123.74 488.609ZM1208.55 482.648L1206.12 496.842L1167.92 490.313L1167.34 493.684L1187.8 497.181L1186.89 502.504L1166.43 499.007L1165.79 502.733L1204 509.262L1201.57 523.456L1156.86 515.816L1163.84 475.007L1208.55 482.648ZM1244.61 538.723L1238.11 537.612L1239.42 529.923L1203.93 523.859L1210.91 483.051L1217.41 484.162L1212.97 510.185L1235.44 514.026L1239.89 488.003L1246.39 489.114L1241.95 515.137L1248.45 516.249L1244.61 538.723Z" fill="white"/>
<path d="M2749.58 340.362L2766.95 339.316L2750.75 381.767L2733.38 382.813L2738.93 368.173L2723.23 341.95L2729.82 341.553L2741.64 361.218L2749.58 340.362ZM2774.76 338.845L2775.68 354.118L2791.17 337.857L2808.54 336.81L2786.85 359.876L2811.03 378.135L2801.39 378.716L2776.01 359.568L2777.25 380.17L2770.66 380.567L2768.17 339.242L2774.76 338.845ZM2830.7 335.475L2848.07 334.429L2831.87 376.879L2814.51 377.926L2820.05 363.286L2804.35 337.063L2810.94 336.666L2822.76 356.33L2830.7 335.475ZM2900.37 368.425C2897.93 369.934 2894.91 371.279 2891.29 372.458C2887.68 373.638 2883.41 374.375 2878.5 374.671C2874.99 374.883 2871.74 374.778 2868.75 374.358C2865.76 373.977 2863.06 373.418 2860.65 372.681C2858.2 371.947 2856.11 371.092 2854.36 370.115C2852.58 369.18 2851.17 368.264 2850.11 367.366L2848.51 340.834C2849.42 339.858 2850.7 338.899 2852.37 337.957C2854.03 337.015 2856.04 336.132 2858.4 335.309C2860.72 334.528 2863.36 333.848 2866.33 333.268C2869.26 332.731 2872.47 332.358 2875.94 332.148C2880.77 331.857 2885.06 331.939 2888.82 332.394C2892.53 332.852 2895.7 333.523 2898.32 334.407L2899.3 350.757C2898.43 350.249 2897.31 349.715 2895.96 349.155C2894.6 348.596 2892.99 348.092 2891.12 347.644C2889.25 347.195 2887.12 346.842 2884.74 346.585C2882.37 346.368 2879.72 346.347 2876.81 346.522C2873.25 346.736 2870.13 347.185 2867.45 347.867C2864.77 348.59 2862.47 349.37 2860.56 350.206C2858.64 351.043 2857.11 351.876 2855.96 352.707C2854.81 353.578 2853.97 354.27 2853.44 354.783C2854.03 355.228 2854.94 355.794 2856.19 356.48C2857.43 357.207 2859.06 357.89 2861.06 358.531C2863.06 359.172 2865.44 359.67 2868.18 360.025C2870.93 360.421 2874.08 360.512 2877.64 360.297C2880.55 360.122 2883.17 359.763 2885.51 359.222C2887.84 358.721 2889.91 358.116 2891.71 357.406C2893.51 356.736 2895.05 356.022 2896.33 355.264C2897.61 354.546 2898.65 353.882 2899.45 353.273L2900.37 368.425ZM2907.12 330.871L2908.49 353.63L2933.47 329.283L2940.06 328.886L2942.55 370.212L2935.96 370.608L2934.63 348.449L2909.61 372.196L2903.02 372.593L2900.53 331.268L2907.12 330.871ZM2988.26 367.458L2981.67 367.855L2980.08 341.502L2966.73 342.307L2967.23 350.692C2967.39 353.247 2967.35 355.634 2967.12 357.851C2966.86 360.071 2966.17 362.016 2965.07 363.685C2963.97 365.395 2962.31 366.757 2960.09 367.772C2957.87 368.828 2954.86 369.47 2951.07 369.698L2944.36 370.103L2943.92 362.916C2946.2 362.778 2947.84 362.059 2948.84 360.756C2949.81 359.496 2950.2 357.288 2950.01 354.134L2948.46 328.381L2985.77 326.133L2988.26 367.458ZM3009.71 324.69L3010.63 339.963L3026.12 323.702L3043.49 322.655L3021.79 345.722L3045.98 363.98L3036.33 364.561L3010.96 345.413L3012.2 366.015L3005.61 366.412L3003.12 325.087L3009.71 324.69ZM3070.87 363.082C3067.35 363.293 3064.1 363.189 3061.11 362.768C3058.12 362.387 3055.42 361.828 3053.02 361.092C3050.57 360.358 3048.47 359.502 3046.73 358.525C3044.95 357.59 3043.53 356.674 3042.48 355.776L3040.88 329.244C3041.78 328.268 3043.07 327.309 3044.73 326.367C3046.4 325.425 3048.41 324.543 3050.76 323.719C3053.08 322.939 3055.73 322.258 3058.7 321.679C3061.63 321.141 3064.83 320.768 3068.31 320.559C3071.9 320.342 3075.2 320.324 3078.22 320.502C3081.2 320.724 3083.89 321.083 3086.28 321.58C3088.63 322.079 3090.67 322.697 3092.4 323.435C3094.13 324.212 3095.52 325.03 3096.58 325.888L3098.18 352.42C3097.24 353.478 3095.96 354.577 3094.35 355.716C3092.74 356.895 3090.8 357.994 3088.53 359.012C3086.27 360.03 3083.68 360.907 3080.76 361.644C3077.8 362.384 3074.5 362.863 3070.87 363.082ZM3070 348.708C3073.56 348.494 3076.67 348.025 3079.35 347.303C3082.04 346.62 3084.34 345.841 3086.25 344.964C3088.16 344.088 3089.71 343.213 3090.9 342.34C3092.05 341.509 3092.87 340.838 3093.36 340.328C3092.81 339.88 3091.92 339.293 3090.67 338.567C3089.39 337.882 3087.74 337.24 3085.74 336.639C3083.74 336.038 3081.37 335.54 3078.62 335.145C3075.88 334.789 3072.73 334.719 3069.17 334.933C3065.62 335.147 3062.5 335.595 3059.82 336.278C3057.13 337 3054.84 337.78 3052.92 338.617C3051.01 339.453 3049.48 340.287 3048.33 341.118C3047.18 341.988 3046.34 342.68 3045.81 343.193C3046.39 343.638 3047.31 344.204 3048.55 344.891C3049.8 345.617 3051.42 346.301 3053.43 346.941C3055.43 347.582 3057.8 348.08 3060.55 348.436C3063.3 348.831 3066.45 348.922 3070 348.708ZM3115.94 318.29L3130.08 350.438L3141.69 316.739L3160.86 315.584L3163.35 356.909L3156.76 357.306L3154.97 327.6L3144.48 358.046L3127.11 359.092L3114.23 329.754L3116.03 359.76L3101.06 360.662L3098.57 319.337L3115.94 318.29ZM3200.69 313.184L3224.44 353.228L3217.85 353.625L3213.57 346.43L3185.3 348.133L3181.92 355.79L3164.55 356.837L3183.32 314.23L3200.69 313.184ZM3197.78 319.791L3191.8 333.315L3205.34 332.499L3197.78 319.791ZM3242.61 310.658C3245.13 310.507 3247.57 310.48 3249.94 310.577C3252.27 310.677 3254.41 310.889 3256.35 311.213C3258.3 311.537 3260 311.935 3261.47 312.407C3262.91 312.922 3264.02 313.516 3264.83 314.189L3265.72 329.042C3264.39 330.204 3262.91 331.215 3261.28 332.075C3259.6 332.937 3257.84 333.644 3255.99 334.196C3254.14 334.748 3252.23 335.185 3250.24 335.504C3248.22 335.827 3246.17 336.051 3244.09 336.176L3231.27 336.948L3232.23 352.759L3225.64 353.156L3223.15 311.831L3242.61 310.658ZM3230.95 331.558L3243.77 330.785C3247 330.591 3249.68 330.209 3251.81 329.639C3253.9 329.113 3255.59 328.43 3256.86 327.592C3255.53 326.911 3253.8 326.354 3251.65 325.923C3249.46 325.533 3246.75 325.436 3243.52 325.631L3230.64 326.407L3230.95 331.558ZM3284.21 336.824L3283.8 330.117L3338.9 326.797L3339.31 333.505L3284.21 336.824ZM2784.32 407.395L2801.69 406.348L2785.49 448.799L2768.12 449.846L2773.67 435.205L2757.97 408.982L2764.55 408.585L2776.38 428.25L2784.32 407.395ZM2809.5 405.877L2810.42 421.15L2825.91 404.889L2843.28 403.842L2821.59 426.909L2845.77 445.167L2836.13 445.748L2810.75 426.6L2811.99 447.203L2805.4 447.599L2802.91 406.274L2809.5 405.877ZM2865.44 402.507L2882.81 401.461L2866.61 443.912L2849.24 444.958L2854.79 430.318L2839.09 404.095L2845.68 403.698L2857.5 423.362L2865.44 402.507ZM2935.1 435.457C2932.67 436.966 2929.65 438.311 2926.03 439.49C2922.41 440.67 2918.15 441.408 2913.24 441.704C2909.73 441.915 2906.47 441.811 2903.48 441.39C2900.5 441.009 2897.8 440.45 2895.39 439.714C2892.94 438.979 2890.84 438.124 2889.1 437.147C2887.32 436.212 2885.91 435.296 2884.85 434.398L2883.25 407.866C2884.15 406.89 2885.44 405.931 2887.11 404.989C2888.77 404.047 2890.78 403.164 2893.14 402.341C2895.45 401.561 2898.1 400.88 2901.07 400.301C2904 399.763 2907.2 399.39 2910.68 399.181C2915.51 398.89 2919.8 398.972 2923.56 399.427C2927.27 399.884 2930.44 400.555 2933.05 401.439L2934.04 417.789C2933.17 417.281 2932.05 416.747 2930.7 416.188C2929.34 415.628 2927.73 415.124 2925.86 414.676C2923.99 414.227 2921.86 413.875 2919.48 413.617C2917.11 413.4 2914.46 413.379 2911.54 413.555C2907.99 413.769 2904.87 414.217 2902.19 414.9C2899.51 415.622 2897.21 416.402 2895.3 417.238C2893.38 418.075 2891.85 418.909 2890.7 419.739C2889.55 420.61 2888.71 421.302 2888.18 421.815C2888.77 422.26 2889.68 422.826 2890.93 423.513C2892.17 424.239 2893.8 424.923 2895.8 425.563C2897.8 426.204 2900.17 426.702 2902.92 427.058C2905.67 427.453 2908.82 427.544 2912.37 427.33C2915.29 427.154 2917.91 426.796 2920.24 426.254C2922.58 425.753 2924.65 425.148 2926.45 424.438C2928.25 423.768 2929.79 423.055 2931.07 422.296C2932.34 421.578 2933.39 420.914 2934.19 420.305L2935.1 435.457ZM2941.86 397.903L2943.23 420.662L2968.21 396.316L2974.8 395.919L2977.29 437.244L2970.7 437.641L2969.36 415.481L2944.35 439.228L2937.76 439.625L2935.27 398.3L2941.86 397.903ZM2998.77 394.475L2999.69 409.747L3015.18 393.486L3032.55 392.44L3010.85 415.506L3035.04 433.765L3025.39 434.346L3000.02 415.197L3001.26 435.8L2994.67 436.197L2992.18 394.872L2998.77 394.475ZM3059.93 432.866C3056.41 433.078 3053.16 432.973 3050.17 432.552C3047.18 432.171 3044.48 431.612 3042.08 430.876C3039.63 430.142 3037.53 429.286 3035.79 428.309C3034.01 427.375 3032.59 426.458 3031.54 425.56L3029.94 399.028C3030.84 398.052 3032.13 397.093 3033.79 396.151C3035.46 395.209 3037.47 394.327 3039.82 393.504C3042.14 392.723 3044.79 392.043 3047.76 391.463C3050.69 390.926 3053.89 390.552 3057.37 390.343C3060.96 390.127 3064.26 390.108 3067.28 390.287C3070.26 390.508 3072.95 390.867 3075.34 391.364C3077.69 391.863 3079.73 392.482 3081.46 393.219C3083.19 393.997 3084.58 394.814 3085.64 395.673L3087.24 422.204C3086.3 423.263 3085.02 424.361 3083.41 425.501C3081.8 426.68 3079.86 427.778 3077.59 428.796C3075.33 429.814 3072.74 430.692 3069.82 431.429C3066.86 432.168 3063.56 432.647 3059.93 432.866ZM3059.06 418.492C3062.62 418.278 3065.73 417.81 3068.41 417.087C3071.1 416.404 3073.39 415.625 3075.31 414.748C3077.22 413.872 3078.77 412.997 3079.96 412.124C3081.11 411.293 3081.93 410.623 3082.42 410.112C3081.87 409.664 3080.97 409.077 3079.73 408.351C3078.45 407.667 3076.8 407.024 3074.8 406.423C3072.8 405.823 3070.43 405.325 3067.68 404.929C3064.94 404.574 3061.79 404.503 3058.23 404.717C3054.68 404.931 3051.56 405.379 3048.88 406.062C3046.19 406.785 3043.9 407.564 3041.98 408.401C3040.07 409.237 3038.54 410.071 3037.39 410.902C3036.24 411.773 3035.4 412.464 3034.87 412.977C3035.45 413.423 3036.37 413.989 3037.61 414.675C3038.86 415.401 3040.48 416.085 3042.49 416.726C3044.49 417.366 3046.86 417.865 3049.61 418.22C3052.36 418.615 3055.51 418.706 3059.06 418.492ZM3105 388.074L3119.14 420.222L3130.75 386.523L3149.92 385.368L3152.41 426.693L3145.82 427.09L3144.03 397.384L3133.54 427.83L3116.17 428.876L3103.29 399.538L3105.09 429.544L3090.12 430.446L3087.63 389.121L3105 388.074ZM3189.75 382.968L3213.5 423.012L3206.91 423.409L3202.63 416.214L3174.36 417.917L3170.98 425.574L3153.61 426.621L3172.38 384.015L3189.75 382.968ZM3186.84 389.575L3180.86 403.099L3194.4 402.284L3186.84 389.575ZM3231.67 380.442C3234.19 380.291 3236.63 380.264 3239 380.362C3241.33 380.462 3243.47 380.674 3245.41 380.997C3247.36 381.321 3249.06 381.719 3250.53 382.191C3251.97 382.706 3253.08 383.3 3253.89 383.973L3254.78 398.826C3253.45 399.988 3251.97 400.999 3250.34 401.859C3248.66 402.721 3246.9 403.428 3245.05 403.98C3243.2 404.533 3241.29 404.969 3239.3 405.289C3237.28 405.611 3235.23 405.835 3233.15 405.96L3220.33 406.732L3221.29 422.543L3214.7 422.94L3212.21 381.615L3231.67 380.442ZM3220.01 401.342L3232.83 400.57C3236.06 400.375 3238.74 399.993 3240.87 399.424C3242.96 398.897 3244.65 398.215 3245.92 397.377C3244.59 396.695 3242.86 396.138 3240.71 395.707C3238.52 395.318 3235.81 395.221 3232.58 395.415L3219.7 396.191L3220.01 401.342ZM3278.48 377.623L3302.23 417.667L3295.64 418.064L3291.36 410.868L3263.09 412.571L3259.7 420.229L3242.34 421.275L3261.11 378.669L3278.48 377.623ZM3275.57 384.23L3269.59 397.754L3283.13 396.938L3275.57 384.23ZM3311.54 402.68L3304.95 403.076L3303.33 376.125L3309.92 375.728L3311.54 402.68ZM3314.78 416.43C3314.43 416.691 3314 416.897 3313.49 417.048C3312.98 417.239 3312.45 417.392 3311.89 417.505C3311.3 417.621 3310.76 417.694 3310.28 417.722C3309.77 417.794 3309.37 417.838 3309.09 417.854C3308.81 417.871 3308.43 417.874 3307.95 417.863C3307.43 417.894 3306.91 417.886 3306.38 417.837C3305.82 417.791 3305.27 417.704 3304.75 417.575C3304.22 417.487 3303.77 417.334 3303.4 417.116L3302.9 408.91C3303.21 408.692 3303.62 408.487 3304.13 408.296C3304.64 408.145 3305.17 408.012 3305.73 407.899C3306.28 407.785 3306.82 407.693 3307.33 407.622L3309.67 407.481C3310.19 407.49 3310.73 407.517 3311.3 407.563C3311.86 407.609 3312.42 407.676 3312.99 407.762C3313.52 407.89 3313.95 408.045 3314.28 408.225L3314.78 416.43Z" fill="white"/>
<path d="M3924.8 196L4388 283.367L4327.2 566.113L4206.55 543.356L4126.15 487.152L4061.76 516.047L3864 478.746L3908.55 271.553L3939.49 247.275L3924.8 196Z" fill="#5E5140"/>
<path d="M3991.73 275.372C3991.38 277.259 3990.96 278.809 3990.49 280.023C3990.02 281.237 3989.55 282.207 3989.09 282.935C3988.62 283.701 3988.17 284.267 3987.73 284.633C3987.25 285.031 3986.87 285.326 3986.59 285.518L4005.81 289.127L4007.92 277.923L3991.82 274.9L3991.73 275.372ZM3966.25 281.698C3967.35 281.904 3968.35 281.849 3969.27 281.533C3970.14 281.248 3970.93 280.603 3971.65 279.598C3972.36 278.593 3973.03 277.213 3973.64 275.456C3974.22 273.692 3974.77 271.434 3975.28 268.682L3977.49 256.947L4017.17 264.398L4012.3 290.345L4018.79 291.563L4014.58 313.971L4008.09 312.753L4009.53 305.087L3969.02 297.481L3967.58 305.147L3961.09 303.929L3965.3 281.521L3966.25 281.698ZM4060.99 314.748L4054.5 313.53L4059.37 287.584L4046.22 285.115L4044.67 293.37C4044.2 295.886 4043.58 298.192 4042.82 300.288C4042.02 302.376 4040.89 304.096 4039.41 305.447C4037.93 306.838 4035.99 307.755 4033.58 308.199C4031.17 308.682 4028.1 308.574 4024.36 307.872L4017.76 306.632L4019.09 299.556C4021.33 299.977 4023.1 299.677 4024.39 298.658C4025.63 297.67 4026.54 295.624 4027.13 292.518L4031.89 267.161L4068.62 274.059L4060.99 314.748ZM4097.47 321.598L4100.39 306.03L4087.77 303.661C4086.12 303.351 4084.54 302.993 4083.03 302.587L4069.22 316.295L4062.15 314.966L4076.72 300.426C4074.84 299.624 4073.1 298.688 4071.51 297.616C4069.88 296.537 4068.45 295.291 4067.2 293.878L4069.95 279.253C4070.83 278.686 4072.03 278.24 4073.56 277.916C4075.04 277.624 4076.76 277.439 4078.73 277.361C4080.7 277.283 4082.87 277.343 4085.23 277.543C4087.55 277.735 4089.95 278.064 4092.43 278.529L4111.6 282.127L4103.96 322.816L4097.47 321.598ZM4089.66 293.271C4086.48 292.673 4083.8 292.434 4081.62 292.554C4079.39 292.706 4077.58 293.037 4076.18 293.548C4077.34 294.539 4078.94 295.43 4080.99 296.221C4082.99 297.045 4085.58 297.756 4088.77 298.354L4101.39 300.723L4102.34 295.652L4089.66 293.271ZM4145.77 288.544L4151.66 323.166L4171.13 293.305L4190 296.848L4182.36 337.537L4175.87 336.319L4181.36 307.07L4163.78 334.049L4146.68 330.838L4141.32 299.246L4135.77 328.79L4121.03 326.022L4128.67 285.333L4145.77 288.544ZM4236.94 305.662L4234.28 319.815L4196.19 312.662L4195.56 316.024L4215.96 319.855L4214.97 325.162L4194.56 321.331L4193.86 325.046L4231.96 332.199L4229.3 346.351L4184.72 337.981L4192.36 297.292L4236.94 305.662ZM4245.78 307.322L4243.39 320.059L4265.21 324.156L4267.6 311.419L4274.09 312.637L4266.45 353.326L4259.96 352.108L4262.44 338.898L4240.62 334.802L4238.14 348.011L4231.65 346.793L4239.29 306.104L4245.78 307.322ZM4307.66 361.065L4310.59 345.497L4297.97 343.127C4296.32 342.817 4294.73 342.459 4293.22 342.053L4279.42 355.761L4272.34 354.432L4286.91 339.892C4285.03 339.09 4283.29 338.154 4281.7 337.082C4280.07 336.003 4278.64 334.757 4277.4 333.344L4280.15 318.719C4281.02 318.152 4282.23 317.706 4283.75 317.382C4285.23 317.09 4286.96 316.905 4288.93 316.827C4290.89 316.749 4293.06 316.81 4295.42 317.009C4297.75 317.201 4300.15 317.53 4302.62 317.995L4321.79 321.594L4314.15 362.283L4307.66 361.065ZM4299.86 332.737C4296.67 332.14 4293.99 331.901 4291.81 332.02C4289.58 332.172 4287.77 332.503 4286.37 333.014C4287.53 334.005 4289.13 334.896 4291.18 335.688C4293.19 336.511 4295.78 337.222 4298.96 337.82L4311.58 340.189L4312.54 335.118L4299.86 332.737ZM3963.27 324.484L3976.57 369.103L3970.08 367.885L3967.68 359.864L3939.84 354.638L3934.7 361.242L3917.6 358.031L3946.17 321.273L3963.27 324.484ZM3958.84 330.184L3949.75 341.848L3963.08 344.35L3958.84 330.184ZM4010.45 333.341C4012.92 333.806 4015.3 334.375 4017.57 335.046C4019.81 335.71 4021.83 336.435 4023.64 337.222C4025.44 338.009 4027 338.81 4028.31 339.626C4029.58 340.474 4030.52 341.322 4031.13 342.17L4029.2 352.49C4027.32 353.359 4025.49 354.032 4023.69 354.508C4021.85 354.977 4020.06 355.273 4018.33 355.395C4020.14 356.182 4022.04 357.129 4024.03 358.235C4025.97 359.373 4027.69 360.714 4029.19 362.257L4027.27 372.518C4026.38 373.125 4025.14 373.645 4023.55 374.08C4021.96 374.554 4020.17 374.869 4018.19 375.026C4016.16 375.214 4013.97 375.252 4011.63 375.138C4009.29 375.064 4006.93 374.805 4004.58 374.362L3977.74 369.325L3985.38 328.636L4010.45 333.341ZM3988.56 347.485L4007.08 350.962C4010.26 351.56 4012.96 351.842 4015.16 351.808C4017.32 351.806 4019.11 351.554 4020.55 351.05C4019.43 350.067 4017.88 349.124 4015.89 348.222C4013.86 347.352 4011.25 346.618 4008.07 346.02L3989.49 342.532L3988.56 347.485ZM3986.61 357.864L4006.96 361.684C4010.14 362.282 4012.84 362.544 4015.05 362.471C4017.21 362.43 4018.98 362.131 4020.35 361.573C4019.18 360.622 4017.61 359.695 4015.62 358.793C4013.62 357.93 4011.03 357.199 4007.85 356.602L3987.56 352.793L3986.61 357.864ZM4045.32 355.152L4040.45 381.099L4033.97 379.881L4038.84 353.934L4020.97 350.579L4023.74 335.837L4065.96 343.765L4063.19 358.507L4045.32 355.152ZM4085.04 390.082C4081.58 389.432 4078.46 388.539 4075.66 387.403C4072.85 386.307 4070.37 385.108 4068.21 383.808C4066.02 382.5 4064.19 381.161 4062.74 379.789C4061.24 378.45 4060.09 377.216 4059.28 376.088L4064.19 349.964C4065.3 349.237 4066.78 348.62 4068.63 348.111C4070.47 347.603 4072.64 347.236 4075.12 347.011C4077.56 346.817 4080.29 346.801 4083.31 346.961C4086.29 347.154 4089.48 347.571 4092.91 348.213C4096.44 348.878 4099.65 349.663 4102.54 350.571C4105.37 351.51 4107.89 352.512 4110.09 353.577C4112.25 354.634 4114.08 355.73 4115.58 356.866C4117.07 358.041 4118.22 359.173 4119.03 360.261L4114.13 386.385C4112.96 387.183 4111.45 387.938 4109.61 388.65C4107.76 389.402 4105.61 389.996 4103.17 390.433C4100.73 390.869 4098 391.09 4094.99 391.094C4091.94 391.091 4088.62 390.753 4085.04 390.082ZM4087.7 375.929C4091.2 376.586 4094.34 376.89 4097.11 376.842C4099.88 376.833 4102.3 376.635 4104.37 376.25C4106.43 375.865 4108.15 375.394 4109.52 374.836C4110.84 374.311 4111.8 373.86 4112.4 373.484C4111.97 372.916 4111.25 372.129 4110.22 371.121C4109.14 370.145 4107.7 369.123 4105.91 368.053C4104.11 366.984 4101.93 365.923 4099.36 364.871C4096.78 363.858 4093.75 363.023 4090.25 362.366C4086.75 361.709 4083.61 361.385 4080.85 361.394C4078.07 361.443 4075.65 361.64 4073.59 361.986C4071.53 362.332 4069.84 362.768 4068.52 363.293C4067.2 363.858 4066.21 364.324 4065.57 364.693C4066.04 365.268 4066.79 366.04 4067.83 367.008C4068.86 368.016 4070.27 369.074 4072.05 370.183C4073.84 371.291 4076.02 372.352 4078.6 373.365C4081.17 374.417 4084.2 375.272 4087.7 375.929ZM4141.72 357.99C4144.2 358.455 4146.58 359.023 4148.85 359.694C4151.09 360.358 4153.11 361.084 4154.91 361.871C4156.72 362.657 4158.28 363.459 4159.59 364.275C4160.86 365.123 4161.79 365.971 4162.41 366.819L4159.66 381.443C4158.09 382.246 4156.4 382.866 4154.61 383.303C4152.78 383.733 4150.9 383.99 4148.97 384.076C4147.04 384.161 4145.08 384.118 4143.08 383.945C4141.03 383.765 4138.99 383.484 4136.95 383.1L4124.33 380.73L4121.4 396.298L4114.92 395.08L4122.56 354.391L4141.72 357.99ZM4125.32 375.423L4137.94 377.793C4141.13 378.39 4143.82 378.672 4146.03 378.639C4148.18 378.637 4149.98 378.384 4151.42 377.881C4150.3 376.898 4148.75 375.935 4146.77 374.994C4144.74 374.084 4142.14 373.33 4138.95 372.732L4126.28 370.352L4125.32 375.423ZM4172.12 363.697L4167.91 386.106L4198.07 368.569L4204.55 369.787L4196.91 410.476L4190.43 409.258L4194.52 387.439L4164.48 404.386L4157.99 403.168L4165.63 362.479L4172.12 363.697ZM4228.51 389.547L4223.64 415.494L4217.15 414.276L4222.02 388.329L4204.16 384.974L4206.92 370.232L4249.15 378.16L4246.38 392.902L4228.51 389.547ZM4296.08 386.971L4293.42 401.124L4255.33 393.972L4254.69 397.333L4275.1 401.164L4274.1 406.471L4253.7 402.64L4253 406.355L4291.09 413.508L4288.44 427.66L4243.86 419.29L4251.5 378.601L4296.08 386.971ZM4320.02 406.728L4315.14 432.675L4308.66 431.457L4313.53 405.51L4295.66 402.156L4298.43 387.413L4340.65 395.341L4337.88 410.083L4320.02 406.728ZM3965.13 395.039L3971.03 429.661L3990.49 399.8L4009.36 403.343L4001.72 444.032L3995.23 442.814L4000.73 413.565L3983.15 440.545L3966.04 437.334L3960.68 405.742L3955.14 435.285L3940.39 432.517L3948.03 391.828L3965.13 395.039ZM4031.4 450.214C4027.94 449.565 4024.81 448.672 4022.01 447.536C4019.2 446.439 4016.72 445.241 4014.56 443.941C4012.37 442.633 4010.54 441.293 4009.09 439.922C4007.59 438.582 4006.44 437.348 4005.64 436.22L4010.54 410.097C4011.65 409.37 4013.13 408.752 4014.98 408.244C4016.82 407.736 4018.99 407.369 4021.47 407.144C4023.91 406.95 4026.64 406.934 4029.66 407.094C4032.64 407.286 4035.84 407.704 4039.26 408.346C4042.79 409.01 4046 409.796 4048.89 410.704C4051.72 411.643 4054.24 412.645 4056.44 413.709C4058.6 414.766 4060.43 415.863 4061.93 416.998C4063.42 418.173 4064.57 419.305 4065.38 420.394L4060.48 446.517C4059.31 447.316 4057.8 448.071 4055.96 448.783C4054.11 449.534 4051.96 450.129 4049.52 450.565C4047.08 451.002 4044.35 451.222 4041.34 451.227C4038.29 451.223 4034.97 450.886 4031.4 450.214ZM4034.05 436.062C4037.55 436.719 4040.69 437.023 4043.47 436.974C4046.23 436.965 4048.65 436.768 4050.72 436.383C4052.79 435.997 4054.5 435.526 4055.87 434.969C4057.19 434.443 4058.15 433.993 4058.75 433.617C4058.33 433.049 4057.6 432.261 4056.57 431.254C4055.49 430.278 4054.05 429.255 4052.26 428.186C4050.46 427.117 4048.28 426.056 4045.71 425.003C4043.14 423.99 4040.1 423.156 4036.6 422.499C4033.1 421.842 4029.97 421.518 4027.2 421.527C4024.42 421.575 4022 421.772 4019.94 422.118C4017.88 422.464 4016.19 422.9 4014.87 423.426C4013.55 423.99 4012.56 424.457 4011.93 424.825C4012.39 425.401 4013.14 426.172 4014.18 427.141C4015.21 428.148 4016.62 429.207 4018.4 430.315C4020.19 431.424 4022.37 432.485 4024.95 433.498C4027.52 434.55 4030.55 435.405 4034.05 436.062ZM4075.4 415.742L4071.19 438.15L4101.34 420.614L4107.83 421.832L4100.19 462.521L4093.7 461.303L4097.8 439.484L4067.76 456.431L4061.27 455.213L4068.91 414.524L4075.4 415.742ZM4098.85 415.018C4098.04 415.232 4096.8 415.427 4095.14 415.603C4093.47 415.819 4091.2 415.657 4088.33 415.119C4085.46 414.58 4083.31 413.911 4081.87 413.112C4080.39 412.345 4079.29 411.711 4078.57 411.209L4079.86 404.31C4081.21 405.377 4082.75 406.257 4084.49 406.95C4086.24 407.643 4087.93 408.145 4089.58 408.455C4090.41 408.61 4091.31 408.717 4092.27 408.776C4093.23 408.875 4094.2 408.914 4095.18 408.895C4096.11 408.908 4097.02 408.854 4097.9 408.734C4098.73 408.606 4099.48 408.401 4100.15 408.119L4098.85 415.018ZM4145.91 444.732C4145.55 446.619 4145.14 448.169 4144.67 449.383C4144.2 450.597 4143.73 451.567 4143.27 452.295C4142.8 453.061 4142.35 453.627 4141.91 453.993C4141.43 454.391 4141.05 454.686 4140.77 454.878L4159.99 458.487L4162.1 447.283L4146 444.26L4145.91 444.732ZM4120.42 451.058C4121.52 451.264 4122.53 451.209 4123.45 450.893C4124.31 450.608 4125.11 449.963 4125.82 448.958C4126.54 447.953 4127.21 446.573 4127.82 444.816C4128.4 443.052 4128.94 440.794 4129.46 438.042L4131.66 426.307L4171.35 433.758L4166.48 459.705L4172.97 460.923L4168.76 483.331L4162.27 482.113L4163.71 474.447L4123.2 466.841L4121.76 474.507L4115.27 473.289L4119.48 450.881L4120.42 451.058ZM4224.75 443.785L4222.09 457.937L4184 450.785L4183.37 454.146L4203.77 457.977L4202.77 463.284L4182.37 459.453L4181.67 463.168L4219.77 470.321L4217.11 484.474L4172.53 476.103L4180.17 435.414L4224.75 443.785ZM4248.64 464.022C4248.29 465.909 4247.88 467.459 4247.41 468.673C4246.93 469.887 4246.47 470.857 4246 471.584C4245.53 472.351 4245.08 472.917 4244.65 473.283C4244.17 473.681 4243.78 473.976 4243.5 474.167L4262.73 477.777L4264.83 466.573L4248.73 463.55L4248.64 464.022ZM4223.16 470.347C4224.26 470.554 4225.27 470.499 4226.18 470.182C4227.05 469.898 4227.84 469.253 4228.56 468.248C4229.28 467.243 4229.94 465.862 4230.56 464.106C4231.13 462.342 4231.68 460.084 4232.2 457.332L4234.4 445.597L4274.09 453.048L4269.21 478.995L4275.7 480.213L4271.49 502.621L4265.01 501.403L4266.45 493.737L4225.93 486.131L4224.5 493.797L4218.01 492.579L4222.22 470.17L4223.16 470.347ZM4286.19 482.793L4279.7 481.575L4284.69 455.039L4291.17 456.256L4286.19 482.793ZM4285.98 496.917C4285.58 497.086 4285.12 497.182 4284.58 497.204C4284.04 497.265 4283.49 497.283 4282.93 497.259C4282.32 497.226 4281.78 497.166 4281.31 497.078C4280.79 497.021 4280.4 496.967 4280.12 496.915C4279.85 496.863 4279.48 496.774 4279.01 496.646C4278.5 496.55 4278 496.415 4277.5 496.24C4276.96 496.058 4276.46 495.84 4275.97 495.587C4275.49 495.373 4275.09 495.115 4274.78 494.813L4276.29 486.734C4276.65 486.597 4277.09 486.497 4277.63 486.436C4278.16 486.414 4278.71 486.415 4279.28 486.44C4279.84 486.465 4280.39 486.505 4280.9 486.562L4283.2 486.994C4283.71 487.129 4284.23 487.288 4284.76 487.47C4285.3 487.652 4285.83 487.853 4286.36 488.074C4286.84 488.328 4287.22 488.582 4287.5 488.838L4285.98 496.917Z" fill="white"/>
</svg>
