<svg width="4651" height="743" viewBox="0 0 4651 743" fill="none" xmlns="http://www.w3.org/2000/svg">
<path d="M0 111.772L92.943 0.000976562L194 111.772V742.001H0V111.772Z" fill="#8A6330"/>
<path d="M0 111.772L92.943 0.000976562L194 111.772V742.001H0V111.772Z" fill="#8A6330"/>
<path d="M194 111.772L286.943 0.000976562L388 111.772V742.001H194V111.772Z" fill="#8A6330"/>
<path d="M388 111.772L480.943 0.000976562L582 111.772V742.001H388V111.772Z" fill="#8A6330"/>
<path d="M582 111.772L674.943 0.000976562L776 111.772V742.001H582V111.772Z" fill="#8A6330"/>
<path d="M776 111.772L868.943 0.000976562L970 111.772V742.001H776V111.772Z" fill="#8A6330"/>
<path d="M970 111.772L1062.94 0.000976562L1164 111.772V742.001H970V111.772Z" fill="#8A6330"/>
<path d="M194 128.76L287 20.001V175.277V742.001H194V128.76Z" fill="#9F7B4C"/>
<path d="M400 128.76L493 20.001V175.277V742.001H400V128.76Z" fill="#C9A87D"/>
<path d="M0 128.76L93 20.001V175.277V742.001H0V128.76Z" fill="#C9A87D"/>
<path d="M586 128.76L679 20.001V175.277V742.001H586V128.76Z" fill="#9F7B4C"/>
<path d="M3875 111.772L3967.94 0.000976562L4069 111.772V742.001H3875V111.772Z" fill="#8A6330"/>
<path d="M3875 111.772L3967.94 0.000976562L4069 111.772V742.001H3875V111.772Z" fill="#8A6330"/>
<path d="M4069 111.772L4161.94 0.000976562L4263 111.772V742.001H4069V111.772Z" fill="#8A6330"/>
<path d="M4263 111.772L4355.94 0.000976562L4457 111.772V742.001H4263V111.772Z" fill="#8A6330"/>
<path d="M4457 111.772L4549.94 0.000976562L4651 111.772V742.001H4457V111.772Z" fill="#8A6330"/>
<path d="M4069 128.76L4162 20.001V175.277V742.001H4069V128.76Z" fill="#9F7B4C"/>
<path d="M4275 128.76L4368 20.001V175.277V742.001H4275V128.76Z" fill="#C9A87D"/>
<path d="M3875 128.76L3968 20.001V175.277V742.001H3875V128.76Z" fill="#C9A87D"/>
<path d="M4461 128.76L4554 20.001V175.277V742.001H4461V128.76Z" fill="#9F7B4C"/>
<path d="M3104 111.772L3196.94 0.000976562L3298 111.772V742.001H3104V111.772Z" fill="#8A6330"/>
<path d="M3104 111.772L3196.94 0.000976562L3298 111.772V742.001H3104V111.772Z" fill="#8A6330"/>
<path d="M3298 111.772L3390.94 0.000976562L3492 111.772V742.001H3298V111.772Z" fill="#8A6330"/>
<path d="M3492 111.772L3584.94 0.000976562L3686 111.772V742.001H3492V111.772Z" fill="#8A6330"/>
<path d="M3686 111.772L3778.94 0.000976562L3880 111.772V742.001H3686V111.772Z" fill="#8A6330"/>
<path d="M3298 128.76L3391 20.001V175.277V742.001H3298V128.76Z" fill="#9F7B4C"/>
<path d="M3504 128.76L3597 20.001V175.277V742.001H3504V128.76Z" fill="#C9A87D"/>
<path d="M3104 128.76L3197 20.001V175.277V742.001H3104V128.76Z" fill="#C9A87D"/>
<path d="M3690 128.76L3783 20.001V175.277V742.001H3690V128.76Z" fill="#9F7B4C"/>
<path d="M2328 111.772L2420.94 0.000976562L2522 111.772V742.001H2328V111.772Z" fill="#8A6330"/>
<path d="M2328 111.772L2420.94 0.000976562L2522 111.772V742.001H2328V111.772Z" fill="#8A6330"/>
<path d="M2522 111.772L2614.94 0.000976562L2716 111.772V742.001H2522V111.772Z" fill="#8A6330"/>
<path d="M2716 111.772L2808.94 0.000976562L2910 111.772V742.001H2716V111.772Z" fill="#8A6330"/>
<path d="M2910 111.772L3002.94 0.000976562L3104 111.772V742.001H2910V111.772Z" fill="#8A6330"/>
<path d="M2522 128.76L2615 20.001V175.277V742.001H2522V128.76Z" fill="#9F7B4C"/>
<path d="M2728 128.76L2821 20.001V175.277V742.001H2728V128.76Z" fill="#C9A87D"/>
<path d="M2328 128.76L2421 20.001V175.277V742.001H2328V128.76Z" fill="#C9A87D"/>
<path d="M2914 128.76L3007 20.001V175.277V742.001H2914V128.76Z" fill="#9F7B4C"/>
<path d="M788 128.76L881 20.001V175.277V742.001H788V128.76Z" fill="#C9A87D"/>
<path d="M974 128.76L1067 20.001V175.277V742.001H974V128.76Z" fill="#9F7B4C"/>
<path d="M1164 111.772L1256.94 0.000976562L1358 111.772V742.001H1164V111.772Z" fill="#8A6330"/>
<path d="M1164 111.772L1256.94 0.000976562L1358 111.772V742.001H1164V111.772Z" fill="#8A6330"/>
<path d="M1358 111.772L1450.94 0.000976562L1552 111.772V742.001H1358V111.772Z" fill="#8A6330"/>
<path d="M1552 111.772L1644.94 0.000976562L1746 111.772V742.001H1552V111.772Z" fill="#8A6330"/>
<path d="M1746 111.772L1838.94 0.000976562L1940 111.772V742.001H1746V111.772Z" fill="#8A6330"/>
<path d="M1940 111.772L2032.94 0.000976562L2134 111.772V742.001H1940V111.772Z" fill="#8A6330"/>
<path d="M2134 111.772L2226.94 0.000976562L2328 111.772V742.001H2134V111.772Z" fill="#8A6330"/>
<path d="M1358 128.76L1451 20.001V175.277V742.001H1358V128.76Z" fill="#9F7B4C"/>
<path d="M1564 128.76L1657 20.001V175.277V742.001H1564V128.76Z" fill="#C9A87D"/>
<path d="M1164 128.76L1257 20.001V175.277V742.001H1164V128.76Z" fill="#C9A87D"/>
<path d="M1750 128.76L1843 20.001V175.277V742.001H1750V128.76Z" fill="#9F7B4C"/>
<path d="M1952 128.76L2045 20.001V175.277V742.001H1952V128.76Z" fill="#C9A87D"/>
<path d="M2138 128.76L2231 20.001V175.277V742.001H2138V128.76Z" fill="#9F7B4C"/>
<path d="M87 208.535L565.355 168.001L589 447.04L464.397 457.598L369.317 426.452L314.873 470.268L110.645 487.574L93.3181 283.097L116.426 252.373L87 208.535Z" fill="#5E5140"/>
<path d="M3462 403.274L4039.64 381.001L4050.43 660.832L3899.96 666.633L3787.63 631.873L3719.41 673.596L3472.79 683.105L3464.88 478.048L3494.61 448.217L3462 403.274Z" fill="#D38948"/>
<path d="M176.482 263.689C176.634 265.603 176.641 267.207 176.504 268.502C176.366 269.797 176.169 270.856 175.914 271.679C175.662 272.542 175.373 273.207 175.049 273.674C174.689 274.184 174.398 274.568 174.178 274.826L193.676 273.275L192.772 261.911L176.444 263.21L176.482 263.689ZM153.543 276.468C154.66 276.38 155.618 276.063 156.417 275.517C157.179 275.015 157.776 274.185 158.205 273.028C158.635 271.87 158.916 270.363 159.049 268.507C159.142 266.653 159.078 264.331 158.856 261.54L157.909 249.638L198.162 246.435L200.256 272.752L206.835 272.228L208.643 294.956L202.064 295.48L201.445 287.704L160.355 290.974L160.974 298.749L154.395 299.273L152.586 276.544L153.543 276.468ZM253.632 283.552L247.053 284.075L244.959 257.759L231.621 258.82L232.287 267.193C232.49 269.745 232.5 272.132 232.315 274.354C232.091 276.578 231.444 278.536 230.375 280.226C229.309 281.956 227.674 283.35 225.471 284.408C223.271 285.506 220.277 286.206 216.489 286.507L209.79 287.04L209.219 279.863C211.492 279.682 213.118 278.931 214.096 277.609C215.037 276.33 215.383 274.116 215.132 270.966L213.086 245.247L250.348 242.282L253.632 283.552ZM290.637 280.607L289.38 264.817L276.581 265.836C274.906 265.969 273.286 266.038 271.722 266.042L261.987 282.887L254.81 283.458L265.066 265.608C263.038 265.328 261.116 264.879 259.301 264.261C257.447 263.647 255.736 262.82 254.168 261.781L252.988 246.948C253.689 246.17 254.733 245.424 256.121 244.712C257.472 244.043 259.087 243.413 260.966 242.822C262.845 242.231 264.951 241.722 267.285 241.296C269.579 240.873 271.981 240.561 274.494 240.361L293.932 238.814L297.216 280.084L290.637 280.607ZM275.683 255.314C272.454 255.571 269.803 256.043 267.73 256.729C265.622 257.459 263.959 258.253 262.744 259.112C264.12 259.765 265.9 260.205 268.085 260.433C270.234 260.703 272.923 260.71 276.152 260.453L288.952 259.434L288.543 254.291L275.683 255.314ZM328.593 236.056L343.348 267.927L354.312 234.01L373.452 232.487L376.735 273.757L370.156 274.28L367.796 244.614L357.895 275.256L340.55 276.636L327.101 247.551L329.485 277.516L314.532 278.706L311.248 237.437L328.593 236.056ZM421.066 228.699L422.208 243.053L383.57 246.128L383.841 249.537L404.536 247.89L404.964 253.273L384.27 254.92L384.57 258.688L423.207 255.614L424.35 269.968L379.133 273.566L375.849 232.296L421.066 228.699ZM430.031 227.985L431.059 240.904L453.189 239.144L452.162 226.224L458.741 225.701L462.024 266.97L455.445 267.494L454.379 254.096L432.249 255.857L433.315 269.255L426.736 269.778L423.452 228.509L430.031 227.985ZM503.83 263.644L502.574 247.854L489.774 248.872C488.099 249.006 486.48 249.074 484.915 249.078L475.181 265.924L468.003 266.495L478.26 248.645C476.231 248.365 474.309 247.916 472.495 247.298C470.64 246.683 468.929 245.856 467.362 244.817L466.182 229.984C466.882 229.206 467.926 228.461 469.314 227.749C470.665 227.079 472.28 226.449 474.159 225.858C476.039 225.268 478.145 224.759 480.478 224.332C482.772 223.909 485.175 223.598 487.687 223.398L507.125 221.851L510.409 263.121L503.83 263.644ZM488.877 238.35C485.647 238.607 482.996 239.079 480.924 239.766C478.815 240.495 477.153 241.29 475.937 242.149C477.313 242.802 479.094 243.242 481.279 243.469C483.427 243.74 486.116 243.746 489.346 243.489L502.145 242.471L501.736 237.327L488.877 238.35ZM161.879 318.54L186.395 358.12L179.816 358.643L175.398 351.531L147.167 353.778L143.929 361.499L126.584 362.879L144.533 319.92L161.879 318.54ZM159.098 325.201L153.382 338.838L166.899 337.762L159.098 325.201ZM209.727 314.733C212.239 314.533 214.681 314.459 217.053 314.511C219.385 314.566 221.525 314.737 223.474 315.023C225.423 315.309 227.137 315.675 228.617 316.119C230.06 316.606 231.189 317.178 232.004 317.835L232.836 328.302C231.257 329.632 229.662 330.762 228.05 331.693C226.399 332.627 224.754 333.379 223.114 333.951C225.063 334.238 227.142 334.654 229.353 335.2C231.526 335.79 233.539 336.633 235.392 337.729L236.22 348.136C235.523 348.954 234.465 349.781 233.047 350.616C231.632 351.491 229.988 352.264 228.115 352.934C226.206 353.648 224.108 354.256 221.82 354.759C219.536 355.302 217.198 355.669 214.805 355.859L187.591 358.025L184.308 316.755L209.727 314.733ZM192.31 334.115L211.09 332.621C214.32 332.364 216.994 331.93 219.113 331.32C221.194 330.753 222.863 330.039 224.118 329.177C222.782 328.52 221.037 328.017 218.882 327.667C216.691 327.36 213.98 327.335 210.751 327.592L191.91 329.091L192.31 334.115ZM193.147 344.642L213.782 343C217.012 342.743 219.684 342.29 221.8 341.64C223.878 341.033 225.504 340.282 226.676 339.386C225.303 338.773 223.539 338.291 221.385 337.941C219.234 337.631 216.543 337.604 213.313 337.861L192.738 339.498L193.147 344.642ZM249.1 326.647L251.194 352.964L244.615 353.487L242.521 327.171L224.398 328.613L223.208 313.66L266.033 310.252L267.223 325.205L249.1 326.647ZM296.581 349.954C293.073 350.234 289.819 350.192 286.821 349.828C283.826 349.505 281.117 348.998 278.694 348.308C276.232 347.621 274.121 346.806 272.361 345.863C270.563 344.962 269.128 344.073 268.055 343.196L265.947 316.7C266.831 315.706 268.097 314.723 269.745 313.749C271.393 312.775 273.386 311.854 275.725 310.986C278.027 310.161 280.657 309.43 283.616 308.793C286.538 308.2 289.733 307.765 293.202 307.489C296.791 307.203 300.095 307.121 303.114 307.242C306.097 307.406 308.789 307.713 311.193 308.164C313.556 308.618 315.609 309.197 317.35 309.901C319.094 310.645 320.502 311.436 321.571 312.274L323.68 338.77C322.762 339.846 321.507 340.969 319.915 342.139C318.326 343.349 316.41 344.484 314.167 345.546C311.924 346.607 309.35 347.534 306.443 348.327C303.497 349.123 300.21 349.666 296.581 349.954ZM295.439 335.6C298.988 335.317 302.096 334.789 304.763 334.015C307.433 333.281 309.715 332.458 311.609 331.545C313.502 330.631 315.035 329.727 316.208 328.831C317.344 327.978 318.152 327.292 318.632 326.772C318.076 326.335 317.168 325.765 315.908 325.063C314.612 324.404 312.958 323.793 310.947 323.231C308.936 322.669 306.553 322.216 303.797 321.874C301.044 321.571 297.893 321.561 294.345 321.843C290.796 322.126 287.686 322.634 285.016 323.368C282.349 324.142 280.067 324.966 278.171 325.839C276.274 326.712 274.758 327.575 273.622 328.428C272.489 329.32 271.662 330.028 271.142 330.551C271.739 330.985 272.665 331.533 273.921 332.196C275.181 332.898 276.818 333.55 278.832 334.152C280.846 334.755 283.23 335.207 285.982 335.51C288.738 335.852 291.89 335.882 295.439 335.6ZM342.877 304.138C345.389 303.938 347.831 303.864 350.202 303.916C352.534 303.972 354.674 304.142 356.623 304.429C358.572 304.715 360.286 305.08 361.766 305.524C363.209 306.011 364.338 306.583 365.153 307.241L366.333 322.074C365.023 323.262 363.561 324.301 361.947 325.192C360.293 326.086 358.546 326.827 356.707 327.414C354.867 328.002 352.959 328.475 350.981 328.833C348.963 329.194 346.918 329.457 344.844 329.622L332.045 330.641L333.301 346.431L326.722 346.954L323.438 305.685L342.877 304.138ZM331.617 325.258L344.416 324.239C347.646 323.982 350.32 323.549 352.438 322.939C354.52 322.372 356.188 321.657 357.444 320.795C356.108 320.139 354.361 319.616 352.203 319.226C350.008 318.879 347.296 318.834 344.067 319.091L331.207 320.114L331.617 325.258ZM373.708 301.685L375.516 324.413L400.024 299.591L406.604 299.067L409.887 340.337L403.308 340.861L401.547 318.73L376.991 342.954L370.412 343.478L367.128 302.208L373.708 301.685ZM434.899 311.863L436.993 338.18L430.414 338.704L428.32 312.387L410.197 313.829L409.008 298.876L451.832 295.469L453.022 310.421L434.899 311.863ZM499.433 291.681L500.576 306.036L461.938 309.11L462.209 312.519L482.904 310.873L483.332 316.256L462.637 317.902L462.937 321.67L501.575 318.596L502.717 332.951L457.5 336.549L454.216 295.279L499.433 291.681ZM527.711 304.479L529.805 330.795L523.226 331.319L521.132 305.002L503.01 306.444L501.82 291.491L544.644 288.084L545.834 303.037L527.711 304.479ZM182.156 386.144L196.91 418.015L207.875 384.098L227.014 382.575L230.298 423.845L223.719 424.368L221.358 394.702L211.457 425.344L194.112 426.724L180.663 397.639L183.047 427.604L168.094 428.794L164.811 387.525L182.156 386.144ZM260.555 422.039C257.046 422.318 253.792 422.276 250.794 421.913C247.799 421.589 245.09 421.083 242.668 420.393C240.205 419.706 238.094 418.891 236.334 417.947C234.537 417.047 233.102 416.158 232.029 415.28L229.92 388.784C230.804 387.791 232.07 386.807 233.718 385.834C235.366 384.86 237.36 383.939 239.698 383.071C242 382.245 244.63 381.515 247.589 380.878C250.511 380.284 253.707 379.849 257.176 379.573C260.764 379.288 264.068 379.205 267.087 379.326C270.07 379.49 272.763 379.798 275.166 380.249C277.529 380.702 279.582 381.282 281.323 381.986C283.068 382.73 284.475 383.52 285.545 384.358L287.653 410.855C286.735 411.931 285.48 413.054 283.888 414.224C282.299 415.434 280.383 416.569 278.14 417.63C275.897 418.692 273.323 419.619 270.417 420.412C267.47 421.208 264.183 421.75 260.555 422.039ZM259.412 407.684C262.961 407.402 266.069 406.874 268.736 406.1C271.406 405.366 273.688 404.542 275.582 403.629C277.475 402.716 279.008 401.812 280.181 400.916C281.317 400.063 282.125 399.377 282.605 398.857C282.049 398.42 281.141 397.85 279.881 397.148C278.585 396.488 276.931 395.878 274.92 395.315C272.909 394.753 270.526 394.301 267.77 393.958C265.017 393.656 261.867 393.646 258.318 393.928C254.769 394.21 251.66 394.719 248.989 395.453C246.322 396.227 244.041 397.05 242.144 397.923C240.247 398.797 238.731 399.66 237.595 400.512C236.462 401.405 235.636 402.113 235.115 402.636C235.712 403.07 236.638 403.618 237.895 404.28C239.154 404.983 240.791 405.635 242.805 406.237C244.819 406.839 247.203 407.292 249.956 407.594C252.711 407.937 255.864 407.967 259.412 407.684ZM293.991 377.246L295.799 399.974L320.308 375.152L326.887 374.628L330.17 415.898L323.591 416.421L321.83 394.291L297.274 418.515L290.695 419.039L287.411 377.769L293.991 377.246ZM316.439 370.404C315.71 370.823 314.567 371.335 313.01 371.941C311.456 372.586 309.224 373.024 306.313 373.256C303.402 373.488 301.149 373.406 299.552 373.011C297.919 372.66 296.69 372.336 295.864 372.041L295.307 365.043C296.886 365.72 298.606 366.165 300.469 366.378C302.332 366.591 304.101 366.631 305.775 366.497C306.613 366.431 307.505 366.3 308.452 366.104C309.403 365.948 310.349 365.732 311.29 365.457C312.194 365.224 313.054 364.935 313.869 364.589C314.645 364.247 315.316 363.852 315.882 363.406L316.439 370.404ZM369.635 386.756C369.787 388.67 369.795 390.274 369.657 391.569C369.519 392.864 369.323 393.923 369.067 394.746C368.815 395.609 368.526 396.274 368.203 396.741C367.842 397.251 367.551 397.636 367.331 397.894L386.83 396.342L385.925 384.978L369.597 386.277L369.635 386.756ZM346.696 399.536C347.813 399.447 348.771 399.13 349.57 398.585C350.333 398.083 350.929 397.253 351.358 396.095C351.788 394.937 352.069 393.43 352.202 391.574C352.296 389.721 352.231 387.398 352.009 384.607L351.062 372.705L391.315 369.502L393.409 395.819L399.988 395.295L401.796 418.024L395.217 418.547L394.599 410.772L353.508 414.041L354.127 421.816L347.548 422.34L345.739 399.612L346.696 399.536ZM445.475 365.193L446.617 379.547L407.979 382.622L408.251 386.031L428.945 384.384L429.373 389.767L408.679 391.414L408.979 395.182L447.617 392.108L448.759 406.462L403.542 410.06L400.258 368.79L445.475 365.193ZM473.837 378.465C473.989 380.379 473.997 381.983 473.859 383.278C473.721 384.573 473.524 385.632 473.269 386.455C473.017 387.318 472.728 387.983 472.404 388.45C472.044 388.96 471.753 389.344 471.533 389.603L491.031 388.051L490.127 376.687L473.799 377.986L473.837 378.465ZM450.898 391.244C452.015 391.156 452.973 390.839 453.772 390.294C454.535 389.792 455.131 388.962 455.56 387.804C455.99 386.646 456.271 385.139 456.404 383.283C456.497 381.429 456.433 379.107 456.211 376.316L455.264 364.414L495.517 361.211L497.611 387.528L504.19 387.004L505.998 409.732L499.419 410.256L498.8 402.48L457.71 405.75L458.329 413.525L451.75 414.049L449.941 391.321L450.898 391.244ZM514.989 386.747L508.41 387.27L506.268 360.355L512.847 359.832L514.989 386.747ZM518.486 400.433C518.146 400.7 517.721 400.915 517.212 401.076C516.707 401.276 516.178 401.439 515.626 401.563C515.034 401.69 514.499 401.773 514.021 401.811C513.506 401.892 513.108 401.944 512.829 401.966C512.55 401.988 512.17 401.998 511.688 401.997C511.17 402.038 510.648 402.039 510.124 402.001C509.559 401.965 509.011 401.889 508.48 401.77C507.952 401.692 507.499 401.548 507.121 401.337L506.469 393.143C506.773 392.918 507.177 392.705 507.683 392.504C508.191 392.344 508.722 392.201 509.274 392.077C509.826 391.953 510.359 391.85 510.874 391.769L513.207 391.583C513.729 391.582 514.272 391.599 514.836 391.634C515.401 391.67 515.967 391.725 516.535 391.8C517.066 391.918 517.499 392.065 517.834 392.238L518.486 400.433Z" fill="white"/>
<path d="M458 514.812L782.329 495.906L923.773 506.458L1106.66 477.001L1119.93 704.615L795.596 723.52L633.597 714.748L471.268 742.425L458 514.812Z" fill="#641B1C"/>
<path d="M500.579 577.364L517.948 576.318L501.751 618.769L484.383 619.815L489.932 605.175L474.227 578.952L480.815 578.555L492.639 598.219L500.579 577.364ZM525.762 575.847L526.682 591.119L542.172 574.858L559.54 573.812L537.848 596.878L562.03 615.137L552.388 615.718L527.01 596.569L528.251 617.172L521.663 617.569L519.174 576.244L525.762 575.847ZM581.702 572.477L599.07 571.43L582.874 613.881L565.505 614.928L571.055 600.287L555.349 574.064L561.938 573.667L573.762 593.332L581.702 572.477ZM651.366 605.427C648.932 606.936 645.907 608.28 642.292 609.46C638.676 610.639 634.413 611.377 629.502 611.673C625.988 611.885 622.736 611.78 619.745 611.359C616.757 610.978 614.058 610.419 611.65 609.683C609.201 608.949 607.106 608.093 605.364 607.116C603.585 606.182 602.167 605.265 601.111 604.367L599.512 577.835C600.415 576.859 601.7 575.9 603.366 574.958C605.033 574.016 607.043 573.134 609.398 572.311C611.715 571.53 614.359 570.85 617.33 570.27C620.263 569.733 623.466 569.359 626.94 569.15C631.771 568.859 636.064 568.941 639.818 569.396C643.532 569.854 646.698 570.524 649.316 571.408L650.301 587.759C649.429 587.25 648.315 586.716 646.959 586.157C645.603 585.597 643.989 585.094 642.119 584.645C640.249 584.197 638.124 583.844 635.744 583.587C633.367 583.369 630.72 583.348 627.806 583.524C624.252 583.738 621.134 584.186 618.45 584.869C615.768 585.592 613.471 586.371 611.558 587.208C609.645 588.044 608.112 588.878 606.96 589.709C605.81 590.58 604.97 591.271 604.44 591.784C605.028 592.23 605.944 592.796 607.187 593.482C608.433 594.208 610.057 594.892 612.059 595.533C614.062 596.173 616.436 596.672 619.182 597.027C621.931 597.422 625.082 597.513 628.636 597.299C631.55 597.123 634.174 596.765 636.505 596.224C638.839 595.723 640.907 595.117 642.707 594.408C644.51 593.738 646.05 593.024 647.327 592.266C648.606 591.548 649.648 590.884 650.453 590.274L651.366 605.427ZM658.119 567.873L659.491 590.631L684.472 566.285L691.06 565.888L693.549 607.213L686.961 607.61L685.626 585.45L660.609 609.198L654.021 609.595L651.531 568.27L658.119 567.873ZM739.258 604.459L732.67 604.856L731.083 578.504L717.727 579.309L718.232 587.693C718.386 590.249 718.349 592.635 718.122 594.853C717.855 597.073 717.171 599.018 716.069 600.687C714.97 602.396 713.309 603.759 711.086 604.774C708.866 605.83 705.859 606.472 702.066 606.7L695.358 607.104L694.925 599.917C697.201 599.78 698.84 599.06 699.844 597.757C700.81 596.497 701.198 594.29 701.008 591.136L699.456 565.382L736.769 563.134L739.258 604.459ZM760.707 561.692L761.627 576.964L777.117 560.703L794.486 559.657L772.793 582.723L796.975 600.982L787.333 601.563L761.955 582.414L763.197 603.017L756.608 603.414L754.119 562.089L760.707 561.692ZM821.868 600.083C818.354 600.295 815.102 600.19 812.111 599.77C809.123 599.389 806.424 598.83 804.016 598.093C801.567 597.359 799.472 596.504 797.73 595.527C795.951 594.592 794.533 593.676 793.477 592.778L791.878 566.246C792.781 565.27 794.066 564.311 795.732 563.369C797.399 562.427 799.409 561.544 801.764 560.721C804.081 559.94 806.725 559.26 809.696 558.68C812.629 558.143 815.832 557.77 819.306 557.56C822.899 557.344 826.204 557.325 829.22 557.504C832.199 557.725 834.886 558.084 837.28 558.581C839.634 559.081 841.675 559.699 843.402 560.437C845.132 561.214 846.524 562.032 847.577 562.89L849.176 589.422C848.238 590.48 846.962 591.579 845.347 592.718C843.735 593.897 841.798 594.996 839.535 596.014C837.272 597.031 834.68 597.909 831.759 598.646C828.798 599.385 825.501 599.864 821.868 600.083ZM821.002 585.709C824.555 585.495 827.673 585.027 830.354 584.304C833.038 583.622 835.335 582.842 837.246 581.966C839.157 581.089 840.707 580.214 841.897 579.341C843.049 578.511 843.87 577.84 844.36 577.33C843.812 576.882 842.915 576.295 841.669 575.568C840.386 574.884 838.744 574.242 836.744 573.641C834.745 573.04 832.37 572.542 829.622 572.146C826.875 571.791 823.725 571.72 820.172 571.934C816.618 572.148 813.5 572.597 810.816 573.279C808.134 574.002 805.837 574.782 803.924 575.618C802.011 576.455 800.478 577.288 799.326 578.119C798.176 578.99 797.336 579.682 796.806 580.195C797.394 580.64 798.31 581.206 799.553 581.892C800.799 582.619 802.423 583.302 804.425 583.943C806.428 584.584 808.802 585.082 811.548 585.437C814.297 585.833 817.448 585.924 821.002 585.709ZM866.939 555.292L881.078 587.44L892.692 553.74L911.858 552.586L914.347 593.911L907.759 594.307L905.97 564.601L895.482 595.047L878.113 596.094L865.226 566.756L867.033 596.761L852.06 597.663L849.571 556.338L866.939 555.292ZM951.69 550.186L975.441 590.23L968.853 590.627L964.573 583.431L936.304 585.134L932.918 592.792L915.55 593.838L934.322 551.232L951.69 550.186ZM948.782 556.793L942.805 570.316L956.34 569.501L948.782 556.793ZM993.614 547.66C996.13 547.508 998.572 547.481 1000.94 547.579C1003.27 547.679 1005.41 547.891 1007.35 548.215C1009.3 548.538 1011 548.936 1012.47 549.409C1013.91 549.924 1015.02 550.517 1015.83 551.19L1016.72 566.044C1015.39 567.206 1013.91 568.217 1012.28 569.076C1010.6 569.938 1008.84 570.646 1006.99 571.198C1005.14 571.75 1003.23 572.186 1001.24 572.506C999.218 572.828 997.168 573.052 995.091 573.177L982.275 573.949L983.227 589.761L976.639 590.158L974.149 548.833L993.614 547.66ZM981.95 568.559L994.767 567.787C998.001 567.592 1000.68 567.21 1002.81 566.641C1004.9 566.114 1006.59 565.432 1007.86 564.594C1006.53 563.912 1004.8 563.356 1002.65 562.924C1000.46 562.535 997.75 562.438 994.516 562.633L981.64 563.409L981.95 568.559ZM1035.21 573.826L1034.8 567.118L1089.9 563.799L1090.31 570.506L1035.21 573.826ZM535.318 644.396L552.686 643.35L536.49 685.801L519.122 686.847L524.671 672.207L508.966 645.984L515.554 645.587L527.378 665.252L535.318 644.396ZM560.5 642.879L561.42 658.151L576.911 641.89L594.279 640.844L572.587 663.91L596.769 682.169L587.126 682.75L561.749 663.602L562.99 684.204L556.402 684.601L553.912 643.276L560.5 642.879ZM616.44 639.509L633.809 638.462L617.612 680.913L600.244 681.96L605.794 667.319L590.088 641.096L596.676 640.7L608.5 660.364L616.44 639.509ZM686.104 672.459C683.671 673.968 680.646 675.312 677.03 676.492C673.415 677.672 669.151 678.409 664.24 678.705C660.727 678.917 657.475 678.812 654.484 678.391C651.495 678.01 648.797 677.452 646.388 676.715C643.94 675.981 641.845 675.126 640.103 674.149C638.323 673.214 636.905 672.297 635.85 671.399L634.251 644.867C635.154 643.891 636.439 642.932 638.105 641.99C639.771 641.049 641.782 640.166 644.137 639.343C646.454 638.562 649.098 637.882 652.068 637.302C655.001 636.765 658.205 636.392 661.678 636.182C666.51 635.891 670.802 635.973 674.557 636.428C678.271 636.886 681.437 637.557 684.055 638.441L685.04 654.791C684.168 654.283 683.054 653.749 681.697 653.189C680.341 652.63 678.728 652.126 676.858 651.677C674.987 651.229 672.862 650.876 670.483 650.619C668.105 650.402 665.459 650.381 662.544 650.556C658.991 650.77 655.872 651.219 653.188 651.901C650.507 652.624 648.21 653.403 646.297 654.24C644.383 655.077 642.851 655.91 641.699 656.741C640.549 657.612 639.709 658.304 639.179 658.816C639.767 659.262 640.682 659.828 641.926 660.514C643.172 661.241 644.796 661.924 646.798 662.565C648.8 663.206 651.175 663.704 653.921 664.059C656.67 664.455 659.821 664.545 663.374 664.331C666.289 664.156 668.912 663.797 671.244 663.256C673.578 662.755 675.645 662.149 677.446 661.44C679.249 660.77 680.789 660.056 682.065 659.298C683.345 658.58 684.387 657.916 685.191 657.306L686.104 672.459ZM692.858 634.905L694.229 657.664L719.21 633.317L725.798 632.92L728.288 674.245L721.7 674.642L720.365 652.482L695.348 676.23L688.76 676.627L686.27 635.302L692.858 634.905ZM749.767 631.476L750.687 646.749L766.177 630.488L783.545 629.441L761.853 652.507L786.035 670.766L776.393 671.347L751.015 652.199L752.256 672.801L745.668 673.198L743.178 631.873L749.767 631.476ZM810.927 669.868C807.414 670.079 804.162 669.975 801.171 669.554C798.183 669.173 795.484 668.614 793.075 667.878C790.627 667.144 788.532 666.288 786.79 665.311C785.01 664.376 783.593 663.46 782.537 662.562L780.938 636.03C781.841 635.054 783.126 634.095 784.792 633.153C786.459 632.211 788.469 631.328 790.824 630.505C793.141 629.725 795.785 629.044 798.756 628.465C801.689 627.927 804.892 627.554 808.366 627.345C811.959 627.128 815.264 627.109 818.28 627.288C821.259 627.51 823.945 627.869 826.339 628.366C828.694 628.865 830.735 629.483 832.462 630.221C834.192 630.998 835.584 631.816 836.637 632.674L838.236 659.206C837.298 660.264 836.021 661.363 834.407 662.502C832.795 663.681 830.858 664.78 828.595 665.798C826.332 666.816 823.74 667.693 820.819 668.43C817.858 669.17 814.561 669.649 810.927 669.868ZM810.061 655.494C813.615 655.28 816.733 654.811 819.414 654.089C822.098 653.406 824.395 652.626 826.306 651.75C828.216 650.873 829.767 649.999 830.956 649.126C832.108 648.295 832.93 647.624 833.42 647.114C832.872 646.666 831.975 646.079 830.729 645.352C829.446 644.668 827.804 644.026 825.804 643.425C823.804 642.824 821.43 642.326 818.681 641.931C815.935 641.575 812.785 641.505 809.232 641.719C805.678 641.933 802.559 642.381 799.876 643.064C797.194 643.786 794.897 644.566 792.984 645.402C791.071 646.239 789.538 647.073 788.386 647.903C787.236 648.774 786.396 649.466 785.866 649.979C786.454 650.424 787.37 650.99 788.613 651.677C789.859 652.403 791.483 653.087 793.485 653.727C795.487 654.368 797.862 654.866 800.608 655.222C803.357 655.617 806.508 655.708 810.061 655.494ZM855.999 625.076L870.138 657.224L881.752 623.524L900.917 622.37L903.407 663.695L896.819 664.092L895.029 634.386L884.541 664.831L867.173 665.878L854.285 636.54L856.093 666.545L841.12 667.447L838.63 626.122L855.999 625.076ZM940.75 619.97L964.501 660.014L957.913 660.411L953.633 653.215L925.364 654.918L921.978 662.576L904.61 663.622L923.381 621.016L940.75 619.97ZM937.842 626.577L931.864 640.101L945.4 639.285L937.842 626.577ZM982.674 617.444C985.189 617.293 987.632 617.266 990.002 617.363C992.333 617.463 994.469 617.675 996.412 617.999C998.355 618.323 1000.06 618.721 1001.53 619.193C1002.97 619.708 1004.08 620.302 1004.89 620.975L1005.78 635.828C1004.45 636.99 1002.97 638.001 1001.34 638.861C999.664 639.723 997.904 640.43 996.054 640.982C994.204 641.534 992.286 641.97 990.302 642.29C988.278 642.613 986.227 642.836 984.151 642.961L971.334 643.734L972.287 659.545L965.699 659.942L963.209 618.617L982.674 617.444ZM971.01 638.343L983.826 637.571C987.061 637.376 989.742 636.994 991.872 636.425C993.964 635.899 995.646 635.216 996.918 634.378C995.595 633.696 993.858 633.14 991.708 632.708C989.521 632.319 986.81 632.222 983.576 632.417L970.699 633.193L971.01 638.343ZM1029.48 614.624L1053.23 654.669L1046.64 655.065L1042.36 647.87L1014.09 649.573L1010.7 657.23L993.336 658.277L1012.11 615.671L1029.48 614.624ZM1026.57 621.231L1020.59 634.755L1034.13 633.94L1026.57 621.231ZM1062.54 639.681L1055.95 640.078L1054.33 613.127L1060.92 612.73L1062.54 639.681ZM1065.78 653.432C1065.43 653.693 1065 653.899 1064.49 654.05C1063.98 654.241 1063.45 654.393 1062.89 654.507C1062.3 654.623 1061.76 654.695 1061.28 654.724C1060.77 654.795 1060.37 654.839 1060.09 654.856C1059.81 654.873 1059.43 654.876 1058.95 654.865C1058.43 654.896 1057.91 654.887 1057.38 654.839C1056.82 654.793 1056.27 654.705 1055.75 654.577C1055.22 654.488 1054.77 654.335 1054.4 654.117L1053.9 645.912C1054.21 645.693 1054.62 645.488 1055.13 645.297C1055.64 645.146 1056.17 645.014 1056.73 644.9C1057.28 644.787 1057.82 644.695 1058.33 644.623L1060.67 644.483C1061.19 644.491 1061.73 644.519 1062.3 644.565C1062.86 644.611 1063.42 644.677 1063.99 644.763C1064.52 644.892 1064.95 645.046 1065.28 645.227L1065.78 653.432Z" fill="white"/>
<path d="M1093.93 171.001L1618.45 254.004L1645.07 291.001L1672.45 320.501L1645.07 501.276L1374.01 462.14L1238.48 442.572L1170.71 432.788L1119.45 404.504L1058.14 415.31L1093.93 171.001Z" fill="#BC6C25"/>
<path d="M4114.93 136.001L4575.93 209.7L4598.76 246.141L4622.38 275.092L4595.11 455.882L4356.81 421.545L4237.66 404.377L4178.09 395.792L4133.38 368.469L4079.14 380.31L4114.93 136.001Z" fill="#B09571"/>
<path d="M3343.52 291.084L2677.77 174.152L2632.55 196.831L2589.03 212.696L2559.28 380.367L2902.01 444.076L3073.38 475.931L3159.06 491.858L3231.16 485.68L3301.83 517.246L3343.52 291.084Z" fill="#6A6734"/>
<path d="M1172.25 220.459L1169.67 235.541L1188.45 223.228L1205.6 226.159L1179.23 243.688L1198.63 266.968L1189.11 265.341L1168.75 240.923L1165.27 261.268L1158.77 260.156L1165.74 219.348L1172.25 220.459ZM1228.1 230.003L1225.52 245.084L1244.3 232.772L1261.45 235.703L1235.08 253.232L1254.48 276.511L1244.96 274.884L1224.6 250.466L1221.12 270.812L1214.62 269.7L1221.59 228.891L1228.1 230.003ZM1290.72 240.705L1304.75 285.101L1298.24 283.989L1295.71 276.009L1267.79 271.239L1262.76 277.926L1245.6 274.995L1273.57 237.774L1290.72 240.705ZM1286.39 246.477L1277.49 258.288L1290.86 260.572L1286.39 246.477ZM1308.51 285.744L1298.81 284.087L1316.9 269.404L1305.19 243.177L1321.99 246.048L1330.53 265.16L1333.46 248.008L1339.97 249.12L1337.02 266.389L1351.44 251.08L1368.6 254.011L1348.52 275.294L1360.44 294.618L1350.98 293.001L1336.48 269.524L1333 289.928L1326.49 288.817L1330 268.294L1308.51 285.744ZM1389.92 273.36C1389.6 275.253 1389.21 276.81 1388.76 278.031C1388.31 279.252 1387.86 280.23 1387.41 280.965C1386.95 281.739 1386.51 282.313 1386.08 282.686C1385.6 283.092 1385.23 283.393 1384.95 283.589L1404.23 286.883L1406.15 275.646L1390.01 272.887L1389.92 273.36ZM1364.55 280.102C1365.65 280.291 1366.66 280.219 1367.57 279.888C1368.43 279.589 1369.21 278.931 1369.91 277.914C1370.61 276.898 1371.26 275.507 1371.84 273.74C1372.39 271.967 1372.9 269.7 1373.37 266.94L1375.38 255.171L1415.18 261.972L1410.74 287.995L1417.24 289.107L1413.4 311.581L1406.9 310.469L1408.21 302.781L1367.58 295.838L1366.27 303.526L1359.76 302.415L1363.6 279.94L1364.55 280.102ZM1443.88 309.484C1440.41 308.891 1437.26 308.05 1434.45 306.96C1431.62 305.909 1429.12 304.751 1426.94 303.486C1424.73 302.215 1422.88 300.905 1421.41 299.557C1419.89 298.243 1418.72 297.028 1417.89 295.913L1422.37 269.713C1423.47 268.968 1424.94 268.326 1426.78 267.788C1428.61 267.249 1430.77 266.847 1433.25 266.581C1435.69 266.348 1438.41 266.287 1441.44 266.398C1444.42 266.541 1447.62 266.906 1451.05 267.493C1454.6 268.099 1457.82 268.832 1460.72 269.692C1463.57 270.585 1466.1 271.546 1468.32 272.574C1470.5 273.596 1472.35 274.662 1473.86 275.773C1475.37 276.923 1476.54 278.036 1477.37 279.112L1472.89 305.312C1471.74 306.129 1470.25 306.909 1468.42 307.651C1466.58 308.433 1464.44 309.062 1462.01 309.538C1459.57 310.015 1456.85 310.28 1453.84 310.334C1450.78 310.38 1447.46 310.097 1443.88 309.484ZM1446.3 295.29C1449.81 295.889 1452.95 296.142 1455.73 296.048C1458.5 295.994 1460.91 295.757 1462.97 295.338C1465.03 294.919 1466.74 294.42 1468.1 293.84C1469.41 293.293 1470.36 292.827 1470.95 292.441C1470.52 291.88 1469.78 291.105 1468.73 290.114C1467.64 289.156 1466.19 288.157 1464.38 287.117C1462.57 286.077 1460.37 285.052 1457.78 284.042C1455.19 283.072 1452.14 282.286 1448.63 281.687C1445.12 281.087 1441.98 280.815 1439.21 280.869C1436.43 280.963 1434.02 281.2 1431.97 281.579C1429.91 281.959 1428.23 282.422 1426.92 282.969C1425.6 283.555 1424.63 284.038 1423.99 284.417C1424.47 284.984 1425.23 285.744 1426.28 286.695C1427.33 287.686 1428.76 288.721 1430.56 289.8C1432.37 290.879 1434.56 291.904 1437.16 292.875C1439.74 293.885 1442.79 294.69 1446.3 295.29ZM1497.95 276.116L1504.41 310.637L1523.38 280.461L1542.31 283.695L1535.34 324.504L1528.83 323.392L1533.84 294.057L1516.71 321.32L1499.56 318.39L1493.68 286.889L1488.61 316.52L1473.83 313.993L1480.8 273.185L1497.95 276.116ZM1569.52 288.345L1586.67 291.276L1561.25 328.931L1544.09 326L1552.83 313.006L1543.5 283.898L1550 285.01L1557.05 306.848L1569.52 288.345ZM1106.54 321.84C1103.07 321.247 1099.92 320.406 1097.11 319.316C1094.28 318.265 1091.78 317.107 1089.6 315.842C1087.39 314.571 1085.54 313.261 1084.07 311.914C1082.55 310.599 1081.37 309.384 1080.55 308.269L1085.03 282.069C1086.13 281.324 1087.6 280.682 1089.43 280.144C1091.27 279.606 1093.43 279.203 1095.91 278.937C1098.34 278.704 1101.07 278.643 1104.1 278.754C1107.08 278.898 1110.28 279.263 1113.71 279.849C1117.26 280.455 1120.48 281.188 1123.38 282.049C1126.23 282.941 1128.76 283.902 1130.98 284.93C1133.16 285.952 1135.01 287.018 1136.52 288.129C1138.03 289.28 1139.2 290.392 1140.03 291.468L1135.55 317.668C1134.4 318.485 1132.91 319.265 1131.08 320.007C1129.24 320.789 1127.1 321.418 1124.67 321.895C1122.23 322.371 1119.51 322.636 1116.5 322.69C1113.44 322.736 1110.12 322.453 1106.54 321.84ZM1108.96 307.646C1112.47 308.245 1115.61 308.498 1118.39 308.404C1121.16 308.35 1123.57 308.113 1125.63 307.694C1127.69 307.275 1129.4 306.776 1130.76 306.196C1132.07 305.649 1133.02 305.183 1133.61 304.797C1133.18 304.237 1132.44 303.461 1131.39 302.47C1130.3 301.512 1128.85 300.513 1127.04 299.473C1125.23 298.434 1123.03 297.409 1120.44 296.398C1117.85 295.428 1114.8 294.643 1111.29 294.043C1107.78 293.443 1104.64 293.171 1101.87 293.225C1099.09 293.319 1096.68 293.556 1094.63 293.935C1092.57 294.315 1090.89 294.778 1089.58 295.325C1088.26 295.912 1087.29 296.394 1086.65 296.773C1087.13 297.341 1087.89 298.1 1088.94 299.051C1089.99 300.042 1091.42 301.077 1093.22 302.156C1095.03 303.235 1097.22 304.26 1099.82 305.231C1102.4 306.241 1105.45 307.046 1108.96 307.646ZM1165.65 306.741C1167.7 307.091 1169.71 307.517 1171.7 308.018C1173.68 308.52 1175.57 309.126 1177.35 309.837C1179.13 310.587 1180.81 311.462 1182.38 312.461C1183.92 313.454 1185.26 314.597 1186.42 315.891L1184.07 329.671C1183.2 330.253 1182.03 330.702 1180.55 331.018C1179.03 331.367 1177.29 331.597 1175.32 331.707C1173.35 331.817 1171.21 331.795 1168.88 331.641C1166.51 331.48 1164.09 331.187 1161.6 330.763L1136.47 326.468L1143.44 285.659L1146.4 286.165L1146.42 286.046L1189.47 293.404L1187.05 307.598L1147.54 300.847L1147.08 303.567L1165.65 306.741ZM1145.4 313.385L1164.03 316.569C1167.22 317.114 1169.92 317.333 1172.13 317.223C1174.3 317.147 1176.07 316.861 1177.45 316.367C1176.31 315.442 1174.71 314.62 1172.64 313.901C1170.57 313.222 1167.93 312.609 1164.74 312.064L1146.17 308.89L1145.4 313.385ZM1237.32 301.58L1234.9 315.774L1196.69 309.246L1196.12 312.617L1216.58 316.114L1215.67 321.436L1195.21 317.94L1194.57 321.666L1232.78 328.194L1230.35 342.389L1185.64 334.748L1192.61 293.94L1237.32 301.58ZM1261.55 321.424C1261.22 323.316 1260.84 324.873 1260.38 326.094C1259.93 327.316 1259.48 328.294 1259.03 329.028C1258.57 329.803 1258.13 330.376 1257.7 330.749C1257.23 331.155 1256.85 331.456 1256.57 331.652L1275.85 334.947L1277.77 323.71L1261.63 320.951L1261.55 321.424ZM1236.17 328.165C1237.27 328.354 1238.28 328.283 1239.19 327.951C1240.05 327.652 1240.83 326.994 1241.53 325.978C1242.24 324.961 1242.88 323.57 1243.47 321.803C1244.01 320.03 1244.52 317.763 1244.99 315.003L1247 303.234L1286.81 310.036L1282.36 336.058L1288.87 337.17L1285.03 359.644L1278.52 358.533L1279.83 350.844L1239.2 343.901L1237.89 351.59L1231.38 350.478L1235.22 328.004L1236.17 328.165ZM1315.75 314.982L1332.91 317.913L1307.48 355.568L1290.33 352.637L1299.06 339.643L1289.73 310.535L1296.24 311.647L1303.28 333.485L1315.75 314.982ZM1392.04 365.635C1389.33 366.551 1386.08 367.172 1382.29 367.499C1378.5 367.825 1374.18 367.574 1369.33 366.745C1365.86 366.153 1362.72 365.311 1359.9 364.221C1357.08 363.171 1354.58 362.013 1352.4 360.748C1350.18 359.476 1348.33 358.167 1346.86 356.819C1345.34 355.504 1344.17 354.289 1343.34 353.175L1347.82 326.974C1348.92 326.229 1350.39 325.588 1352.23 325.049C1354.06 324.511 1356.22 324.109 1358.7 323.843C1361.14 323.609 1363.87 323.548 1366.89 323.659C1369.87 323.803 1373.07 324.168 1376.5 324.754C1381.27 325.569 1385.44 326.625 1388.99 327.922C1392.5 329.212 1395.43 330.586 1397.78 332.042L1395.02 348.188C1394.29 347.494 1393.32 346.721 1392.13 345.868C1390.94 345.015 1389.48 344.157 1387.76 343.295C1386.04 342.433 1384.05 341.606 1381.79 340.815C1379.53 340.062 1376.96 339.44 1374.08 338.948C1370.57 338.349 1367.43 338.076 1364.66 338.131C1361.89 338.224 1359.47 338.461 1357.42 338.841C1355.37 339.22 1353.68 339.684 1352.37 340.231C1351.05 340.817 1350.08 341.3 1349.45 341.678C1349.92 342.246 1350.68 343.005 1351.74 343.957C1352.78 344.947 1354.21 345.982 1356.01 347.062C1357.82 348.141 1360.02 349.166 1362.61 350.137C1365.2 351.147 1368.25 351.952 1371.75 352.551C1374.63 353.043 1377.27 353.291 1379.66 353.294C1382.05 353.336 1384.2 353.217 1386.11 352.935C1388.02 352.693 1389.68 352.348 1391.1 351.9C1392.51 351.492 1393.67 351.082 1394.6 350.672L1392.04 365.635ZM1425.79 333.784C1428.27 334.209 1430.66 334.738 1432.94 335.372C1435.19 335.999 1437.22 336.692 1439.04 337.449C1440.86 338.206 1442.43 338.982 1443.75 339.776C1445.03 340.603 1445.99 341.436 1446.61 342.274L1444.85 352.624C1442.99 353.523 1441.16 354.226 1439.37 354.732C1437.54 355.231 1435.76 355.555 1434.03 355.706C1435.85 356.463 1437.76 357.379 1439.77 358.452C1441.73 359.558 1443.48 360.871 1445 362.39L1443.25 372.68C1442.37 373.302 1441.14 373.842 1439.56 374.303C1437.97 374.803 1436.19 375.147 1434.21 375.336C1432.18 375.558 1430 375.631 1427.66 375.556C1425.31 375.52 1422.95 375.3 1420.59 374.896L1393.68 370.298L1400.65 329.489L1425.79 333.784ZM1404.14 348.284L1422.71 351.458C1425.9 352.003 1428.6 352.241 1430.8 352.172C1432.96 352.134 1434.75 351.852 1436.18 351.325C1435.05 350.361 1433.48 349.444 1431.48 348.574C1429.43 347.737 1426.81 347.046 1423.61 346.5L1404.98 343.316L1404.14 348.284ZM1402.36 358.694L1422.76 362.18C1425.95 362.726 1428.66 362.944 1430.87 362.835C1433.03 362.758 1434.79 362.43 1436.15 361.85C1434.97 360.918 1433.38 360.017 1431.37 359.148C1429.37 358.317 1426.76 357.63 1423.57 357.084L1403.23 353.607L1402.36 358.694ZM1495.67 345.725L1493.24 359.92L1455.04 353.391L1454.46 356.762L1474.93 360.259L1474.02 365.582L1453.55 362.085L1452.92 365.811L1491.12 372.34L1488.7 386.534L1443.98 378.894L1450.96 338.085L1495.67 345.725ZM1500.16 388.494L1490.46 386.836L1508.56 372.154L1496.85 345.927L1513.64 348.797L1522.19 367.909L1525.12 350.757L1531.62 351.869L1528.67 369.139L1543.1 353.83L1560.25 356.76L1540.18 378.044L1552.09 397.367L1542.63 395.75L1528.14 372.273L1524.65 392.678L1518.14 391.566L1521.65 371.043L1500.16 388.494ZM1567.95 358.077L1564.11 380.551L1593.97 362.524L1600.48 363.635L1593.51 404.444L1587 403.332L1590.74 381.449L1560.98 398.885L1554.47 397.774L1561.45 356.965L1567.95 358.077ZM1609.36 365.153L1605.52 387.627L1635.39 369.6L1641.89 370.712L1634.92 411.52L1628.41 410.408L1632.15 388.526L1602.39 405.962L1595.88 404.85L1602.86 364.042L1609.36 365.153ZM1632.8 364.046C1631.99 364.273 1630.76 364.488 1629.1 364.691C1627.44 364.935 1625.17 364.81 1622.29 364.318C1619.41 363.827 1617.25 363.193 1615.8 362.418C1614.3 361.675 1613.19 361.059 1612.46 360.569L1613.64 353.65C1615.01 354.694 1616.56 355.549 1618.32 356.214C1620.07 356.878 1621.77 357.352 1623.43 357.635C1624.26 357.777 1625.16 357.869 1626.12 357.913C1627.08 357.995 1628.05 358.019 1629.03 357.984C1629.97 357.981 1630.87 357.912 1631.75 357.778C1632.58 357.637 1633.33 357.419 1633.99 357.126L1632.8 364.046ZM1238.87 414.453C1235.4 413.861 1232.26 413.019 1229.44 411.929C1226.62 410.879 1224.12 409.721 1221.94 408.456C1219.72 407.184 1217.88 405.875 1216.4 404.527C1214.88 403.212 1213.71 401.997 1212.89 400.883L1217.36 374.682C1218.47 373.937 1219.93 373.296 1221.77 372.757C1223.61 372.219 1225.77 371.817 1228.25 371.551C1230.68 371.317 1233.41 371.256 1236.43 371.367C1239.41 371.511 1242.62 371.876 1246.05 372.462C1249.6 373.069 1252.82 373.802 1255.72 374.662C1258.57 375.555 1261.1 376.515 1263.32 377.544C1265.5 378.565 1267.34 379.632 1268.86 380.743C1270.37 381.893 1271.54 383.006 1272.37 384.081L1267.89 410.281C1266.74 411.099 1265.24 411.878 1263.41 412.621C1261.57 413.402 1259.44 414.031 1257 414.508C1254.57 414.985 1251.84 415.25 1248.83 415.303C1245.78 415.35 1242.46 415.067 1238.87 414.453ZM1241.3 400.259C1244.81 400.859 1247.95 401.112 1250.72 401.018C1253.49 400.963 1255.91 400.727 1257.97 400.308C1260.03 399.889 1261.74 399.389 1263.09 398.81C1264.4 398.263 1265.36 397.796 1265.95 397.411C1265.52 396.85 1264.78 396.074 1263.73 395.084C1262.64 394.126 1261.18 393.127 1259.37 392.087C1257.56 391.047 1255.36 390.022 1252.78 389.012C1250.18 388.041 1247.13 387.256 1243.62 386.656C1240.11 386.057 1236.97 385.784 1234.21 385.839C1231.43 385.932 1229.02 386.169 1226.96 386.549C1224.91 386.928 1223.23 387.392 1221.92 387.939C1220.6 388.525 1219.62 389.008 1218.99 389.387C1219.46 389.954 1220.22 390.713 1221.28 391.665C1222.33 392.655 1223.75 393.69 1225.56 394.77C1227.36 395.849 1229.56 396.874 1232.15 397.845C1234.74 398.855 1237.79 399.66 1241.3 400.259ZM1306.57 398.63L1279.78 394.052L1275.33 420.075L1268.82 418.963L1275.8 378.154L1309.09 383.844L1306.57 398.63ZM1336.27 388.488L1353.42 391.419L1328 429.075L1310.85 426.144L1319.58 413.149L1310.25 384.042L1316.76 385.153L1323.8 406.992L1336.27 388.488ZM1373.86 394.911C1376.34 395.335 1378.73 395.864 1381.01 396.498C1383.26 397.126 1385.29 397.818 1387.11 398.575C1388.93 399.332 1390.5 400.108 1391.82 400.903C1393.1 401.73 1394.06 402.562 1394.68 403.4L1392.18 418.067C1390.62 418.896 1388.94 419.544 1387.16 420.01C1385.34 420.469 1383.46 420.757 1381.53 420.874C1379.61 420.992 1377.64 420.98 1375.63 420.84C1373.59 420.694 1371.54 420.446 1369.49 420.095L1356.84 417.933L1354.17 433.546L1347.66 432.435L1354.64 391.626L1373.86 394.911ZM1357.75 412.61L1370.4 414.772C1373.6 415.318 1376.29 415.556 1378.5 415.486C1380.65 415.449 1382.45 415.167 1383.88 414.64C1382.74 413.675 1381.18 412.738 1379.18 411.829C1377.14 410.953 1374.52 410.242 1371.33 409.696L1358.61 407.523L1357.75 412.61ZM1442.55 406.649L1440.12 420.843L1401.92 414.314L1401.34 417.685L1421.8 421.182L1420.9 426.505L1400.43 423.008L1399.8 426.734L1438 433.263L1435.58 447.457L1390.86 439.817L1397.84 399.008L1442.55 406.649ZM1478.61 462.724L1472.11 461.613L1473.42 453.924L1437.94 447.86L1444.91 407.052L1451.41 408.163L1446.97 434.186L1469.44 438.027L1473.89 412.004L1480.39 413.115L1475.95 439.138L1482.45 440.25L1478.61 462.724Z" fill="white"/>
<path d="M1794 365.292L2190.76 276.383L2399.17 229.68L2450.5 360.901L2405.62 433.098L2454.07 474.671L1959.86 585.418L1927.56 571.78L1848.9 610.283L1814.51 456.817L1823.26 432.526L1794 365.292Z" fill="#DDA15E"/>
<path d="M1831.3 440.226L1834.7 455.144L1847.33 436.576L1864.3 432.713L1846.65 459.006L1873.49 473.079L1864.07 475.224L1835.91 460.468L1840.49 480.593L1834.06 482.058L1824.87 441.692L1831.3 440.226ZM1916.98 463.177L1910.54 464.642L1904.68 438.901L1891.63 441.872L1893.5 450.062C1894.07 452.558 1894.42 454.919 1894.56 457.144C1894.66 459.378 1894.3 461.408 1893.48 463.235C1892.68 465.1 1891.26 466.715 1889.23 468.079C1887.21 469.483 1884.35 470.606 1880.65 471.45L1874.09 472.942L1872.49 465.921C1874.72 465.415 1876.22 464.438 1877 462.989C1877.74 461.588 1877.77 459.347 1877.06 456.266L1871.34 431.11L1907.78 422.81L1916.98 463.177ZM1934.68 416.686L1951.64 412.823L1942.58 457.346L1925.62 461.209L1928.71 445.86L1908.94 422.548L1915.37 421.083L1930.24 438.557L1934.68 416.686ZM1981.46 423.634C1983.48 423.172 1985.51 422.793 1987.53 422.496C1989.56 422.199 1991.53 422.037 1993.45 422.009C1995.38 422.021 1997.27 422.187 1999.11 422.507C2000.9 422.836 2002.59 423.376 2004.15 424.127L2007.26 437.758C2006.67 438.629 2005.76 439.493 2004.52 440.349C2003.25 441.254 2001.73 442.134 1999.95 442.99C1998.18 443.845 1996.19 444.647 1993.98 445.396C1991.73 446.154 1989.38 446.813 1986.92 447.372L1962.06 453.034L1952.87 412.667L1955.79 412.001L1955.77 411.884L1998.36 402.186L2001.55 416.227L1962.47 425.126L1963.09 427.817L1981.46 423.634ZM1965.3 437.528L1983.73 433.332C1986.88 432.612 1989.46 431.779 1991.46 430.831C1993.43 429.932 1994.96 428.989 1996.05 428.002C1994.64 427.585 1992.84 427.44 1990.66 427.569C1988.48 427.736 1985.81 428.18 1982.65 428.899L1964.28 433.082L1965.3 437.528ZM2007.89 400.014L2010.77 412.651L2032.42 407.722L2029.54 395.085L2035.98 393.62L2045.17 433.986L2038.73 435.452L2035.75 422.347L2014.1 427.276L2017.09 440.381L2010.65 441.846L2001.46 401.479L2007.89 400.014ZM2049.43 390.556L2054.49 412.787L2075.17 384.695L2081.6 383.229L2090.8 423.596L2084.36 425.061L2079.43 403.415L2058.62 430.923L2052.19 432.388L2042.99 392.022L2049.43 390.556ZM2090.39 381.228L2093.79 396.147L2106.42 377.578L2123.39 373.715L2105.74 400.008L2132.58 414.082L2123.16 416.226L2095 401.47L2099.58 421.595L2093.15 423.06L2083.96 382.694L2090.39 381.228ZM2152.34 367.122L2182.3 402.759L2175.87 404.224L2170.47 397.823L2142.86 404.11L2140.77 412.217L2123.8 416.081L2135.38 370.985L2152.34 367.122ZM2150.55 374.114L2146.86 388.431L2160.08 385.421L2150.55 374.114ZM2240.4 389.531L2233.96 390.996L2228.1 365.255L2215.05 368.226L2216.92 376.416C2217.49 378.912 2217.84 381.273 2217.98 383.498C2218.08 385.732 2217.72 387.762 2216.9 389.588C2216.1 391.454 2214.68 393.069 2212.65 394.433C2210.63 395.836 2207.77 396.96 2204.07 397.803L2197.51 399.295L2195.91 392.275C2198.14 391.769 2199.64 390.791 2200.42 389.342C2201.16 387.942 2201.19 385.7 2200.49 382.619L2194.76 357.463L2231.2 349.164L2240.4 389.531ZM2239.96 347.17L2242.84 359.806L2248.1 358.607L2246.65 352.231C2247.32 351.216 2248.25 350.144 2249.43 349.014C2250.57 347.893 2252 346.788 2253.72 345.699C2255.41 344.657 2257.41 343.647 2259.74 342.667C2262.03 341.735 2264.65 340.932 2267.62 340.257C2270.66 339.564 2273.43 339.138 2275.94 338.977C2278.42 338.864 2280.64 338.911 2282.62 339.118C2284.56 339.372 2286.29 339.758 2287.8 340.275C2289.32 340.792 2290.62 341.358 2291.7 341.973L2298.01 369.703C2297.38 370.709 2296.51 371.767 2295.41 372.88C2294.31 373.992 2292.92 375.088 2291.24 376.168C2289.52 377.258 2287.5 378.292 2285.18 379.272C2282.86 380.251 2280.16 381.092 2277.08 381.794C2274.07 382.478 2271.31 382.88 2268.8 383.002C2266.28 383.123 2264.01 383.046 2261.98 382.771C2259.95 382.534 2258.18 382.157 2256.67 381.64C2255.16 381.123 2253.92 380.563 2252.97 379.961L2251.43 373.233L2246.17 374.432L2249.15 387.536L2242.72 389.002L2233.53 348.635L2239.96 347.17ZM2273.88 367.753C2276.65 367.123 2279.02 366.294 2281 365.269C2282.99 364.243 2284.65 363.187 2286.01 362.099C2287.37 361.051 2288.43 360.03 2289.18 359.037C2289.95 358.083 2290.52 357.318 2290.88 356.744C2290.3 356.382 2289.46 355.938 2288.36 355.41C2287.25 354.882 2285.86 354.421 2284.17 354.026C2282.49 353.67 2280.53 353.459 2278.3 353.393C2276.08 353.365 2273.58 353.667 2270.81 354.298C2268.04 354.928 2265.67 355.737 2263.67 356.723C2261.69 357.749 2260.02 358.786 2258.66 359.834C2257.31 360.922 2256.25 361.942 2255.48 362.897C2254.71 363.851 2254.15 364.615 2253.79 365.19C2254.36 365.551 2255.2 365.996 2256.31 366.524C2257.42 367.091 2258.82 367.552 2260.5 367.908C2262.19 368.302 2264.15 368.533 2266.38 368.599C2268.61 368.666 2271.11 368.384 2273.88 367.753ZM2321.21 346.267C2323.24 345.805 2325.27 345.426 2327.29 345.129C2329.32 344.832 2331.29 344.669 2333.21 344.642C2335.14 344.654 2337.03 344.82 2338.87 345.14C2340.66 345.469 2342.34 346.009 2343.91 346.76L2347.01 360.391C2346.43 361.262 2345.52 362.126 2344.28 362.982C2343.01 363.887 2341.49 364.767 2339.71 365.622C2337.94 366.478 2335.95 367.28 2333.74 368.029C2331.49 368.787 2329.14 369.446 2326.68 370.005L2301.82 375.667L2292.63 335.3L2295.55 334.634L2295.52 334.517L2338.11 324.819L2341.31 338.86L2302.23 347.759L2302.85 350.45L2321.21 346.267ZM2305.06 360.161L2323.48 355.965C2326.64 355.245 2329.22 354.412 2331.22 353.464C2333.19 352.565 2334.72 351.622 2335.81 350.635C2334.4 350.218 2332.6 350.073 2330.42 350.202C2328.24 350.369 2325.57 350.813 2322.41 351.532L2304.04 355.715L2305.06 360.161ZM2347.65 322.647L2352.72 344.878L2373.39 316.785L2379.83 315.32L2389.02 355.687L2382.59 357.152L2377.66 335.506L2356.85 363.014L2350.41 364.479L2341.22 324.112L2347.65 322.647ZM2409.67 323.908L2415.54 349.649L2409.1 351.115L2403.24 325.374L2385.51 329.41L2382.18 314.785L2424.07 305.246L2427.4 319.872L2409.67 323.908ZM1874.42 501.175L1877.81 516.093L1890.45 497.525L1907.41 493.661L1889.77 519.955L1916.6 534.028L1907.18 536.173L1879.02 521.417L1883.61 541.542L1877.17 543.007L1867.98 502.64L1874.42 501.175ZM1941.02 529.084C1937.58 529.866 1934.36 530.293 1931.34 530.365C1928.33 530.476 1925.57 530.365 1923.08 530.031C1920.54 529.705 1918.34 529.203 1916.46 528.523C1914.55 527.891 1913 527.218 1911.81 526.504L1905.91 500.587C1906.64 499.477 1907.76 498.321 1909.25 497.12C1910.74 495.919 1912.58 494.721 1914.77 493.525C1916.92 492.377 1919.42 491.275 1922.26 490.219C1925.06 489.211 1928.16 488.32 1931.56 487.548C1935.07 486.748 1938.33 486.191 1941.33 485.876C1944.31 485.609 1947.01 485.525 1949.46 485.625C1951.86 485.734 1953.98 486.012 1955.8 486.458C1957.63 486.943 1959.14 487.523 1960.32 488.198L1966.22 514.114C1965.47 515.312 1964.39 516.604 1962.98 517.991C1961.58 519.417 1959.85 520.816 1957.78 522.189C1955.72 523.563 1953.3 524.851 1950.54 526.054C1947.74 527.266 1944.57 528.276 1941.02 529.084ZM1937.82 515.044C1941.29 514.253 1944.29 513.283 1946.82 512.133C1949.35 511.022 1951.49 509.879 1953.24 508.703C1954.98 507.526 1956.36 506.411 1957.4 505.355C1958.4 504.348 1959.1 503.552 1959.5 502.969C1958.89 502.616 1957.9 502.183 1956.56 501.67C1955.18 501.204 1953.45 500.838 1951.38 500.571C1949.31 500.304 1946.89 500.199 1944.11 500.257C1941.35 500.354 1938.23 500.798 1934.75 501.588C1931.28 502.379 1928.28 503.329 1925.74 504.44C1923.22 505.59 1921.08 506.734 1919.32 507.871C1917.57 509.008 1916.2 510.081 1915.2 511.088C1914.2 512.134 1913.49 512.954 1913.05 513.546C1913.7 513.89 1914.7 514.299 1916.04 514.774C1917.38 515.287 1919.1 515.697 1921.18 516.003C1923.26 516.309 1925.68 516.413 1928.45 516.316C1931.22 516.258 1934.35 515.834 1937.82 515.044ZM1997.49 488.534L1970.98 494.569L1976.85 520.31L1970.41 521.776L1961.22 481.409L1994.16 473.909L1997.49 488.534ZM2017.71 484.421C2018.14 486.293 2018.38 487.879 2018.43 489.181C2018.48 490.482 2018.44 491.558 2018.3 492.409C2018.18 493.3 2017.99 493.999 2017.73 494.508C2017.45 495.065 2017.22 495.487 2017.04 495.774L2036.11 491.431L2033.58 480.316L2017.61 483.953L2017.71 484.421ZM1996.85 500.37C1997.95 500.121 1998.85 499.67 1999.56 499.015C2000.24 498.409 2000.71 497.502 2000.97 496.294C2001.23 495.087 2001.29 493.555 2001.16 491.699C2000.98 489.851 2000.58 487.562 1999.96 484.832L1997.31 473.19L2036.68 464.225L2042.54 489.966L2048.98 488.501L2054.04 510.731L2047.61 512.197L2045.87 504.592L2005.68 513.744L2007.42 521.349L2000.98 522.814L1995.92 500.583L1996.85 500.37ZM2081.42 454.037L2111.38 489.675L2104.95 491.14L2099.55 484.738L2071.94 491.026L2069.85 499.133L2052.88 502.996L2064.46 457.9L2081.42 454.037ZM2079.63 461.029L2075.94 475.347L2089.16 472.336L2079.63 461.029ZM2162.21 435.64L2165.41 449.68L2127.62 458.286L2128.38 461.621L2148.62 457.012L2149.82 462.277L2129.58 466.886L2130.42 470.572L2168.21 461.966L2171.41 476.007L2127.18 486.078L2117.99 445.711L2162.21 435.64ZM2208.78 425.037L2211.97 439.078L2174.18 447.684L2174.94 451.018L2195.18 446.409L2196.38 451.674L2176.14 456.283L2176.98 459.969L2214.77 451.363L2217.97 465.404L2173.74 475.475L2164.55 435.108L2208.78 425.037ZM2185.41 426.48C2185.12 426.794 2184.73 427.067 2184.25 427.3C2183.78 427.571 2183.28 427.808 2182.75 428.011C2182.18 428.222 2181.66 428.381 2181.19 428.487C2180.7 428.642 2180.31 428.75 2180.04 428.812C2179.76 428.874 2179.39 428.939 2178.91 429.007C2178.41 429.122 2177.89 429.199 2177.36 429.236C2176.8 429.283 2176.25 429.285 2175.71 429.245C2175.17 429.243 2174.7 429.166 2174.3 429.011L2172.74 422.167C2173.01 421.901 2173.38 421.632 2173.85 421.36C2174.33 421.128 2174.83 420.911 2175.36 420.708C2175.89 420.506 2176.4 420.327 2176.9 420.173L2179.18 419.653C2179.7 419.577 2180.24 419.516 2180.8 419.469C2181.37 419.423 2181.93 419.396 2182.51 419.389C2183.05 419.429 2183.5 419.512 2183.86 419.636L2185.41 426.48ZM2198.87 423.416C2198.57 423.73 2198.18 424.003 2197.7 424.236C2197.23 424.507 2196.73 424.744 2196.2 424.947C2195.64 425.158 2195.12 425.317 2194.65 425.423C2194.15 425.578 2193.77 425.686 2193.49 425.748C2193.22 425.81 2192.85 425.875 2192.37 425.943C2191.86 426.058 2191.35 426.135 2190.82 426.172C2190.26 426.219 2189.7 426.221 2189.16 426.181C2188.63 426.179 2188.16 426.102 2187.75 425.947L2186.2 419.103C2186.46 418.837 2186.83 418.568 2187.3 418.296C2187.78 418.064 2188.29 417.847 2188.82 417.644C2189.35 417.442 2189.86 417.263 2190.36 417.109L2192.64 416.589C2193.15 416.513 2193.69 416.452 2194.26 416.405C2194.82 416.359 2195.39 416.332 2195.96 416.325C2196.5 416.365 2196.95 416.448 2197.31 416.572L2198.87 423.416ZM2269.96 411.104L2273.16 425.145L2235.37 433.75L2236.13 437.085L2256.37 432.476L2257.57 437.741L2237.33 442.35L2238.17 446.036L2275.96 437.43L2279.16 451.471L2234.93 461.542L2225.74 421.175L2269.96 411.104ZM2299.94 420.154C2300.37 422.026 2300.61 423.613 2300.66 424.914C2300.71 426.216 2300.66 427.292 2300.53 428.143C2300.4 429.033 2300.22 429.732 2299.96 430.241C2299.68 430.798 2299.45 431.22 2299.27 431.508L2318.34 427.165L2315.81 416.049L2299.84 419.686L2299.94 420.154ZM2279.08 436.104C2280.17 435.855 2281.08 435.403 2281.79 434.749C2282.47 434.142 2282.94 433.235 2283.2 432.028C2283.46 430.82 2283.52 429.288 2283.38 427.432C2283.21 425.585 2282.81 423.296 2282.19 420.566L2279.54 408.924L2318.91 399.958L2324.77 425.699L2331.21 424.234L2336.27 446.465L2329.83 447.93L2328.1 440.325L2287.91 449.477L2289.64 457.082L2283.21 458.548L2278.15 436.317L2279.08 436.104ZM2370.15 430.75L2366.64 415.305L2354.12 418.156C2352.48 418.529 2350.88 418.83 2349.34 419.06L2342.13 437.131L2335.11 438.73L2342.69 419.589C2340.64 419.604 2338.67 419.436 2336.79 419.086C2334.87 418.745 2333.05 418.173 2331.35 417.37L2328.05 402.862C2328.63 401.991 2329.56 401.103 2330.83 400.199C2332.07 399.342 2333.58 398.486 2335.35 397.63C2337.12 396.775 2339.14 395.968 2341.38 395.21C2343.59 394.461 2345.93 393.807 2348.38 393.247L2367.4 388.918L2376.59 429.285L2370.15 430.75ZM2351.71 407.873C2348.55 408.592 2346 409.441 2344.05 410.419C2342.06 411.444 2340.53 412.47 2339.45 413.495C2340.91 413.943 2342.74 414.122 2344.93 414.032C2347.1 413.991 2349.76 413.61 2352.92 412.891L2365.44 410.04L2364.29 405.009L2351.71 407.873ZM2397.2 397.515L2403.06 423.256L2396.63 424.722L2390.76 398.981L2373.04 403.017L2369.71 388.391L2411.59 378.853L2414.93 393.479L2397.2 397.515Z" fill="white"/>
<path d="M3534.77 468.33C3534.86 470.248 3534.82 471.852 3534.64 473.142C3534.46 474.432 3534.23 475.484 3533.95 476.298C3533.67 477.152 3533.36 477.807 3533.02 478.264C3532.64 478.762 3532.34 479.136 3532.11 479.387L3551.65 478.471L3551.11 467.083L3534.75 467.851L3534.77 468.33ZM3511.43 480.357C3512.55 480.305 3513.52 480.019 3514.34 479.5C3515.11 479.023 3515.74 478.213 3516.2 477.07C3516.67 475.927 3517 474.43 3517.19 472.579C3517.35 470.73 3517.36 468.406 3517.23 465.61L3516.67 453.683L3557 451.791L3558.24 478.162L3564.83 477.852L3565.9 500.627L3559.31 500.937L3558.94 493.145L3517.77 495.077L3518.13 502.868L3511.54 503.177L3510.47 480.402L3511.43 480.357ZM3602.84 449.641L3626.06 489.997L3619.46 490.307L3615.28 483.055L3586.99 484.382L3583.5 491.993L3566.12 492.809L3585.46 450.456L3602.84 449.641ZM3599.84 456.208L3593.69 469.652L3607.23 469.016L3599.84 456.208ZM3648.8 475.716C3647.39 476.343 3645.77 476.859 3643.95 477.265C3642.13 477.671 3640.08 477.927 3637.8 478.034C3633.17 478.251 3629.31 477.972 3626.23 477.195C3623.11 476.461 3620.81 475.627 3619.32 474.696L3618.12 448.924L3624.71 448.615L3625.34 462.1C3626.65 462.6 3628.37 463 3630.5 463.3C3632.64 463.64 3635.31 463.735 3638.5 463.585C3640.66 463.484 3642.53 463.216 3644.11 462.781C3645.66 462.389 3647 461.905 3648.13 461.332L3647.48 447.547L3654.08 447.238L3656.02 488.592L3649.42 488.901L3648.8 475.716ZM3663.04 446.817L3663.65 459.763L3685.83 458.723L3685.22 445.777L3691.81 445.468L3693.75 486.822L3687.16 487.131L3686.53 473.706L3664.35 474.746L3664.98 488.171L3658.39 488.481L3656.45 447.126L3663.04 446.817ZM3728.84 485.777C3725.32 485.942 3722.07 485.794 3719.09 485.333C3716.11 484.913 3713.41 484.318 3711.02 483.55C3708.58 482.783 3706.49 481.9 3704.77 480.9C3703 479.941 3701.59 479.006 3700.55 478.094L3699.3 451.543C3700.22 450.579 3701.52 449.638 3703.2 448.718C3704.87 447.798 3706.9 446.943 3709.26 446.151C3711.59 445.401 3714.24 444.756 3717.22 444.216C3720.16 443.718 3723.37 443.387 3726.84 443.224C3730.44 443.055 3733.74 443.08 3736.76 443.299C3739.73 443.56 3742.42 443.955 3744.8 444.484C3747.15 445.014 3749.18 445.66 3750.9 446.42C3752.62 447.221 3754 448.057 3755.04 448.929L3756.29 475.48C3755.34 476.526 3754.04 477.607 3752.42 478.725C3750.79 479.882 3748.84 480.955 3746.56 481.943C3744.28 482.93 3741.68 483.773 3738.75 484.471C3735.78 485.171 3732.48 485.607 3728.84 485.777ZM3728.17 471.393C3731.72 471.226 3734.84 470.799 3737.54 470.112C3740.23 469.466 3742.54 468.717 3744.46 467.866C3746.38 467.015 3747.94 466.161 3749.14 465.303C3750.31 464.488 3751.14 463.828 3751.63 463.324C3751.09 462.869 3750.2 462.27 3748.97 461.527C3747.69 460.826 3746.06 460.162 3744.07 459.535C3742.08 458.907 3739.71 458.378 3736.96 457.946C3734.22 457.554 3731.07 457.441 3727.52 457.608C3723.96 457.775 3720.84 458.182 3718.15 458.829C3715.45 459.515 3713.15 460.264 3711.22 461.075C3709.3 461.886 3707.76 462.7 3706.59 463.515C3705.43 464.37 3704.58 465.051 3704.05 465.557C3704.63 466.01 3705.54 466.588 3706.77 467.291C3708.01 468.034 3709.62 468.739 3711.61 469.406C3713.61 470.073 3715.97 470.603 3718.72 470.995C3721.46 471.427 3724.61 471.56 3728.17 471.393ZM3802.43 440.279L3803.11 454.663L3764.39 456.479L3764.55 459.896L3785.29 458.923L3785.54 464.317L3764.8 465.29L3764.98 469.065L3803.7 467.249L3804.37 481.634L3759.06 483.759L3757.12 442.404L3802.43 440.279ZM3844.75 453.791C3844.84 455.709 3844.79 457.313 3844.61 458.603C3844.43 459.893 3844.2 460.945 3843.92 461.759C3843.64 462.613 3843.33 463.268 3842.99 463.725C3842.61 464.223 3842.31 464.597 3842.08 464.848L3861.62 463.932L3861.09 452.544L3844.72 453.312L3844.75 453.791ZM3821.4 465.818C3822.52 465.766 3823.49 465.48 3824.31 464.961C3825.09 464.484 3825.71 463.674 3826.18 462.531C3826.64 461.388 3826.97 459.891 3827.17 458.04C3827.32 456.191 3827.33 453.867 3827.2 451.071L3826.64 439.144L3866.98 437.252L3868.21 463.623L3874.81 463.314L3875.87 486.088L3869.28 486.398L3868.92 478.606L3827.74 480.538L3828.11 488.329L3821.51 488.638L3820.45 465.863L3821.4 465.818ZM3921.25 434.706L3921.92 449.09L3883.2 450.906L3883.36 454.323L3904.1 453.35L3904.36 458.744L3883.62 459.717L3883.79 463.493L3922.51 461.677L3923.19 476.061L3877.88 478.186L3875.94 436.831L3921.25 434.706ZM3968.91 473.916L3962.32 474.225L3961.08 447.854L3947.72 448.481L3948.11 456.872C3948.23 459.429 3948.16 461.815 3947.9 464.029C3947.61 466.246 3946.9 468.181 3945.77 469.836C3944.65 471.53 3942.97 472.87 3940.74 473.856C3938.5 474.882 3935.49 475.484 3931.69 475.662L3924.98 475.977L3924.64 468.785C3926.92 468.678 3928.57 467.98 3929.59 466.69C3930.57 465.443 3930.99 463.241 3930.84 460.085L3929.63 434.313L3966.97 432.562L3968.91 473.916ZM3999.19 473.097C3995.67 473.262 3992.42 473.114 3989.44 472.653C3986.45 472.232 3983.76 471.638 3981.36 470.869C3978.92 470.103 3976.84 469.219 3975.11 468.219C3973.35 467.261 3971.94 466.326 3970.9 465.414L3969.65 438.863C3970.57 437.899 3971.86 436.957 3973.54 436.037C3975.22 435.118 3977.24 434.262 3979.61 433.47C3981.94 432.721 3984.59 432.076 3987.57 431.535C3990.51 431.037 3993.72 430.706 3997.19 430.543C4000.79 430.375 4004.09 430.4 4007.11 430.619C4010.08 430.88 4012.76 431.275 4015.15 431.803C4017.5 432.334 4019.53 432.979 4021.25 433.74C4022.97 434.54 4024.35 435.376 4025.39 436.249L4026.63 462.799C4025.68 463.845 4024.39 464.927 4022.76 466.044C4021.14 467.202 4019.18 468.274 4016.91 469.262C4014.63 470.25 4012.03 471.093 4009.1 471.791C4006.13 472.491 4002.82 472.926 3999.19 473.097ZM3998.51 458.712C4002.07 458.546 4005.19 458.119 4007.88 457.432C4010.58 456.785 4012.88 456.036 4014.81 455.185C4016.73 454.334 4018.29 453.48 4019.49 452.623C4020.65 451.808 4021.48 451.148 4021.98 450.644C4021.44 450.189 4020.55 449.59 4019.31 448.847C4018.04 448.146 4016.41 447.482 4014.41 446.854C4012.42 446.227 4010.06 445.697 4007.31 445.265C4004.57 444.873 4001.42 444.761 3997.87 444.928C3994.31 445.094 3991.19 445.501 3988.49 446.148C3985.8 446.835 3983.49 447.584 3981.57 448.395C3979.65 449.206 3978.1 450.019 3976.94 450.835C3975.78 451.69 3974.93 452.37 3974.39 452.876C3974.97 453.329 3975.88 453.907 3977.12 454.61C3978.35 455.353 3979.97 456.058 3981.96 456.726C3983.95 457.393 3986.32 457.923 3989.06 458.315C3991.81 458.747 3994.96 458.879 3998.51 458.712ZM3595.89 534.54C3595.98 536.457 3595.94 538.061 3595.76 539.351C3595.58 540.641 3595.35 541.693 3595.07 542.507C3594.78 543.361 3594.48 544.016 3594.14 544.473C3593.76 544.971 3593.46 545.346 3593.23 545.597L3612.77 544.68L3612.23 533.293L3595.87 534.06L3595.89 534.54ZM3572.55 546.566C3573.67 546.514 3574.64 546.228 3575.45 545.709C3576.23 545.232 3576.85 544.422 3577.32 543.279C3577.79 542.136 3578.12 540.639 3578.31 538.788C3578.47 536.939 3578.48 534.616 3578.35 531.819L3577.79 519.892L3618.12 518L3619.36 544.371L3625.95 544.062L3627.02 566.837L3620.43 567.146L3620.06 559.354L3578.89 561.286L3579.25 569.077L3572.66 569.386L3571.59 546.611L3572.55 546.566ZM3672.36 556.902L3665.76 557.211L3664.53 530.84L3651.16 531.467L3651.55 539.857C3651.67 542.415 3651.61 544.8 3651.35 547.015C3651.05 549.231 3650.34 551.167 3649.22 552.821C3648.1 554.516 3646.42 555.856 3644.18 556.842C3641.95 557.867 3638.93 558.469 3635.14 558.647L3628.42 558.962L3628.09 551.77C3630.36 551.663 3632.01 550.965 3633.03 549.676C3634.02 548.429 3634.43 546.227 3634.29 543.07L3633.08 517.298L3670.42 515.547L3672.36 556.902ZM3709.44 555.162L3708.69 539.34L3695.87 539.941C3694.19 540.02 3692.57 540.036 3691.01 539.989L3680.73 556.509L3673.54 556.846L3684.37 539.34C3682.35 538.994 3680.44 538.482 3678.65 537.806C3676.82 537.131 3675.13 536.249 3673.6 535.159L3672.9 520.296C3673.63 519.541 3674.7 518.83 3676.11 518.163C3677.48 517.538 3679.11 516.961 3681.01 516.432C3682.91 515.902 3685.03 515.462 3687.38 515.112C3689.68 514.764 3692.09 514.53 3694.61 514.412L3714.09 513.499L3716.03 554.853L3709.44 555.162ZM3695.31 529.396C3692.08 529.548 3689.41 529.933 3687.32 530.552C3685.19 531.212 3683.5 531.952 3682.26 532.771C3683.61 533.468 3685.38 533.966 3687.55 534.265C3689.69 534.605 3692.38 534.699 3695.62 534.547L3708.44 533.946L3708.2 528.791L3695.31 529.396ZM3756.38 527.012C3756.47 528.93 3756.43 530.534 3756.25 531.824C3756.07 533.113 3755.84 534.165 3755.55 534.98C3755.27 535.834 3754.96 536.489 3754.62 536.945C3754.25 537.443 3753.94 537.818 3753.72 538.069L3773.25 537.153L3772.72 525.765L3756.36 526.533L3756.38 527.012ZM3733.04 539.039C3734.16 538.986 3735.12 538.701 3735.94 538.182C3736.72 537.705 3737.34 536.895 3737.81 535.752C3738.28 534.609 3738.61 533.111 3738.8 531.26C3738.95 529.411 3738.96 527.088 3738.83 524.291L3738.27 512.364L3778.61 510.472L3779.85 536.843L3786.44 536.534L3787.51 559.309L3780.92 559.618L3780.55 551.827L3739.37 553.758L3739.74 561.55L3733.15 561.859L3732.08 539.084L3733.04 539.039ZM3807.94 509.096L3825.33 508.281L3808.57 550.513L3791.18 551.328L3796.93 536.763L3781.57 510.333L3788.17 510.024L3799.73 529.844L3807.94 509.096ZM3834.38 534.285L3846.97 533.695L3845.73 507.324L3852.32 507.015L3853.56 533.386L3866.15 532.795L3864.91 506.424L3871.5 506.115L3873.44 547.47L3828.49 549.578L3826.55 508.224L3833.14 507.914L3834.38 534.285ZM3880.5 505.693L3881.56 528.468L3906.87 504.457L3913.46 504.147L3915.4 545.502L3908.81 545.811L3907.77 523.635L3882.43 547.048L3875.84 547.357L3873.9 506.003L3880.5 505.693ZM3937.44 503.022L3938.51 525.797L3963.82 501.785L3970.41 501.476L3972.35 542.831L3965.75 543.14L3964.71 520.964L3939.38 544.377L3932.79 544.686L3930.85 503.332L3937.44 503.022ZM3620.49 602.462C3620.58 604.38 3620.53 605.983 3620.35 607.273C3620.17 608.563 3619.94 609.615 3619.66 610.429C3619.38 611.283 3619.07 611.939 3618.73 612.395C3618.36 612.893 3618.05 613.268 3617.82 613.519L3637.36 612.602L3636.83 601.215L3620.47 601.982L3620.49 602.462ZM3597.15 614.489C3598.27 614.436 3599.23 614.15 3600.05 613.632C3600.83 613.155 3601.45 612.345 3601.92 611.201C3602.38 610.058 3602.72 608.561 3602.91 606.71C3603.06 604.861 3603.07 602.538 3602.94 599.741L3602.38 587.814L3642.72 585.922L3643.96 612.293L3650.55 611.984L3651.62 634.759L3645.02 635.068L3644.66 627.277L3603.48 629.208L3603.85 636.999L3597.26 637.309L3596.19 614.534L3597.15 614.489ZM3696.95 624.824L3690.36 625.133L3689.12 598.762L3675.76 599.389L3676.15 607.78C3676.27 610.337 3676.2 612.723 3675.95 614.937C3675.65 617.153 3674.94 619.089 3673.82 620.743C3672.69 622.438 3671.01 623.778 3668.78 624.764C3666.54 625.79 3663.53 626.391 3659.73 626.57L3653.02 626.884L3652.68 619.692C3654.96 619.585 3656.61 618.887 3657.63 617.598C3658.61 616.351 3659.03 614.149 3658.88 610.992L3657.67 585.221L3695.01 583.469L3696.95 624.824ZM3734.03 623.085L3733.29 607.262L3720.46 607.864C3718.79 607.942 3717.17 607.958 3715.6 607.911L3705.32 624.431L3698.13 624.768L3708.96 607.262C3706.95 606.916 3705.04 606.405 3703.25 605.728C3701.41 605.053 3699.73 604.171 3698.2 603.082L3697.5 588.218C3698.22 587.463 3699.29 586.752 3700.7 586.086C3702.08 585.461 3703.71 584.883 3705.61 584.354C3707.5 583.824 3709.63 583.384 3711.97 583.034C3714.28 582.686 3716.69 582.452 3719.21 582.334L3738.69 581.421L3740.63 622.775L3734.03 623.085ZM3719.91 597.318C3716.67 597.47 3714.01 597.855 3711.92 598.474C3709.78 599.134 3708.1 599.874 3706.85 600.693C3708.21 601.391 3709.97 601.889 3712.15 602.187C3714.29 602.527 3716.98 602.621 3720.21 602.469L3733.04 601.868L3732.8 596.714L3719.91 597.318ZM3781.49 594.429L3782.73 620.8L3776.14 621.11L3774.9 594.739L3756.74 595.59L3756.04 580.607L3798.95 578.594L3799.65 593.578L3781.49 594.429ZM3846.65 576.357L3847.32 590.741L3808.61 592.557L3808.77 595.973L3829.5 595.001L3829.76 600.395L3809.02 601.367L3809.2 605.143L3847.91 603.327L3848.59 617.711L3803.28 619.837L3801.34 578.482L3846.65 576.357ZM3894.31 615.567L3887.72 615.876L3886.48 589.505L3873.12 590.132L3873.51 598.523C3873.63 601.08 3873.56 603.466 3873.31 605.68C3873.01 607.896 3872.3 609.832 3871.18 611.486C3870.05 613.181 3868.38 614.521 3866.14 615.507C3863.91 616.532 3860.89 617.134 3857.09 617.312L3850.38 617.627L3850.04 610.435C3852.32 610.328 3853.97 609.63 3854.99 608.341C3855.97 607.094 3856.39 604.892 3856.24 601.735L3855.03 575.964L3892.37 574.212L3894.31 615.567ZM3932.21 572.344L3955.43 612.7L3948.83 613.009L3944.65 605.758L3916.36 607.084L3912.87 614.696L3895.49 615.511L3914.83 573.159L3932.21 572.344ZM3929.22 578.911L3923.06 592.354L3936.6 591.719L3929.22 578.911Z" fill="white"/>
<path d="M4154.38 262.195C4150.91 261.626 4147.76 260.806 4144.94 259.735C4142.11 258.703 4139.6 257.562 4137.41 256.312C4135.19 255.055 4133.33 253.758 4131.85 252.421C4130.32 251.116 4129.14 249.909 4128.31 248.8L4132.61 222.57C4133.7 221.818 4135.17 221.166 4137 220.615C4138.84 220.065 4140.99 219.648 4143.47 219.365C4145.9 219.116 4148.63 219.036 4151.66 219.127C4154.64 219.25 4157.84 219.594 4161.28 220.157C4164.83 220.739 4168.06 221.451 4170.96 222.291C4173.81 223.165 4176.36 224.109 4178.58 225.122C4180.77 226.129 4182.62 227.183 4184.14 228.283C4185.66 229.424 4186.83 230.529 4187.67 231.598L4183.37 257.828C4182.22 258.653 4180.74 259.443 4178.91 260.197C4177.08 260.991 4174.95 261.635 4172.51 262.128C4170.08 262.621 4167.36 262.904 4164.35 262.978C4161.3 263.045 4157.98 262.784 4154.38 262.195ZM4156.71 247.985C4160.23 248.561 4163.37 248.793 4166.15 248.68C4168.91 248.607 4171.33 248.354 4173.38 247.921C4175.44 247.489 4177.15 246.978 4178.5 246.389C4179.81 245.833 4180.76 245.36 4181.35 244.971C4180.91 244.413 4180.17 243.642 4179.11 242.659C4178.01 241.708 4176.55 240.719 4174.73 239.691C4172.92 238.664 4170.71 237.654 4168.12 236.661C4165.52 235.708 4162.46 234.943 4158.95 234.367C4155.43 233.791 4152.29 233.54 4149.52 233.613C4146.75 233.725 4144.34 233.978 4142.29 234.372C4140.24 234.765 4138.56 235.24 4137.25 235.795C4135.94 236.391 4134.96 236.88 4134.33 237.263C4134.81 237.827 4135.58 238.581 4136.64 239.526C4137.69 240.509 4139.13 241.535 4140.94 242.602C4142.75 243.669 4144.95 244.679 4147.55 245.632C4150.15 246.625 4153.2 247.409 4156.71 247.985ZM4221.97 245.916L4195.15 241.519L4190.88 267.571L4184.37 266.503L4191.06 225.648L4224.4 231.114L4221.97 245.916ZM4247.48 277.458C4244 276.889 4240.85 276.069 4238.03 274.998C4235.2 273.966 4232.69 272.825 4230.51 271.575C4228.28 270.318 4226.42 269.021 4224.94 267.683C4223.41 266.379 4222.23 265.172 4221.4 264.063L4225.7 237.833C4226.8 237.081 4228.26 236.429 4230.1 235.878C4231.93 235.328 4234.08 234.911 4236.56 234.628C4239 234.378 4241.72 234.299 4244.75 234.39C4247.73 234.513 4250.94 234.857 4254.37 235.42C4257.92 236.002 4261.15 236.714 4264.05 237.554C4266.91 238.428 4269.45 239.371 4271.67 240.385C4273.86 241.392 4275.71 242.446 4277.24 243.546C4278.75 244.686 4279.93 245.791 4280.77 246.861L4276.47 273.091C4275.32 273.916 4273.83 274.706 4272 275.46C4270.17 276.254 4268.04 276.898 4265.61 277.391C4263.17 277.884 4260.45 278.167 4257.44 278.241C4254.39 278.308 4251.07 278.047 4247.48 277.458ZM4249.81 263.248C4253.32 263.824 4256.46 264.056 4259.24 263.943C4262.01 263.87 4264.42 263.617 4266.48 263.184C4268.53 262.751 4270.24 262.241 4271.59 261.652C4272.9 261.096 4273.85 260.623 4274.44 260.234C4274 259.676 4273.26 258.905 4272.2 257.922C4271.1 256.971 4269.64 255.982 4267.83 254.954C4266.01 253.927 4263.8 252.916 4261.21 251.924C4258.61 250.97 4255.55 250.206 4252.04 249.63C4248.53 249.054 4245.39 248.802 4242.62 248.875C4239.84 248.988 4237.43 249.241 4235.38 249.634C4233.33 250.028 4231.65 250.502 4230.34 251.058C4229.03 251.654 4228.06 252.143 4227.43 252.526C4227.9 253.09 4228.67 253.844 4229.73 254.788C4230.79 255.772 4232.22 256.797 4234.03 257.865C4235.84 258.932 4238.05 259.942 4240.65 260.895C4243.24 261.888 4246.29 262.672 4249.81 263.248ZM4303.4 244.066C4305.89 244.474 4308.28 244.987 4310.57 245.606C4312.82 246.218 4314.85 246.897 4316.68 247.641C4318.5 248.386 4320.08 249.151 4321.41 249.937C4322.69 250.756 4323.65 251.582 4324.28 252.415L4321.88 267.099C4320.32 267.938 4318.65 268.597 4316.87 269.075C4315.05 269.547 4313.18 269.848 4311.25 269.978C4309.32 270.108 4307.36 270.11 4305.35 269.984C4303.31 269.851 4301.26 269.616 4299.21 269.28L4286.53 267.202L4283.97 282.834L4277.46 281.766L4284.16 240.911L4303.4 244.066ZM4287.41 261.874L4300.08 263.951C4303.28 264.475 4305.98 264.695 4308.18 264.61C4310.34 264.558 4312.13 264.264 4313.55 263.728C4312.41 262.771 4310.84 261.845 4308.84 260.949C4306.79 260.086 4304.17 259.393 4300.97 258.869L4288.24 256.782L4287.41 261.874ZM4345.2 293.48C4341.72 292.91 4338.57 292.09 4335.75 291.019C4332.92 289.987 4330.41 288.846 4328.22 287.596C4326 286.339 4324.14 285.042 4322.66 283.705C4321.13 282.4 4319.95 281.193 4319.12 280.084L4323.42 253.854C4324.52 253.102 4325.98 252.45 4327.81 251.9C4329.65 251.349 4331.8 250.932 4334.28 250.649C4336.71 250.4 4339.44 250.32 4342.47 250.411C4345.45 250.534 4348.65 250.878 4352.09 251.441C4355.64 252.023 4358.87 252.735 4361.77 253.575C4364.63 254.449 4367.17 255.393 4369.39 256.406C4371.58 257.413 4373.43 258.467 4374.95 259.568C4376.47 260.708 4377.65 261.813 4378.48 262.882L4374.18 289.112C4373.04 289.937 4371.55 290.727 4369.72 291.481C4367.89 292.275 4365.76 292.919 4363.33 293.412C4360.89 293.905 4358.17 294.188 4355.16 294.262C4352.11 294.329 4348.79 294.068 4345.2 293.48ZM4347.53 279.269C4351.04 279.845 4354.18 280.077 4356.96 279.964C4359.73 279.891 4362.14 279.638 4364.2 279.206C4366.25 278.773 4367.96 278.262 4369.31 277.673C4370.62 277.117 4371.57 276.644 4372.16 276.255C4371.72 275.697 4370.98 274.926 4369.92 273.943C4368.82 272.992 4367.36 272.003 4365.54 270.975C4363.73 269.948 4361.52 268.938 4358.93 267.945C4356.33 266.992 4353.27 266.227 4349.76 265.651C4346.25 265.075 4343.1 264.824 4340.34 264.897C4337.56 265.009 4335.15 265.262 4333.1 265.656C4331.05 266.049 4329.37 266.524 4328.06 267.08C4326.75 267.675 4325.78 268.164 4325.15 268.547C4325.62 269.111 4326.39 269.866 4327.45 270.81C4328.5 271.793 4329.94 272.819 4331.75 273.886C4333.56 274.953 4335.77 275.963 4338.37 276.916C4340.96 277.909 4344.01 278.693 4347.53 279.269ZM4403.29 276.13C4402.98 278.025 4402.6 279.585 4402.16 280.809C4401.72 282.033 4401.27 283.014 4400.83 283.752C4400.37 284.529 4399.94 285.106 4399.51 285.482C4399.04 285.891 4398.66 286.194 4398.39 286.392L4417.69 289.557L4419.53 278.307L4403.37 275.657L4403.29 276.13ZM4377.96 283.043C4379.06 283.224 4380.07 283.146 4380.98 282.808C4381.84 282.503 4382.62 281.84 4383.31 280.819C4384 279.798 4384.64 278.402 4385.21 276.632C4385.75 274.855 4386.24 272.585 4386.69 269.822L4388.63 258.039L4428.47 264.572L4424.2 290.625L4430.72 291.692L4427.03 314.192L4420.51 313.124L4421.78 305.427L4381.1 298.758L4379.84 306.455L4373.32 305.387L4377.01 282.888L4377.96 283.043ZM4473.88 289.406C4475.93 289.742 4477.95 290.155 4479.94 290.643C4481.93 291.131 4483.82 291.724 4485.61 292.423C4487.39 293.161 4489.07 294.025 4490.65 295.014C4492.19 295.996 4493.55 297.13 4494.72 298.416L4492.45 312.212C4491.59 312.799 4490.42 313.256 4488.95 313.582C4487.43 313.941 4485.69 314.183 4483.72 314.306C4481.75 314.43 4479.61 314.422 4477.28 314.284C4474.91 314.139 4472.48 313.862 4470 313.455L4444.83 309.329L4451.53 268.474L4454.49 268.96L4454.51 268.841L4497.62 275.908L4495.29 290.119L4455.73 283.634L4455.29 286.358L4473.88 289.406ZM4453.68 296.187L4472.33 299.244C4475.52 299.769 4478.23 299.969 4480.44 299.844C4482.6 299.753 4484.37 299.456 4485.75 298.952C4484.6 298.035 4482.99 297.224 4480.92 296.519C4478.84 295.854 4476.2 295.259 4473.01 294.735L4454.41 291.687L4453.68 296.187ZM4545.52 283.762L4543.19 297.973L4504.94 291.702L4504.39 295.077L4524.87 298.435L4524 303.764L4503.51 300.405L4502.9 304.136L4541.15 310.407L4538.82 324.617L4494.06 317.278L4500.76 276.424L4545.52 283.762ZM4563.59 329.285C4558.93 328.522 4554.74 327.349 4551.03 325.767C4547.27 324.219 4544.22 322.543 4541.88 320.741L4543.85 308.722C4545.22 310 4547.61 311.405 4551.01 312.934C4554.36 314.497 4558.84 315.738 4564.44 316.657C4566.57 317.007 4568.51 317.284 4570.26 317.49C4571.97 317.689 4573.56 317.787 4575.02 317.783C4576.43 317.812 4577.74 317.723 4578.95 317.516C4580.12 317.303 4581.25 316.961 4582.34 316.491C4581.01 315.463 4579.2 314.497 4576.92 313.596C4574.63 312.734 4571.65 312.002 4567.98 311.4L4556.85 309.575L4557.82 303.654L4568.95 305.479C4572.15 306.003 4574.85 306.203 4577.06 306.079C4579.22 305.988 4581.02 305.654 4582.45 305.079C4580.82 303.636 4578.72 302.481 4576.15 301.613C4573.58 300.745 4570.24 299.975 4566.13 299.302C4563.49 298.868 4561.08 298.615 4558.9 298.542C4556.68 298.462 4554.71 298.484 4552.99 298.607C4551.22 298.763 4549.7 299 4548.43 299.319C4547.13 299.632 4546.06 299.963 4545.23 300.314L4547.4 287.11C4550.17 286.511 4553.57 286.196 4557.58 286.166C4561.56 286.129 4565.84 286.486 4570.42 287.237C4573.1 287.677 4575.65 288.216 4578.06 288.854C4580.47 289.492 4582.67 290.177 4584.65 290.908C4586.63 291.679 4588.35 292.486 4589.79 293.331C4591.19 294.169 4592.21 295.005 4592.84 295.838L4591.04 306.851C4589.36 307.671 4587.59 308.353 4585.72 308.897C4583.8 309.435 4581.96 309.801 4580.19 309.997C4582 310.781 4583.92 311.723 4585.92 312.822C4587.89 313.915 4589.66 315.239 4591.23 316.793L4589.48 327.451C4588.52 328.144 4587.15 328.71 4585.38 329.149C4583.56 329.581 4581.51 329.873 4579.21 330.023C4576.87 330.207 4574.37 330.243 4571.72 330.132C4569.02 330.014 4566.31 329.732 4563.59 329.285ZM4237.49 303.181L4254.66 305.996L4235.6 325.794L4247.37 346.753L4237.89 345.2L4230.17 331.47L4219.83 342.239L4202.66 339.424L4222.9 318.36L4212.03 299.006L4221.5 300.56L4228.32 312.743L4237.49 303.181ZM4291.35 353.965L4284.84 352.897L4289.11 326.845L4275.91 324.68L4274.55 332.97C4274.13 335.496 4273.57 337.815 4272.86 339.928C4272.11 342.034 4271.01 343.78 4269.57 345.165C4268.12 346.589 4266.2 347.551 4263.81 348.05C4261.41 348.589 4258.33 348.551 4254.58 347.937L4247.95 346.849L4249.12 339.744C4251.37 340.113 4253.12 339.773 4254.39 338.724C4255.61 337.708 4256.48 335.641 4256.99 332.523L4261.16 307.063L4298.05 313.11L4291.35 353.965ZM4321.14 359.456C4317.66 358.887 4314.52 358.067 4311.69 356.996C4308.86 355.964 4306.35 354.823 4304.17 353.573C4301.94 352.316 4300.09 351.019 4298.6 349.682C4297.07 348.377 4295.89 347.17 4295.06 346.061L4299.36 319.831C4300.46 319.079 4301.92 318.427 4303.76 317.876C4305.59 317.326 4307.75 316.909 4310.22 316.626C4312.66 316.377 4315.38 316.297 4318.41 316.388C4321.39 316.511 4324.6 316.855 4328.03 317.418C4331.58 318 4334.81 318.712 4337.71 319.552C4340.57 320.426 4343.11 321.369 4345.33 322.383C4347.52 323.39 4349.37 324.444 4350.9 325.544C4352.41 326.685 4353.59 327.79 4354.43 328.859L4350.13 355.089C4348.98 355.914 4347.49 356.704 4345.66 357.458C4343.83 358.252 4341.7 358.896 4339.27 359.389C4336.84 359.882 4334.11 360.165 4331.1 360.239C4328.05 360.306 4324.73 360.045 4321.14 359.456ZM4323.47 345.246C4326.98 345.822 4330.12 346.054 4332.9 345.941C4335.67 345.868 4338.08 345.615 4340.14 345.182C4342.19 344.75 4343.9 344.239 4345.25 343.65C4346.56 343.094 4347.51 342.621 4348.1 342.232C4347.66 341.674 4346.92 340.903 4345.86 339.92C4344.76 338.969 4343.3 337.98 4341.49 336.952C4339.67 335.925 4337.46 334.914 4334.87 333.922C4332.27 332.969 4329.21 332.204 4325.7 331.628C4322.19 331.052 4319.05 330.801 4316.28 330.874C4313.5 330.986 4311.09 331.239 4309.04 331.633C4306.99 332.026 4305.31 332.501 4304 333.056C4302.69 333.652 4301.72 334.141 4301.09 334.524C4301.56 335.088 4302.33 335.842 4303.39 336.787C4304.45 337.77 4305.88 338.796 4307.69 339.863C4309.5 340.93 4311.71 341.94 4314.31 342.893C4316.9 343.886 4319.95 344.67 4323.47 345.246ZM4393.34 328.734L4386.65 369.589L4380.13 368.521L4384.4 342.469L4361.9 338.78L4357.63 364.832L4351.12 363.764L4357.82 322.909L4393.34 328.734ZM4416.43 375.08C4412.95 374.51 4409.81 373.69 4406.98 372.619C4404.15 371.587 4401.64 370.446 4399.46 369.196C4397.23 367.939 4395.38 366.642 4393.89 365.305C4392.36 364 4391.18 362.793 4390.35 361.684L4394.65 335.454C4395.75 334.702 4397.21 334.05 4399.05 333.499C4400.88 332.949 4403.04 332.532 4405.51 332.249C4407.95 332 4410.68 331.92 4413.7 332.011C4416.68 332.134 4419.89 332.478 4423.32 333.041C4426.87 333.623 4430.1 334.335 4433 335.175C4435.86 336.049 4438.4 336.993 4440.63 338.006C4442.81 339.013 4444.66 340.067 4446.19 341.167C4447.7 342.308 4448.88 343.413 4449.72 344.482L4445.42 370.712C4444.27 371.537 4442.78 372.327 4440.95 373.081C4439.12 373.875 4436.99 374.519 4434.56 375.012C4432.13 375.505 4429.4 375.788 4426.39 375.862C4423.34 375.929 4420.02 375.668 4416.43 375.08ZM4418.76 360.869C4422.27 361.445 4425.41 361.677 4428.19 361.564C4430.96 361.491 4433.37 361.238 4435.43 360.805C4437.48 360.373 4439.19 359.862 4440.54 359.273C4441.85 358.717 4442.8 358.244 4443.39 357.855C4442.95 357.297 4442.21 356.526 4441.15 355.543C4440.05 354.592 4438.59 353.603 4436.78 352.575C4434.96 351.548 4432.75 350.538 4430.16 349.545C4427.56 348.592 4424.5 347.827 4420.99 347.251C4417.48 346.675 4414.34 346.424 4411.57 346.497C4408.79 346.609 4406.38 346.862 4404.33 347.256C4402.28 347.649 4400.6 348.124 4399.29 348.679C4397.98 349.275 4397.01 349.764 4396.38 350.147C4396.85 350.711 4397.62 351.466 4398.68 352.41C4399.74 353.393 4401.17 354.419 4402.98 355.486C4404.79 356.553 4407 357.563 4409.6 358.516C4412.19 359.509 4415.24 360.293 4418.76 360.869ZM4475.13 357.344L4470.86 383.396L4464.35 382.328L4468.62 356.276L4450.68 353.335L4453.11 338.533L4495.5 345.483L4493.08 360.286L4475.13 357.344Z" fill="white"/>
<path d="M2655.48 235.505C2657.96 235.976 2660.33 236.55 2662.6 237.227C2664.84 237.897 2666.86 238.627 2668.66 239.419C2670.47 240.21 2672.02 241.015 2673.33 241.835C2674.6 242.686 2675.53 243.536 2676.14 244.385L2674.18 254.7C2672.31 255.565 2670.47 256.233 2668.67 256.705C2666.83 257.169 2665.04 257.46 2663.31 257.578C2665.12 258.37 2667.01 259.321 2669 260.432C2670.94 261.575 2672.66 262.92 2674.15 264.468L2672.2 274.723C2671.31 275.328 2670.08 275.845 2668.49 276.276C2666.89 276.746 2665.1 277.057 2663.12 277.208C2661.09 277.392 2658.9 277.424 2656.56 277.305C2654.22 277.225 2651.87 276.96 2649.51 276.511L2622.69 271.407L2630.43 230.737L2655.48 235.505ZM2633.56 249.594L2652.07 253.117C2655.25 253.723 2657.94 254.012 2660.15 253.984C2662.31 253.987 2664.1 253.739 2665.54 253.239C2664.43 252.253 2662.88 251.307 2660.89 250.399C2658.86 249.524 2656.25 248.783 2653.07 248.177L2634.5 244.643L2633.56 249.594ZM2631.59 259.968L2651.92 263.839C2655.1 264.445 2657.8 264.714 2660.01 264.646C2662.18 264.61 2663.94 264.315 2665.31 263.761C2664.15 262.807 2662.57 261.877 2660.59 260.969C2658.6 260.101 2656.01 259.364 2652.83 258.759L2632.55 254.899L2631.59 259.968ZM2730.67 249.816L2722.92 290.486L2716.44 289.252L2721.38 263.317L2698.98 259.054L2694.04 284.988L2687.56 283.754L2695.3 243.084L2730.67 249.816ZM2759.39 297.426L2762.35 281.866L2749.74 279.465C2748.09 279.151 2746.51 278.789 2745 278.379L2731.16 292.053L2724.08 290.706L2738.69 276.202C2736.81 275.396 2735.08 274.455 2733.49 273.379C2731.86 272.296 2730.43 271.046 2729.19 269.63L2731.98 255.013C2732.86 254.447 2734.06 254.005 2735.59 253.685C2737.07 253.396 2738.79 253.215 2740.76 253.142C2742.73 253.069 2744.9 253.135 2747.26 253.341C2749.58 253.539 2751.98 253.873 2754.46 254.345L2773.61 257.991L2765.87 298.661L2759.39 297.426ZM2751.65 269.08C2748.47 268.474 2745.79 268.228 2743.61 268.343C2741.38 268.489 2739.57 268.816 2738.17 269.323C2739.32 270.317 2740.93 271.212 2742.97 272.008C2744.97 272.837 2747.56 273.554 2750.75 274.16L2763.36 276.561L2764.33 271.492L2751.65 269.08ZM2797.48 277.803L2792.54 303.737L2786.06 302.503L2791 276.569L2773.14 273.17L2775.94 258.434L2818.15 266.467L2815.34 281.202L2797.48 277.803ZM2826.98 268.148L2824.56 280.88L2846.36 285.031L2848.79 272.299L2855.27 273.534L2847.53 314.203L2841.05 312.969L2843.56 299.766L2821.75 295.615L2819.24 308.818L2812.75 307.584L2820.49 266.914L2826.98 268.148ZM2868.82 276.113L2864.56 298.511L2894.76 281.05L2901.24 282.284L2893.5 322.954L2887.02 321.72L2891.17 299.911L2861.08 316.783L2854.6 315.549L2862.34 274.879L2868.82 276.113ZM2936.26 339.033L2929.78 337.799L2931.24 330.136L2895.87 323.405L2903.61 282.735L2910.1 283.969L2905.16 309.903L2927.56 314.167L2932.49 288.232L2938.98 289.466L2934.04 315.401L2940.52 316.635L2936.26 339.033ZM2967.85 294.963L2984.95 298.217L2958.82 335.386L2941.72 332.132L2950.7 319.305L2941.92 290.027L2948.4 291.261L2955.03 313.228L2967.85 294.963ZM2996.72 329.591L2997.97 322.989L3052.2 333.311L3050.94 339.912L2996.72 329.591ZM3096.1 334.644L3091.17 360.578L3084.68 359.344L3089.62 333.41L3071.76 330.01L3074.57 315.275L3116.77 323.308L3113.96 338.043L3096.1 334.644ZM3140.65 327.853L3153.83 372.505L3147.34 371.271L3144.96 363.244L3117.14 357.949L3111.98 364.54L3094.89 361.286L3123.55 324.599L3140.65 327.853ZM3136.2 333.542L3127.09 345.183L3140.41 347.718L3136.2 333.542ZM3169.23 333.294L3166.81 346.025L3188.62 350.176L3191.04 337.445L3197.52 338.679L3189.78 379.349L3183.3 378.115L3185.81 364.912L3164 360.761L3161.49 373.964L3155.01 372.73L3162.75 332.06L3169.23 333.294ZM3237.24 396.323L3230.76 395.089L3232.22 387.426L3196.85 380.695L3204.59 340.025L3211.08 341.259L3206.14 367.194L3228.54 371.457L3233.48 345.522L3239.96 346.757L3235.02 372.691L3241.51 373.925L3237.24 396.323ZM3289.45 398.32L3282.97 397.086L3290.71 356.416L3297.19 357.65L3289.45 398.32ZM3264.94 367.635C3266.98 368.024 3268.98 368.507 3270.95 369.085C3272.88 369.656 3274.72 370.333 3276.49 371.117C3278.25 371.9 3279.91 372.826 3281.46 373.895C3282.97 374.955 3284.31 376.147 3285.48 377.47L3282.7 392.087C3281.82 392.653 3280.64 393.079 3279.16 393.368C3277.63 393.688 3275.88 393.885 3273.91 393.958C3271.94 394.031 3269.8 393.969 3267.47 393.771C3265.11 393.565 3262.69 393.227 3260.22 392.755L3241.06 389.109L3248.8 348.439L3255.28 349.674L3252.32 365.234L3264.94 367.635ZM3250.35 375.608L3263.02 378.02C3266.2 378.626 3268.91 378.856 3271.13 378.709C3273.31 378.595 3275.1 378.284 3276.5 377.777C3275.35 376.783 3273.77 375.872 3271.77 375.044C3269.72 374.247 3267.11 373.546 3263.93 372.94L3251.31 370.539L3250.35 375.608ZM2644.56 303.666C2647.04 304.137 2649.41 304.711 2651.69 305.388C2653.92 306.058 2655.94 306.788 2657.75 307.58C2659.55 308.371 2661.11 309.176 2662.42 309.996C2663.68 310.847 2664.62 311.697 2665.23 312.546L2663.27 322.861C2661.39 323.726 2659.55 324.394 2657.75 324.866C2655.91 325.33 2654.13 325.621 2652.4 325.739C2654.2 326.531 2656.09 327.482 2658.08 328.593C2660.02 329.736 2661.74 331.081 2663.24 332.629L2661.29 342.884C2660.4 343.489 2659.16 344.006 2657.57 344.437C2655.97 344.907 2654.18 345.218 2652.2 345.369C2650.17 345.553 2647.99 345.585 2645.65 345.466C2643.3 345.386 2640.95 345.121 2638.59 344.672L2611.77 339.568L2619.51 298.898L2644.56 303.666ZM2622.64 317.755L2641.15 321.278C2644.33 321.884 2647.03 322.173 2649.23 322.145C2651.39 322.148 2653.19 321.9 2654.63 321.4C2653.51 320.414 2651.96 319.468 2649.98 318.56C2647.94 317.685 2645.34 316.944 2642.15 316.338L2623.59 312.804L2622.64 317.755ZM2620.67 328.129L2641 332C2644.19 332.606 2646.88 332.875 2649.1 332.807C2651.26 332.771 2653.03 332.476 2654.39 331.922C2653.23 330.968 2651.66 330.038 2649.67 329.13C2647.68 328.262 2645.09 327.525 2641.91 326.92L2621.63 323.06L2620.67 328.129ZM2726.67 357.039C2723.94 357.904 2720.68 358.464 2716.88 358.719C2713.09 358.974 2708.77 358.642 2703.94 357.722C2700.48 357.063 2697.35 356.163 2694.56 355.02C2691.76 353.916 2689.28 352.712 2687.12 351.406C2684.93 350.093 2683.11 348.749 2681.66 347.373C2680.17 346.03 2679.02 344.793 2678.21 343.663L2683.18 317.552C2684.3 316.828 2685.78 316.214 2687.63 315.71C2689.47 315.207 2691.64 314.846 2694.12 314.626C2696.56 314.439 2699.29 314.429 2702.31 314.597C2705.29 314.797 2708.49 315.222 2711.91 315.873C2716.66 316.778 2720.8 317.912 2724.33 319.276C2727.82 320.632 2730.72 322.06 2733.04 323.561L2729.98 339.652C2729.26 338.944 2728.31 338.153 2727.13 337.278C2725.95 336.402 2724.51 335.517 2722.81 334.623C2721.11 333.729 2719.14 332.865 2716.89 332.03C2714.64 331.235 2712.08 330.565 2709.21 330.019C2705.72 329.353 2702.58 329.022 2699.81 329.024C2697.04 329.065 2694.62 329.256 2692.56 329.597C2690.5 329.938 2688.81 330.37 2687.49 330.892C2686.16 331.453 2685.17 331.918 2684.53 332.284C2684.99 332.861 2685.74 333.634 2686.78 334.605C2687.81 335.615 2689.21 336.677 2691 337.79C2692.78 338.903 2694.96 339.97 2697.54 340.989C2700.1 342.048 2703.13 342.91 2706.63 343.576C2709.5 344.122 2712.13 344.419 2714.52 344.467C2716.91 344.555 2719.06 344.476 2720.98 344.231C2722.89 344.024 2724.56 343.711 2725.99 343.29C2727.4 342.908 2728.58 342.52 2729.51 342.127L2726.67 357.039ZM2760.14 325.665L2777.23 328.918L2751.1 366.088L2734.01 362.834L2742.98 350.006L2734.2 320.728L2740.69 321.962L2747.32 343.929L2760.14 325.665ZM2800.22 350.762C2802.26 351.151 2804.27 351.615 2806.25 352.154C2808.22 352.692 2810.09 353.334 2811.87 354.078C2813.63 354.862 2815.29 355.768 2816.85 356.797C2818.36 357.819 2819.69 358.987 2820.82 360.302L2818.21 374.036C2817.33 374.601 2816.14 375.028 2814.66 375.316C2813.14 375.636 2811.39 375.833 2809.42 375.906C2807.45 375.979 2805.31 375.917 2802.98 375.719C2800.62 375.513 2798.2 375.175 2795.73 374.704L2770.67 369.936L2778.42 329.266L2781.36 329.827L2781.39 329.709L2824.3 337.876L2821.6 352.022L2782.23 344.528L2781.71 347.239L2800.22 350.762ZM2779.85 357.024L2798.42 360.558C2801.6 361.164 2804.3 361.433 2806.51 361.365C2808.67 361.329 2810.45 361.077 2811.84 360.609C2810.72 359.663 2809.13 358.811 2807.08 358.053C2805.02 357.335 2802.39 356.673 2799.21 356.067L2780.7 352.544L2779.85 357.024ZM2849.2 360.086C2851.25 360.475 2853.26 360.939 2855.23 361.477C2857.21 362.016 2859.08 362.657 2860.85 363.402C2862.61 364.186 2864.27 365.092 2865.83 366.121C2867.35 367.142 2868.67 368.311 2869.8 369.626L2867.19 383.359C2866.31 383.925 2865.13 384.351 2863.65 384.64C2862.12 384.96 2860.37 385.157 2858.41 385.23C2856.44 385.303 2854.29 385.241 2851.97 385.043C2849.6 384.837 2847.18 384.499 2844.71 384.027L2819.66 379.259L2827.4 338.59L2830.35 339.15L2830.37 339.033L2873.28 347.2L2870.59 361.346L2831.21 353.852L2830.7 356.563L2849.2 360.086ZM2828.83 366.347L2847.4 369.881C2850.58 370.487 2853.28 370.756 2855.49 370.689C2857.66 370.653 2859.44 370.401 2860.83 369.933C2859.71 368.986 2858.12 368.134 2856.06 367.377C2854 366.659 2851.38 365.997 2848.2 365.391L2829.69 361.868L2828.83 366.347ZM2893.03 393.713C2889.57 393.055 2886.44 392.154 2883.64 391.011C2880.84 389.908 2878.36 388.703 2876.21 387.397C2874.02 386.084 2872.2 384.74 2870.75 383.365C2869.25 382.021 2868.1 380.785 2867.3 379.655L2872.27 353.543C2873.39 352.819 2874.87 352.205 2876.71 351.702C2878.56 351.198 2880.73 350.837 2883.21 350.617C2885.65 350.43 2888.38 350.42 2891.4 350.588C2894.38 350.788 2897.57 351.213 2900.99 351.864C2904.53 352.537 2907.74 353.331 2910.62 354.246C2913.45 355.192 2915.96 356.2 2918.16 357.27C2920.32 358.333 2922.15 359.434 2923.64 360.573C2925.13 361.752 2926.28 362.886 2927.09 363.977L2922.12 390.088C2920.95 390.884 2919.44 391.635 2917.59 392.343C2915.74 393.09 2913.59 393.678 2911.15 394.109C2908.71 394.54 2905.98 394.753 2902.97 394.75C2899.91 394.739 2896.6 394.393 2893.03 393.713ZM2895.72 379.567C2899.21 380.232 2902.35 380.544 2905.13 380.503C2907.9 380.501 2910.32 380.31 2912.38 379.929C2914.45 379.549 2916.17 379.082 2917.54 378.528C2918.86 378.006 2919.82 377.558 2920.42 377.184C2920 376.615 2919.27 375.825 2918.24 374.815C2917.17 373.836 2915.73 372.81 2913.94 371.737C2912.15 370.663 2909.97 369.597 2907.41 368.538C2904.83 367.518 2901.8 366.676 2898.3 366.01C2894.8 365.344 2891.67 365.013 2888.9 365.015C2886.12 365.056 2883.7 365.248 2881.64 365.588C2879.58 365.929 2877.89 366.361 2876.57 366.883C2875.24 367.445 2874.26 367.909 2873.62 368.275C2874.08 368.852 2874.83 369.625 2875.86 370.596C2876.89 371.607 2878.3 372.668 2880.08 373.781C2881.87 374.894 2884.05 375.961 2886.62 376.98C2889.19 378.039 2892.22 378.901 2895.72 379.567ZM2952.17 377.485L2947.23 403.419L2940.75 402.185L2945.68 376.251L2927.82 372.852L2930.63 358.116L2972.83 366.149L2970.03 380.885L2952.17 377.485ZM2992.28 369.851L3009.37 373.105L2983.24 410.274L2966.15 407.021L2975.13 394.193L2966.35 364.915L2972.83 366.149L2979.46 388.116L2992.28 369.851ZM3021.14 404.479L3022.4 397.877L3076.62 408.199L3075.37 414.8L3021.14 404.479ZM3120.77 411.777C3122.82 412.166 3124.83 412.63 3126.8 413.169C3128.77 413.707 3130.65 414.349 3132.42 415.093C3134.18 415.877 3135.84 416.783 3137.4 417.812C3138.91 418.834 3140.24 420.002 3141.37 421.317L3138.76 435.051C3137.88 435.616 3136.7 436.043 3135.22 436.331C3133.69 436.651 3131.94 436.848 3129.98 436.921C3128.01 436.994 3125.86 436.932 3123.54 436.734C3121.17 436.528 3118.75 436.19 3116.28 435.719L3091.23 430.951L3098.97 390.281L3101.92 390.842L3101.94 390.724L3144.85 398.892L3142.16 413.038L3102.78 405.543L3102.27 408.255L3120.77 411.777ZM3100.4 418.039L3118.97 421.573C3122.15 422.179 3124.85 422.448 3127.06 422.38C3129.23 422.344 3131.01 422.092 3132.4 421.624C3131.28 420.678 3129.69 419.826 3127.63 419.068C3125.57 418.35 3122.95 417.688 3119.76 417.082L3101.26 413.559L3100.4 418.039ZM3177.79 405.162L3190.97 449.815L3184.49 448.581L3182.11 440.554L3154.29 435.258L3149.13 441.849L3132.03 438.596L3160.7 401.909L3177.79 405.162ZM3173.35 410.852L3164.23 422.492L3177.55 425.028L3173.35 410.852ZM3206.38 410.603L3203.96 423.335L3225.76 427.486L3228.19 414.755L3234.67 415.989L3226.93 456.658L3220.45 455.424L3222.96 442.221L3201.15 438.07L3198.64 451.273L3192.15 450.039L3199.89 409.369L3206.38 410.603ZM3268.13 464.5L3271.09 448.94L3258.48 446.539C3256.83 446.225 3255.25 445.863 3253.74 445.453L3239.89 459.126L3232.82 457.78L3247.43 443.276C3245.55 442.47 3243.81 441.529 3242.23 440.453C3240.6 439.37 3239.17 438.12 3237.93 436.704L3240.71 422.086C3241.6 421.521 3242.8 421.078 3244.33 420.758C3245.81 420.47 3247.53 420.289 3249.5 420.216C3251.47 420.143 3253.63 420.209 3256 420.414C3258.32 420.612 3260.72 420.947 3263.2 421.418L3282.35 425.064L3274.61 465.734L3268.13 464.5ZM3260.39 436.154C3257.21 435.548 3254.53 435.302 3252.35 435.417C3250.12 435.563 3248.31 435.89 3246.91 436.397C3248.06 437.39 3249.66 438.285 3251.71 439.082C3253.71 439.911 3256.3 440.628 3259.49 441.234L3272.1 443.635L3273.06 438.566L3260.39 436.154Z" fill="white"/>
</svg>
