<svg width="900" height="1274" viewBox="0 0 900 1274" fill="none" xmlns="http://www.w3.org/2000/svg">
<g clip-path="url(#clip0_847_696)">
<rect width="1274" height="900" transform="matrix(0 -1 1 0 0 1274)" fill="#ECD6B8"/>
<path d="M88.4546 321.231C87.33 311.11 62.5704 300.489 54.0412 295.472C48.9801 292.495 46.7963 285.827 46.7963 280.479C46.7963 274.233 43.1738 268.878 43.1738 263.272C43.1738 254.198 29.6675 233.868 39.9539 225.639C43.2123 223.032 55.3097 225.236 59.4749 225.236C69.1684 225.236 78.8618 225.236 88.5553 225.236C110.58 225.236 131.872 223.494 153.659 221.513C193.347 217.905 231.02 214.919 269.578 224.834C283.67 228.457 300.024 252.097 290.407 265.989C280.202 280.73 269.681 286.724 252.874 293.66C243.569 297.501 235.041 300.604 226.108 305.333C220.727 308.182 216.44 313.374 211.618 308.553" stroke="#C9581B" stroke-width="30" stroke-linecap="round"/>
<path d="M43.1739 212.558C43.1739 191.417 37.7402 170.619 37.7402 149.97C37.7402 129.477 28.6841 109.526 28.6841 89.3939C28.6841 81.4367 28.7204 74.2876 30.3947 66.7535C31.3008 62.6761 32.3559 62.0659 34.5203 58.6029C36.7293 55.0685 41.265 56.461 43.1739 54.0748C44.9696 51.8302 53.246 53.1692 55.7519 53.1692C60.0458 53.1692 66.3985 51.2996 70.3424 49.5468C80.6351 44.9722 100.353 42.7184 111.598 42.3018C136.105 41.3942 165.013 30.3678 188.978 39.585C196.83 42.6051 208.754 46.8135 217.052 47.7355C230.754 49.258 232.446 69.4014 234.762 79.5327C237.332 90.7778 235.164 105.054 235.164 116.462C235.164 129.778 235.164 143.094 235.164 156.409C235.164 167.867 238.356 179.208 238.787 190.42C238.928 194.081 242.409 214.861 242.409 203.501" stroke="#C9581B" stroke-width="30" stroke-linecap="round"/>
<path d="M327.537 299.497C327.537 292.943 332.242 287.773 334.38 281.787C337.483 273.099 340.216 265.433 340.216 256.128C340.216 246.492 343.236 231.257 339.31 222.62C335.199 213.576 330.566 201.893 323.613 194.244C314.53 184.254 304.294 175.3 295.941 164.56C285.415 151.026 289.501 130.708 289.501 113.946C289.501 104.994 284.648 70.0936 292.218 64.037C296.956 60.2467 298.838 50.7918 303.991 45.9246C308.522 41.6452 321.917 44.1134 327.94 44.1134C372.147 44.1134 395.105 84.0592 412.263 118.374C417.094 128.036 419.189 139.757 422.627 150.07C426.753 162.448 431.407 174.637 434.802 187.201C439.495 204.564 445.402 222.22 451.104 239.324C454.289 248.879 459.368 261.817 459.757 271.926C459.925 276.29 461.568 279.814 461.568 284.102C461.568 286.044 461.568 295.074 461.568 288.63" stroke="#C9581B" stroke-width="30" stroke-linecap="round"/>
<path d="M314.859 172.711C329.3 172.711 342.438 169.088 356.919 169.088C370.774 169.088 388.094 166.222 401.395 170.497C406.391 172.103 417.45 173.224 419.91 178.145" stroke="#C9581B" stroke-width="30" stroke-linecap="round"/>
<path d="M399.987 26.0011C405.908 31.2644 412.77 38.3299 419.91 41.8997C428.971 46.43 432.849 56.8939 440.739 63.0308C451.634 71.5042 468.813 96.4495 468.813 110.324C468.813 118.5 474.08 130.771 477.467 138.298C481.943 148.245 485.428 150.761 495.982 153.693C526.012 162.035 523.428 117.953 521.238 98.2492C519.563 83.1714 517.88 68.2617 516.006 53.2702C515.426 48.6295 514.69 42.9111 512.685 38.6798C509.563 32.0874 510.068 35.3691 512.283 40.491C517.869 53.4095 520.289 69.335 524.056 82.9543C527.851 96.6747 533.393 110.705 535.829 124.713C538.185 138.261 542.281 152.022 546.294 165.063C552.46 185.104 554.982 206.825 561.589 226.645C565.603 238.689 570.019 253.421 571.953 265.989C572.73 271.038 573.767 276.085 575.274 280.982C576.637 285.414 574.113 289.944 577.487 283.196" stroke="#C9581B" stroke-width="30" stroke-linecap="round"/>
<path d="M550.319 27.812C544.779 34.9341 579 71.4872 584.732 79.9352C593.76 93.2396 603.349 105.635 610.492 120.185C618.724 136.954 623.681 156.438 628.202 174.522C633.754 196.731 639.069 221.823 639.069 244.757C639.069 258.88 642.687 278.282 638.667 291.849C636.034 300.734 630.626 311.184 626.39 319.42C621.967 328.021 619.146 331.146 619.146 319.42" stroke="#C9581B" stroke-width="30" stroke-linecap="round"/>
<path d="M640.88 199.879C645.233 199.879 659.936 202.322 662.615 198.974C665.668 195.158 676.192 192.521 680.727 191.226C691.291 188.208 695.217 173.896 695.217 163.655" stroke="#C9581B" stroke-width="30" stroke-linecap="round"/>
<path d="M637.258 31.4347C637.258 47.2421 647.185 62.403 653.76 76.313C663.677 97.2912 671.601 118.165 678.916 140.109C686.966 164.258 694.765 188.107 701.557 212.558C707.71 234.711 706.085 304.377 706.085 281.385" stroke="#C9581B" stroke-width="30" stroke-linecap="round"/>
<path d="M693.962 58.9516C693.962 66.095 706.548 77.0913 711.498 82.332C717.143 88.3088 722.384 94.5599 726.652 101.816C730.993 109.196 733.782 117.371 737.259 125.196C740.323 132.089 743.644 146.41 749.599 150.741C760.693 158.81 763.501 162.215 777.742 162.215C788.069 162.215 802.547 164.454 811.839 159.292C815.952 157.007 828.759 156.37 833.271 156.37C841.33 156.37 851.801 150.197 857.625 144.68C872.435 130.65 867.367 106.617 867.367 87.7441C867.367 77.2616 865.419 66.992 865.419 57.0032C865.419 45.1722 854.867 46.8114 846.909 42.3904C839.658 38.3618 825.217 41.4163 817.034 41.4163C797.865 41.4163 778.654 39.4679 759.341 39.4679C747.269 39.4679 732.296 39.5791 720.374 37.4113C708.473 35.2476 713.085 47.4418 705.653 51.1581" stroke="#C9581B" stroke-width="30" stroke-linecap="round"/>
<path d="M760.207 271.323C775.275 271.323 790.387 271.658 805.452 271.323C814.957 271.112 834.513 270.637 842.038 263.53C858.337 248.137 857.723 222.59 830.781 220.666C820.778 219.951 806.08 214.951 796.793 220.666C787.039 226.668 774.582 228.069 764.537 234.304C747.922 244.617 742.672 258.614 742.672 277.601C742.672 296.099 746.568 313.466 746.568 331.723C746.568 346.182 743.057 365.998 764.537 366.793C782.944 367.475 800.714 362.896 818.658 362.896C825.297 362.896 831.936 362.896 838.574 362.896C847.157 362.896 850.821 370.69 859.573 370.69" stroke="#C9581B" stroke-width="30" stroke-linecap="round"/>
<path d="M100.156 540.881C81.7722 540.881 43.743 517.939 37.2439 500.066C33.5434 489.89 48.762 489.407 55.8317 489.407C75.5657 489.407 97.6357 485.752 117.054 481.868C141.103 477.059 161.668 470.69 186.726 470.69C199.565 470.69 222.995 465.272 228.841 481.348C233.134 493.153 231.626 499.383 221.822 507.085C216.863 510.982 209.778 520.038 206.744 525.673C205.631 527.741 203.104 535.909 203.104 533.862" stroke="#54260D" stroke-width="30" stroke-linecap="round"/>
<path d="M69.7401 477.708C69.7401 458.158 52.4859 442.765 48.5525 425.065C45.5165 411.402 49.861 414.012 60.3812 409.337C68.3618 405.79 77.4857 407.176 85.0782 402.837C96.2322 396.464 108.43 389.281 120.044 384.12C139.701 375.383 176.494 350.84 181.917 388.799C183.832 402.203 180.897 414.2 176.847 426.754C172.539 440.11 170.348 482.383 170.348 468.35" stroke="#542B15" stroke-width="30" stroke-linecap="round"/>
<path d="M249.899 433.254C251.802 440.865 302.689 435.171 311.902 433.124C330.823 428.919 333.049 396.018 324.77 383.6C311.207 363.256 290.96 358.383 267.447 358.383C250.46 358.383 244.824 372.726 238.72 386.459C231.737 402.171 235.154 416.716 248.729 427.274C259.76 435.854 267.031 451.737 268.617 466.01C269.958 478.079 281.058 496.874 290.844 504.485C307.083 517.116 330.095 500.783 343.488 494.087" stroke="#542B15" stroke-width="30" stroke-linecap="round"/>
<path d="M385.603 517.484C385.603 506.446 392.856 496.637 394.832 485.767C396.762 475.154 394.962 462.764 394.962 451.971C394.962 440.495 396.006 429.043 392.622 418.045C388.55 404.813 383.263 390.944 383.263 377.1C383.263 362.238 384.063 342.004 404.321 342.004C422.372 342.004 442.574 363.686 448.775 380.74C453.629 394.087 460.474 401.523 460.474 416.356C460.474 423.725 460.435 442.073 463.984 448.462C466.323 452.672 467.317 466.81 467.493 471.209C467.859 480.342 469.833 490.169 469.833 498.766C469.833 517.643 469.946 537.698 479.192 553.879C483.306 561.079 516.711 578.15 521.307 568.958" stroke="#542B15" stroke-width="30" stroke-linecap="round"/>
<path d="M518.967 421.555C518.967 430.918 516.51 443.956 519.097 453.012C519.932 455.933 520.354 468.991 522.477 470.69C529.467 476.282 528.106 488.843 538.725 491.877C547.272 494.319 554.472 502.633 562.252 506.955C575.9 514.537 595.135 516.466 610.216 520.344C645.031 529.296 680.353 538.181 716.024 545.041C740.452 549.738 765.958 551.561 790.375 555.05C800.825 556.543 825.876 563.114 832.49 551.54C839.067 540.031 846.883 527.435 853.028 515.144C860.544 500.112 857.619 486.27 855.888 470.69C850.982 426.54 798.506 430.914 765.288 430.914C746.032 430.914 732.275 429.862 715.504 421.035C700.752 413.271 683.73 406.789 670.529 398.158C653.78 387.206 633.606 384.158 614.766 378.27C588.497 370.061 560.547 360.816 538.985 343.175C532.574 337.929 525.986 337.498 525.986 346.684C525.986 353.387 521.674 356.829 521.307 363.062C520.528 376.307 521.307 388.798 521.307 402.838" stroke="#542B15" stroke-width="30" stroke-linecap="round"/>
<path d="M66.9572 739.021C60.5534 738.221 47.4627 725.156 40.4843 721.667C31.6928 717.271 21.7781 706.134 27.8361 694.017C33.2946 683.1 52.9893 683.302 62.9863 679.457C77.8603 673.737 103.323 664.897 119.315 664.897C143.375 664.897 168.092 662.25 192.557 662.25C204.395 662.25 241.679 670.323 241.679 686.076C241.679 695.618 238.733 707.34 229.619 712.549C222.213 716.781 214.289 721.95 207.411 727.109C200.323 732.425 201.969 733.569 201.969 723.138" stroke="#C9581B" stroke-width="30" stroke-linecap="round"/>
<path d="M29.3769 689.465C29.3769 680.153 32.3905 664.713 28.5215 656.201C26.2588 651.223 24.6483 640.55 24.2447 635.102C23.5601 625.86 17.83 607.692 26.3356 600.888C32.7443 595.761 49.6026 597.086 57.6039 597.086C65.7457 597.086 73.8874 597.086 82.0292 597.086C98.7231 597.086 112.646 590.906 128.599 588.628C138.535 587.208 159.61 582.571 168.801 587.677C173.743 590.423 181.321 589.155 186.764 591.574C191.888 593.851 200.75 595.375 206.342 595.375C219.91 595.375 241.507 598.708 241.507 615.049C241.507 624.484 238.244 629.26 233.333 637.003C230.824 640.961 227.788 644.468 225.255 648.408C223.79 650.686 222.689 655.93 222.689 655.251" stroke="#C9581B" stroke-width="30" stroke-linecap="round"/>
<path d="M250.061 754.473C250.608 758.855 265.677 745.273 268.023 743.448C275.241 737.834 278.524 733.348 282.945 725.391C286.394 719.181 292.762 714.998 294.444 707.428C296.083 700.056 296.25 693.433 296.25 685.664C296.25 674.956 296.25 664.248 296.25 653.54C296.25 647.009 293.163 631.719 289.027 626.549C281.34 616.939 284.275 596.338 284.275 584.256C284.275 569.041 311.141 568.434 321.911 572.281C351.661 582.905 351.942 616.782 354.32 644.131C355.425 656.846 358.005 670.741 361.638 683.003C364.081 691.249 368.101 701.441 368.101 709.994C368.101 725.214 378.365 739.154 378.365 754.473" stroke="#C9581B" stroke-width="30" stroke-linecap="round"/>
<path d="M419.422 751.051C430.309 751.051 438.067 757.894 448.885 757.894C466.882 757.894 468.869 744.503 479.298 732.233C490.507 719.047 480.752 699.744 486.521 686.044C490.866 675.724 487.851 658.863 487.851 647.552C487.851 623.996 459.459 612.219 440.806 603.929C432.828 600.383 423.118 591.02 413.53 593.759C413.116 593.878 409.633 605.639 408.778 607.35C406.043 612.819 402.771 619.63 402.315 625.788C401.188 641.007 399.847 649.975 409.158 663.424C418.274 676.591 432.305 684.333 448.505 684.333C460.647 684.333 478.422 681.276 479.298 665.515C479.88 655.042 479.298 644.36 479.298 633.866C479.298 622.869 482.838 644.749 483.67 646.887C494.868 675.683 497.617 709.438 512.657 736.51C518.353 746.763 528.02 754.739 538.318 760.46C545.223 764.296 555.21 766.448 563.123 766.448C568.398 766.448 571.786 762.99 576.809 761.316" stroke="#C9581B" stroke-width="30" stroke-linecap="round"/>
<path d="M53.5566 944.569C46.6019 943.7 33.0827 930.623 29.4397 924.43C23.0964 913.647 32.1272 914.064 40.1307 910.507C50.9155 905.714 61.648 906.529 73.1983 906.529C86.858 906.529 100.749 904.291 113.973 904.291C133.781 904.291 177.955 894.41 187.816 916.598C192.118 926.279 189.301 931.896 182.222 938.975C179.881 941.316 176.039 945.154 173.147 946.807C170.854 948.117 168.822 949.602 167.801 952.152C166.008 956.637 166.487 942.571 165.439 937.856" stroke="#542B15" stroke-width="30" stroke-linecap="round"/>
<path d="M40.1307 902.054C40.1307 910.632 40.1307 884.899 40.1307 876.321C40.1307 867.595 37.439 862.992 33.915 855.063C28.7858 843.522 24.4133 822.363 40.628 816.526C51.2711 812.694 62.6417 809.594 73.8199 808.197C87.38 806.502 103.289 811.92 114.471 801.857C121.207 795.794 122.924 791.633 122.924 782.339C122.924 772.439 127.055 767.795 136.35 767.795C147.513 767.795 151.678 774.41 158.726 782.339C167.095 791.754 175.709 800.134 185.081 808.57C191.19 814.068 199.147 812.548 206.96 812.548C217.548 812.548 227.599 818.342 234.807 825.974C247.842 839.776 218.131 857.507 206.215 862.273C196.06 866.335 186.153 872.39 177.747 880.796C174.225 884.318 171.928 888.117 168.92 891.984C166.951 894.516 165.439 904.011 165.439 897.579" stroke="#542B15" stroke-width="30" stroke-linecap="round"/>
<path d="M272.847 794.646C290.81 798.239 292.986 832.122 292.986 846.112C292.986 867.099 266.134 875.063 266.134 895.341C266.134 910.481 277.019 906.529 289.754 906.529C296.555 906.529 309.949 909.404 315.362 904.291C320.549 899.393 327.13 894.971 333.264 891.362C349.955 881.544 346.748 848.779 353.9 832.686C357.752 824.018 357.878 812.099 357.878 802.478C357.878 795.405 357.878 799.611 357.878 804.094C357.878 816.608 357.878 829.122 357.878 841.637C357.878 872.892 353.717 902.352 343.955 931.64C335.562 956.819 318.27 978.693 291.245 984.349C275.474 987.65 260.912 987.864 245 984.971C233.549 982.889 232.223 985.539 228.094 993.797" stroke="#542B15" stroke-width="30" stroke-linecap="round"/>
<path d="M398.156 801.359C398.156 818.265 404.869 833.749 404.869 850.588C404.869 863.153 405.963 876.236 403.75 888.628C400.495 906.853 395.918 927.169 395.918 945.688C395.918 961.695 401.031 962.471 416.057 962.471C430.683 962.471 442.915 967.087 456.335 960.73C473.416 952.639 488.426 952.568 499.845 934.624C508.668 920.759 514.514 898.129 514.514 882.039C514.514 868.153 517.526 855.577 516.751 841.637C516.114 830.172 507.801 819.084 507.801 808.072" stroke="#542B15" stroke-width="30" stroke-linecap="round"/>
<path d="M442.909 960.233C442.909 944.743 453.049 930.826 456.21 916.599C459.6 901.347 460.81 886.729 460.81 870.727" stroke="#542B15" stroke-width="30" stroke-linecap="round"/>
<path d="M559.267 803.597C607.019 808.372 574.318 876.476 587.859 902.054C590.481 907.007 597.478 911.913 602.901 913.118C611.811 915.098 617.243 908.665 625.153 906.405C636.949 903.034 650.034 871.686 654.989 861.776C667.359 837.036 682.961 795.246 670.031 766.8C663.646 752.752 663.918 733.709 652.751 721.301C641.363 708.647 630.612 695.924 613.965 688.358C599.004 681.557 588.901 677.85 578.908 665.359C570.632 655.014 568.217 638.544 568.217 625.703C568.217 620.109 568.217 603.327 568.217 608.921C568.217 620.855 568.217 632.789 568.217 644.723C568.217 660.912 583.816 676.373 596.188 685.996C604.603 692.54 614.645 698.152 622.418 705.637C632.659 715.499 641.023 726.479 651.011 736.467C664.799 750.256 683.131 756.026 689.051 776.745C696.53 802.923 695.764 827.348 695.764 854.566C695.764 873.272 693.012 890.961 702.477 907.524C708.982 918.907 728.969 925.416 740.517 917.717" stroke="#542B15" stroke-width="30" stroke-linecap="round"/>
<path d="M659.961 629.06C659.961 616.845 677.859 608.298 689.051 613.894C719.45 629.093 737.949 659.397 748.349 690.595C758.053 719.708 760.29 750.817 769.109 779.48C774.246 796.174 771.746 815.469 774.206 832.687C776.534 848.984 778.231 870.588 786.389 885.271C799.03 908.025 820.424 866.139 822.813 857.301C826.051 845.32 827.785 834.909 827.785 822.493C827.785 806.403 831.038 785.769 826.667 770.032C820.608 748.221 823.802 723.971 816.1 702.405C809.839 684.876 797.559 663.428 796.458 644.724C796.205 640.414 793.726 620.161 790.864 617.872C788.267 615.794 784.704 603.325 790.864 616.877C799.958 636.884 802.932 660.244 811.625 680.526C819.756 699.499 824.944 720.985 831.142 740.818C833.653 748.853 835.169 758.116 838.476 765.557C841.784 772.999 838.861 783.534 842.33 791.166C844.363 795.637 845.422 807.527 845.687 812.548C846.387 825.849 849.689 839.079 850.162 852.328C850.506 861.959 849.359 891.663 857.994 896.46C868.664 902.388 882.923 898.557 885.965 886.39" stroke="#C9581B" stroke-width="30" stroke-linecap="round"/>
<path d="M27.1558 1248.6C27.1558 1226.75 18.4063 1210.32 18.4063 1188.45C18.4063 1158.35 64.3817 1158.92 86.2151 1158.92C109.885 1158.92 132.851 1162 156.211 1165.97C173.941 1168.98 192.296 1174.46 200.931 1191.73C205.102 1200.07 202.178 1214.63 198.744 1222.47C196.864 1226.77 182.718 1251.31 180.272 1246.41" stroke="#C9581B" stroke-width="30" stroke-linecap="round"/>
<path d="M29.3431 1163.29C29.3431 1136.1 27.1558 1109.57 27.1558 1082.36C27.1558 1052.64 38.8251 1035.4 69.9312 1029.74C96.8675 1024.84 128.664 1018.65 149.649 1040.8C163.085 1054.98 158.399 1082.16 158.399 1099.86C158.399 1117.36 158.399 1134.86 158.399 1152.36" stroke="#C9581B" stroke-width="30" stroke-linecap="round"/>
<path d="M230.582 1248.6C246.615 1248.6 248.081 1212.29 248.081 1200.36C248.081 1179.61 243.246 1162.13 234.471 1143.61C224.006 1121.52 200.707 1082.8 222.319 1058.79C235.735 1043.88 244.046 1058.64 253.55 1068.14C266.386 1080.98 281.411 1100.87 287.94 1117.84C295.695 1138.01 311.515 1160.47 311.515 1182.98C311.515 1196.19 315.89 1235.56 315.89 1222.35" stroke="#C9581B" stroke-width="30" stroke-linecap="round"/>
<path d="M331.202 1007.99C350.228 1018.56 372.56 1055.28 374.949 1077.99C376.741 1095.01 387.124 1111.2 388.074 1128.3C389.377 1151.75 399.966 1175.74 405.087 1198.78C407.302 1208.75 410.457 1218.05 412.256 1227.94C413 1232.03 418.404 1249.48 420.884 1242.04" stroke="#C9581B" stroke-width="30" stroke-linecap="round"/>
<path d="M385.886 1143.61C376.099 1154.62 364.012 1178.54 364.012 1193.92C364.012 1207.79 365.742 1221.25 366.2 1234.99C366.559 1245.77 366.2 1256.45 366.2 1237.66" stroke="#C9581B" stroke-width="30" stroke-linecap="round"/>
<path d="M335.576 1027.68C325.674 1028.91 324.857 1076.55 330.23 1083.45C342.143 1098.77 357.769 1126.21 377.137 1132.67" stroke="#C9581B" stroke-width="30" stroke-linecap="round"/>
<path d="M480.98 1254.26C480.98 1231.36 484.058 1206.22 480.108 1183.65C476.081 1160.64 467.802 1138.89 462.936 1116.18C457.749 1091.98 444.735 1070.21 437.047 1047.14" stroke="#542B15" stroke-width="30" stroke-linecap="round"/>
<path d="M383.699 1011.06C388.183 1011.06 395.097 1013.91 398.605 1016.64C406.509 1022.78 417.923 1021.77 426.412 1026.75C436.478 1032.65 454.354 1039.3 466.074 1039.3C482.004 1039.3 495.644 1029.48 503.818 1016.64C504.884 1014.96 506.674 1012.88 508.003 1011.41C509.327 1009.93 508.445 1007.95 509.572 1006.7C514.453 1001.27 518.637 1003.53 518.637 995.366" stroke="#542B15" stroke-width="30" stroke-linecap="round"/>
<path d="M523.344 1106.77C524.221 1099.75 536.201 1090.05 541.824 1086.37C552.637 1079.3 567.077 1076.15 579.045 1071.46C600.94 1062.9 618.661 1054.16 634.659 1036.16C645.788 1023.64 646.602 1006.45 645.73 990.31C644.863 974.28 624.158 974.969 613.128 974.969C602.027 974.969 596.16 978.588 587.675 985.255C579.364 991.785 574.569 1005.26 568.847 1013.85C562.516 1023.34 556.602 1032.72 548.449 1040.87C533.302 1056.02 512.695 1073.88 513.93 1097.35C514.389 1106.07 519.714 1115.17 520.206 1124.03C520.749 1133.8 526.402 1144.47 527.964 1154.62C530.665 1172.18 531.189 1190.11 531.189 1207.97C531.189 1215.87 528.668 1226.95 534.328 1232.29C542.266 1239.79 551.468 1238.57 561.786 1238.57C571.71 1238.57 584.766 1242.36 587.675 1230.72" stroke="#542B15" stroke-width="30" stroke-linecap="round"/>
<path d="M576.692 1194.63C583.461 1194.63 590.335 1194.99 597.089 1194.63C602.393 1194.36 607.216 1184.71 609.642 1180.86C623.09 1159.5 617.265 1131.93 633.177 1111.48C638.076 1105.18 640.239 1098.92 646.689 1093.95C654.753 1087.75 660.519 1081 667.696 1073.82C682.914 1058.6 687.384 1034.66 690.883 1014.54C693.893 997.238 695.733 982.814 716.685 982.814C731.383 982.814 740.349 986.61 742.662 1001.64C745.038 1017.08 738.95 1031.27 734.294 1045.66C722.947 1080.73 705.347 1113.23 688.966 1145.99C683.515 1156.9 682.861 1169.39 677.895 1180.43C675.984 1184.67 672.403 1204.39 672.403 1191.5" stroke="#542B15" stroke-width="30" stroke-linecap="round"/>
<path d="M636.315 1244.84C651.664 1244.84 666.557 1247.18 681.818 1246.41C688.946 1246.06 700.211 1243.46 706.138 1239.35C718.917 1230.51 723.88 1219.55 732.812 1207.19C749.659 1183.86 763.574 1155.02 770.905 1127.17C779.068 1096.14 790.967 1065.69 801.85 1035.46C807.327 1020.25 809.527 995.366 830.877 995.366C845.403 995.366 842.716 1008.18 846.567 1019.25C849.41 1027.42 848.136 1037.04 848.136 1045.58C848.136 1053.56 849.438 1062.84 847.788 1070.68C841.163 1102.15 843.55 1134.76 840.378 1166.48C838.046 1189.8 838.722 1213.53 838.722 1237" stroke="#542B15" stroke-width="30" stroke-linecap="round"/>
<path d="M772.822 1142.86C786.944 1142.86 801.065 1142.86 815.186 1142.86C820.006 1142.86 831.6 1141.16 834.015 1145.99" stroke="#542B15" stroke-width="30" stroke-linecap="round"/>
</g>
<defs>
<clipPath id="clip0_847_696">
<rect width="1274" height="900" fill="white" transform="matrix(0 -1 1 0 0 1274)"/>
</clipPath>
</defs>
</svg>
