<svg width="1733" height="79" viewBox="0 0 1733 79" fill="none" xmlns="http://www.w3.org/2000/svg">
<path d="M40.7946 65.56C33.2413 65.56 25.9813 64.5333 19.0146 62.48C11.9746 60.4267 5.77794 56.7967 0.42461 51.59V21.01C2.03794 19.47 4.20128 17.9667 6.91461 16.5C9.55461 15.1067 12.5979 13.8233 16.0446 12.65C19.4913 11.4767 23.3046 10.5233 27.4846 9.79C31.6646 9.13 36.0646 8.8 40.6846 8.8H53.3346V1.09999H65.4346V8.8H78.0846C82.7046 8.8 87.1046 9.13 91.2846 9.79C95.4646 10.5233 99.3146 11.4767 102.835 12.65C106.281 13.8233 109.325 15.1067 111.965 16.5C114.605 17.9667 116.731 19.47 118.345 21.01V51.59C116.365 54.01 113.871 56.1 110.865 57.86C107.785 59.62 104.448 61.05 100.855 62.15C97.2613 63.3233 93.5213 64.1667 89.6346 64.68C85.6746 65.2667 81.7879 65.56 77.9746 65.56H65.4346V77H53.3346V65.56H40.7946ZM53.3346 38.5H40.6846C33.7179 38.5 27.9979 39.27 23.5246 40.81C18.9779 42.4233 15.1646 44.44 12.0846 46.86C15.3113 49.2067 19.1613 51.0767 23.6346 52.47C28.0346 53.8633 33.7546 54.56 40.7946 54.56H53.3346V38.5ZM65.4346 54.56H77.9746C85.0146 54.56 90.7713 53.8267 95.2446 52.36C99.6446 50.9667 103.458 49.1333 106.685 46.86C103.605 44.5133 99.8279 42.5333 95.3546 40.92C90.8079 39.3067 85.0513 38.5 78.0846 38.5H65.4346V54.56ZM216.938 1.09999V27.5H145.878V33.77H183.938V43.67H145.878V50.6H216.938V77H133.778V1.09999H216.938ZM324.177 69.08C319.557 71.5733 313.874 73.7 307.127 75.46C300.38 77.22 292.497 78.1 283.477 78.1C277.024 78.1 271.084 77.55 265.657 76.45C260.23 75.4233 255.354 74.1033 251.027 72.49C246.627 70.8767 242.887 69.08 239.807 67.1C236.654 65.1933 234.16 63.36 232.327 61.6V12.87C234.087 11.1833 236.544 9.57 239.697 8.03C242.85 6.49 246.627 5.09667 251.027 3.85C255.354 2.67666 260.267 1.72333 265.767 0.989995C271.194 0.329995 277.097 -5.24521e-06 283.477 -5.24521e-06C292.35 -5.24521e-06 300.197 0.623329 307.017 1.87C313.764 3.11667 319.484 4.69333 324.177 6.6V36.63C322.637 35.6033 320.657 34.5033 318.237 33.33C315.817 32.1567 312.92 31.0567 309.547 30.03C306.174 29.0033 302.324 28.1233 297.997 27.39C293.67 26.73 288.83 26.4 283.477 26.4C276.95 26.4 271.194 26.8767 266.207 27.83C261.22 28.8567 256.93 30.03 253.337 31.35C249.744 32.67 246.847 34.0267 244.647 35.42C242.447 36.8867 240.834 38.06 239.807 38.94C240.834 39.82 242.447 40.9567 244.647 42.35C246.847 43.8167 249.744 45.2467 253.337 46.64C256.93 48.0333 261.22 49.2067 266.207 50.16C271.194 51.1867 276.95 51.7 283.477 51.7C288.83 51.7 293.67 51.3333 297.997 50.6C302.324 49.94 306.174 49.06 309.547 47.96C312.92 46.9333 315.817 45.7967 318.237 44.55C320.657 43.3767 322.637 42.2767 324.177 41.25V69.08ZM385.007 28.6V77H372.907V28.6H339.577V1.09999H418.337V28.6H385.007ZM445.821 1.09999V42.9L494.221 1.09999H506.321V77H494.221V36.3L445.821 77H433.721V1.09999H445.821ZM568.493 1.09999C573.113 1.09999 577.586 1.32 581.913 1.76C586.166 2.2 590.053 2.82333 593.573 3.62999C597.093 4.43666 600.173 5.35333 602.813 6.38C605.38 7.48 607.36 8.69 608.753 10.01V29.26C605.673 31.46 602.593 33.2933 599.513 34.76C596.36 36.2267 593.243 37.3633 590.163 38.17C593.683 38.9767 597.423 40.04 601.383 41.36C605.27 42.7533 608.826 44.5867 612.053 46.86V66C610.66 67.3933 608.606 68.75 605.893 70.07C603.18 71.4633 600.063 72.6367 596.543 73.59C592.95 74.6167 589.026 75.4233 584.773 76.01C580.52 76.67 576.193 77 571.793 77H521.743V1.09999H568.493ZM533.843 33.99H568.383C574.323 33.99 579.273 33.5867 583.233 32.78C587.12 32.0467 590.273 30.9833 592.693 29.59C590.346 28.1967 587.23 27.0233 583.343 26.07C579.383 25.19 574.433 24.75 568.493 24.75H533.843V33.99ZM533.843 53.35H571.793C577.733 53.35 582.683 52.91 586.643 52.03C590.53 51.2233 593.61 50.0867 595.883 48.62C593.463 47.3 590.31 46.1633 586.423 45.21C582.536 44.33 577.623 43.89 571.683 43.89H533.843V53.35ZM680.77 1.09999L719.82 77H707.72L700.68 63.36H648.76L641.72 77H609.82L648.87 1.09999H680.77ZM674.72 12.87L662.29 36.96H687.15L674.72 12.87ZM812.55 77H800.45V28.6H775.92V44C775.92 48.6933 775.59 53.0567 774.93 57.09C774.197 61.1233 772.73 64.6067 770.53 67.54C768.33 70.5467 765.14 72.8567 760.96 74.47C756.78 76.1567 751.207 77 744.24 77H731.92V63.8C736.1 63.8 739.18 62.6633 741.16 60.39C743.067 58.19 744.02 54.1933 744.02 48.4V1.09999H812.55V77ZM840.017 1.09999V30.14H863.557C867.37 30.14 871.147 30.3233 874.887 30.69C878.553 31.0567 882.11 31.6433 885.557 32.45C889.003 33.2567 892.303 34.3567 895.457 35.75C898.537 37.1433 901.36 38.83 903.927 40.81V68.09C902.533 69.41 900.553 70.5833 897.987 71.61C895.347 72.71 892.267 73.6633 888.747 74.47C885.227 75.2767 881.34 75.9 877.087 76.34C872.76 76.78 868.287 77 863.667 77H827.917V1.09999H840.017ZM863.667 49.5C869.607 49.5 874.557 48.9867 878.517 47.96C882.403 47.0067 885.52 45.8333 887.867 44.44C885.447 43.0467 882.293 41.9467 878.407 41.14C874.447 40.4067 869.497 40.04 863.557 40.04H840.017V49.5H863.667ZM1023.88 1.09999V77H1011.78V28.6H969.976V77H957.876V1.09999H1023.88ZM1074.99 1.09999C1079.61 1.09999 1084.08 1.32 1088.41 1.76C1092.66 2.2 1096.55 2.82333 1100.07 3.62999C1103.59 4.43666 1106.67 5.35333 1109.31 6.38C1111.87 7.48 1113.85 8.69 1115.25 10.01V37.29C1112.68 39.27 1109.86 40.9567 1106.78 42.35C1103.62 43.7433 1100.32 44.8433 1096.88 45.65C1093.43 46.4567 1089.87 47.0433 1086.21 47.41C1082.47 47.7767 1078.69 47.96 1074.88 47.96H1051.34V77H1039.24V1.09999H1074.99ZM1051.34 38.06H1074.88C1080.82 38.06 1085.77 37.6567 1089.73 36.85C1093.61 36.1167 1096.77 35.0533 1099.19 33.66C1096.84 32.2667 1093.72 31.0567 1089.84 30.03C1085.88 29.0767 1080.93 28.6 1074.99 28.6H1051.34V38.06ZM1176.26 78.1C1169.81 78.1 1163.87 77.55 1158.44 76.45C1153.01 75.4233 1148.14 74.1033 1143.81 72.49C1139.41 70.8767 1135.67 69.08 1132.59 67.1C1129.44 65.1933 1126.94 63.36 1125.11 61.6V12.87C1126.87 11.1833 1129.33 9.57 1132.48 8.03C1135.63 6.49 1139.41 5.09667 1143.81 3.85C1148.14 2.67666 1153.05 1.72333 1158.55 0.989995C1163.98 0.329995 1169.88 -5.24521e-06 1176.26 -5.24521e-06C1182.86 -5.24521e-06 1188.91 0.329995 1194.41 0.989995C1199.84 1.72333 1204.71 2.67666 1209.04 3.85C1213.29 5.02333 1216.96 6.38 1220.04 7.92C1223.12 9.53333 1225.58 11.1833 1227.41 12.87V61.6C1225.58 63.4333 1223.12 65.3033 1220.04 67.21C1216.96 69.19 1213.29 70.9867 1209.04 72.6C1204.79 74.2133 1199.95 75.5333 1194.52 76.56C1189.02 77.5867 1182.93 78.1 1176.26 78.1ZM1176.26 51.7C1182.79 51.7 1188.54 51.1867 1193.53 50.16C1198.52 49.2067 1202.81 48.0333 1206.4 46.64C1209.99 45.2467 1212.93 43.8167 1215.2 42.35C1217.4 40.9567 1218.98 39.82 1219.93 38.94C1218.98 38.06 1217.4 36.8867 1215.2 35.42C1212.93 34.0267 1209.99 32.67 1206.4 31.35C1202.81 30.03 1198.52 28.8567 1193.53 27.83C1188.54 26.8767 1182.79 26.4 1176.26 26.4C1169.73 26.4 1163.98 26.8767 1158.99 27.83C1154 28.8567 1149.71 30.03 1146.12 31.35C1142.53 32.67 1139.63 34.0267 1137.43 35.42C1135.23 36.8867 1133.62 38.06 1132.59 38.94C1133.62 39.82 1135.23 40.9567 1137.43 42.35C1139.63 43.8167 1142.53 45.2467 1146.12 46.64C1149.71 48.0333 1154 49.2067 1158.99 50.16C1163.98 51.1867 1169.73 51.7 1176.26 51.7ZM1254.88 49.5H1277.98V1.09999H1290.08V49.5H1313.18V1.09999H1325.28V77H1242.78V1.09999H1254.88V49.5ZM1420.21 77H1408.11V28.6H1383.58V44C1383.58 48.6933 1383.25 53.0567 1382.59 57.09C1381.86 61.1233 1380.39 64.6067 1378.19 67.54C1375.99 70.5467 1372.8 72.8567 1368.62 74.47C1364.44 76.1567 1358.87 77 1351.9 77H1339.58V63.8C1343.76 63.8 1346.84 62.6633 1348.82 60.39C1350.73 58.19 1351.68 54.1933 1351.68 48.4V1.09999H1420.21V77ZM1486.73 78.1C1480.28 78.1 1474.34 77.55 1468.91 76.45C1463.48 75.4233 1458.61 74.1033 1454.28 72.49C1449.88 70.8767 1446.14 69.08 1443.06 67.1C1439.91 65.1933 1437.41 63.36 1435.58 61.6V12.87C1437.34 11.1833 1439.8 9.57 1442.95 8.03C1446.1 6.49 1449.88 5.09667 1454.28 3.85C1458.61 2.67666 1463.52 1.72333 1469.02 0.989995C1474.45 0.329995 1480.35 -5.24521e-06 1486.73 -5.24521e-06C1493.33 -5.24521e-06 1499.38 0.329995 1504.88 0.989995C1510.31 1.72333 1515.18 2.67666 1519.51 3.85C1523.76 5.02333 1527.43 6.38 1530.51 7.92C1533.59 9.53333 1536.05 11.1833 1537.88 12.87V61.6C1536.05 63.4333 1533.59 65.3033 1530.51 67.21C1527.43 69.19 1523.76 70.9867 1519.51 72.6C1515.26 74.2133 1510.42 75.5333 1504.99 76.56C1499.49 77.5867 1493.4 78.1 1486.73 78.1ZM1486.73 51.7C1493.26 51.7 1499.01 51.1867 1504 50.16C1508.99 49.2067 1513.28 48.0333 1516.87 46.64C1520.46 45.2467 1523.4 43.8167 1525.67 42.35C1527.87 40.9567 1529.45 39.82 1530.4 38.94C1529.45 38.06 1527.87 36.8867 1525.67 35.42C1523.4 34.0267 1520.46 32.67 1516.87 31.35C1513.28 30.03 1508.99 28.8567 1504 27.83C1499.01 26.8767 1493.26 26.4 1486.73 26.4C1480.2 26.4 1474.45 26.8767 1469.46 27.83C1464.47 28.8567 1460.18 30.03 1456.59 31.35C1453 32.67 1450.1 34.0267 1447.9 35.42C1445.7 36.8867 1444.09 38.06 1443.06 38.94C1444.09 39.82 1445.7 40.9567 1447.9 42.35C1450.1 43.8167 1453 45.2467 1456.59 46.64C1460.18 48.0333 1464.47 49.2067 1469.46 50.16C1474.45 51.1867 1480.2 51.7 1486.73 51.7ZM1615.18 28.6H1565.35V77H1553.25V1.09999H1615.18V28.6ZM1681.68 78.1C1675.23 78.1 1669.29 77.55 1663.86 76.45C1658.43 75.4233 1653.56 74.1033 1649.23 72.49C1644.83 70.8767 1641.09 69.08 1638.01 67.1C1634.86 65.1933 1632.36 63.36 1630.53 61.6V12.87C1632.29 11.1833 1634.75 9.57 1637.9 8.03C1641.05 6.49 1644.83 5.09667 1649.23 3.85C1653.56 2.67666 1658.47 1.72333 1663.97 0.989995C1669.4 0.329995 1675.3 -5.24521e-06 1681.68 -5.24521e-06C1688.28 -5.24521e-06 1694.33 0.329995 1699.83 0.989995C1705.26 1.72333 1710.13 2.67666 1714.46 3.85C1718.71 5.02333 1722.38 6.38 1725.46 7.92C1728.54 9.53333 1731 11.1833 1732.83 12.87V61.6C1731 63.4333 1728.54 65.3033 1725.46 67.21C1722.38 69.19 1718.71 70.9867 1714.46 72.6C1710.21 74.2133 1705.37 75.5333 1699.94 76.56C1694.44 77.5867 1688.35 78.1 1681.68 78.1ZM1681.68 51.7C1688.21 51.7 1693.96 51.1867 1698.95 50.16C1703.94 49.2067 1708.23 48.0333 1711.82 46.64C1715.41 45.2467 1718.35 43.8167 1720.62 42.35C1722.82 40.9567 1724.4 39.82 1725.35 38.94C1724.4 38.06 1722.82 36.8867 1720.62 35.42C1718.35 34.0267 1715.41 32.67 1711.82 31.35C1708.23 30.03 1703.94 28.8567 1698.95 27.83C1693.96 26.8767 1688.21 26.4 1681.68 26.4C1675.15 26.4 1669.4 26.8767 1664.41 27.83C1659.42 28.8567 1655.13 30.03 1651.54 31.35C1647.95 32.67 1645.05 34.0267 1642.85 35.42C1640.65 36.8867 1639.04 38.06 1638.01 38.94C1639.04 39.82 1640.65 40.9567 1642.85 42.35C1645.05 43.8167 1647.95 45.2467 1651.54 46.64C1655.13 48.0333 1659.42 49.2067 1664.41 50.16C1669.4 51.1867 1675.15 51.7 1681.68 51.7Z" fill="#8A6330"/>
</svg>
